%TF.GenerationSoftware,KiCad,Pcbnew,10.0.3*%
%TF.CreationDate,2026-06-11T09:05:24+02:00*%
%TF.ProjectId,dataflyer-2650,64617461-666c-4796-9572-2d323635302e,1.1*%
%TF.SameCoordinates,Original*%
%TF.FileFunction,Legend,Bot*%
%TF.FilePolarity,Positive*%
%FSLAX46Y46*%
G04 Gerber Fmt 4.6, Leading zero omitted, Abs format (unit mm)*
G04 Created by KiCad (PCBNEW 10.0.3) date 2026-06-11 09:05:24*
%MOMM*%
%LPD*%
G01*
G04 APERTURE LIST*
%ADD10C,0.150000*%
%ADD11C,0.100000*%
%ADD12C,0.120000*%
G04 APERTURE END LIST*
D10*
X131833333Y-110454819D02*
X131833333Y-111169104D01*
X131833333Y-111169104D02*
X131880952Y-111311961D01*
X131880952Y-111311961D02*
X131976190Y-111407200D01*
X131976190Y-111407200D02*
X132119047Y-111454819D01*
X132119047Y-111454819D02*
X132214285Y-111454819D01*
X130833333Y-111454819D02*
X131404761Y-111454819D01*
X131119047Y-111454819D02*
X131119047Y-110454819D01*
X131119047Y-110454819D02*
X131214285Y-110597676D01*
X131214285Y-110597676D02*
X131309523Y-110692914D01*
X131309523Y-110692914D02*
X131404761Y-110740533D01*
D11*
X130469485Y-116895163D02*
X129707580Y-116466591D01*
X129707580Y-116466591D02*
X129707580Y-117323734D01*
X129707580Y-117323734D02*
X130469485Y-116895163D01*
%TO.C,J1*%
D12*
X130750000Y-112210000D02*
X130750000Y-114810000D01*
X130750000Y-112210000D02*
X163890000Y-112210000D01*
X130750000Y-114810000D02*
X133350000Y-114810000D01*
X130750000Y-116080000D02*
X130750000Y-117410000D01*
X130750000Y-117410000D02*
X132080000Y-117410000D01*
X133350000Y-114810000D02*
X133350000Y-117410000D01*
X133350000Y-117410000D02*
X163890000Y-117410000D01*
X163890000Y-112210000D02*
X163890000Y-117410000D01*
%TD*%
M02*
