%TF.GenerationSoftware,KiCad,Pcbnew,10.0.3*%
%TF.CreationDate,2026-06-11T18:02:48+02:00*%
%TF.ProjectId,dataflyer-2650,64617461-666c-4796-9572-2d323635302e,1.4*%
%TF.SameCoordinates,Original*%
%TF.FileFunction,Copper,L2,Bot*%
%TF.FilePolarity,Positive*%
%FSLAX46Y46*%
G04 Gerber Fmt 4.6, Leading zero omitted, Abs format (unit mm)*
G04 Created by KiCad (PCBNEW 10.0.3) date 2026-06-11 18:02:48*
%MOMM*%
%LPD*%
G01*
G04 APERTURE LIST*
G04 Aperture macros list*
%AMRoundRect*
0 Rectangle with rounded corners*
0 $1 Rounding radius*
0 $2 $3 $4 $5 $6 $7 $8 $9 X,Y pos of 4 corners*
0 Add a 4 corners polygon primitive as box body*
4,1,4,$2,$3,$4,$5,$6,$7,$8,$9,$2,$3,0*
0 Add four circle primitives for the rounded corners*
1,1,$1+$1,$2,$3*
1,1,$1+$1,$4,$5*
1,1,$1+$1,$6,$7*
1,1,$1+$1,$8,$9*
0 Add four rect primitives between the rounded corners*
20,1,$1+$1,$2,$3,$4,$5,0*
20,1,$1+$1,$4,$5,$6,$7,0*
20,1,$1+$1,$6,$7,$8,$9,0*
20,1,$1+$1,$8,$9,$2,$3,0*%
G04 Aperture macros list end*
%TA.AperFunction,ComponentPad*%
%ADD10RoundRect,0.250000X0.600000X-0.600000X0.600000X0.600000X-0.600000X0.600000X-0.600000X-0.600000X0*%
%TD*%
%TA.AperFunction,ComponentPad*%
%ADD11C,1.700000*%
%TD*%
%TA.AperFunction,ComponentPad*%
%ADD12R,1.700000X1.700000*%
%TD*%
%TA.AperFunction,ViaPad*%
%ADD13C,0.800000*%
%TD*%
%TA.AperFunction,Conductor*%
%ADD14C,0.500000*%
%TD*%
%TA.AperFunction,Conductor*%
%ADD15C,0.250000*%
%TD*%
G04 APERTURE END LIST*
D10*
%TO.P,J2,1,Pin_1_1*%
%TO.N,GND*%
X102362000Y-100634800D03*
D11*
%TO.P,J2,2,Pin_2_2*%
%TO.N,DB0*%
X102362000Y-98094800D03*
%TO.P,J2,3,Pin_3_3*%
%TO.N,GND*%
X104902000Y-100634800D03*
%TO.P,J2,4,Pin_4_4*%
%TO.N,DB1*%
X104902000Y-98094800D03*
%TO.P,J2,5,Pin_5_5*%
%TO.N,GND*%
X107442000Y-100634800D03*
%TO.P,J2,6,Pin_6_6*%
%TO.N,DB2*%
X107442000Y-98094800D03*
%TO.P,J2,7,Pin_7_7*%
%TO.N,GND*%
X109982000Y-100634800D03*
%TO.P,J2,8,Pin_8_8*%
%TO.N,DB3*%
X109982000Y-98094800D03*
%TO.P,J2,9,Pin_9_9*%
%TO.N,GND*%
X112522000Y-100634800D03*
%TO.P,J2,10,Pin_10_10*%
%TO.N,DB4*%
X112522000Y-98094800D03*
%TO.P,J2,11,Pin_11_11*%
%TO.N,GND*%
X115062000Y-100634800D03*
%TO.P,J2,12,Pin_12_12*%
%TO.N,DB5*%
X115062000Y-98094800D03*
%TO.P,J2,13,Pin_13_13*%
%TO.N,GND*%
X117602000Y-100634800D03*
%TO.P,J2,14,Pin_14_14*%
%TO.N,DB6*%
X117602000Y-98094800D03*
%TO.P,J2,15,Pin_15_15*%
%TO.N,GND*%
X120142000Y-100634800D03*
%TO.P,J2,16,Pin_16_16*%
%TO.N,DB7*%
X120142000Y-98094800D03*
%TO.P,J2,17,Pin_17_17*%
%TO.N,GND*%
X122682000Y-100634800D03*
%TO.P,J2,18,Pin_18_18*%
%TO.N,DBP*%
X122682000Y-98094800D03*
%TO.P,J2,19,Pin_19_19*%
%TO.N,GND*%
X125222000Y-100634800D03*
%TO.P,J2,20,Pin_20_20*%
X125222000Y-98094800D03*
%TO.P,J2,21,Pin_21_21*%
X127762000Y-100634800D03*
%TO.P,J2,22,Pin_22_22*%
X127762000Y-98094800D03*
%TO.P,J2,23,Pin_23_23*%
X130302000Y-100634800D03*
%TO.P,J2,24,Pin_24_24*%
X130302000Y-98094800D03*
%TO.P,J2,25,Pin_25_25*%
%TO.N,unconnected-(J2-Pin_25-Pad25)*%
X132842000Y-100634800D03*
%TO.P,J2,26,Pin_26_26*%
%TO.N,TERMPWR*%
X132842000Y-98094800D03*
%TO.P,J2,27,Pin_27_27*%
%TO.N,GND*%
X135382000Y-100634800D03*
%TO.P,J2,28,Pin_28_28*%
X135382000Y-98094800D03*
%TO.P,J2,29,Pin_29_29*%
X137922000Y-100634800D03*
%TO.P,J2,30,Pin_30_30*%
X137922000Y-98094800D03*
%TO.P,J2,31,Pin_31_31*%
X140462000Y-100634800D03*
%TO.P,J2,32,Pin_32_32*%
%TO.N,ATN*%
X140462000Y-98094800D03*
%TO.P,J2,33,Pin_33_33*%
%TO.N,GND*%
X143002000Y-100634800D03*
%TO.P,J2,34,Pin_34_34*%
%TO.N,unconnected-(J2-Pin_34-Pad34)*%
X143002000Y-98094800D03*
%TO.P,J2,35,Pin_35_35*%
%TO.N,GND*%
X145542000Y-100634800D03*
%TO.P,J2,36,Pin_36_36*%
%TO.N,BSY*%
X145542000Y-98094800D03*
%TO.P,J2,37,Pin_37_37*%
%TO.N,GND*%
X148082000Y-100634800D03*
%TO.P,J2,38,Pin_38_38*%
%TO.N,ACK*%
X148082000Y-98094800D03*
%TO.P,J2,39,Pin_39_39*%
%TO.N,GND*%
X150622000Y-100634800D03*
%TO.P,J2,40,Pin_40_40*%
%TO.N,RST*%
X150622000Y-98094800D03*
%TO.P,J2,41,Pin_41_41*%
%TO.N,GND*%
X153162000Y-100634800D03*
%TO.P,J2,42,Pin_42_42*%
%TO.N,MSG*%
X153162000Y-98094800D03*
%TO.P,J2,43,Pin_43_43*%
%TO.N,GND*%
X155702000Y-100634800D03*
%TO.P,J2,44,Pin_44_44*%
%TO.N,SEL*%
X155702000Y-98094800D03*
%TO.P,J2,45,Pin_45_45*%
%TO.N,GND*%
X158242000Y-100634800D03*
%TO.P,J2,46,Pin_46_46*%
%TO.N,CD*%
X158242000Y-98094800D03*
%TO.P,J2,47,Pin_47_47*%
%TO.N,GND*%
X160782000Y-100634800D03*
%TO.P,J2,48,Pin_48_48*%
%TO.N,REQ*%
X160782000Y-98094800D03*
%TO.P,J2,49,Pin_49_49*%
%TO.N,GND*%
X163322000Y-100634800D03*
%TO.P,J2,50,Pin_50_50*%
%TO.N,IO*%
X163322000Y-98094800D03*
%TD*%
D12*
%TO.P,J1,1,Pin_1_1*%
%TO.N,REQ*%
X131763432Y-115772079D03*
D11*
%TO.P,J1,2,Pin_2_2*%
%TO.N,GND*%
X131763432Y-113232079D03*
%TO.P,J1,3,Pin_3_3*%
%TO.N,MSG*%
X134303432Y-115772079D03*
%TO.P,J1,4,Pin_4_4*%
%TO.N,CD*%
X134303432Y-113232079D03*
%TO.P,J1,5,Pin_5_5*%
%TO.N,IO*%
X136843432Y-115772079D03*
%TO.P,J1,6,Pin_6_6*%
%TO.N,GND*%
X136843432Y-113232079D03*
%TO.P,J1,7,Pin_7_7*%
%TO.N,RST*%
X139383432Y-115772079D03*
%TO.P,J1,8,Pin_8_8*%
%TO.N,ATN*%
X139383432Y-113232079D03*
%TO.P,J1,9,Pin_9_9*%
%TO.N,ACK*%
X141923432Y-115772079D03*
%TO.P,J1,10,Pin_10_10*%
%TO.N,GND*%
X141923432Y-113232079D03*
%TO.P,J1,11,Pin_11_11*%
%TO.N,BSY*%
X144463432Y-115772079D03*
%TO.P,J1,12,Pin_12_12*%
%TO.N,SEL*%
X144463432Y-113232079D03*
%TO.P,J1,13,Pin_13_13*%
%TO.N,GND*%
X147003432Y-115772079D03*
%TO.P,J1,14,Pin_14_14*%
%TO.N,DBP*%
X147003432Y-113232079D03*
%TO.P,J1,15,Pin_15_15*%
%TO.N,DB0*%
X149543432Y-115772079D03*
%TO.P,J1,16,Pin_16_16*%
%TO.N,DB1*%
X149543432Y-113232079D03*
%TO.P,J1,17,Pin_17_17*%
%TO.N,GND*%
X152083432Y-115772079D03*
%TO.P,J1,18,Pin_18_18*%
%TO.N,DB2*%
X152083432Y-113232079D03*
%TO.P,J1,19,Pin_19_19*%
%TO.N,DB3*%
X154623432Y-115772079D03*
%TO.P,J1,20,Pin_20_20*%
%TO.N,DB4*%
X154623432Y-113232079D03*
%TO.P,J1,21,Pin_21_21*%
%TO.N,DB5*%
X157163432Y-115772079D03*
%TO.P,J1,22,Pin_22_22*%
%TO.N,GND*%
X157163432Y-113232079D03*
%TO.P,J1,23,Pin_23_23*%
%TO.N,DB6*%
X159703432Y-115772079D03*
%TO.P,J1,24,Pin_24_24*%
%TO.N,TERMPWR*%
X159703432Y-113232079D03*
%TO.P,J1,25,Pin_25_25*%
%TO.N,DB7*%
X162243432Y-115772079D03*
%TO.P,J1,26,Pin_26_26*%
%TO.N,GND*%
X162243432Y-113232079D03*
%TD*%
D13*
%TO.N,GND*%
X151000000Y-110500000D03*
X166500000Y-116500000D03*
X166500000Y-97500000D03*
X172000000Y-116500000D03*
X157000000Y-106000000D03*
X143000000Y-104500000D03*
X100000000Y-99500000D03*
X166000000Y-109500000D03*
X156000000Y-104000000D03*
X153500000Y-110500000D03*
X171000000Y-97500000D03*
X138500000Y-117500000D03*
X169500000Y-116500000D03*
X118500000Y-96000000D03*
X150000000Y-118000000D03*
X100000000Y-97000000D03*
X151500000Y-106000000D03*
X137000000Y-109000000D03*
X139500000Y-111500000D03*
X130500000Y-102500000D03*
X151000000Y-108500000D03*
X166500000Y-105500000D03*
X158000000Y-117500000D03*
X140500000Y-117500000D03*
X173000000Y-97500000D03*
X143000000Y-111500000D03*
X144500000Y-117500000D03*
X133000000Y-102500000D03*
X133000000Y-108000000D03*
X121500000Y-96500000D03*
X160500000Y-102500000D03*
X113000000Y-95000000D03*
X153500000Y-118000000D03*
X163500000Y-102500000D03*
X162500000Y-110500000D03*
X158000000Y-102500000D03*
X133000000Y-106000000D03*
X133000000Y-111500000D03*
X115500000Y-95500000D03*
X156000000Y-118000000D03*
X109000000Y-95500000D03*
X157000000Y-110500000D03*
X155500000Y-106000000D03*
X140000000Y-104500000D03*
X106000000Y-95500000D03*
X133000000Y-109500000D03*
X166500000Y-102500000D03*
X147000000Y-117500000D03*
%TO.N,DB2*%
X167987347Y-94012653D03*
X169724161Y-93965116D03*
%TO.N,DB3*%
X168500000Y-95000000D03*
X171175000Y-95000000D03*
%TO.N,DB4*%
X168987347Y-106775000D03*
X169000000Y-109000000D03*
%TO.N,DB5*%
X167987344Y-106775000D03*
X168000000Y-109225000D03*
%TO.N,DB6*%
X161000000Y-109225000D03*
X161500000Y-106500000D03*
%TO.N,DB7*%
X119500000Y-109500000D03*
%TO.N,DBP*%
X147500000Y-110500000D03*
X141000000Y-110500000D03*
%TO.N,TERMPWR*%
X159703186Y-106725000D03*
X159703186Y-109275000D03*
%TO.N,ACK*%
X144227000Y-102773000D03*
%TO.N,MSG*%
X149474695Y-106000000D03*
X147491999Y-107982696D03*
X135500000Y-111500000D03*
%TO.N,SEL*%
X146000000Y-103000000D03*
X147500000Y-103000000D03*
%TO.N,CD*%
X147225000Y-105993694D03*
X140000000Y-106000000D03*
X134500000Y-108000000D03*
%TO.N,REQ*%
X147491999Y-106957391D03*
%TO.N,IO*%
X138500000Y-109500000D03*
X138208432Y-111791568D03*
X147500000Y-109500000D03*
X141000000Y-109500000D03*
%TD*%
%TO.N,GND*%
D14*
X109000000Y-95500000D02*
X112500000Y-95500000D01*
X121000000Y-96000000D02*
X121500000Y-96500000D01*
X166000000Y-106000000D02*
X166500000Y-105500000D01*
X169500000Y-116500000D02*
X172000000Y-116500000D01*
X157500000Y-118000000D02*
X158000000Y-117500000D01*
X106000000Y-95500000D02*
X109000000Y-95500000D01*
X166500000Y-116500000D02*
X169500000Y-116500000D01*
X166500000Y-97500000D02*
X171000000Y-97500000D01*
X157000000Y-110500000D02*
X162500000Y-110500000D01*
X130500000Y-102500000D02*
X133000000Y-102500000D01*
X156000000Y-118000000D02*
X157500000Y-118000000D01*
X155500000Y-104500000D02*
X156000000Y-104000000D01*
X166500000Y-102500000D02*
X163500000Y-102500000D01*
X160500000Y-102500000D02*
X158000000Y-102500000D01*
X139500000Y-111500000D02*
X143000000Y-111500000D01*
X140000000Y-104500000D02*
X143000000Y-104500000D01*
X155500000Y-106000000D02*
X155500000Y-104500000D01*
X153500000Y-118000000D02*
X156000000Y-118000000D01*
X118500000Y-96000000D02*
X121000000Y-96000000D01*
X151000000Y-108500000D02*
X151000000Y-106500000D01*
X166000000Y-109500000D02*
X166000000Y-106000000D01*
X144500000Y-117500000D02*
X147000000Y-117500000D01*
X133000000Y-111500000D02*
X133000000Y-109500000D01*
X151000000Y-110500000D02*
X153500000Y-110500000D01*
X151000000Y-106500000D02*
X151500000Y-106000000D01*
X113000000Y-95000000D02*
X115000000Y-95000000D01*
X115500000Y-95500000D02*
X118000000Y-95500000D01*
X100000000Y-99500000D02*
X100000000Y-97000000D01*
X171000000Y-97500000D02*
X173000000Y-97500000D01*
X157000000Y-110500000D02*
X157000000Y-106000000D01*
X150000000Y-118000000D02*
X153500000Y-118000000D01*
X153500000Y-110500000D02*
X157000000Y-110500000D01*
X115000000Y-95000000D02*
X115500000Y-95500000D01*
X118000000Y-95500000D02*
X118500000Y-96000000D01*
X112500000Y-95500000D02*
X113000000Y-95000000D01*
%TO.N,DB2*%
D15*
X169689277Y-94000000D02*
X169724161Y-93965116D01*
X168000000Y-94000000D02*
X169689277Y-94000000D01*
X167987347Y-94012653D02*
X168000000Y-94000000D01*
%TO.N,DB3*%
X168500000Y-95000000D02*
X171175000Y-95000000D01*
%TO.N,DB4*%
X168987347Y-106775000D02*
X169000000Y-106787653D01*
X169000000Y-106787653D02*
X169000000Y-109000000D01*
%TO.N,DB5*%
X168000000Y-106787656D02*
X167987344Y-106775000D01*
X168000000Y-109225000D02*
X168000000Y-106787656D01*
%TO.N,DB6*%
X161000000Y-107000000D02*
X161000000Y-109225000D01*
X161500000Y-106500000D02*
X161000000Y-107000000D01*
%TO.N,DB7*%
X118917000Y-99319800D02*
X118917000Y-108917000D01*
X118917000Y-108917000D02*
X119500000Y-109500000D01*
X120142000Y-98094800D02*
X118917000Y-99319800D01*
%TO.N,DBP*%
X141000000Y-110500000D02*
X147500000Y-110500000D01*
%TO.N,TERMPWR*%
D14*
X159703186Y-106725000D02*
X159703186Y-109275000D01*
%TO.N,ACK*%
D15*
X144227000Y-102773000D02*
X144227000Y-100217388D01*
X144227000Y-100217388D02*
X145174588Y-99269800D01*
X145174588Y-99269800D02*
X146907000Y-99269800D01*
X146907000Y-99269800D02*
X148082000Y-98094800D01*
%TO.N,RST*%
X148000000Y-118500000D02*
X148228432Y-118271568D01*
X149397000Y-99319800D02*
X150622000Y-98094800D01*
X139383432Y-115772079D02*
X139383432Y-118383432D01*
X139500000Y-118500000D02*
X148000000Y-118500000D01*
X149397000Y-101103000D02*
X149397000Y-99319800D01*
X148228432Y-118271568D02*
X148228432Y-102271568D01*
X148228432Y-102271568D02*
X149397000Y-101103000D01*
X139383432Y-118383432D02*
X139500000Y-118500000D01*
%TO.N,MSG*%
X149474695Y-106000000D02*
X150000000Y-106000000D01*
X151937000Y-99319800D02*
X153162000Y-98094800D01*
X146000000Y-108000000D02*
X136000000Y-108000000D01*
X150000000Y-106000000D02*
X151937000Y-104063000D01*
X147491999Y-107982696D02*
X146017304Y-107982696D01*
X135500000Y-108500000D02*
X135500000Y-111500000D01*
X146017304Y-107982696D02*
X146000000Y-108000000D01*
X136000000Y-108000000D02*
X135500000Y-108500000D01*
X151937000Y-104063000D02*
X151937000Y-99319800D01*
%TO.N,SEL*%
X147500000Y-103000000D02*
X146000000Y-103000000D01*
%TO.N,CD*%
X147218694Y-106000000D02*
X140000000Y-106000000D01*
X134303432Y-113232079D02*
X134303432Y-108196568D01*
X134303432Y-108196568D02*
X134500000Y-108000000D01*
X147225000Y-105993694D02*
X147218694Y-106000000D01*
%TO.N,REQ*%
X147491999Y-106957391D02*
X129542609Y-106957391D01*
X129371591Y-107128409D02*
X129371591Y-113380238D01*
X129371591Y-113380238D02*
X131763432Y-115772079D01*
X129542609Y-106957391D02*
X129371591Y-107128409D01*
%TO.N,IO*%
X141000000Y-109500000D02*
X147500000Y-109500000D01*
X138500000Y-109500000D02*
X138208432Y-109791568D01*
X138208432Y-109791568D02*
X138208432Y-111791568D01*
%TD*%
%TA.AperFunction,Conductor*%
%TO.N,GND*%
G36*
X129453228Y-114064087D02*
G01*
X129459835Y-114070230D01*
X130576613Y-115187008D01*
X130610098Y-115248331D01*
X130612932Y-115274689D01*
X130612932Y-116666935D01*
X130612934Y-116666961D01*
X130615845Y-116692066D01*
X130615847Y-116692070D01*
X130661225Y-116794843D01*
X130661226Y-116794844D01*
X130740667Y-116874285D01*
X130843441Y-116919664D01*
X130868567Y-116922579D01*
X132658296Y-116922578D01*
X132658311Y-116922576D01*
X132658314Y-116922576D01*
X132683419Y-116919665D01*
X132683420Y-116919664D01*
X132683423Y-116919664D01*
X132786197Y-116874285D01*
X132865638Y-116794844D01*
X132911017Y-116692070D01*
X132913932Y-116666944D01*
X132913931Y-115929204D01*
X132933615Y-115862168D01*
X132986419Y-115816413D01*
X133055578Y-115806469D01*
X133119134Y-115835494D01*
X133156908Y-115894272D01*
X133160404Y-115909808D01*
X133181261Y-116041489D01*
X133237219Y-116213715D01*
X133237220Y-116213718D01*
X133319438Y-116375076D01*
X133425873Y-116521573D01*
X133425877Y-116521578D01*
X133553932Y-116649633D01*
X133553937Y-116649637D01*
X133656622Y-116724241D01*
X133700438Y-116756075D01*
X133776526Y-116794844D01*
X133861792Y-116838290D01*
X133861795Y-116838291D01*
X133928577Y-116859989D01*
X134034023Y-116894250D01*
X134116861Y-116907370D01*
X134212881Y-116922579D01*
X134212886Y-116922579D01*
X134393983Y-116922579D01*
X134480691Y-116908844D01*
X134572841Y-116894250D01*
X134745071Y-116838290D01*
X134906426Y-116756075D01*
X135052933Y-116649632D01*
X135180985Y-116521580D01*
X135287428Y-116375073D01*
X135369643Y-116213718D01*
X135425603Y-116041488D01*
X135439854Y-115951504D01*
X135450959Y-115881400D01*
X135480888Y-115818265D01*
X135540200Y-115781334D01*
X135610062Y-115782332D01*
X135668295Y-115820942D01*
X135695905Y-115881400D01*
X135721261Y-116041489D01*
X135777219Y-116213715D01*
X135777220Y-116213718D01*
X135859438Y-116375076D01*
X135965873Y-116521573D01*
X135965877Y-116521578D01*
X136093932Y-116649633D01*
X136093937Y-116649637D01*
X136196622Y-116724241D01*
X136240438Y-116756075D01*
X136316526Y-116794844D01*
X136401792Y-116838290D01*
X136401795Y-116838291D01*
X136468577Y-116859989D01*
X136574023Y-116894250D01*
X136656861Y-116907370D01*
X136752881Y-116922579D01*
X136752886Y-116922579D01*
X136933983Y-116922579D01*
X137020691Y-116908844D01*
X137112841Y-116894250D01*
X137285071Y-116838290D01*
X137446426Y-116756075D01*
X137592933Y-116649632D01*
X137720985Y-116521580D01*
X137827428Y-116375073D01*
X137909643Y-116213718D01*
X137965603Y-116041488D01*
X137979854Y-115951504D01*
X137990959Y-115881400D01*
X138020888Y-115818265D01*
X138080200Y-115781334D01*
X138150062Y-115782332D01*
X138208295Y-115820942D01*
X138235905Y-115881400D01*
X138261261Y-116041489D01*
X138317219Y-116213715D01*
X138317220Y-116213718D01*
X138399438Y-116375076D01*
X138505873Y-116521573D01*
X138505877Y-116521578D01*
X138633932Y-116649633D01*
X138633937Y-116649637D01*
X138780433Y-116756072D01*
X138780435Y-116756073D01*
X138780438Y-116756075D01*
X138890228Y-116812016D01*
X138941023Y-116859989D01*
X138957932Y-116922500D01*
X138957932Y-118327414D01*
X138957932Y-118439450D01*
X138986929Y-118547669D01*
X139042947Y-118644695D01*
X139042949Y-118644697D01*
X139186071Y-118787819D01*
X139219556Y-118849142D01*
X139214572Y-118918834D01*
X139172700Y-118974767D01*
X139107236Y-118999184D01*
X139098390Y-118999500D01*
X129378607Y-118999500D01*
X129311568Y-118979815D01*
X129265813Y-118927011D01*
X129254607Y-118875670D01*
X129249899Y-115433690D01*
X129248154Y-114158080D01*
X129267747Y-114091014D01*
X129320488Y-114045187D01*
X129389633Y-114035149D01*
X129453228Y-114064087D01*
G37*
%TD.AperFunction*%
%TA.AperFunction,Conductor*%
G36*
X173682539Y-93020185D02*
G01*
X173728294Y-93072989D01*
X173739500Y-93124500D01*
X173739500Y-118875500D01*
X173719815Y-118942539D01*
X173667011Y-118988294D01*
X173615500Y-118999500D01*
X148401610Y-118999500D01*
X148334571Y-118979815D01*
X148288816Y-118927011D01*
X148278872Y-118857853D01*
X148307897Y-118794297D01*
X148313929Y-118787819D01*
X148568917Y-118532831D01*
X148624935Y-118435805D01*
X148653932Y-118327586D01*
X148653932Y-118215549D01*
X148653932Y-116791280D01*
X148673617Y-116724241D01*
X148726421Y-116678486D01*
X148795579Y-116668542D01*
X148850816Y-116690961D01*
X148940438Y-116756075D01*
X148999169Y-116786000D01*
X149101792Y-116838290D01*
X149101795Y-116838291D01*
X149168577Y-116859989D01*
X149274023Y-116894250D01*
X149356861Y-116907370D01*
X149452881Y-116922579D01*
X149452886Y-116922579D01*
X149633983Y-116922579D01*
X149720691Y-116908844D01*
X149812841Y-116894250D01*
X149985071Y-116838290D01*
X150146426Y-116756075D01*
X150292933Y-116649632D01*
X150420985Y-116521580D01*
X150527428Y-116375073D01*
X150609643Y-116213718D01*
X150643191Y-116110467D01*
X150682628Y-116052791D01*
X150746986Y-116025592D01*
X150815833Y-116037506D01*
X150867309Y-116084750D01*
X150879053Y-116110465D01*
X150925014Y-116251916D01*
X151014336Y-116427222D01*
X151069508Y-116503158D01*
X151069509Y-116503159D01*
X151615412Y-115957255D01*
X151617507Y-115965072D01*
X151683333Y-116079086D01*
X151776425Y-116172178D01*
X151890439Y-116238004D01*
X151898254Y-116240098D01*
X151352350Y-116786001D01*
X151428288Y-116841174D01*
X151603596Y-116930497D01*
X151790726Y-116991300D01*
X151985050Y-117022079D01*
X152181814Y-117022079D01*
X152376137Y-116991300D01*
X152563267Y-116930497D01*
X152738575Y-116841174D01*
X152814511Y-116786001D01*
X152814512Y-116786000D01*
X152268610Y-116240098D01*
X152276425Y-116238004D01*
X152390439Y-116172178D01*
X152483531Y-116079086D01*
X152549357Y-115965072D01*
X152551451Y-115957256D01*
X153097353Y-116503159D01*
X153097354Y-116503158D01*
X153152527Y-116427222D01*
X153241850Y-116251914D01*
X153287810Y-116110466D01*
X153327247Y-116052791D01*
X153391606Y-116025592D01*
X153460452Y-116037507D01*
X153511928Y-116084751D01*
X153523672Y-116110466D01*
X153557219Y-116213715D01*
X153557220Y-116213718D01*
X153639438Y-116375076D01*
X153745873Y-116521573D01*
X153745877Y-116521578D01*
X153873932Y-116649633D01*
X153873937Y-116649637D01*
X153976622Y-116724241D01*
X154020438Y-116756075D01*
X154096526Y-116794844D01*
X154181792Y-116838290D01*
X154181795Y-116838291D01*
X154248577Y-116859989D01*
X154354023Y-116894250D01*
X154436861Y-116907370D01*
X154532881Y-116922579D01*
X154532886Y-116922579D01*
X154713983Y-116922579D01*
X154800691Y-116908844D01*
X154892841Y-116894250D01*
X155065071Y-116838290D01*
X155226426Y-116756075D01*
X155372933Y-116649632D01*
X155500985Y-116521580D01*
X155607428Y-116375073D01*
X155689643Y-116213718D01*
X155745603Y-116041488D01*
X155759854Y-115951504D01*
X155770959Y-115881400D01*
X155800888Y-115818265D01*
X155860200Y-115781334D01*
X155930062Y-115782332D01*
X155988295Y-115820942D01*
X156015905Y-115881400D01*
X156041261Y-116041489D01*
X156097219Y-116213715D01*
X156097220Y-116213718D01*
X156179438Y-116375076D01*
X156285873Y-116521573D01*
X156285877Y-116521578D01*
X156413932Y-116649633D01*
X156413937Y-116649637D01*
X156516622Y-116724241D01*
X156560438Y-116756075D01*
X156636526Y-116794844D01*
X156721792Y-116838290D01*
X156721795Y-116838291D01*
X156788577Y-116859989D01*
X156894023Y-116894250D01*
X156976861Y-116907370D01*
X157072881Y-116922579D01*
X157072886Y-116922579D01*
X157253983Y-116922579D01*
X157340691Y-116908844D01*
X157432841Y-116894250D01*
X157605071Y-116838290D01*
X157766426Y-116756075D01*
X157912933Y-116649632D01*
X158040985Y-116521580D01*
X158147428Y-116375073D01*
X158229643Y-116213718D01*
X158285603Y-116041488D01*
X158299854Y-115951504D01*
X158310959Y-115881400D01*
X158340888Y-115818265D01*
X158400200Y-115781334D01*
X158470062Y-115782332D01*
X158528295Y-115820942D01*
X158555905Y-115881400D01*
X158581261Y-116041489D01*
X158637219Y-116213715D01*
X158637220Y-116213718D01*
X158719438Y-116375076D01*
X158825873Y-116521573D01*
X158825877Y-116521578D01*
X158953932Y-116649633D01*
X158953937Y-116649637D01*
X159056622Y-116724241D01*
X159100438Y-116756075D01*
X159176526Y-116794844D01*
X159261792Y-116838290D01*
X159261795Y-116838291D01*
X159328577Y-116859989D01*
X159434023Y-116894250D01*
X159516861Y-116907370D01*
X159612881Y-116922579D01*
X159612886Y-116922579D01*
X159793983Y-116922579D01*
X159880691Y-116908844D01*
X159972841Y-116894250D01*
X160145071Y-116838290D01*
X160306426Y-116756075D01*
X160452933Y-116649632D01*
X160580985Y-116521580D01*
X160687428Y-116375073D01*
X160769643Y-116213718D01*
X160825603Y-116041488D01*
X160839854Y-115951504D01*
X160850959Y-115881400D01*
X160880888Y-115818265D01*
X160940200Y-115781334D01*
X161010062Y-115782332D01*
X161068295Y-115820942D01*
X161095905Y-115881400D01*
X161121261Y-116041489D01*
X161177219Y-116213715D01*
X161177220Y-116213718D01*
X161259438Y-116375076D01*
X161365873Y-116521573D01*
X161365877Y-116521578D01*
X161493932Y-116649633D01*
X161493937Y-116649637D01*
X161596622Y-116724241D01*
X161640438Y-116756075D01*
X161716526Y-116794844D01*
X161801792Y-116838290D01*
X161801795Y-116838291D01*
X161868577Y-116859989D01*
X161974023Y-116894250D01*
X162056861Y-116907370D01*
X162152881Y-116922579D01*
X162152886Y-116922579D01*
X162333983Y-116922579D01*
X162420691Y-116908844D01*
X162512841Y-116894250D01*
X162685071Y-116838290D01*
X162846426Y-116756075D01*
X162992933Y-116649632D01*
X163120985Y-116521580D01*
X163227428Y-116375073D01*
X163309643Y-116213718D01*
X163365603Y-116041488D01*
X163380197Y-115949338D01*
X163393932Y-115862630D01*
X163393932Y-115681527D01*
X163371987Y-115542977D01*
X163365603Y-115502670D01*
X163309643Y-115330440D01*
X163309643Y-115330439D01*
X163267806Y-115248331D01*
X163227428Y-115169085D01*
X163134368Y-115040998D01*
X163120990Y-115022584D01*
X163120986Y-115022579D01*
X162992931Y-114894524D01*
X162992926Y-114894520D01*
X162846429Y-114788085D01*
X162846428Y-114788084D01*
X162846426Y-114788083D01*
X162787689Y-114758155D01*
X162685071Y-114705867D01*
X162685068Y-114705866D01*
X162581819Y-114672319D01*
X162524143Y-114632882D01*
X162496945Y-114568523D01*
X162508860Y-114499677D01*
X162556104Y-114448201D01*
X162581819Y-114436457D01*
X162723267Y-114390497D01*
X162898575Y-114301174D01*
X162974511Y-114246001D01*
X162974512Y-114246000D01*
X162428610Y-113700098D01*
X162436425Y-113698004D01*
X162550439Y-113632178D01*
X162643531Y-113539086D01*
X162709357Y-113425072D01*
X162711451Y-113417256D01*
X163257353Y-113963159D01*
X163257354Y-113963158D01*
X163312527Y-113887222D01*
X163401850Y-113711914D01*
X163462653Y-113524784D01*
X163493432Y-113330461D01*
X163493432Y-113133696D01*
X163462653Y-112939373D01*
X163401850Y-112752243D01*
X163312527Y-112576935D01*
X163257354Y-112500998D01*
X163257354Y-112500997D01*
X162711450Y-113046900D01*
X162709357Y-113039086D01*
X162643531Y-112925072D01*
X162550439Y-112831980D01*
X162436425Y-112766154D01*
X162428609Y-112764059D01*
X162974512Y-112218156D01*
X162974511Y-112218155D01*
X162898575Y-112162983D01*
X162723267Y-112073660D01*
X162536137Y-112012857D01*
X162341814Y-111982079D01*
X162145050Y-111982079D01*
X161950726Y-112012857D01*
X161763596Y-112073660D01*
X161588287Y-112162984D01*
X161588278Y-112162990D01*
X161512351Y-112218154D01*
X161512350Y-112218155D01*
X162058255Y-112764059D01*
X162050439Y-112766154D01*
X161936425Y-112831980D01*
X161843333Y-112925072D01*
X161777507Y-113039086D01*
X161775412Y-113046901D01*
X161229508Y-112500997D01*
X161229507Y-112500998D01*
X161174343Y-112576925D01*
X161174337Y-112576934D01*
X161085013Y-112752241D01*
X161039053Y-112893692D01*
X160999615Y-112951367D01*
X160935256Y-112978565D01*
X160866410Y-112966650D01*
X160814934Y-112919406D01*
X160803191Y-112893690D01*
X160769645Y-112790445D01*
X160769643Y-112790439D01*
X160709479Y-112672363D01*
X160687428Y-112629085D01*
X160613004Y-112526648D01*
X160580990Y-112482584D01*
X160580986Y-112482579D01*
X160452931Y-112354524D01*
X160452926Y-112354520D01*
X160306429Y-112248085D01*
X160306428Y-112248084D01*
X160306426Y-112248083D01*
X160247689Y-112218155D01*
X160145071Y-112165867D01*
X160145068Y-112165866D01*
X159972842Y-112109908D01*
X159793983Y-112081579D01*
X159793978Y-112081579D01*
X159612886Y-112081579D01*
X159612881Y-112081579D01*
X159434021Y-112109908D01*
X159261795Y-112165866D01*
X159261792Y-112165867D01*
X159100434Y-112248085D01*
X158953937Y-112354520D01*
X158953932Y-112354524D01*
X158825877Y-112482579D01*
X158825873Y-112482584D01*
X158719438Y-112629081D01*
X158637220Y-112790439D01*
X158637219Y-112790442D01*
X158603672Y-112893691D01*
X158564234Y-112951367D01*
X158499876Y-112978565D01*
X158431029Y-112966650D01*
X158379554Y-112919406D01*
X158367810Y-112893691D01*
X158321850Y-112752243D01*
X158232527Y-112576935D01*
X158177354Y-112500998D01*
X158177354Y-112500997D01*
X157631450Y-113046900D01*
X157629357Y-113039086D01*
X157563531Y-112925072D01*
X157470439Y-112831980D01*
X157356425Y-112766154D01*
X157348609Y-112764059D01*
X157894512Y-112218156D01*
X157894511Y-112218155D01*
X157818575Y-112162983D01*
X157643267Y-112073660D01*
X157456137Y-112012857D01*
X157261814Y-111982079D01*
X157065050Y-111982079D01*
X156870726Y-112012857D01*
X156683596Y-112073660D01*
X156508287Y-112162984D01*
X156508278Y-112162990D01*
X156432351Y-112218154D01*
X156432350Y-112218155D01*
X156978255Y-112764059D01*
X156970439Y-112766154D01*
X156856425Y-112831980D01*
X156763333Y-112925072D01*
X156697507Y-113039086D01*
X156695412Y-113046901D01*
X156149508Y-112500997D01*
X156149507Y-112500998D01*
X156094343Y-112576925D01*
X156094337Y-112576934D01*
X156005013Y-112752241D01*
X155959053Y-112893692D01*
X155919615Y-112951367D01*
X155855256Y-112978565D01*
X155786410Y-112966650D01*
X155734934Y-112919406D01*
X155723191Y-112893690D01*
X155689645Y-112790445D01*
X155689643Y-112790439D01*
X155629479Y-112672363D01*
X155607428Y-112629085D01*
X155533004Y-112526648D01*
X155500990Y-112482584D01*
X155500986Y-112482579D01*
X155372931Y-112354524D01*
X155372926Y-112354520D01*
X155226429Y-112248085D01*
X155226428Y-112248084D01*
X155226426Y-112248083D01*
X155167689Y-112218155D01*
X155065071Y-112165867D01*
X155065068Y-112165866D01*
X154892842Y-112109908D01*
X154713983Y-112081579D01*
X154713978Y-112081579D01*
X154532886Y-112081579D01*
X154532881Y-112081579D01*
X154354021Y-112109908D01*
X154181795Y-112165866D01*
X154181792Y-112165867D01*
X154020434Y-112248085D01*
X153873937Y-112354520D01*
X153873932Y-112354524D01*
X153745877Y-112482579D01*
X153745873Y-112482584D01*
X153639438Y-112629081D01*
X153557220Y-112790439D01*
X153557219Y-112790442D01*
X153501261Y-112962668D01*
X153475905Y-113122757D01*
X153445976Y-113185892D01*
X153386664Y-113222823D01*
X153316801Y-113221825D01*
X153258569Y-113183215D01*
X153230959Y-113122757D01*
X153217172Y-113035718D01*
X153205603Y-112962670D01*
X153149643Y-112790440D01*
X153149643Y-112790439D01*
X153089479Y-112672363D01*
X153067428Y-112629085D01*
X152993004Y-112526648D01*
X152960990Y-112482584D01*
X152960986Y-112482579D01*
X152832931Y-112354524D01*
X152832926Y-112354520D01*
X152686429Y-112248085D01*
X152686428Y-112248084D01*
X152686426Y-112248083D01*
X152627689Y-112218155D01*
X152525071Y-112165867D01*
X152525068Y-112165866D01*
X152352842Y-112109908D01*
X152173983Y-112081579D01*
X152173978Y-112081579D01*
X151992886Y-112081579D01*
X151992881Y-112081579D01*
X151814021Y-112109908D01*
X151641795Y-112165866D01*
X151641792Y-112165867D01*
X151480434Y-112248085D01*
X151333937Y-112354520D01*
X151333932Y-112354524D01*
X151205877Y-112482579D01*
X151205873Y-112482584D01*
X151099438Y-112629081D01*
X151017220Y-112790439D01*
X151017219Y-112790442D01*
X150961261Y-112962668D01*
X150935905Y-113122757D01*
X150905976Y-113185892D01*
X150846664Y-113222823D01*
X150776801Y-113221825D01*
X150718569Y-113183215D01*
X150690959Y-113122757D01*
X150677172Y-113035718D01*
X150665603Y-112962670D01*
X150609643Y-112790440D01*
X150609643Y-112790439D01*
X150549479Y-112672363D01*
X150527428Y-112629085D01*
X150453004Y-112526648D01*
X150420990Y-112482584D01*
X150420986Y-112482579D01*
X150292931Y-112354524D01*
X150292926Y-112354520D01*
X150146429Y-112248085D01*
X150146428Y-112248084D01*
X150146426Y-112248083D01*
X150087689Y-112218155D01*
X149985071Y-112165867D01*
X149985068Y-112165866D01*
X149812842Y-112109908D01*
X149633983Y-112081579D01*
X149633978Y-112081579D01*
X149452886Y-112081579D01*
X149452881Y-112081579D01*
X149274021Y-112109908D01*
X149101795Y-112165866D01*
X149101792Y-112165867D01*
X148940438Y-112248082D01*
X148850817Y-112313196D01*
X148785010Y-112336675D01*
X148716957Y-112320849D01*
X148668262Y-112270743D01*
X148653932Y-112212877D01*
X148653932Y-106793995D01*
X159002685Y-106793995D01*
X159029604Y-106929322D01*
X159029607Y-106929332D01*
X159082408Y-107056806D01*
X159082409Y-107056807D01*
X159082411Y-107056811D01*
X159125148Y-107120771D01*
X159131788Y-107130708D01*
X159152666Y-107197385D01*
X159152686Y-107199599D01*
X159152686Y-108800399D01*
X159133001Y-108867438D01*
X159131788Y-108869290D01*
X159082414Y-108943182D01*
X159082407Y-108943195D01*
X159029607Y-109070667D01*
X159029604Y-109070677D01*
X159002686Y-109206004D01*
X159002686Y-109206007D01*
X159002686Y-109343993D01*
X159002686Y-109343995D01*
X159002685Y-109343995D01*
X159029604Y-109479322D01*
X159029607Y-109479332D01*
X159082407Y-109606804D01*
X159082414Y-109606817D01*
X159159071Y-109721541D01*
X159159074Y-109721545D01*
X159256640Y-109819111D01*
X159256644Y-109819114D01*
X159371368Y-109895771D01*
X159371381Y-109895778D01*
X159456679Y-109931109D01*
X159498858Y-109948580D01*
X159498862Y-109948580D01*
X159498863Y-109948581D01*
X159634190Y-109975500D01*
X159634193Y-109975500D01*
X159772181Y-109975500D01*
X159863227Y-109957389D01*
X159907514Y-109948580D01*
X160034997Y-109895775D01*
X160149728Y-109819114D01*
X160247300Y-109721542D01*
X160266930Y-109692162D01*
X160320541Y-109647357D01*
X160389865Y-109638648D01*
X160452893Y-109668802D01*
X160457714Y-109673371D01*
X160553454Y-109769111D01*
X160553458Y-109769114D01*
X160668182Y-109845771D01*
X160668195Y-109845778D01*
X160788890Y-109895771D01*
X160795672Y-109898580D01*
X160795676Y-109898580D01*
X160795677Y-109898581D01*
X160931004Y-109925500D01*
X160931007Y-109925500D01*
X161068995Y-109925500D01*
X161160041Y-109907389D01*
X161204328Y-109898580D01*
X161331811Y-109845775D01*
X161446542Y-109769114D01*
X161544114Y-109671542D01*
X161620775Y-109556811D01*
X161626036Y-109544111D01*
X161663936Y-109452610D01*
X161673580Y-109429328D01*
X161690554Y-109343993D01*
X161700500Y-109293995D01*
X161700500Y-109156004D01*
X161673581Y-109020677D01*
X161673580Y-109020676D01*
X161673580Y-109020672D01*
X161646745Y-108955886D01*
X161620778Y-108893195D01*
X161620771Y-108893182D01*
X161544114Y-108778458D01*
X161544111Y-108778454D01*
X161461819Y-108696162D01*
X161428334Y-108634839D01*
X161425500Y-108608481D01*
X161425500Y-107324500D01*
X161445185Y-107257461D01*
X161497989Y-107211706D01*
X161549500Y-107200500D01*
X161568995Y-107200500D01*
X161660041Y-107182389D01*
X161704328Y-107173580D01*
X161831811Y-107120775D01*
X161946542Y-107044114D01*
X162044114Y-106946542D01*
X162112634Y-106843995D01*
X167286843Y-106843995D01*
X167313762Y-106979322D01*
X167313765Y-106979332D01*
X167366565Y-107106804D01*
X167366572Y-107106817D01*
X167443229Y-107221541D01*
X167443232Y-107221545D01*
X167538181Y-107316494D01*
X167571666Y-107377817D01*
X167574500Y-107404175D01*
X167574500Y-108608481D01*
X167554815Y-108675520D01*
X167538181Y-108696162D01*
X167455888Y-108778454D01*
X167455885Y-108778458D01*
X167379228Y-108893182D01*
X167379221Y-108893195D01*
X167326421Y-109020667D01*
X167326418Y-109020677D01*
X167299500Y-109156004D01*
X167299500Y-109156007D01*
X167299500Y-109293993D01*
X167299500Y-109293995D01*
X167299499Y-109293995D01*
X167326418Y-109429322D01*
X167326421Y-109429332D01*
X167379221Y-109556804D01*
X167379228Y-109556817D01*
X167455885Y-109671541D01*
X167455888Y-109671545D01*
X167553454Y-109769111D01*
X167553458Y-109769114D01*
X167668182Y-109845771D01*
X167668195Y-109845778D01*
X167788890Y-109895771D01*
X167795672Y-109898580D01*
X167795676Y-109898580D01*
X167795677Y-109898581D01*
X167931004Y-109925500D01*
X167931007Y-109925500D01*
X168068995Y-109925500D01*
X168160041Y-109907389D01*
X168204328Y-109898580D01*
X168331811Y-109845775D01*
X168446542Y-109769114D01*
X168544114Y-109671542D01*
X168544116Y-109671538D01*
X168547978Y-109666834D01*
X168550124Y-109668595D01*
X168594478Y-109631412D01*
X168663789Y-109622597D01*
X168691592Y-109630469D01*
X168795672Y-109673580D01*
X168795676Y-109673580D01*
X168795677Y-109673581D01*
X168931004Y-109700500D01*
X168931007Y-109700500D01*
X169068995Y-109700500D01*
X169160041Y-109682389D01*
X169204328Y-109673580D01*
X169331811Y-109620775D01*
X169446542Y-109544114D01*
X169544114Y-109446542D01*
X169620775Y-109331811D01*
X169673580Y-109204328D01*
X169698064Y-109081239D01*
X169700500Y-109068995D01*
X169700500Y-108931004D01*
X169673581Y-108795677D01*
X169673580Y-108795676D01*
X169673580Y-108795672D01*
X169656984Y-108755605D01*
X169620778Y-108668195D01*
X169620771Y-108668182D01*
X169544114Y-108553458D01*
X169544111Y-108553454D01*
X169461819Y-108471162D01*
X169428334Y-108409839D01*
X169425500Y-108383481D01*
X169425500Y-107378865D01*
X169445185Y-107311826D01*
X169461814Y-107291188D01*
X169531461Y-107221542D01*
X169608122Y-107106811D01*
X169660927Y-106979328D01*
X169687847Y-106843993D01*
X169687847Y-106706007D01*
X169687847Y-106706004D01*
X169660928Y-106570677D01*
X169660927Y-106570676D01*
X169660927Y-106570672D01*
X169653546Y-106552852D01*
X169608125Y-106443195D01*
X169608118Y-106443182D01*
X169531461Y-106328458D01*
X169531458Y-106328454D01*
X169433892Y-106230888D01*
X169433888Y-106230885D01*
X169319164Y-106154228D01*
X169319151Y-106154221D01*
X169191679Y-106101421D01*
X169191669Y-106101418D01*
X169056342Y-106074500D01*
X169056340Y-106074500D01*
X168918354Y-106074500D01*
X168918352Y-106074500D01*
X168783024Y-106101418D01*
X168783014Y-106101421D01*
X168655542Y-106154221D01*
X168655524Y-106154231D01*
X168556235Y-106220574D01*
X168489558Y-106241452D01*
X168422178Y-106222967D01*
X168418454Y-106220574D01*
X168319161Y-106154228D01*
X168319148Y-106154221D01*
X168191676Y-106101421D01*
X168191666Y-106101418D01*
X168056339Y-106074500D01*
X168056337Y-106074500D01*
X167918351Y-106074500D01*
X167918349Y-106074500D01*
X167783021Y-106101418D01*
X167783011Y-106101421D01*
X167655539Y-106154221D01*
X167655526Y-106154228D01*
X167540802Y-106230885D01*
X167540798Y-106230888D01*
X167443232Y-106328454D01*
X167443229Y-106328458D01*
X167366572Y-106443182D01*
X167366565Y-106443195D01*
X167313765Y-106570667D01*
X167313762Y-106570677D01*
X167286844Y-106706004D01*
X167286844Y-106706007D01*
X167286844Y-106843993D01*
X167286844Y-106843995D01*
X167286843Y-106843995D01*
X162112634Y-106843995D01*
X162120775Y-106831811D01*
X162121821Y-106829287D01*
X162136440Y-106793993D01*
X162173580Y-106704328D01*
X162190969Y-106616908D01*
X162200500Y-106568995D01*
X162200500Y-106431004D01*
X162173581Y-106295677D01*
X162173580Y-106295676D01*
X162173580Y-106295672D01*
X162166448Y-106278454D01*
X162120778Y-106168195D01*
X162120771Y-106168182D01*
X162044114Y-106053458D01*
X162044111Y-106053454D01*
X161946545Y-105955888D01*
X161946541Y-105955885D01*
X161831817Y-105879228D01*
X161831804Y-105879221D01*
X161704332Y-105826421D01*
X161704322Y-105826418D01*
X161568995Y-105799500D01*
X161568993Y-105799500D01*
X161431007Y-105799500D01*
X161431005Y-105799500D01*
X161295677Y-105826418D01*
X161295667Y-105826421D01*
X161168195Y-105879221D01*
X161168182Y-105879228D01*
X161053458Y-105955885D01*
X161053454Y-105955888D01*
X160955888Y-106053454D01*
X160955885Y-106053458D01*
X160879228Y-106168182D01*
X160879221Y-106168195D01*
X160826421Y-106295667D01*
X160826418Y-106295677D01*
X160799500Y-106431004D01*
X160799500Y-106547388D01*
X160790855Y-106576828D01*
X160784333Y-106606813D01*
X160780577Y-106611829D01*
X160779815Y-106614427D01*
X160763183Y-106635067D01*
X160738738Y-106659513D01*
X160738737Y-106659515D01*
X160659515Y-106738737D01*
X160635073Y-106781072D01*
X160584505Y-106829287D01*
X160515898Y-106842509D01*
X160451034Y-106816541D01*
X160410506Y-106759627D01*
X160403686Y-106719071D01*
X160403686Y-106656004D01*
X160376767Y-106520677D01*
X160376766Y-106520676D01*
X160376766Y-106520672D01*
X160376383Y-106519748D01*
X160323964Y-106393195D01*
X160323957Y-106393182D01*
X160247300Y-106278458D01*
X160247297Y-106278454D01*
X160149731Y-106180888D01*
X160149727Y-106180885D01*
X160035003Y-106104228D01*
X160034990Y-106104221D01*
X159907518Y-106051421D01*
X159907508Y-106051418D01*
X159772181Y-106024500D01*
X159772179Y-106024500D01*
X159634193Y-106024500D01*
X159634191Y-106024500D01*
X159498863Y-106051418D01*
X159498853Y-106051421D01*
X159371381Y-106104221D01*
X159371368Y-106104228D01*
X159256644Y-106180885D01*
X159256640Y-106180888D01*
X159159074Y-106278454D01*
X159159071Y-106278458D01*
X159082414Y-106393182D01*
X159082407Y-106393195D01*
X159029607Y-106520667D01*
X159029604Y-106520677D01*
X159002686Y-106656004D01*
X159002686Y-106656007D01*
X159002686Y-106793993D01*
X159002686Y-106793995D01*
X159002685Y-106793995D01*
X148653932Y-106793995D01*
X148653932Y-106441281D01*
X148673617Y-106374242D01*
X148726421Y-106328487D01*
X148795579Y-106318543D01*
X148859135Y-106347568D01*
X148881034Y-106372390D01*
X148930580Y-106446542D01*
X149028149Y-106544111D01*
X149028153Y-106544114D01*
X149142877Y-106620771D01*
X149142890Y-106620778D01*
X149236406Y-106659513D01*
X149270367Y-106673580D01*
X149270371Y-106673580D01*
X149270372Y-106673581D01*
X149405699Y-106700500D01*
X149405702Y-106700500D01*
X149543690Y-106700500D01*
X149668244Y-106675724D01*
X149679023Y-106673580D01*
X149806506Y-106620775D01*
X149921237Y-106544114D01*
X150011390Y-106453960D01*
X150012342Y-106453049D01*
X150025311Y-106446324D01*
X150066025Y-106422818D01*
X150164237Y-106396503D01*
X150261263Y-106340485D01*
X152277485Y-104324263D01*
X152333503Y-104227237D01*
X152362500Y-104119018D01*
X152362500Y-104006981D01*
X152362500Y-101832692D01*
X152382185Y-101765653D01*
X152434989Y-101719898D01*
X152504147Y-101709954D01*
X152542795Y-101722207D01*
X152682164Y-101793218D01*
X152869294Y-101854021D01*
X153063618Y-101884800D01*
X153260382Y-101884800D01*
X153454705Y-101854021D01*
X153641835Y-101793218D01*
X153817143Y-101703895D01*
X153893079Y-101648722D01*
X153893080Y-101648722D01*
X153347177Y-101102819D01*
X153354993Y-101100725D01*
X153469007Y-101034899D01*
X153562099Y-100941807D01*
X153627925Y-100827793D01*
X153630019Y-100819977D01*
X154175921Y-101365880D01*
X154175922Y-101365879D01*
X154231097Y-101289941D01*
X154231097Y-101289940D01*
X154321515Y-101112485D01*
X154369489Y-101061688D01*
X154437310Y-101044893D01*
X154503445Y-101067430D01*
X154542485Y-101112485D01*
X154632902Y-101289941D01*
X154688076Y-101365879D01*
X154688077Y-101365880D01*
X155233980Y-100819976D01*
X155236075Y-100827793D01*
X155301901Y-100941807D01*
X155394993Y-101034899D01*
X155509007Y-101100725D01*
X155516822Y-101102819D01*
X154970918Y-101648722D01*
X155046856Y-101703895D01*
X155222164Y-101793218D01*
X155409294Y-101854021D01*
X155603618Y-101884800D01*
X155800382Y-101884800D01*
X155994705Y-101854021D01*
X156181835Y-101793218D01*
X156357143Y-101703895D01*
X156433079Y-101648722D01*
X156433080Y-101648721D01*
X155887178Y-101102819D01*
X155894993Y-101100725D01*
X156009007Y-101034899D01*
X156102099Y-100941807D01*
X156167925Y-100827793D01*
X156170019Y-100819977D01*
X156715921Y-101365880D01*
X156715922Y-101365879D01*
X156771097Y-101289941D01*
X156771097Y-101289940D01*
X156861515Y-101112485D01*
X156909489Y-101061688D01*
X156977310Y-101044893D01*
X157043445Y-101067430D01*
X157082485Y-101112485D01*
X157172902Y-101289941D01*
X157228076Y-101365879D01*
X157228077Y-101365880D01*
X157773980Y-100819976D01*
X157776075Y-100827793D01*
X157841901Y-100941807D01*
X157934993Y-101034899D01*
X158049007Y-101100725D01*
X158056822Y-101102819D01*
X157510918Y-101648722D01*
X157586856Y-101703895D01*
X157762164Y-101793218D01*
X157949294Y-101854021D01*
X158143618Y-101884800D01*
X158340382Y-101884800D01*
X158534705Y-101854021D01*
X158721835Y-101793218D01*
X158897143Y-101703895D01*
X158973079Y-101648722D01*
X158973080Y-101648721D01*
X158427178Y-101102819D01*
X158434993Y-101100725D01*
X158549007Y-101034899D01*
X158642099Y-100941807D01*
X158707925Y-100827793D01*
X158710019Y-100819977D01*
X159255921Y-101365880D01*
X159255922Y-101365879D01*
X159311097Y-101289941D01*
X159311097Y-101289940D01*
X159401515Y-101112485D01*
X159449489Y-101061688D01*
X159517310Y-101044893D01*
X159583445Y-101067430D01*
X159622485Y-101112485D01*
X159712902Y-101289941D01*
X159768076Y-101365879D01*
X159768077Y-101365880D01*
X160313980Y-100819976D01*
X160316075Y-100827793D01*
X160381901Y-100941807D01*
X160474993Y-101034899D01*
X160589007Y-101100725D01*
X160596822Y-101102819D01*
X160050918Y-101648722D01*
X160126856Y-101703895D01*
X160302164Y-101793218D01*
X160489294Y-101854021D01*
X160683618Y-101884800D01*
X160880382Y-101884800D01*
X161074705Y-101854021D01*
X161261835Y-101793218D01*
X161437143Y-101703895D01*
X161513079Y-101648722D01*
X161513080Y-101648721D01*
X160967178Y-101102819D01*
X160974993Y-101100725D01*
X161089007Y-101034899D01*
X161182099Y-100941807D01*
X161247925Y-100827793D01*
X161250019Y-100819977D01*
X161795921Y-101365880D01*
X161795922Y-101365879D01*
X161851097Y-101289941D01*
X161851097Y-101289940D01*
X161941515Y-101112485D01*
X161989489Y-101061688D01*
X162057310Y-101044893D01*
X162123445Y-101067430D01*
X162162485Y-101112485D01*
X162252902Y-101289941D01*
X162308076Y-101365879D01*
X162308077Y-101365880D01*
X162853980Y-100819976D01*
X162856075Y-100827793D01*
X162921901Y-100941807D01*
X163014993Y-101034899D01*
X163129007Y-101100725D01*
X163136822Y-101102819D01*
X162590918Y-101648722D01*
X162666856Y-101703895D01*
X162842164Y-101793218D01*
X163029294Y-101854021D01*
X163223618Y-101884800D01*
X163420382Y-101884800D01*
X163614705Y-101854021D01*
X163801835Y-101793218D01*
X163977143Y-101703895D01*
X164053079Y-101648722D01*
X164053080Y-101648721D01*
X163507178Y-101102819D01*
X163514993Y-101100725D01*
X163629007Y-101034899D01*
X163722099Y-100941807D01*
X163787925Y-100827793D01*
X163790019Y-100819977D01*
X164335921Y-101365880D01*
X164335922Y-101365879D01*
X164391095Y-101289943D01*
X164480418Y-101114635D01*
X164541221Y-100927505D01*
X164572000Y-100733182D01*
X164572000Y-100536417D01*
X164541221Y-100342094D01*
X164480418Y-100154964D01*
X164391095Y-99979656D01*
X164335922Y-99903719D01*
X164335922Y-99903718D01*
X163790018Y-100449621D01*
X163787925Y-100441807D01*
X163722099Y-100327793D01*
X163629007Y-100234701D01*
X163514993Y-100168875D01*
X163507177Y-100166780D01*
X164053080Y-99620877D01*
X164053079Y-99620876D01*
X163977143Y-99565704D01*
X163801837Y-99476382D01*
X163660386Y-99430421D01*
X163602711Y-99390983D01*
X163575513Y-99326624D01*
X163587428Y-99257778D01*
X163634672Y-99206302D01*
X163660388Y-99194559D01*
X163763633Y-99161013D01*
X163763639Y-99161011D01*
X163784631Y-99150315D01*
X163924994Y-99078796D01*
X164071501Y-98972353D01*
X164199553Y-98844301D01*
X164305996Y-98697794D01*
X164388211Y-98536439D01*
X164444171Y-98364209D01*
X164458765Y-98272059D01*
X164472500Y-98185351D01*
X164472500Y-98004248D01*
X164456019Y-97900197D01*
X164444171Y-97825391D01*
X164401708Y-97694701D01*
X164388212Y-97653163D01*
X164388211Y-97653160D01*
X164358474Y-97594800D01*
X164305996Y-97491806D01*
X164212936Y-97363719D01*
X164199558Y-97345305D01*
X164199554Y-97345300D01*
X164071499Y-97217245D01*
X164071494Y-97217241D01*
X163924997Y-97110806D01*
X163924996Y-97110805D01*
X163924994Y-97110804D01*
X163866257Y-97080876D01*
X163763639Y-97028588D01*
X163763636Y-97028587D01*
X163591410Y-96972629D01*
X163412551Y-96944300D01*
X163412546Y-96944300D01*
X163231454Y-96944300D01*
X163231449Y-96944300D01*
X163052589Y-96972629D01*
X162880363Y-97028587D01*
X162880360Y-97028588D01*
X162719002Y-97110806D01*
X162572505Y-97217241D01*
X162572500Y-97217245D01*
X162444445Y-97345300D01*
X162444441Y-97345305D01*
X162338006Y-97491802D01*
X162255788Y-97653160D01*
X162255787Y-97653163D01*
X162199829Y-97825389D01*
X162174473Y-97985478D01*
X162144544Y-98048613D01*
X162085232Y-98085544D01*
X162015369Y-98084546D01*
X161957137Y-98045936D01*
X161929527Y-97985478D01*
X161915740Y-97898439D01*
X161904171Y-97825391D01*
X161861708Y-97694701D01*
X161848212Y-97653163D01*
X161848211Y-97653160D01*
X161818474Y-97594800D01*
X161765996Y-97491806D01*
X161672936Y-97363719D01*
X161659558Y-97345305D01*
X161659554Y-97345300D01*
X161531499Y-97217245D01*
X161531494Y-97217241D01*
X161384997Y-97110806D01*
X161384996Y-97110805D01*
X161384994Y-97110804D01*
X161326257Y-97080876D01*
X161223639Y-97028588D01*
X161223636Y-97028587D01*
X161051410Y-96972629D01*
X160872551Y-96944300D01*
X160872546Y-96944300D01*
X160691454Y-96944300D01*
X160691449Y-96944300D01*
X160512589Y-96972629D01*
X160340363Y-97028587D01*
X160340360Y-97028588D01*
X160179002Y-97110806D01*
X160032505Y-97217241D01*
X160032500Y-97217245D01*
X159904445Y-97345300D01*
X159904441Y-97345305D01*
X159798006Y-97491802D01*
X159715788Y-97653160D01*
X159715787Y-97653163D01*
X159659829Y-97825389D01*
X159634473Y-97985478D01*
X159604544Y-98048613D01*
X159545232Y-98085544D01*
X159475369Y-98084546D01*
X159417137Y-98045936D01*
X159389527Y-97985478D01*
X159375740Y-97898439D01*
X159364171Y-97825391D01*
X159321708Y-97694701D01*
X159308212Y-97653163D01*
X159308211Y-97653160D01*
X159278474Y-97594800D01*
X159225996Y-97491806D01*
X159132936Y-97363719D01*
X159119558Y-97345305D01*
X159119554Y-97345300D01*
X158991499Y-97217245D01*
X158991494Y-97217241D01*
X158844997Y-97110806D01*
X158844996Y-97110805D01*
X158844994Y-97110804D01*
X158786257Y-97080876D01*
X158683639Y-97028588D01*
X158683636Y-97028587D01*
X158511410Y-96972629D01*
X158332551Y-96944300D01*
X158332546Y-96944300D01*
X158151454Y-96944300D01*
X158151449Y-96944300D01*
X157972589Y-96972629D01*
X157800363Y-97028587D01*
X157800360Y-97028588D01*
X157639002Y-97110806D01*
X157492505Y-97217241D01*
X157492500Y-97217245D01*
X157364445Y-97345300D01*
X157364441Y-97345305D01*
X157258006Y-97491802D01*
X157175788Y-97653160D01*
X157175787Y-97653163D01*
X157119829Y-97825389D01*
X157094473Y-97985478D01*
X157064544Y-98048613D01*
X157005232Y-98085544D01*
X156935369Y-98084546D01*
X156877137Y-98045936D01*
X156849527Y-97985478D01*
X156835740Y-97898439D01*
X156824171Y-97825391D01*
X156781708Y-97694701D01*
X156768212Y-97653163D01*
X156768211Y-97653160D01*
X156738474Y-97594800D01*
X156685996Y-97491806D01*
X156592936Y-97363719D01*
X156579558Y-97345305D01*
X156579554Y-97345300D01*
X156451499Y-97217245D01*
X156451494Y-97217241D01*
X156304997Y-97110806D01*
X156304996Y-97110805D01*
X156304994Y-97110804D01*
X156246257Y-97080876D01*
X156143639Y-97028588D01*
X156143636Y-97028587D01*
X155971410Y-96972629D01*
X155792551Y-96944300D01*
X155792546Y-96944300D01*
X155611454Y-96944300D01*
X155611449Y-96944300D01*
X155432589Y-96972629D01*
X155260363Y-97028587D01*
X155260360Y-97028588D01*
X155099002Y-97110806D01*
X154952505Y-97217241D01*
X154952500Y-97217245D01*
X154824445Y-97345300D01*
X154824441Y-97345305D01*
X154718006Y-97491802D01*
X154635788Y-97653160D01*
X154635787Y-97653163D01*
X154579829Y-97825389D01*
X154554473Y-97985478D01*
X154524544Y-98048613D01*
X154465232Y-98085544D01*
X154395369Y-98084546D01*
X154337137Y-98045936D01*
X154309527Y-97985478D01*
X154295740Y-97898439D01*
X154284171Y-97825391D01*
X154241708Y-97694701D01*
X154228212Y-97653163D01*
X154228211Y-97653160D01*
X154198474Y-97594800D01*
X154145996Y-97491806D01*
X154052936Y-97363719D01*
X154039558Y-97345305D01*
X154039554Y-97345300D01*
X153911499Y-97217245D01*
X153911494Y-97217241D01*
X153764997Y-97110806D01*
X153764996Y-97110805D01*
X153764994Y-97110804D01*
X153706257Y-97080876D01*
X153603639Y-97028588D01*
X153603636Y-97028587D01*
X153431410Y-96972629D01*
X153252551Y-96944300D01*
X153252546Y-96944300D01*
X153071454Y-96944300D01*
X153071449Y-96944300D01*
X152892589Y-96972629D01*
X152720363Y-97028587D01*
X152720360Y-97028588D01*
X152559002Y-97110806D01*
X152412505Y-97217241D01*
X152412500Y-97217245D01*
X152284445Y-97345300D01*
X152284441Y-97345305D01*
X152178006Y-97491802D01*
X152095788Y-97653160D01*
X152095787Y-97653163D01*
X152039829Y-97825389D01*
X152014473Y-97985478D01*
X151984544Y-98048613D01*
X151925232Y-98085544D01*
X151855369Y-98084546D01*
X151797137Y-98045936D01*
X151769527Y-97985478D01*
X151755740Y-97898439D01*
X151744171Y-97825391D01*
X151701708Y-97694701D01*
X151688212Y-97653163D01*
X151688211Y-97653160D01*
X151658474Y-97594800D01*
X151605996Y-97491806D01*
X151512936Y-97363719D01*
X151499558Y-97345305D01*
X151499554Y-97345300D01*
X151371499Y-97217245D01*
X151371494Y-97217241D01*
X151224997Y-97110806D01*
X151224996Y-97110805D01*
X151224994Y-97110804D01*
X151166257Y-97080876D01*
X151063639Y-97028588D01*
X151063636Y-97028587D01*
X150891410Y-96972629D01*
X150712551Y-96944300D01*
X150712546Y-96944300D01*
X150531454Y-96944300D01*
X150531449Y-96944300D01*
X150352589Y-96972629D01*
X150180363Y-97028587D01*
X150180360Y-97028588D01*
X150019002Y-97110806D01*
X149872505Y-97217241D01*
X149872500Y-97217245D01*
X149744445Y-97345300D01*
X149744441Y-97345305D01*
X149638006Y-97491802D01*
X149555788Y-97653160D01*
X149555787Y-97653163D01*
X149499829Y-97825389D01*
X149474473Y-97985478D01*
X149444544Y-98048613D01*
X149385232Y-98085544D01*
X149315369Y-98084546D01*
X149257137Y-98045936D01*
X149229527Y-97985478D01*
X149215740Y-97898439D01*
X149204171Y-97825391D01*
X149161708Y-97694701D01*
X149148212Y-97653163D01*
X149148211Y-97653160D01*
X149118474Y-97594800D01*
X149065996Y-97491806D01*
X148972936Y-97363719D01*
X148959558Y-97345305D01*
X148959554Y-97345300D01*
X148831499Y-97217245D01*
X148831494Y-97217241D01*
X148684997Y-97110806D01*
X148684996Y-97110805D01*
X148684994Y-97110804D01*
X148626257Y-97080876D01*
X148523639Y-97028588D01*
X148523636Y-97028587D01*
X148351410Y-96972629D01*
X148172551Y-96944300D01*
X148172546Y-96944300D01*
X147991454Y-96944300D01*
X147991449Y-96944300D01*
X147812589Y-96972629D01*
X147640363Y-97028587D01*
X147640360Y-97028588D01*
X147479002Y-97110806D01*
X147332505Y-97217241D01*
X147332500Y-97217245D01*
X147204445Y-97345300D01*
X147204441Y-97345305D01*
X147098006Y-97491802D01*
X147015788Y-97653160D01*
X147015787Y-97653163D01*
X146959829Y-97825389D01*
X146934473Y-97985478D01*
X146904544Y-98048613D01*
X146845232Y-98085544D01*
X146775369Y-98084546D01*
X146717137Y-98045936D01*
X146689527Y-97985478D01*
X146675740Y-97898439D01*
X146664171Y-97825391D01*
X146621708Y-97694701D01*
X146608212Y-97653163D01*
X146608211Y-97653160D01*
X146578474Y-97594800D01*
X146525996Y-97491806D01*
X146432936Y-97363719D01*
X146419558Y-97345305D01*
X146419554Y-97345300D01*
X146291499Y-97217245D01*
X146291494Y-97217241D01*
X146144997Y-97110806D01*
X146144996Y-97110805D01*
X146144994Y-97110804D01*
X146086257Y-97080876D01*
X145983639Y-97028588D01*
X145983636Y-97028587D01*
X145811410Y-96972629D01*
X145632551Y-96944300D01*
X145632546Y-96944300D01*
X145451454Y-96944300D01*
X145451449Y-96944300D01*
X145272589Y-96972629D01*
X145100363Y-97028587D01*
X145100360Y-97028588D01*
X144939002Y-97110806D01*
X144792505Y-97217241D01*
X144792500Y-97217245D01*
X144664445Y-97345300D01*
X144664441Y-97345305D01*
X144558006Y-97491802D01*
X144475788Y-97653160D01*
X144475787Y-97653163D01*
X144419829Y-97825389D01*
X144394473Y-97985478D01*
X144364544Y-98048613D01*
X144305232Y-98085544D01*
X144235369Y-98084546D01*
X144177137Y-98045936D01*
X144149527Y-97985478D01*
X144135740Y-97898439D01*
X144124171Y-97825391D01*
X144081708Y-97694701D01*
X144068212Y-97653163D01*
X144068211Y-97653160D01*
X144038474Y-97594800D01*
X143985996Y-97491806D01*
X143892936Y-97363719D01*
X143879558Y-97345305D01*
X143879554Y-97345300D01*
X143751499Y-97217245D01*
X143751494Y-97217241D01*
X143604997Y-97110806D01*
X143604996Y-97110805D01*
X143604994Y-97110804D01*
X143546257Y-97080876D01*
X143443639Y-97028588D01*
X143443636Y-97028587D01*
X143271410Y-96972629D01*
X143092551Y-96944300D01*
X143092546Y-96944300D01*
X142911454Y-96944300D01*
X142911449Y-96944300D01*
X142732589Y-96972629D01*
X142560363Y-97028587D01*
X142560360Y-97028588D01*
X142399002Y-97110806D01*
X142252505Y-97217241D01*
X142252500Y-97217245D01*
X142124445Y-97345300D01*
X142124441Y-97345305D01*
X142018006Y-97491802D01*
X141935788Y-97653160D01*
X141935787Y-97653163D01*
X141879829Y-97825389D01*
X141854473Y-97985478D01*
X141824544Y-98048613D01*
X141765232Y-98085544D01*
X141695369Y-98084546D01*
X141637137Y-98045936D01*
X141609527Y-97985478D01*
X141595740Y-97898439D01*
X141584171Y-97825391D01*
X141541708Y-97694701D01*
X141528212Y-97653163D01*
X141528211Y-97653160D01*
X141498474Y-97594800D01*
X141445996Y-97491806D01*
X141352936Y-97363719D01*
X141339558Y-97345305D01*
X141339554Y-97345300D01*
X141211499Y-97217245D01*
X141211494Y-97217241D01*
X141064997Y-97110806D01*
X141064996Y-97110805D01*
X141064994Y-97110804D01*
X141006257Y-97080876D01*
X140903639Y-97028588D01*
X140903636Y-97028587D01*
X140731410Y-96972629D01*
X140552551Y-96944300D01*
X140552546Y-96944300D01*
X140371454Y-96944300D01*
X140371449Y-96944300D01*
X140192589Y-96972629D01*
X140020363Y-97028587D01*
X140020360Y-97028588D01*
X139859002Y-97110806D01*
X139712505Y-97217241D01*
X139712500Y-97217245D01*
X139584445Y-97345300D01*
X139584441Y-97345305D01*
X139478006Y-97491802D01*
X139395788Y-97653160D01*
X139395787Y-97653163D01*
X139362240Y-97756412D01*
X139322802Y-97814088D01*
X139258444Y-97841286D01*
X139189597Y-97829371D01*
X139138122Y-97782127D01*
X139126378Y-97756412D01*
X139080418Y-97614964D01*
X138991095Y-97439656D01*
X138935922Y-97363719D01*
X138935922Y-97363718D01*
X138390018Y-97909621D01*
X138387925Y-97901807D01*
X138322099Y-97787793D01*
X138229007Y-97694701D01*
X138114993Y-97628875D01*
X138107177Y-97626780D01*
X138653080Y-97080877D01*
X138653079Y-97080876D01*
X138577143Y-97025704D01*
X138401835Y-96936381D01*
X138214705Y-96875578D01*
X138020382Y-96844800D01*
X137823618Y-96844800D01*
X137629294Y-96875578D01*
X137442164Y-96936381D01*
X137266855Y-97025705D01*
X137266846Y-97025711D01*
X137190919Y-97080875D01*
X137190918Y-97080876D01*
X137736823Y-97626780D01*
X137729007Y-97628875D01*
X137614993Y-97694701D01*
X137521901Y-97787793D01*
X137456075Y-97901807D01*
X137453980Y-97909622D01*
X136908076Y-97363718D01*
X136908075Y-97363719D01*
X136852911Y-97439646D01*
X136852905Y-97439655D01*
X136762485Y-97617115D01*
X136714510Y-97667911D01*
X136646689Y-97684706D01*
X136580554Y-97662169D01*
X136541515Y-97617115D01*
X136451095Y-97439656D01*
X136395922Y-97363719D01*
X136395922Y-97363718D01*
X135850018Y-97909621D01*
X135847925Y-97901807D01*
X135782099Y-97787793D01*
X135689007Y-97694701D01*
X135574993Y-97628875D01*
X135567177Y-97626780D01*
X136113080Y-97080877D01*
X136113079Y-97080876D01*
X136037143Y-97025704D01*
X135861835Y-96936381D01*
X135674705Y-96875578D01*
X135480382Y-96844800D01*
X135283618Y-96844800D01*
X135089294Y-96875578D01*
X134902164Y-96936381D01*
X134726855Y-97025705D01*
X134726846Y-97025711D01*
X134650919Y-97080875D01*
X134650918Y-97080876D01*
X135196823Y-97626780D01*
X135189007Y-97628875D01*
X135074993Y-97694701D01*
X134981901Y-97787793D01*
X134916075Y-97901807D01*
X134913980Y-97909622D01*
X134368076Y-97363718D01*
X134368075Y-97363719D01*
X134312911Y-97439646D01*
X134312905Y-97439655D01*
X134223581Y-97614962D01*
X134177621Y-97756413D01*
X134138183Y-97814088D01*
X134073824Y-97841286D01*
X134004978Y-97829371D01*
X133953502Y-97782127D01*
X133941759Y-97756411D01*
X133908213Y-97653166D01*
X133908211Y-97653160D01*
X133878474Y-97594800D01*
X133825996Y-97491806D01*
X133732936Y-97363719D01*
X133719558Y-97345305D01*
X133719554Y-97345300D01*
X133591499Y-97217245D01*
X133591494Y-97217241D01*
X133444997Y-97110806D01*
X133444996Y-97110805D01*
X133444994Y-97110804D01*
X133386257Y-97080876D01*
X133283639Y-97028588D01*
X133283636Y-97028587D01*
X133111410Y-96972629D01*
X132932551Y-96944300D01*
X132932546Y-96944300D01*
X132751454Y-96944300D01*
X132751449Y-96944300D01*
X132572589Y-96972629D01*
X132400363Y-97028587D01*
X132400360Y-97028588D01*
X132239002Y-97110806D01*
X132092505Y-97217241D01*
X132092500Y-97217245D01*
X131964445Y-97345300D01*
X131964441Y-97345305D01*
X131858006Y-97491802D01*
X131775788Y-97653160D01*
X131775787Y-97653163D01*
X131742240Y-97756412D01*
X131702802Y-97814088D01*
X131638444Y-97841286D01*
X131569597Y-97829371D01*
X131518122Y-97782127D01*
X131506378Y-97756412D01*
X131460418Y-97614964D01*
X131371095Y-97439656D01*
X131315922Y-97363719D01*
X131315922Y-97363718D01*
X130770018Y-97909621D01*
X130767925Y-97901807D01*
X130702099Y-97787793D01*
X130609007Y-97694701D01*
X130494993Y-97628875D01*
X130487177Y-97626780D01*
X131033080Y-97080877D01*
X131033079Y-97080876D01*
X130957143Y-97025704D01*
X130781835Y-96936381D01*
X130594705Y-96875578D01*
X130400382Y-96844800D01*
X130203618Y-96844800D01*
X130009294Y-96875578D01*
X129822164Y-96936381D01*
X129646855Y-97025705D01*
X129646846Y-97025711D01*
X129570919Y-97080875D01*
X129570918Y-97080876D01*
X130116823Y-97626780D01*
X130109007Y-97628875D01*
X129994993Y-97694701D01*
X129901901Y-97787793D01*
X129836075Y-97901807D01*
X129833980Y-97909622D01*
X129288076Y-97363718D01*
X129288075Y-97363719D01*
X129232911Y-97439646D01*
X129232905Y-97439655D01*
X129142485Y-97617115D01*
X129094510Y-97667911D01*
X129026689Y-97684706D01*
X128960554Y-97662169D01*
X128921515Y-97617115D01*
X128831095Y-97439656D01*
X128775922Y-97363719D01*
X128775922Y-97363718D01*
X128230018Y-97909621D01*
X128227925Y-97901807D01*
X128162099Y-97787793D01*
X128069007Y-97694701D01*
X127954993Y-97628875D01*
X127947177Y-97626780D01*
X128493080Y-97080877D01*
X128493079Y-97080876D01*
X128417143Y-97025704D01*
X128241835Y-96936381D01*
X128054705Y-96875578D01*
X127860382Y-96844800D01*
X127663618Y-96844800D01*
X127469294Y-96875578D01*
X127282164Y-96936381D01*
X127106855Y-97025705D01*
X127106846Y-97025711D01*
X127030919Y-97080875D01*
X127030918Y-97080876D01*
X127576823Y-97626780D01*
X127569007Y-97628875D01*
X127454993Y-97694701D01*
X127361901Y-97787793D01*
X127296075Y-97901807D01*
X127293980Y-97909622D01*
X126748076Y-97363718D01*
X126748075Y-97363719D01*
X126692911Y-97439646D01*
X126692905Y-97439655D01*
X126602485Y-97617115D01*
X126554510Y-97667911D01*
X126486689Y-97684706D01*
X126420554Y-97662169D01*
X126381515Y-97617115D01*
X126291095Y-97439656D01*
X126235922Y-97363719D01*
X126235922Y-97363718D01*
X125690018Y-97909621D01*
X125687925Y-97901807D01*
X125622099Y-97787793D01*
X125529007Y-97694701D01*
X125414993Y-97628875D01*
X125407177Y-97626780D01*
X125953080Y-97080877D01*
X125953079Y-97080876D01*
X125877143Y-97025704D01*
X125701835Y-96936381D01*
X125514705Y-96875578D01*
X125320382Y-96844800D01*
X125123618Y-96844800D01*
X124929294Y-96875578D01*
X124742164Y-96936381D01*
X124566855Y-97025705D01*
X124566846Y-97025711D01*
X124490919Y-97080875D01*
X124490918Y-97080876D01*
X125036823Y-97626780D01*
X125029007Y-97628875D01*
X124914993Y-97694701D01*
X124821901Y-97787793D01*
X124756075Y-97901807D01*
X124753980Y-97909622D01*
X124208076Y-97363718D01*
X124208075Y-97363719D01*
X124152911Y-97439646D01*
X124152905Y-97439655D01*
X124063581Y-97614962D01*
X124017621Y-97756413D01*
X123978183Y-97814088D01*
X123913824Y-97841286D01*
X123844978Y-97829371D01*
X123793502Y-97782127D01*
X123781759Y-97756411D01*
X123748213Y-97653166D01*
X123748211Y-97653160D01*
X123718474Y-97594800D01*
X123665996Y-97491806D01*
X123572936Y-97363719D01*
X123559558Y-97345305D01*
X123559554Y-97345300D01*
X123431499Y-97217245D01*
X123431494Y-97217241D01*
X123284997Y-97110806D01*
X123284996Y-97110805D01*
X123284994Y-97110804D01*
X123226257Y-97080876D01*
X123123639Y-97028588D01*
X123123636Y-97028587D01*
X122951410Y-96972629D01*
X122772551Y-96944300D01*
X122772546Y-96944300D01*
X122591454Y-96944300D01*
X122591449Y-96944300D01*
X122412589Y-96972629D01*
X122240363Y-97028587D01*
X122240360Y-97028588D01*
X122079002Y-97110806D01*
X121932505Y-97217241D01*
X121932500Y-97217245D01*
X121804445Y-97345300D01*
X121804441Y-97345305D01*
X121698006Y-97491802D01*
X121615788Y-97653160D01*
X121615787Y-97653163D01*
X121559829Y-97825389D01*
X121534473Y-97985478D01*
X121504544Y-98048613D01*
X121445232Y-98085544D01*
X121375369Y-98084546D01*
X121317137Y-98045936D01*
X121289527Y-97985478D01*
X121275740Y-97898439D01*
X121264171Y-97825391D01*
X121221708Y-97694701D01*
X121208212Y-97653163D01*
X121208211Y-97653160D01*
X121178474Y-97594800D01*
X121125996Y-97491806D01*
X121032936Y-97363719D01*
X121019558Y-97345305D01*
X121019554Y-97345300D01*
X120891499Y-97217245D01*
X120891494Y-97217241D01*
X120744997Y-97110806D01*
X120744996Y-97110805D01*
X120744994Y-97110804D01*
X120686257Y-97080876D01*
X120583639Y-97028588D01*
X120583636Y-97028587D01*
X120411410Y-96972629D01*
X120232551Y-96944300D01*
X120232546Y-96944300D01*
X120051454Y-96944300D01*
X120051449Y-96944300D01*
X119872589Y-96972629D01*
X119700363Y-97028587D01*
X119700360Y-97028588D01*
X119539002Y-97110806D01*
X119392505Y-97217241D01*
X119392500Y-97217245D01*
X119264445Y-97345300D01*
X119264441Y-97345305D01*
X119158006Y-97491802D01*
X119075788Y-97653160D01*
X119075787Y-97653163D01*
X119019829Y-97825389D01*
X118994473Y-97985478D01*
X118964544Y-98048613D01*
X118905232Y-98085544D01*
X118835369Y-98084546D01*
X118777137Y-98045936D01*
X118749527Y-97985478D01*
X118735740Y-97898439D01*
X118724171Y-97825391D01*
X118681708Y-97694701D01*
X118668212Y-97653163D01*
X118668211Y-97653160D01*
X118638474Y-97594800D01*
X118585996Y-97491806D01*
X118492936Y-97363719D01*
X118479558Y-97345305D01*
X118479554Y-97345300D01*
X118351499Y-97217245D01*
X118351494Y-97217241D01*
X118204997Y-97110806D01*
X118204996Y-97110805D01*
X118204994Y-97110804D01*
X118146257Y-97080876D01*
X118043639Y-97028588D01*
X118043636Y-97028587D01*
X117871410Y-96972629D01*
X117692551Y-96944300D01*
X117692546Y-96944300D01*
X117511454Y-96944300D01*
X117511449Y-96944300D01*
X117332589Y-96972629D01*
X117160363Y-97028587D01*
X117160360Y-97028588D01*
X116999002Y-97110806D01*
X116852505Y-97217241D01*
X116852500Y-97217245D01*
X116724445Y-97345300D01*
X116724441Y-97345305D01*
X116618006Y-97491802D01*
X116535788Y-97653160D01*
X116535787Y-97653163D01*
X116479829Y-97825389D01*
X116454473Y-97985478D01*
X116424544Y-98048613D01*
X116365232Y-98085544D01*
X116295369Y-98084546D01*
X116237137Y-98045936D01*
X116209527Y-97985478D01*
X116195740Y-97898439D01*
X116184171Y-97825391D01*
X116141708Y-97694701D01*
X116128212Y-97653163D01*
X116128211Y-97653160D01*
X116098474Y-97594800D01*
X116045996Y-97491806D01*
X115952936Y-97363719D01*
X115939558Y-97345305D01*
X115939554Y-97345300D01*
X115811499Y-97217245D01*
X115811494Y-97217241D01*
X115664997Y-97110806D01*
X115664996Y-97110805D01*
X115664994Y-97110804D01*
X115606257Y-97080876D01*
X115503639Y-97028588D01*
X115503636Y-97028587D01*
X115331410Y-96972629D01*
X115152551Y-96944300D01*
X115152546Y-96944300D01*
X114971454Y-96944300D01*
X114971449Y-96944300D01*
X114792589Y-96972629D01*
X114620363Y-97028587D01*
X114620360Y-97028588D01*
X114459002Y-97110806D01*
X114312505Y-97217241D01*
X114312500Y-97217245D01*
X114184445Y-97345300D01*
X114184441Y-97345305D01*
X114078006Y-97491802D01*
X113995788Y-97653160D01*
X113995787Y-97653163D01*
X113939829Y-97825389D01*
X113914473Y-97985478D01*
X113884544Y-98048613D01*
X113825232Y-98085544D01*
X113755369Y-98084546D01*
X113697137Y-98045936D01*
X113669527Y-97985478D01*
X113655740Y-97898439D01*
X113644171Y-97825391D01*
X113601708Y-97694701D01*
X113588212Y-97653163D01*
X113588211Y-97653160D01*
X113558474Y-97594800D01*
X113505996Y-97491806D01*
X113412936Y-97363719D01*
X113399558Y-97345305D01*
X113399554Y-97345300D01*
X113271499Y-97217245D01*
X113271494Y-97217241D01*
X113124997Y-97110806D01*
X113124996Y-97110805D01*
X113124994Y-97110804D01*
X113066257Y-97080876D01*
X112963639Y-97028588D01*
X112963636Y-97028587D01*
X112791410Y-96972629D01*
X112612551Y-96944300D01*
X112612546Y-96944300D01*
X112431454Y-96944300D01*
X112431449Y-96944300D01*
X112252589Y-96972629D01*
X112080363Y-97028587D01*
X112080360Y-97028588D01*
X111919002Y-97110806D01*
X111772505Y-97217241D01*
X111772500Y-97217245D01*
X111644445Y-97345300D01*
X111644441Y-97345305D01*
X111538006Y-97491802D01*
X111455788Y-97653160D01*
X111455787Y-97653163D01*
X111399829Y-97825389D01*
X111374473Y-97985478D01*
X111344544Y-98048613D01*
X111285232Y-98085544D01*
X111215369Y-98084546D01*
X111157137Y-98045936D01*
X111129527Y-97985478D01*
X111115740Y-97898439D01*
X111104171Y-97825391D01*
X111061708Y-97694701D01*
X111048212Y-97653163D01*
X111048211Y-97653160D01*
X111018474Y-97594800D01*
X110965996Y-97491806D01*
X110872936Y-97363719D01*
X110859558Y-97345305D01*
X110859554Y-97345300D01*
X110731499Y-97217245D01*
X110731494Y-97217241D01*
X110584997Y-97110806D01*
X110584996Y-97110805D01*
X110584994Y-97110804D01*
X110526257Y-97080876D01*
X110423639Y-97028588D01*
X110423636Y-97028587D01*
X110251410Y-96972629D01*
X110072551Y-96944300D01*
X110072546Y-96944300D01*
X109891454Y-96944300D01*
X109891449Y-96944300D01*
X109712589Y-96972629D01*
X109540363Y-97028587D01*
X109540360Y-97028588D01*
X109379002Y-97110806D01*
X109232505Y-97217241D01*
X109232500Y-97217245D01*
X109104445Y-97345300D01*
X109104441Y-97345305D01*
X108998006Y-97491802D01*
X108915788Y-97653160D01*
X108915787Y-97653163D01*
X108859829Y-97825389D01*
X108834473Y-97985478D01*
X108804544Y-98048613D01*
X108745232Y-98085544D01*
X108675369Y-98084546D01*
X108617137Y-98045936D01*
X108589527Y-97985478D01*
X108575740Y-97898439D01*
X108564171Y-97825391D01*
X108521708Y-97694701D01*
X108508212Y-97653163D01*
X108508211Y-97653160D01*
X108478474Y-97594800D01*
X108425996Y-97491806D01*
X108332936Y-97363719D01*
X108319558Y-97345305D01*
X108319554Y-97345300D01*
X108191499Y-97217245D01*
X108191494Y-97217241D01*
X108044997Y-97110806D01*
X108044996Y-97110805D01*
X108044994Y-97110804D01*
X107986257Y-97080876D01*
X107883639Y-97028588D01*
X107883636Y-97028587D01*
X107711410Y-96972629D01*
X107532551Y-96944300D01*
X107532546Y-96944300D01*
X107351454Y-96944300D01*
X107351449Y-96944300D01*
X107172589Y-96972629D01*
X107000363Y-97028587D01*
X107000360Y-97028588D01*
X106839002Y-97110806D01*
X106692505Y-97217241D01*
X106692500Y-97217245D01*
X106564445Y-97345300D01*
X106564441Y-97345305D01*
X106458006Y-97491802D01*
X106375788Y-97653160D01*
X106375787Y-97653163D01*
X106319829Y-97825389D01*
X106294473Y-97985478D01*
X106264544Y-98048613D01*
X106205232Y-98085544D01*
X106135369Y-98084546D01*
X106077137Y-98045936D01*
X106049527Y-97985478D01*
X106035740Y-97898439D01*
X106024171Y-97825391D01*
X105981708Y-97694701D01*
X105968212Y-97653163D01*
X105968211Y-97653160D01*
X105938474Y-97594800D01*
X105885996Y-97491806D01*
X105792936Y-97363719D01*
X105779558Y-97345305D01*
X105779554Y-97345300D01*
X105651499Y-97217245D01*
X105651494Y-97217241D01*
X105504997Y-97110806D01*
X105504996Y-97110805D01*
X105504994Y-97110804D01*
X105446257Y-97080876D01*
X105343639Y-97028588D01*
X105343636Y-97028587D01*
X105171410Y-96972629D01*
X104992551Y-96944300D01*
X104992546Y-96944300D01*
X104811454Y-96944300D01*
X104811449Y-96944300D01*
X104632589Y-96972629D01*
X104460363Y-97028587D01*
X104460360Y-97028588D01*
X104299002Y-97110806D01*
X104152505Y-97217241D01*
X104152500Y-97217245D01*
X104024445Y-97345300D01*
X104024441Y-97345305D01*
X103918006Y-97491802D01*
X103835788Y-97653160D01*
X103835787Y-97653163D01*
X103779829Y-97825389D01*
X103754473Y-97985478D01*
X103724544Y-98048613D01*
X103665232Y-98085544D01*
X103595369Y-98084546D01*
X103537137Y-98045936D01*
X103509527Y-97985478D01*
X103495740Y-97898439D01*
X103484171Y-97825391D01*
X103441708Y-97694701D01*
X103428212Y-97653163D01*
X103428211Y-97653160D01*
X103398474Y-97594800D01*
X103345996Y-97491806D01*
X103252936Y-97363719D01*
X103239558Y-97345305D01*
X103239554Y-97345300D01*
X103111499Y-97217245D01*
X103111494Y-97217241D01*
X102964997Y-97110806D01*
X102964996Y-97110805D01*
X102964994Y-97110804D01*
X102906257Y-97080876D01*
X102803639Y-97028588D01*
X102803636Y-97028587D01*
X102631410Y-96972629D01*
X102452551Y-96944300D01*
X102452546Y-96944300D01*
X102271454Y-96944300D01*
X102271449Y-96944300D01*
X102092589Y-96972629D01*
X101920363Y-97028587D01*
X101920360Y-97028588D01*
X101759002Y-97110806D01*
X101612505Y-97217241D01*
X101612500Y-97217245D01*
X101484445Y-97345300D01*
X101484441Y-97345305D01*
X101378006Y-97491802D01*
X101295788Y-97653160D01*
X101295787Y-97653163D01*
X101239829Y-97825389D01*
X101211500Y-98004248D01*
X101211500Y-98185351D01*
X101239829Y-98364210D01*
X101295787Y-98536436D01*
X101295788Y-98536439D01*
X101378006Y-98697797D01*
X101484441Y-98844294D01*
X101484445Y-98844299D01*
X101612500Y-98972354D01*
X101612505Y-98972358D01*
X101657552Y-99005086D01*
X101759006Y-99078796D01*
X101866733Y-99133686D01*
X101899369Y-99150315D01*
X101950165Y-99198290D01*
X101966960Y-99266111D01*
X101944422Y-99332246D01*
X101889707Y-99375697D01*
X101843074Y-99384800D01*
X101696350Y-99384800D01*
X101659510Y-99387699D01*
X101659504Y-99387700D01*
X101501806Y-99433516D01*
X101501803Y-99433517D01*
X101360447Y-99517114D01*
X101360438Y-99517121D01*
X101244321Y-99633238D01*
X101244314Y-99633247D01*
X101160717Y-99774603D01*
X101160716Y-99774606D01*
X101114900Y-99932304D01*
X101114899Y-99932310D01*
X101112000Y-99969150D01*
X101112000Y-100434800D01*
X101900120Y-100434800D01*
X101896075Y-100441807D01*
X101862000Y-100568974D01*
X101862000Y-100700626D01*
X101896075Y-100827793D01*
X101900120Y-100834800D01*
X101112000Y-100834800D01*
X101112000Y-101300449D01*
X101114899Y-101337289D01*
X101114900Y-101337295D01*
X101160716Y-101494993D01*
X101160717Y-101494996D01*
X101244314Y-101636352D01*
X101244321Y-101636361D01*
X101360438Y-101752478D01*
X101360447Y-101752485D01*
X101501803Y-101836082D01*
X101501806Y-101836083D01*
X101659504Y-101881899D01*
X101659510Y-101881900D01*
X101696350Y-101884799D01*
X101696366Y-101884800D01*
X102162000Y-101884800D01*
X102162000Y-101096679D01*
X102169007Y-101100725D01*
X102296174Y-101134800D01*
X102427826Y-101134800D01*
X102554993Y-101100725D01*
X102562000Y-101096679D01*
X102562000Y-101884800D01*
X103027634Y-101884800D01*
X103027649Y-101884799D01*
X103064489Y-101881900D01*
X103064495Y-101881899D01*
X103222193Y-101836083D01*
X103222196Y-101836082D01*
X103363552Y-101752485D01*
X103363561Y-101752478D01*
X103479678Y-101636361D01*
X103479684Y-101636353D01*
X103537648Y-101538342D01*
X103563282Y-101494996D01*
X103563283Y-101494993D01*
X103610868Y-101331207D01*
X103612265Y-101331613D01*
X103640324Y-101275841D01*
X103700485Y-101240310D01*
X103770305Y-101242945D01*
X103827617Y-101282909D01*
X103831226Y-101287634D01*
X103888075Y-101365879D01*
X103888077Y-101365880D01*
X104433980Y-100819976D01*
X104436075Y-100827793D01*
X104501901Y-100941807D01*
X104594993Y-101034899D01*
X104709007Y-101100725D01*
X104716822Y-101102819D01*
X104170918Y-101648722D01*
X104246856Y-101703895D01*
X104422164Y-101793218D01*
X104609294Y-101854021D01*
X104803618Y-101884800D01*
X105000382Y-101884800D01*
X105194705Y-101854021D01*
X105381835Y-101793218D01*
X105557143Y-101703895D01*
X105633079Y-101648722D01*
X105633080Y-101648721D01*
X105087178Y-101102819D01*
X105094993Y-101100725D01*
X105209007Y-101034899D01*
X105302099Y-100941807D01*
X105367925Y-100827793D01*
X105370019Y-100819977D01*
X105915921Y-101365880D01*
X105915922Y-101365879D01*
X105971097Y-101289941D01*
X105971097Y-101289940D01*
X106061515Y-101112485D01*
X106109489Y-101061688D01*
X106177310Y-101044893D01*
X106243445Y-101067430D01*
X106282485Y-101112485D01*
X106372902Y-101289941D01*
X106428076Y-101365879D01*
X106428077Y-101365880D01*
X106973980Y-100819976D01*
X106976075Y-100827793D01*
X107041901Y-100941807D01*
X107134993Y-101034899D01*
X107249007Y-101100725D01*
X107256822Y-101102819D01*
X106710918Y-101648722D01*
X106786856Y-101703895D01*
X106962164Y-101793218D01*
X107149294Y-101854021D01*
X107343618Y-101884800D01*
X107540382Y-101884800D01*
X107734705Y-101854021D01*
X107921835Y-101793218D01*
X108097143Y-101703895D01*
X108173079Y-101648722D01*
X108173080Y-101648721D01*
X107627178Y-101102819D01*
X107634993Y-101100725D01*
X107749007Y-101034899D01*
X107842099Y-100941807D01*
X107907925Y-100827793D01*
X107910019Y-100819977D01*
X108455921Y-101365880D01*
X108455922Y-101365879D01*
X108511097Y-101289941D01*
X108511097Y-101289940D01*
X108601515Y-101112485D01*
X108649489Y-101061688D01*
X108717310Y-101044893D01*
X108783445Y-101067430D01*
X108822485Y-101112485D01*
X108912902Y-101289941D01*
X108968076Y-101365879D01*
X108968077Y-101365880D01*
X109513980Y-100819976D01*
X109516075Y-100827793D01*
X109581901Y-100941807D01*
X109674993Y-101034899D01*
X109789007Y-101100725D01*
X109796822Y-101102819D01*
X109250918Y-101648722D01*
X109326856Y-101703895D01*
X109502164Y-101793218D01*
X109689294Y-101854021D01*
X109883618Y-101884800D01*
X110080382Y-101884800D01*
X110274705Y-101854021D01*
X110461835Y-101793218D01*
X110637143Y-101703895D01*
X110713079Y-101648722D01*
X110713080Y-101648721D01*
X110167178Y-101102819D01*
X110174993Y-101100725D01*
X110289007Y-101034899D01*
X110382099Y-100941807D01*
X110447925Y-100827793D01*
X110450019Y-100819977D01*
X110995921Y-101365880D01*
X110995922Y-101365879D01*
X111051097Y-101289941D01*
X111051097Y-101289940D01*
X111141515Y-101112485D01*
X111189489Y-101061688D01*
X111257310Y-101044893D01*
X111323445Y-101067430D01*
X111362485Y-101112485D01*
X111452902Y-101289941D01*
X111508076Y-101365879D01*
X111508077Y-101365880D01*
X112053980Y-100819976D01*
X112056075Y-100827793D01*
X112121901Y-100941807D01*
X112214993Y-101034899D01*
X112329007Y-101100725D01*
X112336822Y-101102819D01*
X111790918Y-101648722D01*
X111866856Y-101703895D01*
X112042164Y-101793218D01*
X112229294Y-101854021D01*
X112423618Y-101884800D01*
X112620382Y-101884800D01*
X112814705Y-101854021D01*
X113001835Y-101793218D01*
X113177143Y-101703895D01*
X113253079Y-101648722D01*
X113253080Y-101648721D01*
X112707178Y-101102819D01*
X112714993Y-101100725D01*
X112829007Y-101034899D01*
X112922099Y-100941807D01*
X112987925Y-100827793D01*
X112990019Y-100819977D01*
X113535921Y-101365880D01*
X113535922Y-101365879D01*
X113591097Y-101289941D01*
X113591097Y-101289940D01*
X113681515Y-101112485D01*
X113729489Y-101061688D01*
X113797310Y-101044893D01*
X113863445Y-101067430D01*
X113902485Y-101112485D01*
X113992902Y-101289941D01*
X114048076Y-101365879D01*
X114048077Y-101365880D01*
X114593980Y-100819976D01*
X114596075Y-100827793D01*
X114661901Y-100941807D01*
X114754993Y-101034899D01*
X114869007Y-101100725D01*
X114876822Y-101102819D01*
X114330918Y-101648722D01*
X114406856Y-101703895D01*
X114582164Y-101793218D01*
X114769294Y-101854021D01*
X114963618Y-101884800D01*
X115160382Y-101884800D01*
X115354705Y-101854021D01*
X115541835Y-101793218D01*
X115717143Y-101703895D01*
X115793079Y-101648722D01*
X115793080Y-101648721D01*
X115247178Y-101102819D01*
X115254993Y-101100725D01*
X115369007Y-101034899D01*
X115462099Y-100941807D01*
X115527925Y-100827793D01*
X115530019Y-100819977D01*
X116075921Y-101365880D01*
X116075922Y-101365879D01*
X116131097Y-101289941D01*
X116131097Y-101289940D01*
X116221515Y-101112485D01*
X116269489Y-101061688D01*
X116337310Y-101044893D01*
X116403445Y-101067430D01*
X116442485Y-101112485D01*
X116532902Y-101289941D01*
X116588076Y-101365879D01*
X116588077Y-101365880D01*
X117133980Y-100819976D01*
X117136075Y-100827793D01*
X117201901Y-100941807D01*
X117294993Y-101034899D01*
X117409007Y-101100725D01*
X117416820Y-101102818D01*
X116870918Y-101648721D01*
X116870919Y-101648722D01*
X116946856Y-101703895D01*
X117122164Y-101793218D01*
X117309294Y-101854021D01*
X117503618Y-101884800D01*
X117700382Y-101884800D01*
X117894705Y-101854021D01*
X118081835Y-101793218D01*
X118257147Y-101703893D01*
X118294614Y-101676672D01*
X118360420Y-101653191D01*
X118428474Y-101669016D01*
X118477169Y-101719121D01*
X118491500Y-101776989D01*
X118491500Y-108860982D01*
X118491500Y-108973018D01*
X118520497Y-109081237D01*
X118576515Y-109178263D01*
X118576517Y-109178265D01*
X118763181Y-109364929D01*
X118796666Y-109426252D01*
X118799500Y-109452610D01*
X118799500Y-109568993D01*
X118799500Y-109568995D01*
X118799499Y-109568995D01*
X118826418Y-109704322D01*
X118826421Y-109704332D01*
X118879221Y-109831804D01*
X118879228Y-109831817D01*
X118955885Y-109946541D01*
X118955888Y-109946545D01*
X119053454Y-110044111D01*
X119053458Y-110044114D01*
X119168182Y-110120771D01*
X119168195Y-110120778D01*
X119282640Y-110168182D01*
X119295672Y-110173580D01*
X119295676Y-110173580D01*
X119295677Y-110173581D01*
X119431004Y-110200500D01*
X119431007Y-110200500D01*
X119568995Y-110200500D01*
X119660041Y-110182389D01*
X119704328Y-110173580D01*
X119831811Y-110120775D01*
X119946542Y-110044114D01*
X120044114Y-109946542D01*
X120120775Y-109831811D01*
X120126036Y-109819111D01*
X120160649Y-109735546D01*
X120173580Y-109704328D01*
X120188084Y-109631412D01*
X120200500Y-109568995D01*
X120200500Y-109431004D01*
X120173581Y-109295677D01*
X120173580Y-109295676D01*
X120173580Y-109295672D01*
X120136440Y-109206007D01*
X120120778Y-109168195D01*
X120120771Y-109168182D01*
X120044114Y-109053458D01*
X120044111Y-109053454D01*
X119946545Y-108955888D01*
X119946541Y-108955885D01*
X119831817Y-108879228D01*
X119831804Y-108879221D01*
X119704332Y-108826421D01*
X119704322Y-108826418D01*
X119568995Y-108799500D01*
X119568993Y-108799500D01*
X119466500Y-108799500D01*
X119399461Y-108779815D01*
X119353706Y-108727011D01*
X119342500Y-108675500D01*
X119342500Y-101832692D01*
X119362185Y-101765653D01*
X119414989Y-101719898D01*
X119484147Y-101709954D01*
X119522795Y-101722207D01*
X119662164Y-101793218D01*
X119849294Y-101854021D01*
X120043618Y-101884800D01*
X120240382Y-101884800D01*
X120434705Y-101854021D01*
X120621835Y-101793218D01*
X120797143Y-101703895D01*
X120873079Y-101648722D01*
X120873080Y-101648722D01*
X120327177Y-101102819D01*
X120334993Y-101100725D01*
X120449007Y-101034899D01*
X120542099Y-100941807D01*
X120607925Y-100827793D01*
X120610019Y-100819977D01*
X121155921Y-101365880D01*
X121155922Y-101365879D01*
X121211097Y-101289941D01*
X121211097Y-101289940D01*
X121301515Y-101112485D01*
X121349489Y-101061688D01*
X121417310Y-101044893D01*
X121483445Y-101067430D01*
X121522485Y-101112485D01*
X121612902Y-101289941D01*
X121668076Y-101365879D01*
X121668077Y-101365880D01*
X122213980Y-100819976D01*
X122216075Y-100827793D01*
X122281901Y-100941807D01*
X122374993Y-101034899D01*
X122489007Y-101100725D01*
X122496822Y-101102819D01*
X121950918Y-101648722D01*
X122026856Y-101703895D01*
X122202164Y-101793218D01*
X122389294Y-101854021D01*
X122583618Y-101884800D01*
X122780382Y-101884800D01*
X122974705Y-101854021D01*
X123161835Y-101793218D01*
X123337143Y-101703895D01*
X123413079Y-101648722D01*
X123413080Y-101648721D01*
X122867178Y-101102819D01*
X122874993Y-101100725D01*
X122989007Y-101034899D01*
X123082099Y-100941807D01*
X123147925Y-100827793D01*
X123150019Y-100819977D01*
X123695921Y-101365880D01*
X123695922Y-101365879D01*
X123751097Y-101289941D01*
X123751097Y-101289940D01*
X123841515Y-101112485D01*
X123889489Y-101061688D01*
X123957310Y-101044893D01*
X124023445Y-101067430D01*
X124062485Y-101112485D01*
X124152902Y-101289941D01*
X124208076Y-101365879D01*
X124208077Y-101365880D01*
X124753980Y-100819976D01*
X124756075Y-100827793D01*
X124821901Y-100941807D01*
X124914993Y-101034899D01*
X125029007Y-101100725D01*
X125036822Y-101102819D01*
X124490918Y-101648722D01*
X124566856Y-101703895D01*
X124742164Y-101793218D01*
X124929294Y-101854021D01*
X125123618Y-101884800D01*
X125320382Y-101884800D01*
X125514705Y-101854021D01*
X125701835Y-101793218D01*
X125877143Y-101703895D01*
X125953079Y-101648722D01*
X125953080Y-101648721D01*
X125407178Y-101102819D01*
X125414993Y-101100725D01*
X125529007Y-101034899D01*
X125622099Y-100941807D01*
X125687925Y-100827793D01*
X125690019Y-100819977D01*
X126235921Y-101365880D01*
X126235922Y-101365879D01*
X126291097Y-101289941D01*
X126291097Y-101289940D01*
X126381515Y-101112485D01*
X126429489Y-101061688D01*
X126497310Y-101044893D01*
X126563445Y-101067430D01*
X126602485Y-101112485D01*
X126692902Y-101289941D01*
X126748076Y-101365879D01*
X126748077Y-101365880D01*
X127293980Y-100819976D01*
X127296075Y-100827793D01*
X127361901Y-100941807D01*
X127454993Y-101034899D01*
X127569007Y-101100725D01*
X127576822Y-101102819D01*
X127030918Y-101648722D01*
X127106856Y-101703895D01*
X127282164Y-101793218D01*
X127469294Y-101854021D01*
X127663618Y-101884800D01*
X127860382Y-101884800D01*
X128054705Y-101854021D01*
X128241835Y-101793218D01*
X128417143Y-101703895D01*
X128493079Y-101648722D01*
X128493080Y-101648721D01*
X127947178Y-101102819D01*
X127954993Y-101100725D01*
X128069007Y-101034899D01*
X128162099Y-100941807D01*
X128227925Y-100827793D01*
X128230019Y-100819977D01*
X128775921Y-101365880D01*
X128775922Y-101365879D01*
X128831097Y-101289941D01*
X128831097Y-101289940D01*
X128921515Y-101112485D01*
X128969489Y-101061688D01*
X129037310Y-101044893D01*
X129103445Y-101067430D01*
X129142485Y-101112485D01*
X129232902Y-101289941D01*
X129288076Y-101365879D01*
X129288077Y-101365880D01*
X129833980Y-100819976D01*
X129836075Y-100827793D01*
X129901901Y-100941807D01*
X129994993Y-101034899D01*
X130109007Y-101100725D01*
X130116822Y-101102819D01*
X129570918Y-101648722D01*
X129646856Y-101703895D01*
X129822164Y-101793218D01*
X130009294Y-101854021D01*
X130203618Y-101884800D01*
X130400382Y-101884800D01*
X130594705Y-101854021D01*
X130781835Y-101793218D01*
X130957143Y-101703895D01*
X131033079Y-101648722D01*
X131033080Y-101648721D01*
X130487178Y-101102819D01*
X130494993Y-101100725D01*
X130609007Y-101034899D01*
X130702099Y-100941807D01*
X130767925Y-100827793D01*
X130770019Y-100819977D01*
X131315921Y-101365880D01*
X131315922Y-101365879D01*
X131371095Y-101289943D01*
X131460418Y-101114635D01*
X131506378Y-100973187D01*
X131545815Y-100915512D01*
X131610174Y-100888313D01*
X131679020Y-100900228D01*
X131730496Y-100947472D01*
X131742240Y-100973187D01*
X131775787Y-101076436D01*
X131775788Y-101076439D01*
X131858006Y-101237797D01*
X131964441Y-101384294D01*
X131964445Y-101384299D01*
X132092500Y-101512354D01*
X132092505Y-101512358D01*
X132220287Y-101605196D01*
X132239006Y-101618796D01*
X132328106Y-101664195D01*
X132400360Y-101701011D01*
X132400363Y-101701012D01*
X132486476Y-101728991D01*
X132572591Y-101756971D01*
X132655429Y-101770091D01*
X132751449Y-101785300D01*
X132751454Y-101785300D01*
X132932551Y-101785300D01*
X133019259Y-101771565D01*
X133111409Y-101756971D01*
X133283639Y-101701011D01*
X133444994Y-101618796D01*
X133591501Y-101512353D01*
X133719553Y-101384301D01*
X133825996Y-101237794D01*
X133908211Y-101076439D01*
X133941759Y-100973188D01*
X133981196Y-100915512D01*
X134045554Y-100888313D01*
X134114401Y-100900227D01*
X134165877Y-100947471D01*
X134177621Y-100973186D01*
X134223582Y-101114637D01*
X134312904Y-101289943D01*
X134368076Y-101365879D01*
X134368077Y-101365880D01*
X134913980Y-100819976D01*
X134916075Y-100827793D01*
X134981901Y-100941807D01*
X135074993Y-101034899D01*
X135189007Y-101100725D01*
X135196822Y-101102819D01*
X134650918Y-101648722D01*
X134726856Y-101703895D01*
X134902164Y-101793218D01*
X135089294Y-101854021D01*
X135283618Y-101884800D01*
X135480382Y-101884800D01*
X135674705Y-101854021D01*
X135861835Y-101793218D01*
X136037143Y-101703895D01*
X136113079Y-101648722D01*
X136113080Y-101648721D01*
X135567178Y-101102819D01*
X135574993Y-101100725D01*
X135689007Y-101034899D01*
X135782099Y-100941807D01*
X135847925Y-100827793D01*
X135850019Y-100819977D01*
X136395921Y-101365880D01*
X136395922Y-101365879D01*
X136451097Y-101289941D01*
X136451097Y-101289940D01*
X136541515Y-101112485D01*
X136589489Y-101061688D01*
X136657310Y-101044893D01*
X136723445Y-101067430D01*
X136762485Y-101112485D01*
X136852902Y-101289941D01*
X136908076Y-101365879D01*
X136908077Y-101365880D01*
X137453980Y-100819976D01*
X137456075Y-100827793D01*
X137521901Y-100941807D01*
X137614993Y-101034899D01*
X137729007Y-101100725D01*
X137736822Y-101102819D01*
X137190918Y-101648722D01*
X137266856Y-101703895D01*
X137442164Y-101793218D01*
X137629294Y-101854021D01*
X137823618Y-101884800D01*
X138020382Y-101884800D01*
X138214705Y-101854021D01*
X138401835Y-101793218D01*
X138577143Y-101703895D01*
X138653079Y-101648722D01*
X138653080Y-101648721D01*
X138107178Y-101102819D01*
X138114993Y-101100725D01*
X138229007Y-101034899D01*
X138322099Y-100941807D01*
X138387925Y-100827793D01*
X138390019Y-100819977D01*
X138935921Y-101365880D01*
X138935922Y-101365879D01*
X138991097Y-101289941D01*
X138991097Y-101289940D01*
X139081515Y-101112485D01*
X139129489Y-101061688D01*
X139197310Y-101044893D01*
X139263445Y-101067430D01*
X139302485Y-101112485D01*
X139392902Y-101289941D01*
X139448076Y-101365879D01*
X139448077Y-101365880D01*
X139993980Y-100819976D01*
X139996075Y-100827793D01*
X140061901Y-100941807D01*
X140154993Y-101034899D01*
X140269007Y-101100725D01*
X140276822Y-101102819D01*
X139730918Y-101648722D01*
X139806856Y-101703895D01*
X139982164Y-101793218D01*
X140169294Y-101854021D01*
X140363618Y-101884800D01*
X140560382Y-101884800D01*
X140754705Y-101854021D01*
X140941835Y-101793218D01*
X141117143Y-101703895D01*
X141193079Y-101648722D01*
X141193080Y-101648721D01*
X140647178Y-101102819D01*
X140654993Y-101100725D01*
X140769007Y-101034899D01*
X140862099Y-100941807D01*
X140927925Y-100827793D01*
X140930019Y-100819977D01*
X141475921Y-101365880D01*
X141475922Y-101365879D01*
X141531097Y-101289941D01*
X141531097Y-101289940D01*
X141621515Y-101112485D01*
X141669489Y-101061688D01*
X141737310Y-101044893D01*
X141803445Y-101067430D01*
X141842485Y-101112485D01*
X141932902Y-101289941D01*
X141988076Y-101365879D01*
X141988077Y-101365880D01*
X142533980Y-100819976D01*
X142536075Y-100827793D01*
X142601901Y-100941807D01*
X142694993Y-101034899D01*
X142809007Y-101100725D01*
X142816822Y-101102819D01*
X142270918Y-101648722D01*
X142346856Y-101703895D01*
X142522164Y-101793218D01*
X142709294Y-101854021D01*
X142903618Y-101884800D01*
X143100382Y-101884800D01*
X143294705Y-101854021D01*
X143481835Y-101793218D01*
X143621205Y-101722207D01*
X143689875Y-101709311D01*
X143754615Y-101735588D01*
X143794872Y-101792694D01*
X143801500Y-101832692D01*
X143801500Y-102156481D01*
X143781815Y-102223520D01*
X143765181Y-102244162D01*
X143682888Y-102326454D01*
X143682885Y-102326458D01*
X143606228Y-102441182D01*
X143606221Y-102441195D01*
X143553421Y-102568667D01*
X143553418Y-102568677D01*
X143526500Y-102704004D01*
X143526500Y-102704007D01*
X143526500Y-102841993D01*
X143526500Y-102841995D01*
X143526499Y-102841995D01*
X143553418Y-102977322D01*
X143553421Y-102977332D01*
X143606221Y-103104804D01*
X143606228Y-103104817D01*
X143682885Y-103219541D01*
X143682888Y-103219545D01*
X143780454Y-103317111D01*
X143780458Y-103317114D01*
X143895182Y-103393771D01*
X143895195Y-103393778D01*
X144022667Y-103446578D01*
X144022672Y-103446580D01*
X144022676Y-103446580D01*
X144022677Y-103446581D01*
X144158004Y-103473500D01*
X144158007Y-103473500D01*
X144295995Y-103473500D01*
X144387041Y-103455389D01*
X144431328Y-103446580D01*
X144558811Y-103393775D01*
X144673542Y-103317114D01*
X144771114Y-103219542D01*
X144847775Y-103104811D01*
X144900580Y-102977328D01*
X144927500Y-102841993D01*
X144927500Y-102704007D01*
X144927500Y-102704004D01*
X144900581Y-102568677D01*
X144900580Y-102568676D01*
X144900580Y-102568672D01*
X144853863Y-102455886D01*
X144847778Y-102441195D01*
X144847771Y-102441182D01*
X144771114Y-102326458D01*
X144771111Y-102326454D01*
X144688819Y-102244162D01*
X144655334Y-102182839D01*
X144652500Y-102156481D01*
X144652500Y-101776989D01*
X144672185Y-101709950D01*
X144724989Y-101664195D01*
X144794147Y-101654251D01*
X144849386Y-101676672D01*
X144886852Y-101703893D01*
X145062164Y-101793218D01*
X145249294Y-101854021D01*
X145443618Y-101884800D01*
X145640382Y-101884800D01*
X145834705Y-101854021D01*
X146021835Y-101793218D01*
X146197143Y-101703895D01*
X146273079Y-101648722D01*
X146273080Y-101648722D01*
X145727177Y-101102819D01*
X145734993Y-101100725D01*
X145849007Y-101034899D01*
X145942099Y-100941807D01*
X146007925Y-100827793D01*
X146010019Y-100819977D01*
X146555922Y-101365880D01*
X146555922Y-101365879D01*
X146611097Y-101289941D01*
X146611097Y-101289940D01*
X146701515Y-101112485D01*
X146749489Y-101061688D01*
X146817310Y-101044893D01*
X146883445Y-101067430D01*
X146922485Y-101112485D01*
X147012902Y-101289941D01*
X147068076Y-101365879D01*
X147068076Y-101365880D01*
X147613980Y-100819975D01*
X147616075Y-100827793D01*
X147681901Y-100941807D01*
X147774993Y-101034899D01*
X147889007Y-101100725D01*
X147896820Y-101102818D01*
X147350918Y-101648721D01*
X147350919Y-101648722D01*
X147426856Y-101703895D01*
X147602164Y-101793218D01*
X147789281Y-101854017D01*
X147793708Y-101855080D01*
X147854302Y-101889867D01*
X147886469Y-101951892D01*
X147880543Y-102020065D01*
X147877040Y-102029194D01*
X147831929Y-102107331D01*
X147802932Y-102215550D01*
X147802932Y-102222397D01*
X147796308Y-102239666D01*
X147783638Y-102256267D01*
X147775186Y-102275362D01*
X147762870Y-102283481D01*
X147753920Y-102295209D01*
X147734286Y-102302325D01*
X147716852Y-102313819D01*
X147700265Y-102314656D01*
X147688232Y-102319018D01*
X147674716Y-102315946D01*
X147656342Y-102316874D01*
X147568997Y-102299500D01*
X147568993Y-102299500D01*
X147431007Y-102299500D01*
X147431005Y-102299500D01*
X147295677Y-102326418D01*
X147295667Y-102326421D01*
X147168195Y-102379221D01*
X147168182Y-102379228D01*
X147053458Y-102455885D01*
X147053454Y-102455888D01*
X146971162Y-102538181D01*
X146909839Y-102571666D01*
X146883481Y-102574500D01*
X146616519Y-102574500D01*
X146549480Y-102554815D01*
X146528838Y-102538181D01*
X146446545Y-102455888D01*
X146446541Y-102455885D01*
X146331817Y-102379228D01*
X146331804Y-102379221D01*
X146204332Y-102326421D01*
X146204322Y-102326418D01*
X146068995Y-102299500D01*
X146068993Y-102299500D01*
X145931007Y-102299500D01*
X145931005Y-102299500D01*
X145795677Y-102326418D01*
X145795667Y-102326421D01*
X145668195Y-102379221D01*
X145668182Y-102379228D01*
X145553458Y-102455885D01*
X145553454Y-102455888D01*
X145455888Y-102553454D01*
X145455885Y-102553458D01*
X145379228Y-102668182D01*
X145379221Y-102668195D01*
X145326421Y-102795667D01*
X145326418Y-102795677D01*
X145299500Y-102931004D01*
X145299500Y-102931007D01*
X145299500Y-103068993D01*
X145299500Y-103068995D01*
X145299499Y-103068995D01*
X145326418Y-103204322D01*
X145326421Y-103204332D01*
X145379221Y-103331804D01*
X145379228Y-103331817D01*
X145455885Y-103446541D01*
X145455888Y-103446545D01*
X145553454Y-103544111D01*
X145553458Y-103544114D01*
X145668182Y-103620771D01*
X145668195Y-103620778D01*
X145795667Y-103673578D01*
X145795672Y-103673580D01*
X145795676Y-103673580D01*
X145795677Y-103673581D01*
X145931004Y-103700500D01*
X145931007Y-103700500D01*
X146068995Y-103700500D01*
X146160041Y-103682389D01*
X146204328Y-103673580D01*
X146331811Y-103620775D01*
X146446542Y-103544114D01*
X146446545Y-103544111D01*
X146528838Y-103461819D01*
X146590161Y-103428334D01*
X146616519Y-103425500D01*
X146883481Y-103425500D01*
X146950520Y-103445185D01*
X146971162Y-103461819D01*
X147053454Y-103544111D01*
X147053458Y-103544114D01*
X147168182Y-103620771D01*
X147168195Y-103620778D01*
X147295667Y-103673578D01*
X147295672Y-103673580D01*
X147295676Y-103673580D01*
X147295677Y-103673581D01*
X147431004Y-103700500D01*
X147431007Y-103700500D01*
X147568995Y-103700500D01*
X147654740Y-103683444D01*
X147724332Y-103689671D01*
X147779509Y-103732534D01*
X147802754Y-103798424D01*
X147802932Y-103805061D01*
X147802932Y-105305383D01*
X147783247Y-105372422D01*
X147730443Y-105418177D01*
X147661285Y-105428121D01*
X147610042Y-105408486D01*
X147556815Y-105372921D01*
X147556804Y-105372915D01*
X147429332Y-105320115D01*
X147429322Y-105320112D01*
X147293995Y-105293194D01*
X147293993Y-105293194D01*
X147156007Y-105293194D01*
X147156005Y-105293194D01*
X147020677Y-105320112D01*
X147020667Y-105320115D01*
X146893195Y-105372915D01*
X146893182Y-105372922D01*
X146778458Y-105449579D01*
X146778454Y-105449582D01*
X146689856Y-105538181D01*
X146628533Y-105571666D01*
X146602175Y-105574500D01*
X140616519Y-105574500D01*
X140549480Y-105554815D01*
X140528838Y-105538181D01*
X140446545Y-105455888D01*
X140446541Y-105455885D01*
X140331817Y-105379228D01*
X140331804Y-105379221D01*
X140204332Y-105326421D01*
X140204322Y-105326418D01*
X140068995Y-105299500D01*
X140068993Y-105299500D01*
X139931007Y-105299500D01*
X139931005Y-105299500D01*
X139795677Y-105326418D01*
X139795667Y-105326421D01*
X139668195Y-105379221D01*
X139668182Y-105379228D01*
X139553458Y-105455885D01*
X139553454Y-105455888D01*
X139455888Y-105553454D01*
X139455885Y-105553458D01*
X139379228Y-105668182D01*
X139379221Y-105668195D01*
X139326421Y-105795667D01*
X139326418Y-105795677D01*
X139299500Y-105931004D01*
X139299500Y-105931007D01*
X139299500Y-106068993D01*
X139299500Y-106068995D01*
X139299499Y-106068995D01*
X139326418Y-106204322D01*
X139326421Y-106204332D01*
X139379221Y-106331804D01*
X139379225Y-106331811D01*
X139384028Y-106338999D01*
X139404906Y-106405677D01*
X139386422Y-106473057D01*
X139334443Y-106519748D01*
X139280926Y-106531891D01*
X129486591Y-106531891D01*
X129378372Y-106560888D01*
X129378369Y-106560889D01*
X129281349Y-106616904D01*
X129281343Y-106616908D01*
X129031108Y-106867143D01*
X129031104Y-106867149D01*
X128975089Y-106964169D01*
X128975088Y-106964172D01*
X128946091Y-107072391D01*
X128946091Y-110876033D01*
X128941320Y-110892280D01*
X128941569Y-110909215D01*
X128931679Y-110925111D01*
X128926406Y-110943072D01*
X128913608Y-110954161D01*
X128904662Y-110968542D01*
X128887749Y-110976568D01*
X128873602Y-110988827D01*
X128856450Y-110991421D01*
X128841540Y-110998498D01*
X128818038Y-110998812D01*
X128818038Y-110999500D01*
X128817953Y-110999500D01*
X128816414Y-110999400D01*
X128743699Y-110999500D01*
X95872228Y-110999500D01*
X95805189Y-110979815D01*
X95759434Y-110927011D01*
X95748228Y-110875552D01*
X95746840Y-107575782D01*
X95743635Y-99956128D01*
X95741730Y-95425500D01*
X95741165Y-94081648D01*
X167286846Y-94081648D01*
X167313765Y-94216975D01*
X167313768Y-94216985D01*
X167366568Y-94344457D01*
X167366575Y-94344470D01*
X167443232Y-94459194D01*
X167443235Y-94459198D01*
X167540801Y-94556764D01*
X167540805Y-94556767D01*
X167655529Y-94633424D01*
X167655533Y-94633426D01*
X167655536Y-94633428D01*
X167749212Y-94672230D01*
X167803612Y-94716068D01*
X167825678Y-94782362D01*
X167823374Y-94810980D01*
X167799500Y-94931002D01*
X167799500Y-94931007D01*
X167799500Y-95068993D01*
X167799500Y-95068995D01*
X167799499Y-95068995D01*
X167826418Y-95204322D01*
X167826421Y-95204332D01*
X167879221Y-95331804D01*
X167879228Y-95331817D01*
X167955885Y-95446541D01*
X167955888Y-95446545D01*
X168053454Y-95544111D01*
X168053458Y-95544114D01*
X168168182Y-95620771D01*
X168168195Y-95620778D01*
X168295667Y-95673578D01*
X168295672Y-95673580D01*
X168295676Y-95673580D01*
X168295677Y-95673581D01*
X168431004Y-95700500D01*
X168431007Y-95700500D01*
X168568995Y-95700500D01*
X168660041Y-95682389D01*
X168704328Y-95673580D01*
X168831811Y-95620775D01*
X168946542Y-95544114D01*
X168946545Y-95544111D01*
X169028838Y-95461819D01*
X169090161Y-95428334D01*
X169116519Y-95425500D01*
X170558481Y-95425500D01*
X170625520Y-95445185D01*
X170646162Y-95461819D01*
X170728454Y-95544111D01*
X170728458Y-95544114D01*
X170843182Y-95620771D01*
X170843195Y-95620778D01*
X170970667Y-95673578D01*
X170970672Y-95673580D01*
X170970676Y-95673580D01*
X170970677Y-95673581D01*
X171106004Y-95700500D01*
X171106007Y-95700500D01*
X171243995Y-95700500D01*
X171335041Y-95682389D01*
X171379328Y-95673580D01*
X171506811Y-95620775D01*
X171621542Y-95544114D01*
X171719114Y-95446542D01*
X171795775Y-95331811D01*
X171848580Y-95204328D01*
X171875500Y-95068993D01*
X171875500Y-94931007D01*
X171875500Y-94931004D01*
X171848581Y-94795677D01*
X171848580Y-94795676D01*
X171848580Y-94795672D01*
X171815607Y-94716068D01*
X171795778Y-94668195D01*
X171795771Y-94668182D01*
X171719114Y-94553458D01*
X171719111Y-94553454D01*
X171621545Y-94455888D01*
X171621541Y-94455885D01*
X171506817Y-94379228D01*
X171506804Y-94379221D01*
X171379332Y-94326421D01*
X171379322Y-94326418D01*
X171243995Y-94299500D01*
X171243993Y-94299500D01*
X171106007Y-94299500D01*
X171106005Y-94299500D01*
X170970677Y-94326418D01*
X170970667Y-94326421D01*
X170843195Y-94379221D01*
X170843182Y-94379228D01*
X170728458Y-94455885D01*
X170728454Y-94455888D01*
X170646162Y-94538181D01*
X170619234Y-94552884D01*
X170593416Y-94569477D01*
X170587215Y-94570368D01*
X170584839Y-94571666D01*
X170558481Y-94574500D01*
X170391456Y-94574500D01*
X170324417Y-94554815D01*
X170278662Y-94502011D01*
X170268718Y-94432853D01*
X170288354Y-94381609D01*
X170344932Y-94296933D01*
X170344932Y-94296932D01*
X170344936Y-94296927D01*
X170397741Y-94169444D01*
X170424661Y-94034109D01*
X170424661Y-93896123D01*
X170424661Y-93896120D01*
X170397742Y-93760793D01*
X170397741Y-93760792D01*
X170397741Y-93760788D01*
X170364629Y-93680848D01*
X170344939Y-93633311D01*
X170344932Y-93633298D01*
X170268275Y-93518574D01*
X170268272Y-93518570D01*
X170170706Y-93421004D01*
X170170702Y-93421001D01*
X170055978Y-93344344D01*
X170055965Y-93344337D01*
X169928493Y-93291537D01*
X169928483Y-93291534D01*
X169793156Y-93264616D01*
X169793154Y-93264616D01*
X169655168Y-93264616D01*
X169655166Y-93264616D01*
X169519838Y-93291534D01*
X169519828Y-93291537D01*
X169392356Y-93344337D01*
X169392343Y-93344344D01*
X169277619Y-93421001D01*
X169277615Y-93421004D01*
X169180047Y-93518572D01*
X169179503Y-93519388D01*
X169179107Y-93519718D01*
X169176183Y-93523282D01*
X169175507Y-93522727D01*
X169125892Y-93564195D01*
X169076399Y-93574500D01*
X168591212Y-93574500D01*
X168524173Y-93554815D01*
X168503535Y-93538185D01*
X168433889Y-93468539D01*
X168433888Y-93468538D01*
X168433887Y-93468537D01*
X168319164Y-93391881D01*
X168319151Y-93391874D01*
X168191679Y-93339074D01*
X168191669Y-93339071D01*
X168056342Y-93312153D01*
X168056340Y-93312153D01*
X167918354Y-93312153D01*
X167918352Y-93312153D01*
X167783024Y-93339071D01*
X167783014Y-93339074D01*
X167655542Y-93391874D01*
X167655529Y-93391881D01*
X167540805Y-93468538D01*
X167540801Y-93468541D01*
X167443235Y-93566107D01*
X167443232Y-93566111D01*
X167366575Y-93680835D01*
X167366568Y-93680848D01*
X167313768Y-93808320D01*
X167313765Y-93808330D01*
X167286847Y-93943657D01*
X167286847Y-93943660D01*
X167286847Y-94081646D01*
X167286847Y-94081648D01*
X167286846Y-94081648D01*
X95741165Y-94081648D01*
X95740762Y-93124551D01*
X95760418Y-93057504D01*
X95813203Y-93011727D01*
X95864762Y-93000500D01*
X173615500Y-93000500D01*
X173682539Y-93020185D01*
G37*
%TD.AperFunction*%
%TA.AperFunction,Conductor*%
G36*
X143230062Y-115782332D02*
G01*
X143288295Y-115820942D01*
X143315905Y-115881400D01*
X143341261Y-116041489D01*
X143397219Y-116213715D01*
X143397220Y-116213718D01*
X143479438Y-116375076D01*
X143585873Y-116521573D01*
X143585877Y-116521578D01*
X143713932Y-116649633D01*
X143713937Y-116649637D01*
X143816622Y-116724241D01*
X143860438Y-116756075D01*
X143936526Y-116794844D01*
X144021792Y-116838290D01*
X144021795Y-116838291D01*
X144088577Y-116859989D01*
X144194023Y-116894250D01*
X144276861Y-116907370D01*
X144372881Y-116922579D01*
X144372886Y-116922579D01*
X144553983Y-116922579D01*
X144640691Y-116908844D01*
X144732841Y-116894250D01*
X144905071Y-116838290D01*
X145066426Y-116756075D01*
X145212933Y-116649632D01*
X145340985Y-116521580D01*
X145447428Y-116375073D01*
X145529643Y-116213718D01*
X145563191Y-116110467D01*
X145602628Y-116052791D01*
X145666986Y-116025592D01*
X145735833Y-116037506D01*
X145787309Y-116084750D01*
X145799053Y-116110465D01*
X145845014Y-116251916D01*
X145934336Y-116427222D01*
X145989508Y-116503158D01*
X145989509Y-116503159D01*
X146535412Y-115957255D01*
X146537507Y-115965072D01*
X146603333Y-116079086D01*
X146696425Y-116172178D01*
X146810439Y-116238004D01*
X146818252Y-116240097D01*
X146272350Y-116786000D01*
X146272351Y-116786001D01*
X146348288Y-116841174D01*
X146523596Y-116930497D01*
X146710726Y-116991300D01*
X146905050Y-117022079D01*
X147101814Y-117022079D01*
X147296137Y-116991300D01*
X147483267Y-116930497D01*
X147622637Y-116859486D01*
X147691307Y-116846590D01*
X147756047Y-116872867D01*
X147796304Y-116929973D01*
X147802932Y-116969971D01*
X147802932Y-117950500D01*
X147783247Y-118017539D01*
X147730443Y-118063294D01*
X147678932Y-118074500D01*
X139932932Y-118074500D01*
X139865893Y-118054815D01*
X139820138Y-118002011D01*
X139808932Y-117950500D01*
X139808932Y-116922500D01*
X139828617Y-116855461D01*
X139876635Y-116812016D01*
X139986426Y-116756075D01*
X140132933Y-116649632D01*
X140260985Y-116521580D01*
X140367428Y-116375073D01*
X140449643Y-116213718D01*
X140505603Y-116041488D01*
X140519854Y-115951504D01*
X140530959Y-115881400D01*
X140560888Y-115818265D01*
X140620200Y-115781334D01*
X140690062Y-115782332D01*
X140748295Y-115820942D01*
X140775905Y-115881400D01*
X140801261Y-116041489D01*
X140857219Y-116213715D01*
X140857220Y-116213718D01*
X140939438Y-116375076D01*
X141045873Y-116521573D01*
X141045877Y-116521578D01*
X141173932Y-116649633D01*
X141173937Y-116649637D01*
X141276622Y-116724241D01*
X141320438Y-116756075D01*
X141396526Y-116794844D01*
X141481792Y-116838290D01*
X141481795Y-116838291D01*
X141548577Y-116859989D01*
X141654023Y-116894250D01*
X141736861Y-116907370D01*
X141832881Y-116922579D01*
X141832886Y-116922579D01*
X142013983Y-116922579D01*
X142100691Y-116908844D01*
X142192841Y-116894250D01*
X142365071Y-116838290D01*
X142526426Y-116756075D01*
X142672933Y-116649632D01*
X142800985Y-116521580D01*
X142907428Y-116375073D01*
X142989643Y-116213718D01*
X143045603Y-116041488D01*
X143059854Y-115951504D01*
X143070959Y-115881400D01*
X143100888Y-115818265D01*
X143160200Y-115781334D01*
X143230062Y-115782332D01*
G37*
%TD.AperFunction*%
%TA.AperFunction,Conductor*%
G36*
X136377507Y-113425072D02*
G01*
X136443333Y-113539086D01*
X136536425Y-113632178D01*
X136650439Y-113698004D01*
X136658254Y-113700098D01*
X136112350Y-114246001D01*
X136188288Y-114301174D01*
X136363596Y-114390497D01*
X136505044Y-114436457D01*
X136562720Y-114475894D01*
X136589918Y-114540253D01*
X136578003Y-114609099D01*
X136530759Y-114660575D01*
X136505044Y-114672319D01*
X136401795Y-114705866D01*
X136401792Y-114705867D01*
X136240434Y-114788085D01*
X136093937Y-114894520D01*
X136093932Y-114894524D01*
X135965877Y-115022579D01*
X135965873Y-115022584D01*
X135859438Y-115169081D01*
X135777220Y-115330439D01*
X135777219Y-115330442D01*
X135721261Y-115502668D01*
X135695905Y-115662757D01*
X135665976Y-115725892D01*
X135606664Y-115762823D01*
X135536801Y-115761825D01*
X135478569Y-115723215D01*
X135450959Y-115662757D01*
X135431987Y-115542977D01*
X135425603Y-115502670D01*
X135369643Y-115330440D01*
X135369643Y-115330439D01*
X135327806Y-115248331D01*
X135287428Y-115169085D01*
X135194368Y-115040998D01*
X135180990Y-115022584D01*
X135180986Y-115022579D01*
X135052931Y-114894524D01*
X135052926Y-114894520D01*
X134906429Y-114788085D01*
X134906428Y-114788084D01*
X134906426Y-114788083D01*
X134847689Y-114758155D01*
X134745071Y-114705867D01*
X134745068Y-114705866D01*
X134572842Y-114649908D01*
X134412753Y-114624552D01*
X134349618Y-114594623D01*
X134312687Y-114535311D01*
X134313685Y-114465449D01*
X134352295Y-114407216D01*
X134412753Y-114379606D01*
X134482857Y-114368501D01*
X134572841Y-114354250D01*
X134745071Y-114298290D01*
X134906426Y-114216075D01*
X135052933Y-114109632D01*
X135180985Y-113981580D01*
X135287428Y-113835073D01*
X135369643Y-113673718D01*
X135403191Y-113570467D01*
X135442628Y-113512791D01*
X135506986Y-113485592D01*
X135575833Y-113497506D01*
X135627309Y-113544750D01*
X135639053Y-113570465D01*
X135685014Y-113711916D01*
X135774336Y-113887222D01*
X135829508Y-113963158D01*
X135829509Y-113963159D01*
X136375412Y-113417255D01*
X136377507Y-113425072D01*
G37*
%TD.AperFunction*%
%TA.AperFunction,Conductor*%
G36*
X137857354Y-113963159D02*
G01*
X137857354Y-113963158D01*
X137912527Y-113887222D01*
X138001850Y-113711914D01*
X138047810Y-113570466D01*
X138087247Y-113512791D01*
X138151606Y-113485592D01*
X138220452Y-113497507D01*
X138271928Y-113544751D01*
X138283672Y-113570466D01*
X138317219Y-113673715D01*
X138317220Y-113673718D01*
X138348408Y-113734926D01*
X138390544Y-113817622D01*
X138399438Y-113835076D01*
X138505873Y-113981573D01*
X138505877Y-113981578D01*
X138633932Y-114109633D01*
X138633937Y-114109637D01*
X138736622Y-114184241D01*
X138780438Y-114216075D01*
X138864292Y-114258801D01*
X138941792Y-114298290D01*
X138941795Y-114298291D01*
X139027908Y-114326270D01*
X139114023Y-114354250D01*
X139187071Y-114365819D01*
X139274110Y-114379606D01*
X139337245Y-114409535D01*
X139374176Y-114468847D01*
X139373178Y-114538710D01*
X139334568Y-114596942D01*
X139274110Y-114624552D01*
X139114021Y-114649908D01*
X138941795Y-114705866D01*
X138941792Y-114705867D01*
X138780434Y-114788085D01*
X138633937Y-114894520D01*
X138633932Y-114894524D01*
X138505877Y-115022579D01*
X138505873Y-115022584D01*
X138399438Y-115169081D01*
X138317220Y-115330439D01*
X138317219Y-115330442D01*
X138261261Y-115502668D01*
X138235905Y-115662757D01*
X138205976Y-115725892D01*
X138146664Y-115762823D01*
X138076801Y-115761825D01*
X138018569Y-115723215D01*
X137990959Y-115662757D01*
X137971987Y-115542977D01*
X137965603Y-115502670D01*
X137909643Y-115330440D01*
X137909643Y-115330439D01*
X137867806Y-115248331D01*
X137827428Y-115169085D01*
X137734368Y-115040998D01*
X137720990Y-115022584D01*
X137720986Y-115022579D01*
X137592931Y-114894524D01*
X137592926Y-114894520D01*
X137446429Y-114788085D01*
X137446428Y-114788084D01*
X137446426Y-114788083D01*
X137387689Y-114758155D01*
X137285071Y-114705867D01*
X137285068Y-114705866D01*
X137181819Y-114672319D01*
X137124143Y-114632882D01*
X137096945Y-114568523D01*
X137108860Y-114499677D01*
X137156104Y-114448201D01*
X137181819Y-114436457D01*
X137323267Y-114390497D01*
X137498575Y-114301174D01*
X137574511Y-114246001D01*
X137574512Y-114246000D01*
X137028610Y-113700098D01*
X137036425Y-113698004D01*
X137150439Y-113632178D01*
X137243531Y-113539086D01*
X137309357Y-113425072D01*
X137311451Y-113417256D01*
X137857354Y-113963159D01*
G37*
%TD.AperFunction*%
%TA.AperFunction,Conductor*%
G36*
X141457507Y-113425072D02*
G01*
X141523333Y-113539086D01*
X141616425Y-113632178D01*
X141730439Y-113698004D01*
X141738254Y-113700098D01*
X141192350Y-114246001D01*
X141268288Y-114301174D01*
X141443596Y-114390497D01*
X141585044Y-114436457D01*
X141642720Y-114475894D01*
X141669918Y-114540253D01*
X141658003Y-114609099D01*
X141610759Y-114660575D01*
X141585044Y-114672319D01*
X141481795Y-114705866D01*
X141481792Y-114705867D01*
X141320434Y-114788085D01*
X141173937Y-114894520D01*
X141173932Y-114894524D01*
X141045877Y-115022579D01*
X141045873Y-115022584D01*
X140939438Y-115169081D01*
X140857220Y-115330439D01*
X140857219Y-115330442D01*
X140801261Y-115502668D01*
X140775905Y-115662757D01*
X140745976Y-115725892D01*
X140686664Y-115762823D01*
X140616801Y-115761825D01*
X140558569Y-115723215D01*
X140530959Y-115662757D01*
X140511987Y-115542977D01*
X140505603Y-115502670D01*
X140449643Y-115330440D01*
X140449643Y-115330439D01*
X140407806Y-115248331D01*
X140367428Y-115169085D01*
X140274368Y-115040998D01*
X140260990Y-115022584D01*
X140260986Y-115022579D01*
X140132931Y-114894524D01*
X140132926Y-114894520D01*
X139986429Y-114788085D01*
X139986428Y-114788084D01*
X139986426Y-114788083D01*
X139927689Y-114758155D01*
X139825071Y-114705867D01*
X139825068Y-114705866D01*
X139652842Y-114649908D01*
X139492753Y-114624552D01*
X139429618Y-114594623D01*
X139392687Y-114535311D01*
X139393685Y-114465449D01*
X139432295Y-114407216D01*
X139492753Y-114379606D01*
X139562857Y-114368501D01*
X139652841Y-114354250D01*
X139825071Y-114298290D01*
X139986426Y-114216075D01*
X140132933Y-114109632D01*
X140260985Y-113981580D01*
X140367428Y-113835073D01*
X140449643Y-113673718D01*
X140483191Y-113570467D01*
X140522628Y-113512791D01*
X140586986Y-113485592D01*
X140655833Y-113497506D01*
X140707309Y-113544750D01*
X140719053Y-113570465D01*
X140765014Y-113711916D01*
X140854336Y-113887222D01*
X140909508Y-113963158D01*
X140909509Y-113963159D01*
X141455412Y-113417255D01*
X141457507Y-113425072D01*
G37*
%TD.AperFunction*%
%TA.AperFunction,Conductor*%
G36*
X142937353Y-113963159D02*
G01*
X142937354Y-113963158D01*
X142992527Y-113887222D01*
X143081850Y-113711914D01*
X143127810Y-113570466D01*
X143167247Y-113512791D01*
X143231606Y-113485592D01*
X143300452Y-113497507D01*
X143351928Y-113544751D01*
X143363672Y-113570466D01*
X143397219Y-113673715D01*
X143397220Y-113673718D01*
X143428408Y-113734926D01*
X143470544Y-113817622D01*
X143479438Y-113835076D01*
X143585873Y-113981573D01*
X143585877Y-113981578D01*
X143713932Y-114109633D01*
X143713937Y-114109637D01*
X143816622Y-114184241D01*
X143860438Y-114216075D01*
X143944292Y-114258801D01*
X144021792Y-114298290D01*
X144021795Y-114298291D01*
X144107908Y-114326270D01*
X144194023Y-114354250D01*
X144267071Y-114365819D01*
X144354110Y-114379606D01*
X144417245Y-114409535D01*
X144454176Y-114468847D01*
X144453178Y-114538710D01*
X144414568Y-114596942D01*
X144354110Y-114624552D01*
X144194021Y-114649908D01*
X144021795Y-114705866D01*
X144021792Y-114705867D01*
X143860434Y-114788085D01*
X143713937Y-114894520D01*
X143713932Y-114894524D01*
X143585877Y-115022579D01*
X143585873Y-115022584D01*
X143479438Y-115169081D01*
X143397220Y-115330439D01*
X143397219Y-115330442D01*
X143341261Y-115502668D01*
X143315905Y-115662757D01*
X143285976Y-115725892D01*
X143226664Y-115762823D01*
X143156801Y-115761825D01*
X143098569Y-115723215D01*
X143070959Y-115662757D01*
X143051987Y-115542977D01*
X143045603Y-115502670D01*
X142989643Y-115330440D01*
X142989643Y-115330439D01*
X142947806Y-115248331D01*
X142907428Y-115169085D01*
X142814368Y-115040998D01*
X142800990Y-115022584D01*
X142800986Y-115022579D01*
X142672931Y-114894524D01*
X142672926Y-114894520D01*
X142526429Y-114788085D01*
X142526428Y-114788084D01*
X142526426Y-114788083D01*
X142467689Y-114758155D01*
X142365071Y-114705867D01*
X142365068Y-114705866D01*
X142261819Y-114672319D01*
X142204143Y-114632882D01*
X142176945Y-114568523D01*
X142188860Y-114499677D01*
X142236104Y-114448201D01*
X142261819Y-114436457D01*
X142403267Y-114390497D01*
X142578575Y-114301174D01*
X142654511Y-114246001D01*
X142654512Y-114246000D01*
X142108610Y-113700098D01*
X142116425Y-113698004D01*
X142230439Y-113632178D01*
X142323531Y-113539086D01*
X142389357Y-113425072D01*
X142391451Y-113417256D01*
X142937353Y-113963159D01*
G37*
%TD.AperFunction*%
%TA.AperFunction,Conductor*%
G36*
X156697507Y-113425072D02*
G01*
X156763333Y-113539086D01*
X156856425Y-113632178D01*
X156970439Y-113698004D01*
X156978254Y-113700098D01*
X156432350Y-114246001D01*
X156508288Y-114301174D01*
X156683596Y-114390497D01*
X156825044Y-114436457D01*
X156882720Y-114475894D01*
X156909918Y-114540253D01*
X156898003Y-114609099D01*
X156850759Y-114660575D01*
X156825044Y-114672319D01*
X156721795Y-114705866D01*
X156721792Y-114705867D01*
X156560434Y-114788085D01*
X156413937Y-114894520D01*
X156413932Y-114894524D01*
X156285877Y-115022579D01*
X156285873Y-115022584D01*
X156179438Y-115169081D01*
X156097220Y-115330439D01*
X156097219Y-115330442D01*
X156041261Y-115502668D01*
X156015905Y-115662757D01*
X155985976Y-115725892D01*
X155926664Y-115762823D01*
X155856801Y-115761825D01*
X155798569Y-115723215D01*
X155770959Y-115662757D01*
X155751987Y-115542977D01*
X155745603Y-115502670D01*
X155689643Y-115330440D01*
X155689643Y-115330439D01*
X155647806Y-115248331D01*
X155607428Y-115169085D01*
X155514368Y-115040998D01*
X155500990Y-115022584D01*
X155500986Y-115022579D01*
X155372931Y-114894524D01*
X155372926Y-114894520D01*
X155226429Y-114788085D01*
X155226428Y-114788084D01*
X155226426Y-114788083D01*
X155167689Y-114758155D01*
X155065071Y-114705867D01*
X155065068Y-114705866D01*
X154892842Y-114649908D01*
X154732753Y-114624552D01*
X154669618Y-114594623D01*
X154632687Y-114535311D01*
X154633685Y-114465449D01*
X154672295Y-114407216D01*
X154732753Y-114379606D01*
X154802857Y-114368501D01*
X154892841Y-114354250D01*
X155065071Y-114298290D01*
X155226426Y-114216075D01*
X155372933Y-114109632D01*
X155500985Y-113981580D01*
X155607428Y-113835073D01*
X155689643Y-113673718D01*
X155723191Y-113570467D01*
X155762628Y-113512791D01*
X155826986Y-113485592D01*
X155895833Y-113497506D01*
X155947309Y-113544750D01*
X155959053Y-113570465D01*
X156005014Y-113711916D01*
X156094336Y-113887222D01*
X156149508Y-113963158D01*
X156149509Y-113963159D01*
X156695412Y-113417255D01*
X156697507Y-113425072D01*
G37*
%TD.AperFunction*%
%TA.AperFunction,Conductor*%
G36*
X158177353Y-113963159D02*
G01*
X158177354Y-113963158D01*
X158232527Y-113887222D01*
X158321850Y-113711914D01*
X158367810Y-113570466D01*
X158407247Y-113512791D01*
X158471606Y-113485592D01*
X158540452Y-113497507D01*
X158591928Y-113544751D01*
X158603672Y-113570466D01*
X158637219Y-113673715D01*
X158637220Y-113673718D01*
X158668408Y-113734926D01*
X158710544Y-113817622D01*
X158719438Y-113835076D01*
X158825873Y-113981573D01*
X158825877Y-113981578D01*
X158953932Y-114109633D01*
X158953937Y-114109637D01*
X159056622Y-114184241D01*
X159100438Y-114216075D01*
X159184292Y-114258801D01*
X159261792Y-114298290D01*
X159261795Y-114298291D01*
X159347908Y-114326270D01*
X159434023Y-114354250D01*
X159507071Y-114365819D01*
X159594110Y-114379606D01*
X159657245Y-114409535D01*
X159694176Y-114468847D01*
X159693178Y-114538710D01*
X159654568Y-114596942D01*
X159594110Y-114624552D01*
X159434021Y-114649908D01*
X159261795Y-114705866D01*
X159261792Y-114705867D01*
X159100434Y-114788085D01*
X158953937Y-114894520D01*
X158953932Y-114894524D01*
X158825877Y-115022579D01*
X158825873Y-115022584D01*
X158719438Y-115169081D01*
X158637220Y-115330439D01*
X158637219Y-115330442D01*
X158581261Y-115502668D01*
X158555905Y-115662757D01*
X158525976Y-115725892D01*
X158466664Y-115762823D01*
X158396801Y-115761825D01*
X158338569Y-115723215D01*
X158310959Y-115662757D01*
X158291987Y-115542977D01*
X158285603Y-115502670D01*
X158229643Y-115330440D01*
X158229643Y-115330439D01*
X158187806Y-115248331D01*
X158147428Y-115169085D01*
X158054368Y-115040998D01*
X158040990Y-115022584D01*
X158040986Y-115022579D01*
X157912931Y-114894524D01*
X157912926Y-114894520D01*
X157766429Y-114788085D01*
X157766428Y-114788084D01*
X157766426Y-114788083D01*
X157707689Y-114758155D01*
X157605071Y-114705867D01*
X157605068Y-114705866D01*
X157501819Y-114672319D01*
X157444143Y-114632882D01*
X157416945Y-114568523D01*
X157428860Y-114499677D01*
X157476104Y-114448201D01*
X157501819Y-114436457D01*
X157643267Y-114390497D01*
X157818575Y-114301174D01*
X157894511Y-114246001D01*
X157894512Y-114246000D01*
X157348610Y-113700098D01*
X157356425Y-113698004D01*
X157470439Y-113632178D01*
X157563531Y-113539086D01*
X157629357Y-113425072D01*
X157631451Y-113417256D01*
X158177353Y-113963159D01*
G37*
%TD.AperFunction*%
%TA.AperFunction,Conductor*%
G36*
X161777507Y-113425072D02*
G01*
X161843333Y-113539086D01*
X161936425Y-113632178D01*
X162050439Y-113698004D01*
X162058254Y-113700098D01*
X161512350Y-114246001D01*
X161588288Y-114301174D01*
X161763596Y-114390497D01*
X161905044Y-114436457D01*
X161962720Y-114475894D01*
X161989918Y-114540253D01*
X161978003Y-114609099D01*
X161930759Y-114660575D01*
X161905044Y-114672319D01*
X161801795Y-114705866D01*
X161801792Y-114705867D01*
X161640434Y-114788085D01*
X161493937Y-114894520D01*
X161493932Y-114894524D01*
X161365877Y-115022579D01*
X161365873Y-115022584D01*
X161259438Y-115169081D01*
X161177220Y-115330439D01*
X161177219Y-115330442D01*
X161121261Y-115502668D01*
X161095905Y-115662757D01*
X161065976Y-115725892D01*
X161006664Y-115762823D01*
X160936801Y-115761825D01*
X160878569Y-115723215D01*
X160850959Y-115662757D01*
X160831987Y-115542977D01*
X160825603Y-115502670D01*
X160769643Y-115330440D01*
X160769643Y-115330439D01*
X160727806Y-115248331D01*
X160687428Y-115169085D01*
X160594368Y-115040998D01*
X160580990Y-115022584D01*
X160580986Y-115022579D01*
X160452931Y-114894524D01*
X160452926Y-114894520D01*
X160306429Y-114788085D01*
X160306428Y-114788084D01*
X160306426Y-114788083D01*
X160247689Y-114758155D01*
X160145071Y-114705867D01*
X160145068Y-114705866D01*
X159972842Y-114649908D01*
X159812753Y-114624552D01*
X159749618Y-114594623D01*
X159712687Y-114535311D01*
X159713685Y-114465449D01*
X159752295Y-114407216D01*
X159812753Y-114379606D01*
X159882857Y-114368501D01*
X159972841Y-114354250D01*
X160145071Y-114298290D01*
X160306426Y-114216075D01*
X160452933Y-114109632D01*
X160580985Y-113981580D01*
X160687428Y-113835073D01*
X160769643Y-113673718D01*
X160803191Y-113570467D01*
X160842628Y-113512791D01*
X160906986Y-113485592D01*
X160975833Y-113497506D01*
X161027309Y-113544750D01*
X161039053Y-113570465D01*
X161085014Y-113711916D01*
X161174336Y-113887222D01*
X161229508Y-113963158D01*
X161229509Y-113963159D01*
X161775412Y-113417255D01*
X161777507Y-113425072D01*
G37*
%TD.AperFunction*%
%TA.AperFunction,Conductor*%
G36*
X132777353Y-113963159D02*
G01*
X132777354Y-113963158D01*
X132832527Y-113887222D01*
X132921850Y-113711914D01*
X132967810Y-113570466D01*
X133007247Y-113512791D01*
X133071606Y-113485592D01*
X133140452Y-113497507D01*
X133191928Y-113544751D01*
X133203672Y-113570466D01*
X133237219Y-113673715D01*
X133237220Y-113673718D01*
X133268408Y-113734926D01*
X133310544Y-113817622D01*
X133319438Y-113835076D01*
X133425873Y-113981573D01*
X133425877Y-113981578D01*
X133553932Y-114109633D01*
X133553937Y-114109637D01*
X133656622Y-114184241D01*
X133700438Y-114216075D01*
X133784292Y-114258801D01*
X133861792Y-114298290D01*
X133861795Y-114298291D01*
X133947908Y-114326270D01*
X134034023Y-114354250D01*
X134107071Y-114365819D01*
X134194110Y-114379606D01*
X134257245Y-114409535D01*
X134294176Y-114468847D01*
X134293178Y-114538710D01*
X134254568Y-114596942D01*
X134194110Y-114624552D01*
X134034021Y-114649908D01*
X133861795Y-114705866D01*
X133861792Y-114705867D01*
X133700434Y-114788085D01*
X133553937Y-114894520D01*
X133553932Y-114894524D01*
X133425877Y-115022579D01*
X133425873Y-115022584D01*
X133319438Y-115169081D01*
X133237220Y-115330439D01*
X133237219Y-115330442D01*
X133181261Y-115502668D01*
X133160404Y-115634350D01*
X133130474Y-115697484D01*
X133071163Y-115734415D01*
X133001300Y-115733417D01*
X132943068Y-115694807D01*
X132914954Y-115630843D01*
X132913931Y-115614951D01*
X132913931Y-114877222D01*
X132913931Y-114877215D01*
X132913929Y-114877196D01*
X132911018Y-114852091D01*
X132911017Y-114852089D01*
X132911017Y-114852088D01*
X132865638Y-114749314D01*
X132786197Y-114669873D01*
X132765139Y-114660575D01*
X132683424Y-114624494D01*
X132658300Y-114621579D01*
X132658297Y-114621579D01*
X132306243Y-114621579D01*
X132239204Y-114601894D01*
X132193449Y-114549090D01*
X132183505Y-114479932D01*
X132212530Y-114416376D01*
X132249948Y-114387094D01*
X132418575Y-114301174D01*
X132494511Y-114246001D01*
X132494512Y-114246001D01*
X131948609Y-113700098D01*
X131956425Y-113698004D01*
X132070439Y-113632178D01*
X132163531Y-113539086D01*
X132229357Y-113425072D01*
X132231451Y-113417256D01*
X132777353Y-113963159D01*
G37*
%TD.AperFunction*%
%TA.AperFunction,Conductor*%
G36*
X145770062Y-113242332D02*
G01*
X145828295Y-113280942D01*
X145855905Y-113341400D01*
X145881261Y-113501489D01*
X145937219Y-113673715D01*
X145937220Y-113673718D01*
X145968408Y-113734926D01*
X146010544Y-113817622D01*
X146019438Y-113835076D01*
X146125873Y-113981573D01*
X146125877Y-113981578D01*
X146253932Y-114109633D01*
X146253937Y-114109637D01*
X146356622Y-114184241D01*
X146400438Y-114216075D01*
X146484292Y-114258801D01*
X146561792Y-114298290D01*
X146561798Y-114298292D01*
X146665043Y-114331838D01*
X146722719Y-114371275D01*
X146749918Y-114435633D01*
X146738004Y-114504480D01*
X146690760Y-114555956D01*
X146665045Y-114567700D01*
X146523594Y-114613660D01*
X146348287Y-114702984D01*
X146348278Y-114702990D01*
X146272351Y-114758154D01*
X146272350Y-114758155D01*
X146818254Y-115304059D01*
X146810439Y-115306154D01*
X146696425Y-115371980D01*
X146603333Y-115465072D01*
X146537507Y-115579086D01*
X146535412Y-115586901D01*
X145989508Y-115040997D01*
X145989507Y-115040998D01*
X145934343Y-115116925D01*
X145934337Y-115116934D01*
X145845013Y-115292241D01*
X145799053Y-115433692D01*
X145759615Y-115491367D01*
X145695256Y-115518565D01*
X145626410Y-115506650D01*
X145574934Y-115459406D01*
X145563191Y-115433690D01*
X145529645Y-115330445D01*
X145529643Y-115330439D01*
X145487806Y-115248331D01*
X145447428Y-115169085D01*
X145354368Y-115040998D01*
X145340990Y-115022584D01*
X145340986Y-115022579D01*
X145212931Y-114894524D01*
X145212926Y-114894520D01*
X145066429Y-114788085D01*
X145066428Y-114788084D01*
X145066426Y-114788083D01*
X145007689Y-114758155D01*
X144905071Y-114705867D01*
X144905068Y-114705866D01*
X144732842Y-114649908D01*
X144572753Y-114624552D01*
X144509618Y-114594623D01*
X144472687Y-114535311D01*
X144473685Y-114465449D01*
X144512295Y-114407216D01*
X144572753Y-114379606D01*
X144642857Y-114368501D01*
X144732841Y-114354250D01*
X144905071Y-114298290D01*
X145066426Y-114216075D01*
X145212933Y-114109632D01*
X145340985Y-113981580D01*
X145447428Y-113835073D01*
X145529643Y-113673718D01*
X145585603Y-113501488D01*
X145599854Y-113411504D01*
X145610959Y-113341400D01*
X145640888Y-113278265D01*
X145700200Y-113241334D01*
X145770062Y-113242332D01*
G37*
%TD.AperFunction*%
%TA.AperFunction,Conductor*%
G36*
X150850062Y-113242332D02*
G01*
X150908295Y-113280942D01*
X150935905Y-113341400D01*
X150961261Y-113501489D01*
X151017219Y-113673715D01*
X151017220Y-113673718D01*
X151048408Y-113734926D01*
X151090544Y-113817622D01*
X151099438Y-113835076D01*
X151205873Y-113981573D01*
X151205877Y-113981578D01*
X151333932Y-114109633D01*
X151333937Y-114109637D01*
X151436622Y-114184241D01*
X151480438Y-114216075D01*
X151564292Y-114258801D01*
X151641792Y-114298290D01*
X151641798Y-114298292D01*
X151745043Y-114331838D01*
X151802719Y-114371275D01*
X151829918Y-114435633D01*
X151818004Y-114504480D01*
X151770760Y-114555956D01*
X151745045Y-114567700D01*
X151603594Y-114613660D01*
X151428287Y-114702984D01*
X151428278Y-114702990D01*
X151352351Y-114758154D01*
X151352350Y-114758155D01*
X151898255Y-115304059D01*
X151890439Y-115306154D01*
X151776425Y-115371980D01*
X151683333Y-115465072D01*
X151617507Y-115579086D01*
X151615412Y-115586901D01*
X151069508Y-115040997D01*
X151069507Y-115040998D01*
X151014343Y-115116925D01*
X151014337Y-115116934D01*
X150925013Y-115292241D01*
X150879053Y-115433692D01*
X150839615Y-115491367D01*
X150775256Y-115518565D01*
X150706410Y-115506650D01*
X150654934Y-115459406D01*
X150643191Y-115433690D01*
X150609645Y-115330445D01*
X150609643Y-115330439D01*
X150567806Y-115248331D01*
X150527428Y-115169085D01*
X150434368Y-115040998D01*
X150420990Y-115022584D01*
X150420986Y-115022579D01*
X150292931Y-114894524D01*
X150292926Y-114894520D01*
X150146429Y-114788085D01*
X150146428Y-114788084D01*
X150146426Y-114788083D01*
X150087689Y-114758155D01*
X149985071Y-114705867D01*
X149985068Y-114705866D01*
X149812842Y-114649908D01*
X149652753Y-114624552D01*
X149589618Y-114594623D01*
X149552687Y-114535311D01*
X149553685Y-114465449D01*
X149592295Y-114407216D01*
X149652753Y-114379606D01*
X149722857Y-114368501D01*
X149812841Y-114354250D01*
X149985071Y-114298290D01*
X150146426Y-114216075D01*
X150292933Y-114109632D01*
X150420985Y-113981580D01*
X150527428Y-113835073D01*
X150609643Y-113673718D01*
X150665603Y-113501488D01*
X150679854Y-113411504D01*
X150690959Y-113341400D01*
X150720888Y-113278265D01*
X150780200Y-113241334D01*
X150850062Y-113242332D01*
G37*
%TD.AperFunction*%
%TA.AperFunction,Conductor*%
G36*
X153390062Y-113242332D02*
G01*
X153448295Y-113280942D01*
X153475905Y-113341400D01*
X153501261Y-113501489D01*
X153557219Y-113673715D01*
X153557220Y-113673718D01*
X153588408Y-113734926D01*
X153630544Y-113817622D01*
X153639438Y-113835076D01*
X153745873Y-113981573D01*
X153745877Y-113981578D01*
X153873932Y-114109633D01*
X153873937Y-114109637D01*
X153976622Y-114184241D01*
X154020438Y-114216075D01*
X154104292Y-114258801D01*
X154181792Y-114298290D01*
X154181795Y-114298291D01*
X154267908Y-114326270D01*
X154354023Y-114354250D01*
X154427071Y-114365819D01*
X154514110Y-114379606D01*
X154577245Y-114409535D01*
X154614176Y-114468847D01*
X154613178Y-114538710D01*
X154574568Y-114596942D01*
X154514110Y-114624552D01*
X154354021Y-114649908D01*
X154181795Y-114705866D01*
X154181792Y-114705867D01*
X154020434Y-114788085D01*
X153873937Y-114894520D01*
X153873932Y-114894524D01*
X153745877Y-115022579D01*
X153745873Y-115022584D01*
X153639438Y-115169081D01*
X153557220Y-115330439D01*
X153557219Y-115330442D01*
X153523672Y-115433691D01*
X153484234Y-115491367D01*
X153419876Y-115518565D01*
X153351029Y-115506650D01*
X153299554Y-115459406D01*
X153287810Y-115433691D01*
X153241850Y-115292243D01*
X153152527Y-115116935D01*
X153097354Y-115040998D01*
X153097354Y-115040997D01*
X152551450Y-115586900D01*
X152549357Y-115579086D01*
X152483531Y-115465072D01*
X152390439Y-115371980D01*
X152276425Y-115306154D01*
X152268609Y-115304059D01*
X152814512Y-114758156D01*
X152814511Y-114758155D01*
X152738575Y-114702983D01*
X152563269Y-114613661D01*
X152421818Y-114567700D01*
X152364143Y-114528262D01*
X152336945Y-114463903D01*
X152348860Y-114395057D01*
X152396104Y-114343581D01*
X152421820Y-114331838D01*
X152525065Y-114298292D01*
X152525071Y-114298290D01*
X152686426Y-114216075D01*
X152832933Y-114109632D01*
X152960985Y-113981580D01*
X153067428Y-113835073D01*
X153149643Y-113673718D01*
X153205603Y-113501488D01*
X153219854Y-113411504D01*
X153230959Y-113341400D01*
X153260888Y-113278265D01*
X153320200Y-113241334D01*
X153390062Y-113242332D01*
G37*
%TD.AperFunction*%
%TA.AperFunction,Conductor*%
G36*
X133904906Y-107402576D02*
G01*
X133950661Y-107455380D01*
X133960605Y-107524538D01*
X133940969Y-107575782D01*
X133879228Y-107668182D01*
X133879221Y-107668195D01*
X133826421Y-107795667D01*
X133826418Y-107795677D01*
X133799500Y-107931004D01*
X133799500Y-107931007D01*
X133799500Y-108068993D01*
X133799500Y-108068995D01*
X133799499Y-108068995D01*
X133826418Y-108204322D01*
X133826420Y-108204328D01*
X133868493Y-108305901D01*
X133877932Y-108353354D01*
X133877932Y-112081657D01*
X133858247Y-112148696D01*
X133810227Y-112192141D01*
X133700439Y-112248081D01*
X133700438Y-112248082D01*
X133553937Y-112354520D01*
X133553932Y-112354524D01*
X133425877Y-112482579D01*
X133425873Y-112482584D01*
X133319438Y-112629081D01*
X133237220Y-112790439D01*
X133237219Y-112790442D01*
X133203672Y-112893691D01*
X133164234Y-112951367D01*
X133099876Y-112978565D01*
X133031029Y-112966650D01*
X132979554Y-112919406D01*
X132967810Y-112893691D01*
X132921850Y-112752243D01*
X132832527Y-112576935D01*
X132777354Y-112500998D01*
X132777354Y-112500997D01*
X132231450Y-113046900D01*
X132229357Y-113039086D01*
X132163531Y-112925072D01*
X132070439Y-112831980D01*
X131956425Y-112766154D01*
X131948609Y-112764059D01*
X132494512Y-112218156D01*
X132494511Y-112218155D01*
X132418575Y-112162983D01*
X132243267Y-112073660D01*
X132056137Y-112012857D01*
X131861814Y-111982079D01*
X131665050Y-111982079D01*
X131470726Y-112012857D01*
X131283596Y-112073660D01*
X131108287Y-112162984D01*
X131108278Y-112162990D01*
X131032351Y-112218154D01*
X131032350Y-112218155D01*
X131578255Y-112764059D01*
X131570439Y-112766154D01*
X131456425Y-112831980D01*
X131363333Y-112925072D01*
X131297507Y-113039086D01*
X131295412Y-113046901D01*
X130749508Y-112500997D01*
X130749507Y-112500998D01*
X130694343Y-112576925D01*
X130694337Y-112576934D01*
X130605013Y-112752243D01*
X130544210Y-112939373D01*
X130513432Y-113133696D01*
X130513432Y-113330461D01*
X130544210Y-113524784D01*
X130589797Y-113665085D01*
X130591792Y-113734926D01*
X130555712Y-113794759D01*
X130493011Y-113825587D01*
X130423597Y-113817622D01*
X130384185Y-113791084D01*
X129833410Y-113240309D01*
X129799925Y-113178986D01*
X129797091Y-113152628D01*
X129797091Y-107506891D01*
X129816776Y-107439852D01*
X129869580Y-107394097D01*
X129921091Y-107382891D01*
X133837867Y-107382891D01*
X133904906Y-107402576D01*
G37*
%TD.AperFunction*%
%TA.AperFunction,Conductor*%
G36*
X146904920Y-108416840D02*
G01*
X146934907Y-108423364D01*
X146939922Y-108427118D01*
X146942519Y-108427881D01*
X146963161Y-108444515D01*
X147045453Y-108526807D01*
X147045457Y-108526810D01*
X147160181Y-108603467D01*
X147160190Y-108603472D01*
X147220478Y-108628444D01*
X147274881Y-108672285D01*
X147296946Y-108738579D01*
X147279667Y-108806278D01*
X147228530Y-108853889D01*
X147220478Y-108857566D01*
X147168191Y-108879223D01*
X147168182Y-108879228D01*
X147053458Y-108955885D01*
X147053454Y-108955888D01*
X146971162Y-109038181D01*
X146909839Y-109071666D01*
X146883481Y-109074500D01*
X141616519Y-109074500D01*
X141549480Y-109054815D01*
X141528838Y-109038181D01*
X141446545Y-108955888D01*
X141446541Y-108955885D01*
X141331817Y-108879228D01*
X141331804Y-108879221D01*
X141204332Y-108826421D01*
X141204322Y-108826418D01*
X141068995Y-108799500D01*
X141068993Y-108799500D01*
X140931007Y-108799500D01*
X140931005Y-108799500D01*
X140795677Y-108826418D01*
X140795667Y-108826421D01*
X140668195Y-108879221D01*
X140668182Y-108879228D01*
X140553458Y-108955885D01*
X140553454Y-108955888D01*
X140455888Y-109053454D01*
X140455885Y-109053458D01*
X140379228Y-109168182D01*
X140379221Y-109168195D01*
X140326421Y-109295667D01*
X140326418Y-109295677D01*
X140299500Y-109431004D01*
X140299500Y-109431007D01*
X140299500Y-109568993D01*
X140299500Y-109568995D01*
X140299499Y-109568995D01*
X140326418Y-109704322D01*
X140326421Y-109704332D01*
X140379221Y-109831804D01*
X140379228Y-109831817D01*
X140445573Y-109931109D01*
X140466451Y-109997787D01*
X140447966Y-110065167D01*
X140445573Y-110068891D01*
X140379228Y-110168182D01*
X140379221Y-110168195D01*
X140326421Y-110295667D01*
X140326418Y-110295677D01*
X140299500Y-110431004D01*
X140299500Y-110431007D01*
X140299500Y-110568993D01*
X140299500Y-110568995D01*
X140299499Y-110568995D01*
X140326418Y-110704322D01*
X140326421Y-110704332D01*
X140379221Y-110831804D01*
X140379228Y-110831817D01*
X140455885Y-110946541D01*
X140455888Y-110946545D01*
X140553454Y-111044111D01*
X140553458Y-111044114D01*
X140668182Y-111120771D01*
X140668195Y-111120778D01*
X140782640Y-111168182D01*
X140795672Y-111173580D01*
X140795676Y-111173580D01*
X140795677Y-111173581D01*
X140931004Y-111200500D01*
X140931007Y-111200500D01*
X141068995Y-111200500D01*
X141160041Y-111182389D01*
X141204328Y-111173580D01*
X141331811Y-111120775D01*
X141446542Y-111044114D01*
X141474235Y-111016421D01*
X141528838Y-110961819D01*
X141590161Y-110928334D01*
X141616519Y-110925500D01*
X146883481Y-110925500D01*
X146950520Y-110945185D01*
X146971162Y-110961819D01*
X147053454Y-111044111D01*
X147053458Y-111044114D01*
X147168182Y-111120771D01*
X147168195Y-111120778D01*
X147282640Y-111168182D01*
X147295672Y-111173580D01*
X147295676Y-111173580D01*
X147295677Y-111173581D01*
X147431004Y-111200500D01*
X147431007Y-111200500D01*
X147568995Y-111200500D01*
X147654740Y-111183444D01*
X147724332Y-111189671D01*
X147779509Y-111232534D01*
X147802754Y-111298424D01*
X147802932Y-111305061D01*
X147802932Y-112147488D01*
X147783247Y-112214527D01*
X147730443Y-112260282D01*
X147661285Y-112270226D01*
X147611061Y-112249846D01*
X147610582Y-112250629D01*
X147606434Y-112248087D01*
X147445071Y-112165867D01*
X147445068Y-112165866D01*
X147272842Y-112109908D01*
X147093983Y-112081579D01*
X147093978Y-112081579D01*
X146912886Y-112081579D01*
X146912881Y-112081579D01*
X146734021Y-112109908D01*
X146561795Y-112165866D01*
X146561792Y-112165867D01*
X146400434Y-112248085D01*
X146253937Y-112354520D01*
X146253932Y-112354524D01*
X146125877Y-112482579D01*
X146125873Y-112482584D01*
X146019438Y-112629081D01*
X145937220Y-112790439D01*
X145937219Y-112790442D01*
X145881261Y-112962668D01*
X145855905Y-113122757D01*
X145825976Y-113185892D01*
X145766664Y-113222823D01*
X145696801Y-113221825D01*
X145638569Y-113183215D01*
X145610959Y-113122757D01*
X145597172Y-113035718D01*
X145585603Y-112962670D01*
X145529643Y-112790440D01*
X145529643Y-112790439D01*
X145469479Y-112672363D01*
X145447428Y-112629085D01*
X145373004Y-112526648D01*
X145340990Y-112482584D01*
X145340986Y-112482579D01*
X145212931Y-112354524D01*
X145212926Y-112354520D01*
X145066429Y-112248085D01*
X145066428Y-112248084D01*
X145066426Y-112248083D01*
X145007689Y-112218155D01*
X144905071Y-112165867D01*
X144905068Y-112165866D01*
X144732842Y-112109908D01*
X144553983Y-112081579D01*
X144553978Y-112081579D01*
X144372886Y-112081579D01*
X144372881Y-112081579D01*
X144194021Y-112109908D01*
X144021795Y-112165866D01*
X144021792Y-112165867D01*
X143860434Y-112248085D01*
X143713937Y-112354520D01*
X143713932Y-112354524D01*
X143585877Y-112482579D01*
X143585873Y-112482584D01*
X143479438Y-112629081D01*
X143397220Y-112790439D01*
X143397219Y-112790442D01*
X143363672Y-112893691D01*
X143324234Y-112951367D01*
X143259876Y-112978565D01*
X143191029Y-112966650D01*
X143139554Y-112919406D01*
X143127810Y-112893691D01*
X143081850Y-112752243D01*
X142992527Y-112576935D01*
X142937354Y-112500998D01*
X142937354Y-112500997D01*
X142391450Y-113046900D01*
X142389357Y-113039086D01*
X142323531Y-112925072D01*
X142230439Y-112831980D01*
X142116425Y-112766154D01*
X142108609Y-112764059D01*
X142654512Y-112218156D01*
X142654511Y-112218155D01*
X142578575Y-112162983D01*
X142403267Y-112073660D01*
X142216137Y-112012857D01*
X142021814Y-111982079D01*
X141825050Y-111982079D01*
X141630726Y-112012857D01*
X141443596Y-112073660D01*
X141268287Y-112162984D01*
X141268278Y-112162990D01*
X141192351Y-112218154D01*
X141192350Y-112218155D01*
X141738255Y-112764059D01*
X141730439Y-112766154D01*
X141616425Y-112831980D01*
X141523333Y-112925072D01*
X141457507Y-113039086D01*
X141455412Y-113046901D01*
X140909508Y-112500997D01*
X140909507Y-112500998D01*
X140854343Y-112576925D01*
X140854337Y-112576934D01*
X140765013Y-112752241D01*
X140719053Y-112893692D01*
X140679615Y-112951367D01*
X140615256Y-112978565D01*
X140546410Y-112966650D01*
X140494934Y-112919406D01*
X140483191Y-112893690D01*
X140449645Y-112790445D01*
X140449643Y-112790439D01*
X140389479Y-112672363D01*
X140367428Y-112629085D01*
X140293004Y-112526648D01*
X140260990Y-112482584D01*
X140260986Y-112482579D01*
X140132931Y-112354524D01*
X140132926Y-112354520D01*
X139986429Y-112248085D01*
X139986428Y-112248084D01*
X139986426Y-112248083D01*
X139927689Y-112218155D01*
X139825071Y-112165867D01*
X139825068Y-112165866D01*
X139652842Y-112109908D01*
X139473983Y-112081579D01*
X139473978Y-112081579D01*
X139292886Y-112081579D01*
X139292881Y-112081579D01*
X139114023Y-112109907D01*
X139042943Y-112133002D01*
X138973102Y-112134996D01*
X138913270Y-112098914D01*
X138882443Y-112036213D01*
X138883010Y-111990878D01*
X138884407Y-111983858D01*
X138894225Y-111934498D01*
X138908932Y-111860563D01*
X138908932Y-111722572D01*
X138882013Y-111587245D01*
X138882012Y-111587244D01*
X138882012Y-111587240D01*
X138873257Y-111566103D01*
X138829210Y-111459763D01*
X138829203Y-111459750D01*
X138752546Y-111345026D01*
X138752543Y-111345022D01*
X138670251Y-111262730D01*
X138636766Y-111201407D01*
X138633932Y-111175049D01*
X138633932Y-110285592D01*
X138653617Y-110218553D01*
X138706421Y-110172798D01*
X138710397Y-110171066D01*
X138831811Y-110120775D01*
X138946542Y-110044114D01*
X139044114Y-109946542D01*
X139120775Y-109831811D01*
X139126036Y-109819111D01*
X139160649Y-109735546D01*
X139173580Y-109704328D01*
X139188084Y-109631412D01*
X139200500Y-109568995D01*
X139200500Y-109431004D01*
X139173581Y-109295677D01*
X139173580Y-109295676D01*
X139173580Y-109295672D01*
X139136440Y-109206007D01*
X139120778Y-109168195D01*
X139120771Y-109168182D01*
X139044114Y-109053458D01*
X139044111Y-109053454D01*
X138946545Y-108955888D01*
X138946541Y-108955885D01*
X138831817Y-108879228D01*
X138831804Y-108879221D01*
X138704332Y-108826421D01*
X138704322Y-108826418D01*
X138568995Y-108799500D01*
X138568993Y-108799500D01*
X138431007Y-108799500D01*
X138431005Y-108799500D01*
X138295677Y-108826418D01*
X138295667Y-108826421D01*
X138168195Y-108879221D01*
X138168182Y-108879228D01*
X138053458Y-108955885D01*
X138053454Y-108955888D01*
X137955888Y-109053454D01*
X137955885Y-109053458D01*
X137879228Y-109168182D01*
X137879221Y-109168195D01*
X137826421Y-109295667D01*
X137826418Y-109295677D01*
X137799500Y-109431004D01*
X137799500Y-109431007D01*
X137799500Y-109568993D01*
X137801516Y-109579129D01*
X137805815Y-109600741D01*
X137803972Y-109657022D01*
X137782932Y-109735546D01*
X137782932Y-111175049D01*
X137763247Y-111242088D01*
X137746613Y-111262730D01*
X137664320Y-111345022D01*
X137664317Y-111345026D01*
X137587660Y-111459750D01*
X137587653Y-111459763D01*
X137534853Y-111587235D01*
X137534850Y-111587245D01*
X137507932Y-111722572D01*
X137507932Y-111860565D01*
X137526051Y-111951657D01*
X137519824Y-112021249D01*
X137476960Y-112076426D01*
X137411070Y-112099670D01*
X137348139Y-112086332D01*
X137323273Y-112073662D01*
X137323271Y-112073661D01*
X137136137Y-112012857D01*
X136941814Y-111982079D01*
X136745050Y-111982079D01*
X136550726Y-112012857D01*
X136363596Y-112073660D01*
X136188287Y-112162984D01*
X136188279Y-112162989D01*
X136148347Y-112192000D01*
X136114938Y-112220743D01*
X136658254Y-112764059D01*
X136650439Y-112766154D01*
X136536425Y-112831980D01*
X136443333Y-112925072D01*
X136377507Y-113039086D01*
X136375412Y-113046901D01*
X135829508Y-112500997D01*
X135829507Y-112500998D01*
X135774343Y-112576925D01*
X135774337Y-112576934D01*
X135685013Y-112752241D01*
X135639053Y-112893692D01*
X135599615Y-112951367D01*
X135535256Y-112978565D01*
X135466410Y-112966650D01*
X135414934Y-112919406D01*
X135403191Y-112893690D01*
X135369645Y-112790445D01*
X135369643Y-112790439D01*
X135309479Y-112672363D01*
X135287428Y-112629085D01*
X135213004Y-112526648D01*
X135180990Y-112482584D01*
X135180986Y-112482579D01*
X135052931Y-112354524D01*
X135052926Y-112354520D01*
X134906425Y-112248082D01*
X134906424Y-112248081D01*
X134796637Y-112192141D01*
X134745841Y-112144167D01*
X134728932Y-112081657D01*
X134728932Y-112015655D01*
X134748617Y-111948616D01*
X134801421Y-111902861D01*
X134870579Y-111892917D01*
X134934135Y-111921942D01*
X134951826Y-111941994D01*
X134952022Y-111941834D01*
X134955888Y-111946545D01*
X135053454Y-112044111D01*
X135053458Y-112044114D01*
X135168182Y-112120771D01*
X135168195Y-112120778D01*
X135295667Y-112173578D01*
X135295672Y-112173580D01*
X135295676Y-112173580D01*
X135295677Y-112173581D01*
X135431004Y-112200500D01*
X135431007Y-112200500D01*
X135568995Y-112200500D01*
X135660041Y-112182389D01*
X135704328Y-112173580D01*
X135802924Y-112132740D01*
X135831804Y-112120778D01*
X135831804Y-112120777D01*
X135831811Y-112120775D01*
X135946542Y-112044114D01*
X136044114Y-111946542D01*
X136120775Y-111831811D01*
X136173580Y-111704328D01*
X136188404Y-111629803D01*
X136200500Y-111568995D01*
X136200500Y-111431004D01*
X136173581Y-111295677D01*
X136173580Y-111295676D01*
X136173580Y-111295672D01*
X136147784Y-111233394D01*
X136120778Y-111168195D01*
X136120771Y-111168182D01*
X136044114Y-111053458D01*
X136044111Y-111053454D01*
X135961819Y-110971162D01*
X135928334Y-110909839D01*
X135925500Y-110883481D01*
X135925500Y-108727610D01*
X135945185Y-108660571D01*
X135961819Y-108639929D01*
X136139929Y-108461819D01*
X136201252Y-108428334D01*
X136227610Y-108425500D01*
X146056016Y-108425500D01*
X146056018Y-108425500D01*
X146104830Y-108412421D01*
X146136923Y-108408196D01*
X146875480Y-108408196D01*
X146904920Y-108416840D01*
G37*
%TD.AperFunction*%
%TA.AperFunction,Conductor*%
G36*
X150156075Y-100827793D02*
G01*
X150221901Y-100941807D01*
X150314993Y-101034899D01*
X150429007Y-101100725D01*
X150436820Y-101102818D01*
X149890918Y-101648721D01*
X149890919Y-101648722D01*
X149966856Y-101703895D01*
X150142164Y-101793218D01*
X150329294Y-101854021D01*
X150523618Y-101884800D01*
X150720382Y-101884800D01*
X150914705Y-101854021D01*
X151101835Y-101793218D01*
X151277147Y-101703893D01*
X151314614Y-101676672D01*
X151380420Y-101653191D01*
X151448474Y-101669016D01*
X151497169Y-101719121D01*
X151511500Y-101776989D01*
X151511500Y-103835389D01*
X151491815Y-103902428D01*
X151475181Y-103923070D01*
X150005860Y-105392390D01*
X149944537Y-105425875D01*
X149874845Y-105420891D01*
X149849290Y-105407812D01*
X149806506Y-105379225D01*
X149806499Y-105379221D01*
X149679027Y-105326421D01*
X149679017Y-105326418D01*
X149543690Y-105299500D01*
X149543688Y-105299500D01*
X149405702Y-105299500D01*
X149405700Y-105299500D01*
X149270372Y-105326418D01*
X149270362Y-105326421D01*
X149142890Y-105379221D01*
X149142877Y-105379228D01*
X149028153Y-105455885D01*
X149028149Y-105455888D01*
X148930583Y-105553454D01*
X148930580Y-105553458D01*
X148881034Y-105627609D01*
X148827421Y-105672414D01*
X148758096Y-105681121D01*
X148695069Y-105650966D01*
X148658350Y-105591523D01*
X148653932Y-105558718D01*
X148653932Y-102499178D01*
X148673617Y-102432139D01*
X148690251Y-102411497D01*
X149211881Y-101889867D01*
X149737485Y-101364263D01*
X149793503Y-101267237D01*
X149816668Y-101180781D01*
X149848761Y-101125195D01*
X150153980Y-100819975D01*
X150156075Y-100827793D01*
G37*
%TD.AperFunction*%
%TA.AperFunction,Conductor*%
G36*
X103668630Y-98105053D02*
G01*
X103726863Y-98143663D01*
X103754473Y-98204121D01*
X103779829Y-98364210D01*
X103835787Y-98536436D01*
X103835788Y-98536439D01*
X103918006Y-98697797D01*
X104024441Y-98844294D01*
X104024445Y-98844299D01*
X104152500Y-98972354D01*
X104152505Y-98972358D01*
X104197552Y-99005086D01*
X104299006Y-99078796D01*
X104404484Y-99132540D01*
X104460360Y-99161011D01*
X104460366Y-99161013D01*
X104563611Y-99194559D01*
X104621287Y-99233996D01*
X104648486Y-99298354D01*
X104636572Y-99367201D01*
X104589328Y-99418677D01*
X104563613Y-99430421D01*
X104422162Y-99476381D01*
X104246855Y-99565705D01*
X104246846Y-99565711D01*
X104170919Y-99620875D01*
X104170918Y-99620876D01*
X104716823Y-100166780D01*
X104709007Y-100168875D01*
X104594993Y-100234701D01*
X104501901Y-100327793D01*
X104436075Y-100441807D01*
X104433980Y-100449622D01*
X103888076Y-99903718D01*
X103888075Y-99903719D01*
X103831226Y-99981965D01*
X103775896Y-100024630D01*
X103706282Y-100030609D01*
X103644487Y-99998003D01*
X103610130Y-99937164D01*
X103609181Y-99932587D01*
X103563283Y-99774606D01*
X103563282Y-99774603D01*
X103479685Y-99633247D01*
X103479678Y-99633238D01*
X103363561Y-99517121D01*
X103363552Y-99517114D01*
X103222196Y-99433517D01*
X103222193Y-99433516D01*
X103064495Y-99387700D01*
X103064489Y-99387699D01*
X103027649Y-99384800D01*
X102880926Y-99384800D01*
X102813887Y-99365115D01*
X102768132Y-99312311D01*
X102758188Y-99243153D01*
X102787213Y-99179597D01*
X102824631Y-99150315D01*
X102827070Y-99149071D01*
X102964994Y-99078796D01*
X103111501Y-98972353D01*
X103239553Y-98844301D01*
X103345996Y-98697794D01*
X103428211Y-98536439D01*
X103484171Y-98364209D01*
X103498422Y-98274225D01*
X103509527Y-98204121D01*
X103539456Y-98140986D01*
X103598768Y-98104055D01*
X103668630Y-98105053D01*
G37*
%TD.AperFunction*%
%TA.AperFunction,Conductor*%
G36*
X106208630Y-98105053D02*
G01*
X106266863Y-98143663D01*
X106294473Y-98204121D01*
X106319829Y-98364210D01*
X106375787Y-98536436D01*
X106375788Y-98536439D01*
X106458006Y-98697797D01*
X106564441Y-98844294D01*
X106564445Y-98844299D01*
X106692500Y-98972354D01*
X106692505Y-98972358D01*
X106737552Y-99005086D01*
X106839006Y-99078796D01*
X106944484Y-99132540D01*
X107000360Y-99161011D01*
X107000366Y-99161013D01*
X107103611Y-99194559D01*
X107161287Y-99233996D01*
X107188486Y-99298354D01*
X107176572Y-99367201D01*
X107129328Y-99418677D01*
X107103613Y-99430421D01*
X106962162Y-99476381D01*
X106786855Y-99565705D01*
X106786846Y-99565711D01*
X106710919Y-99620875D01*
X106710918Y-99620876D01*
X107256823Y-100166780D01*
X107249007Y-100168875D01*
X107134993Y-100234701D01*
X107041901Y-100327793D01*
X106976075Y-100441807D01*
X106973980Y-100449622D01*
X106428076Y-99903718D01*
X106428075Y-99903719D01*
X106372911Y-99979646D01*
X106372905Y-99979655D01*
X106282485Y-100157115D01*
X106234510Y-100207911D01*
X106166689Y-100224706D01*
X106100554Y-100202169D01*
X106061515Y-100157115D01*
X105971095Y-99979656D01*
X105915922Y-99903719D01*
X105915922Y-99903718D01*
X105370018Y-100449621D01*
X105367925Y-100441807D01*
X105302099Y-100327793D01*
X105209007Y-100234701D01*
X105094993Y-100168875D01*
X105087177Y-100166780D01*
X105633080Y-99620877D01*
X105633079Y-99620876D01*
X105557143Y-99565704D01*
X105381837Y-99476382D01*
X105240386Y-99430421D01*
X105182711Y-99390983D01*
X105155513Y-99326624D01*
X105167428Y-99257778D01*
X105214672Y-99206302D01*
X105240388Y-99194559D01*
X105343633Y-99161013D01*
X105343639Y-99161011D01*
X105364631Y-99150315D01*
X105504994Y-99078796D01*
X105651501Y-98972353D01*
X105779553Y-98844301D01*
X105885996Y-98697794D01*
X105968211Y-98536439D01*
X106024171Y-98364209D01*
X106038422Y-98274225D01*
X106049527Y-98204121D01*
X106079456Y-98140986D01*
X106138768Y-98104055D01*
X106208630Y-98105053D01*
G37*
%TD.AperFunction*%
%TA.AperFunction,Conductor*%
G36*
X108748630Y-98105053D02*
G01*
X108806863Y-98143663D01*
X108834473Y-98204121D01*
X108859829Y-98364210D01*
X108915787Y-98536436D01*
X108915788Y-98536439D01*
X108998006Y-98697797D01*
X109104441Y-98844294D01*
X109104445Y-98844299D01*
X109232500Y-98972354D01*
X109232505Y-98972358D01*
X109277552Y-99005086D01*
X109379006Y-99078796D01*
X109484484Y-99132540D01*
X109540360Y-99161011D01*
X109540366Y-99161013D01*
X109643611Y-99194559D01*
X109701287Y-99233996D01*
X109728486Y-99298354D01*
X109716572Y-99367201D01*
X109669328Y-99418677D01*
X109643613Y-99430421D01*
X109502162Y-99476381D01*
X109326855Y-99565705D01*
X109326846Y-99565711D01*
X109250919Y-99620875D01*
X109250918Y-99620876D01*
X109796823Y-100166780D01*
X109789007Y-100168875D01*
X109674993Y-100234701D01*
X109581901Y-100327793D01*
X109516075Y-100441807D01*
X109513980Y-100449622D01*
X108968076Y-99903718D01*
X108968075Y-99903719D01*
X108912911Y-99979646D01*
X108912905Y-99979655D01*
X108822485Y-100157115D01*
X108774510Y-100207911D01*
X108706689Y-100224706D01*
X108640554Y-100202169D01*
X108601515Y-100157115D01*
X108511095Y-99979656D01*
X108455922Y-99903719D01*
X108455922Y-99903718D01*
X107910018Y-100449621D01*
X107907925Y-100441807D01*
X107842099Y-100327793D01*
X107749007Y-100234701D01*
X107634993Y-100168875D01*
X107627177Y-100166780D01*
X108173080Y-99620877D01*
X108173079Y-99620876D01*
X108097143Y-99565704D01*
X107921837Y-99476382D01*
X107780386Y-99430421D01*
X107722711Y-99390983D01*
X107695513Y-99326624D01*
X107707428Y-99257778D01*
X107754672Y-99206302D01*
X107780388Y-99194559D01*
X107883633Y-99161013D01*
X107883639Y-99161011D01*
X107904631Y-99150315D01*
X108044994Y-99078796D01*
X108191501Y-98972353D01*
X108319553Y-98844301D01*
X108425996Y-98697794D01*
X108508211Y-98536439D01*
X108564171Y-98364209D01*
X108578422Y-98274225D01*
X108589527Y-98204121D01*
X108619456Y-98140986D01*
X108678768Y-98104055D01*
X108748630Y-98105053D01*
G37*
%TD.AperFunction*%
%TA.AperFunction,Conductor*%
G36*
X111288630Y-98105053D02*
G01*
X111346863Y-98143663D01*
X111374473Y-98204121D01*
X111399829Y-98364210D01*
X111455787Y-98536436D01*
X111455788Y-98536439D01*
X111538006Y-98697797D01*
X111644441Y-98844294D01*
X111644445Y-98844299D01*
X111772500Y-98972354D01*
X111772505Y-98972358D01*
X111817552Y-99005086D01*
X111919006Y-99078796D01*
X112024484Y-99132540D01*
X112080360Y-99161011D01*
X112080366Y-99161013D01*
X112183611Y-99194559D01*
X112241287Y-99233996D01*
X112268486Y-99298354D01*
X112256572Y-99367201D01*
X112209328Y-99418677D01*
X112183613Y-99430421D01*
X112042162Y-99476381D01*
X111866855Y-99565705D01*
X111866846Y-99565711D01*
X111790919Y-99620875D01*
X111790918Y-99620876D01*
X112336823Y-100166780D01*
X112329007Y-100168875D01*
X112214993Y-100234701D01*
X112121901Y-100327793D01*
X112056075Y-100441807D01*
X112053980Y-100449622D01*
X111508076Y-99903718D01*
X111508075Y-99903719D01*
X111452911Y-99979646D01*
X111452905Y-99979655D01*
X111362485Y-100157115D01*
X111314510Y-100207911D01*
X111246689Y-100224706D01*
X111180554Y-100202169D01*
X111141515Y-100157115D01*
X111051095Y-99979656D01*
X110995922Y-99903719D01*
X110995922Y-99903718D01*
X110450018Y-100449621D01*
X110447925Y-100441807D01*
X110382099Y-100327793D01*
X110289007Y-100234701D01*
X110174993Y-100168875D01*
X110167177Y-100166780D01*
X110713080Y-99620877D01*
X110713079Y-99620876D01*
X110637143Y-99565704D01*
X110461837Y-99476382D01*
X110320386Y-99430421D01*
X110262711Y-99390983D01*
X110235513Y-99326624D01*
X110247428Y-99257778D01*
X110294672Y-99206302D01*
X110320388Y-99194559D01*
X110423633Y-99161013D01*
X110423639Y-99161011D01*
X110444631Y-99150315D01*
X110584994Y-99078796D01*
X110731501Y-98972353D01*
X110859553Y-98844301D01*
X110965996Y-98697794D01*
X111048211Y-98536439D01*
X111104171Y-98364209D01*
X111118422Y-98274225D01*
X111129527Y-98204121D01*
X111159456Y-98140986D01*
X111218768Y-98104055D01*
X111288630Y-98105053D01*
G37*
%TD.AperFunction*%
%TA.AperFunction,Conductor*%
G36*
X113828630Y-98105053D02*
G01*
X113886863Y-98143663D01*
X113914473Y-98204121D01*
X113939829Y-98364210D01*
X113995787Y-98536436D01*
X113995788Y-98536439D01*
X114078006Y-98697797D01*
X114184441Y-98844294D01*
X114184445Y-98844299D01*
X114312500Y-98972354D01*
X114312505Y-98972358D01*
X114357552Y-99005086D01*
X114459006Y-99078796D01*
X114564484Y-99132540D01*
X114620360Y-99161011D01*
X114620366Y-99161013D01*
X114723611Y-99194559D01*
X114781287Y-99233996D01*
X114808486Y-99298354D01*
X114796572Y-99367201D01*
X114749328Y-99418677D01*
X114723613Y-99430421D01*
X114582162Y-99476381D01*
X114406855Y-99565705D01*
X114406846Y-99565711D01*
X114330919Y-99620875D01*
X114330918Y-99620876D01*
X114876823Y-100166780D01*
X114869007Y-100168875D01*
X114754993Y-100234701D01*
X114661901Y-100327793D01*
X114596075Y-100441807D01*
X114593980Y-100449622D01*
X114048076Y-99903718D01*
X114048075Y-99903719D01*
X113992911Y-99979646D01*
X113992905Y-99979655D01*
X113902485Y-100157115D01*
X113854510Y-100207911D01*
X113786689Y-100224706D01*
X113720554Y-100202169D01*
X113681515Y-100157115D01*
X113591095Y-99979656D01*
X113535922Y-99903719D01*
X113535922Y-99903718D01*
X112990018Y-100449621D01*
X112987925Y-100441807D01*
X112922099Y-100327793D01*
X112829007Y-100234701D01*
X112714993Y-100168875D01*
X112707177Y-100166780D01*
X113253080Y-99620877D01*
X113253079Y-99620876D01*
X113177143Y-99565704D01*
X113001837Y-99476382D01*
X112860386Y-99430421D01*
X112802711Y-99390983D01*
X112775513Y-99326624D01*
X112787428Y-99257778D01*
X112834672Y-99206302D01*
X112860388Y-99194559D01*
X112963633Y-99161013D01*
X112963639Y-99161011D01*
X112984631Y-99150315D01*
X113124994Y-99078796D01*
X113271501Y-98972353D01*
X113399553Y-98844301D01*
X113505996Y-98697794D01*
X113588211Y-98536439D01*
X113644171Y-98364209D01*
X113658422Y-98274225D01*
X113669527Y-98204121D01*
X113699456Y-98140986D01*
X113758768Y-98104055D01*
X113828630Y-98105053D01*
G37*
%TD.AperFunction*%
%TA.AperFunction,Conductor*%
G36*
X116368630Y-98105053D02*
G01*
X116426863Y-98143663D01*
X116454473Y-98204121D01*
X116479829Y-98364210D01*
X116535787Y-98536436D01*
X116535788Y-98536439D01*
X116618006Y-98697797D01*
X116724441Y-98844294D01*
X116724445Y-98844299D01*
X116852500Y-98972354D01*
X116852505Y-98972358D01*
X116897552Y-99005086D01*
X116999006Y-99078796D01*
X117104484Y-99132540D01*
X117160360Y-99161011D01*
X117160366Y-99161013D01*
X117263611Y-99194559D01*
X117321287Y-99233996D01*
X117348486Y-99298354D01*
X117336572Y-99367201D01*
X117289328Y-99418677D01*
X117263613Y-99430421D01*
X117122162Y-99476381D01*
X116946855Y-99565705D01*
X116946846Y-99565711D01*
X116870919Y-99620875D01*
X116870918Y-99620876D01*
X117416822Y-100166780D01*
X117409007Y-100168875D01*
X117294993Y-100234701D01*
X117201901Y-100327793D01*
X117136075Y-100441807D01*
X117133980Y-100449622D01*
X116588076Y-99903718D01*
X116588075Y-99903719D01*
X116532911Y-99979646D01*
X116532905Y-99979655D01*
X116442485Y-100157115D01*
X116394510Y-100207911D01*
X116326689Y-100224706D01*
X116260554Y-100202169D01*
X116221515Y-100157115D01*
X116131095Y-99979656D01*
X116075922Y-99903719D01*
X116075922Y-99903718D01*
X115530018Y-100449621D01*
X115527925Y-100441807D01*
X115462099Y-100327793D01*
X115369007Y-100234701D01*
X115254993Y-100168875D01*
X115247177Y-100166780D01*
X115793080Y-99620877D01*
X115793079Y-99620876D01*
X115717143Y-99565704D01*
X115541837Y-99476382D01*
X115400386Y-99430421D01*
X115342711Y-99390983D01*
X115315513Y-99326624D01*
X115327428Y-99257778D01*
X115374672Y-99206302D01*
X115400388Y-99194559D01*
X115503633Y-99161013D01*
X115503639Y-99161011D01*
X115524631Y-99150315D01*
X115664994Y-99078796D01*
X115811501Y-98972353D01*
X115939553Y-98844301D01*
X116045996Y-98697794D01*
X116128211Y-98536439D01*
X116184171Y-98364209D01*
X116198422Y-98274225D01*
X116209527Y-98204121D01*
X116239456Y-98140986D01*
X116298768Y-98104055D01*
X116368630Y-98105053D01*
G37*
%TD.AperFunction*%
%TA.AperFunction,Conductor*%
G36*
X121448630Y-98105053D02*
G01*
X121506863Y-98143663D01*
X121534473Y-98204121D01*
X121559829Y-98364210D01*
X121615787Y-98536436D01*
X121615788Y-98536439D01*
X121698006Y-98697797D01*
X121804441Y-98844294D01*
X121804445Y-98844299D01*
X121932500Y-98972354D01*
X121932505Y-98972358D01*
X121977552Y-99005086D01*
X122079006Y-99078796D01*
X122184484Y-99132540D01*
X122240360Y-99161011D01*
X122240366Y-99161013D01*
X122343611Y-99194559D01*
X122401287Y-99233996D01*
X122428486Y-99298354D01*
X122416572Y-99367201D01*
X122369328Y-99418677D01*
X122343613Y-99430421D01*
X122202162Y-99476381D01*
X122026855Y-99565705D01*
X122026846Y-99565711D01*
X121950919Y-99620875D01*
X121950918Y-99620876D01*
X122496823Y-100166780D01*
X122489007Y-100168875D01*
X122374993Y-100234701D01*
X122281901Y-100327793D01*
X122216075Y-100441807D01*
X122213980Y-100449622D01*
X121668076Y-99903718D01*
X121668075Y-99903719D01*
X121612911Y-99979646D01*
X121612905Y-99979655D01*
X121522485Y-100157115D01*
X121474510Y-100207911D01*
X121406689Y-100224706D01*
X121340554Y-100202169D01*
X121301515Y-100157115D01*
X121211095Y-99979656D01*
X121155922Y-99903719D01*
X121155922Y-99903718D01*
X120610018Y-100449621D01*
X120607925Y-100441807D01*
X120542099Y-100327793D01*
X120449007Y-100234701D01*
X120334993Y-100168875D01*
X120327175Y-100166780D01*
X120873080Y-99620876D01*
X120797143Y-99565704D01*
X120621837Y-99476382D01*
X120480386Y-99430421D01*
X120422711Y-99390983D01*
X120395513Y-99326624D01*
X120407428Y-99257778D01*
X120454672Y-99206302D01*
X120480388Y-99194559D01*
X120583633Y-99161013D01*
X120583639Y-99161011D01*
X120604631Y-99150315D01*
X120744994Y-99078796D01*
X120891501Y-98972353D01*
X121019553Y-98844301D01*
X121125996Y-98697794D01*
X121208211Y-98536439D01*
X121264171Y-98364209D01*
X121278422Y-98274225D01*
X121289527Y-98204121D01*
X121319456Y-98140986D01*
X121378768Y-98104055D01*
X121448630Y-98105053D01*
G37*
%TD.AperFunction*%
%TA.AperFunction,Conductor*%
G36*
X124756075Y-98287793D02*
G01*
X124821901Y-98401807D01*
X124914993Y-98494899D01*
X125029007Y-98560725D01*
X125036822Y-98562819D01*
X124490918Y-99108722D01*
X124566856Y-99163895D01*
X124744315Y-99254315D01*
X124795111Y-99302289D01*
X124811906Y-99370110D01*
X124789369Y-99436245D01*
X124744315Y-99475285D01*
X124566855Y-99565705D01*
X124566846Y-99565711D01*
X124490919Y-99620875D01*
X124490918Y-99620876D01*
X125036823Y-100166780D01*
X125029007Y-100168875D01*
X124914993Y-100234701D01*
X124821901Y-100327793D01*
X124756075Y-100441807D01*
X124753980Y-100449622D01*
X124208076Y-99903718D01*
X124208075Y-99903719D01*
X124152911Y-99979646D01*
X124152905Y-99979655D01*
X124062485Y-100157115D01*
X124014510Y-100207911D01*
X123946689Y-100224706D01*
X123880554Y-100202169D01*
X123841515Y-100157115D01*
X123751095Y-99979656D01*
X123695922Y-99903719D01*
X123695922Y-99903718D01*
X123150018Y-100449621D01*
X123147925Y-100441807D01*
X123082099Y-100327793D01*
X122989007Y-100234701D01*
X122874993Y-100168875D01*
X122867177Y-100166780D01*
X123413080Y-99620877D01*
X123413079Y-99620876D01*
X123337143Y-99565704D01*
X123161837Y-99476382D01*
X123020386Y-99430421D01*
X122962711Y-99390983D01*
X122935513Y-99326624D01*
X122947428Y-99257778D01*
X122994672Y-99206302D01*
X123020388Y-99194559D01*
X123123633Y-99161013D01*
X123123639Y-99161011D01*
X123144631Y-99150315D01*
X123284994Y-99078796D01*
X123431501Y-98972353D01*
X123559553Y-98844301D01*
X123665996Y-98697794D01*
X123748211Y-98536439D01*
X123781759Y-98433188D01*
X123821196Y-98375512D01*
X123885554Y-98348313D01*
X123954401Y-98360227D01*
X124005877Y-98407471D01*
X124017621Y-98433186D01*
X124063582Y-98574637D01*
X124152904Y-98749943D01*
X124208076Y-98825879D01*
X124208077Y-98825880D01*
X124753980Y-98279976D01*
X124756075Y-98287793D01*
G37*
%TD.AperFunction*%
%TA.AperFunction,Conductor*%
G36*
X127296075Y-98287793D02*
G01*
X127361901Y-98401807D01*
X127454993Y-98494899D01*
X127569007Y-98560725D01*
X127576822Y-98562819D01*
X127030918Y-99108722D01*
X127106856Y-99163895D01*
X127284315Y-99254315D01*
X127335111Y-99302289D01*
X127351906Y-99370110D01*
X127329369Y-99436245D01*
X127284315Y-99475285D01*
X127106855Y-99565705D01*
X127106846Y-99565711D01*
X127030919Y-99620875D01*
X127030918Y-99620876D01*
X127576823Y-100166780D01*
X127569007Y-100168875D01*
X127454993Y-100234701D01*
X127361901Y-100327793D01*
X127296075Y-100441807D01*
X127293980Y-100449622D01*
X126748076Y-99903718D01*
X126748075Y-99903719D01*
X126692911Y-99979646D01*
X126692905Y-99979655D01*
X126602485Y-100157115D01*
X126554510Y-100207911D01*
X126486689Y-100224706D01*
X126420554Y-100202169D01*
X126381515Y-100157115D01*
X126291095Y-99979656D01*
X126235922Y-99903719D01*
X126235922Y-99903718D01*
X125690018Y-100449621D01*
X125687925Y-100441807D01*
X125622099Y-100327793D01*
X125529007Y-100234701D01*
X125414993Y-100168875D01*
X125407177Y-100166780D01*
X125953080Y-99620877D01*
X125953079Y-99620876D01*
X125877141Y-99565702D01*
X125699685Y-99475285D01*
X125648888Y-99427311D01*
X125632093Y-99359490D01*
X125654630Y-99293355D01*
X125699685Y-99254315D01*
X125877140Y-99163897D01*
X125877141Y-99163897D01*
X125953079Y-99108722D01*
X125953080Y-99108721D01*
X125407178Y-98562819D01*
X125414993Y-98560725D01*
X125529007Y-98494899D01*
X125622099Y-98401807D01*
X125687925Y-98287793D01*
X125690019Y-98279977D01*
X126235921Y-98825880D01*
X126235922Y-98825879D01*
X126291097Y-98749941D01*
X126291097Y-98749940D01*
X126381515Y-98572485D01*
X126429489Y-98521688D01*
X126497310Y-98504893D01*
X126563445Y-98527430D01*
X126602485Y-98572485D01*
X126692902Y-98749941D01*
X126748076Y-98825879D01*
X126748077Y-98825880D01*
X127293980Y-98279976D01*
X127296075Y-98287793D01*
G37*
%TD.AperFunction*%
%TA.AperFunction,Conductor*%
G36*
X129836075Y-98287793D02*
G01*
X129901901Y-98401807D01*
X129994993Y-98494899D01*
X130109007Y-98560725D01*
X130116822Y-98562819D01*
X129570918Y-99108722D01*
X129646856Y-99163895D01*
X129824315Y-99254315D01*
X129875111Y-99302289D01*
X129891906Y-99370110D01*
X129869369Y-99436245D01*
X129824315Y-99475285D01*
X129646855Y-99565705D01*
X129646846Y-99565711D01*
X129570919Y-99620875D01*
X129570918Y-99620876D01*
X130116823Y-100166780D01*
X130109007Y-100168875D01*
X129994993Y-100234701D01*
X129901901Y-100327793D01*
X129836075Y-100441807D01*
X129833980Y-100449622D01*
X129288076Y-99903718D01*
X129288075Y-99903719D01*
X129232911Y-99979646D01*
X129232905Y-99979655D01*
X129142485Y-100157115D01*
X129094510Y-100207911D01*
X129026689Y-100224706D01*
X128960554Y-100202169D01*
X128921515Y-100157115D01*
X128831095Y-99979656D01*
X128775922Y-99903719D01*
X128775922Y-99903718D01*
X128230018Y-100449621D01*
X128227925Y-100441807D01*
X128162099Y-100327793D01*
X128069007Y-100234701D01*
X127954993Y-100168875D01*
X127947177Y-100166780D01*
X128493080Y-99620877D01*
X128493079Y-99620876D01*
X128417141Y-99565702D01*
X128239685Y-99475285D01*
X128188888Y-99427311D01*
X128172093Y-99359490D01*
X128194630Y-99293355D01*
X128239685Y-99254315D01*
X128417140Y-99163897D01*
X128417141Y-99163897D01*
X128493079Y-99108722D01*
X128493080Y-99108721D01*
X127947178Y-98562819D01*
X127954993Y-98560725D01*
X128069007Y-98494899D01*
X128162099Y-98401807D01*
X128227925Y-98287793D01*
X128230019Y-98279977D01*
X128775921Y-98825880D01*
X128775922Y-98825879D01*
X128831097Y-98749941D01*
X128831097Y-98749940D01*
X128921515Y-98572485D01*
X128969489Y-98521688D01*
X129037310Y-98504893D01*
X129103445Y-98527430D01*
X129142485Y-98572485D01*
X129232902Y-98749941D01*
X129288076Y-98825879D01*
X129288077Y-98825880D01*
X129833980Y-98279976D01*
X129836075Y-98287793D01*
G37*
%TD.AperFunction*%
%TA.AperFunction,Conductor*%
G36*
X134916075Y-98287793D02*
G01*
X134981901Y-98401807D01*
X135074993Y-98494899D01*
X135189007Y-98560725D01*
X135196822Y-98562819D01*
X134650918Y-99108722D01*
X134726856Y-99163895D01*
X134904315Y-99254315D01*
X134955111Y-99302289D01*
X134971906Y-99370110D01*
X134949369Y-99436245D01*
X134904315Y-99475285D01*
X134726855Y-99565705D01*
X134726846Y-99565711D01*
X134650919Y-99620875D01*
X134650918Y-99620876D01*
X135196823Y-100166780D01*
X135189007Y-100168875D01*
X135074993Y-100234701D01*
X134981901Y-100327793D01*
X134916075Y-100441807D01*
X134913980Y-100449622D01*
X134368076Y-99903718D01*
X134368075Y-99903719D01*
X134312911Y-99979646D01*
X134312905Y-99979655D01*
X134223581Y-100154962D01*
X134177621Y-100296413D01*
X134138183Y-100354088D01*
X134073824Y-100381286D01*
X134004978Y-100369371D01*
X133953502Y-100322127D01*
X133941759Y-100296411D01*
X133908213Y-100193166D01*
X133908211Y-100193160D01*
X133873896Y-100125814D01*
X133825996Y-100031806D01*
X133780474Y-99969150D01*
X133719558Y-99885305D01*
X133719554Y-99885300D01*
X133591499Y-99757245D01*
X133591494Y-99757241D01*
X133444997Y-99650806D01*
X133444996Y-99650805D01*
X133444994Y-99650804D01*
X133386257Y-99620876D01*
X133283639Y-99568588D01*
X133283636Y-99568587D01*
X133111410Y-99512629D01*
X132951321Y-99487273D01*
X132888186Y-99457344D01*
X132851255Y-99398032D01*
X132852253Y-99328170D01*
X132890863Y-99269937D01*
X132951321Y-99242327D01*
X133021425Y-99231222D01*
X133111409Y-99216971D01*
X133283639Y-99161011D01*
X133444994Y-99078796D01*
X133591501Y-98972353D01*
X133719553Y-98844301D01*
X133825996Y-98697794D01*
X133908211Y-98536439D01*
X133941759Y-98433188D01*
X133981196Y-98375512D01*
X134045554Y-98348313D01*
X134114401Y-98360227D01*
X134165877Y-98407471D01*
X134177621Y-98433186D01*
X134223582Y-98574637D01*
X134312904Y-98749943D01*
X134368076Y-98825879D01*
X134368077Y-98825880D01*
X134913980Y-98279976D01*
X134916075Y-98287793D01*
G37*
%TD.AperFunction*%
%TA.AperFunction,Conductor*%
G36*
X137456075Y-98287793D02*
G01*
X137521901Y-98401807D01*
X137614993Y-98494899D01*
X137729007Y-98560725D01*
X137736822Y-98562819D01*
X137190918Y-99108722D01*
X137266856Y-99163895D01*
X137444315Y-99254315D01*
X137495111Y-99302289D01*
X137511906Y-99370110D01*
X137489369Y-99436245D01*
X137444315Y-99475285D01*
X137266855Y-99565705D01*
X137266846Y-99565711D01*
X137190919Y-99620875D01*
X137190918Y-99620876D01*
X137736823Y-100166780D01*
X137729007Y-100168875D01*
X137614993Y-100234701D01*
X137521901Y-100327793D01*
X137456075Y-100441807D01*
X137453980Y-100449622D01*
X136908076Y-99903718D01*
X136908075Y-99903719D01*
X136852911Y-99979646D01*
X136852905Y-99979655D01*
X136762485Y-100157115D01*
X136714510Y-100207911D01*
X136646689Y-100224706D01*
X136580554Y-100202169D01*
X136541515Y-100157115D01*
X136451095Y-99979656D01*
X136395922Y-99903719D01*
X136395922Y-99903718D01*
X135850018Y-100449621D01*
X135847925Y-100441807D01*
X135782099Y-100327793D01*
X135689007Y-100234701D01*
X135574993Y-100168875D01*
X135567177Y-100166780D01*
X136113080Y-99620877D01*
X136113079Y-99620876D01*
X136037141Y-99565702D01*
X135859685Y-99475285D01*
X135808888Y-99427311D01*
X135792093Y-99359490D01*
X135814630Y-99293355D01*
X135859685Y-99254315D01*
X136037140Y-99163897D01*
X136037141Y-99163897D01*
X136113079Y-99108722D01*
X136113080Y-99108721D01*
X135567178Y-98562819D01*
X135574993Y-98560725D01*
X135689007Y-98494899D01*
X135782099Y-98401807D01*
X135847925Y-98287793D01*
X135850019Y-98279977D01*
X136395921Y-98825880D01*
X136395922Y-98825879D01*
X136451097Y-98749941D01*
X136451097Y-98749940D01*
X136541515Y-98572485D01*
X136589489Y-98521688D01*
X136657310Y-98504893D01*
X136723445Y-98527430D01*
X136762485Y-98572485D01*
X136852902Y-98749941D01*
X136908076Y-98825879D01*
X136908077Y-98825880D01*
X137453980Y-98279976D01*
X137456075Y-98287793D01*
G37*
%TD.AperFunction*%
%TA.AperFunction,Conductor*%
G36*
X138935921Y-98825880D02*
G01*
X138935922Y-98825879D01*
X138991095Y-98749943D01*
X139080418Y-98574635D01*
X139126378Y-98433187D01*
X139165815Y-98375512D01*
X139230174Y-98348313D01*
X139299020Y-98360228D01*
X139350496Y-98407472D01*
X139362240Y-98433187D01*
X139395787Y-98536436D01*
X139395788Y-98536439D01*
X139478006Y-98697797D01*
X139584441Y-98844294D01*
X139584445Y-98844299D01*
X139712500Y-98972354D01*
X139712505Y-98972358D01*
X139757552Y-99005086D01*
X139859006Y-99078796D01*
X139964484Y-99132540D01*
X140020360Y-99161011D01*
X140020366Y-99161013D01*
X140123611Y-99194559D01*
X140181287Y-99233996D01*
X140208486Y-99298354D01*
X140196572Y-99367201D01*
X140149328Y-99418677D01*
X140123613Y-99430421D01*
X139982162Y-99476381D01*
X139806855Y-99565705D01*
X139806846Y-99565711D01*
X139730919Y-99620875D01*
X139730918Y-99620876D01*
X140276823Y-100166780D01*
X140269007Y-100168875D01*
X140154993Y-100234701D01*
X140061901Y-100327793D01*
X139996075Y-100441807D01*
X139993980Y-100449622D01*
X139448076Y-99903718D01*
X139448075Y-99903719D01*
X139392911Y-99979646D01*
X139392905Y-99979655D01*
X139302485Y-100157115D01*
X139254510Y-100207911D01*
X139186689Y-100224706D01*
X139120554Y-100202169D01*
X139081515Y-100157115D01*
X138991095Y-99979656D01*
X138935922Y-99903719D01*
X138935922Y-99903718D01*
X138390018Y-100449621D01*
X138387925Y-100441807D01*
X138322099Y-100327793D01*
X138229007Y-100234701D01*
X138114993Y-100168875D01*
X138107177Y-100166780D01*
X138653080Y-99620877D01*
X138653079Y-99620876D01*
X138577141Y-99565702D01*
X138399685Y-99475285D01*
X138348888Y-99427311D01*
X138332093Y-99359490D01*
X138354630Y-99293355D01*
X138399685Y-99254315D01*
X138577140Y-99163897D01*
X138577141Y-99163897D01*
X138653079Y-99108722D01*
X138653080Y-99108721D01*
X138107178Y-98562819D01*
X138114993Y-98560725D01*
X138229007Y-98494899D01*
X138322099Y-98401807D01*
X138387925Y-98287793D01*
X138390019Y-98279977D01*
X138935921Y-98825880D01*
G37*
%TD.AperFunction*%
%TA.AperFunction,Conductor*%
G36*
X141768630Y-98105053D02*
G01*
X141826863Y-98143663D01*
X141854473Y-98204121D01*
X141879829Y-98364210D01*
X141935787Y-98536436D01*
X141935788Y-98536439D01*
X142018006Y-98697797D01*
X142124441Y-98844294D01*
X142124445Y-98844299D01*
X142252500Y-98972354D01*
X142252505Y-98972358D01*
X142297552Y-99005086D01*
X142399006Y-99078796D01*
X142504484Y-99132540D01*
X142560360Y-99161011D01*
X142560366Y-99161013D01*
X142663611Y-99194559D01*
X142721287Y-99233996D01*
X142748486Y-99298354D01*
X142736572Y-99367201D01*
X142689328Y-99418677D01*
X142663613Y-99430421D01*
X142522162Y-99476381D01*
X142346855Y-99565705D01*
X142346846Y-99565711D01*
X142270919Y-99620875D01*
X142270918Y-99620876D01*
X142816823Y-100166780D01*
X142809007Y-100168875D01*
X142694993Y-100234701D01*
X142601901Y-100327793D01*
X142536075Y-100441807D01*
X142533980Y-100449622D01*
X141988076Y-99903718D01*
X141988075Y-99903719D01*
X141932911Y-99979646D01*
X141932905Y-99979655D01*
X141842485Y-100157115D01*
X141794510Y-100207911D01*
X141726689Y-100224706D01*
X141660554Y-100202169D01*
X141621515Y-100157115D01*
X141531095Y-99979656D01*
X141475922Y-99903719D01*
X141475922Y-99903718D01*
X140930018Y-100449621D01*
X140927925Y-100441807D01*
X140862099Y-100327793D01*
X140769007Y-100234701D01*
X140654993Y-100168875D01*
X140647177Y-100166780D01*
X141193080Y-99620877D01*
X141193079Y-99620876D01*
X141117143Y-99565704D01*
X140941837Y-99476382D01*
X140800386Y-99430421D01*
X140742711Y-99390983D01*
X140715513Y-99326624D01*
X140727428Y-99257778D01*
X140774672Y-99206302D01*
X140800388Y-99194559D01*
X140903633Y-99161013D01*
X140903639Y-99161011D01*
X140924631Y-99150315D01*
X141064994Y-99078796D01*
X141211501Y-98972353D01*
X141339553Y-98844301D01*
X141445996Y-98697794D01*
X141528211Y-98536439D01*
X141584171Y-98364209D01*
X141598422Y-98274225D01*
X141609527Y-98204121D01*
X141639456Y-98140986D01*
X141698768Y-98104055D01*
X141768630Y-98105053D01*
G37*
%TD.AperFunction*%
%TA.AperFunction,Conductor*%
G36*
X144308630Y-98105053D02*
G01*
X144366863Y-98143663D01*
X144394473Y-98204121D01*
X144419829Y-98364210D01*
X144475787Y-98536436D01*
X144475788Y-98536439D01*
X144558006Y-98697797D01*
X144664441Y-98844294D01*
X144664445Y-98844299D01*
X144743711Y-98923565D01*
X144777196Y-98984888D01*
X144772212Y-99054580D01*
X144743711Y-99098927D01*
X143965737Y-99876903D01*
X143886517Y-99956122D01*
X143886512Y-99956128D01*
X143830498Y-100053147D01*
X143830495Y-100053155D01*
X143825919Y-100070231D01*
X143793827Y-100125814D01*
X143470019Y-100449622D01*
X143467925Y-100441807D01*
X143402099Y-100327793D01*
X143309007Y-100234701D01*
X143194993Y-100168875D01*
X143187177Y-100166780D01*
X143733080Y-99620877D01*
X143733079Y-99620876D01*
X143657143Y-99565704D01*
X143481837Y-99476382D01*
X143340386Y-99430421D01*
X143282711Y-99390983D01*
X143255513Y-99326624D01*
X143267428Y-99257778D01*
X143314672Y-99206302D01*
X143340388Y-99194559D01*
X143443633Y-99161013D01*
X143443639Y-99161011D01*
X143464631Y-99150315D01*
X143604994Y-99078796D01*
X143751501Y-98972353D01*
X143879553Y-98844301D01*
X143985996Y-98697794D01*
X144068211Y-98536439D01*
X144124171Y-98364209D01*
X144138422Y-98274225D01*
X144149527Y-98204121D01*
X144179456Y-98140986D01*
X144238768Y-98104055D01*
X144308630Y-98105053D01*
G37*
%TD.AperFunction*%
%TA.AperFunction,Conductor*%
G36*
X154468630Y-98105053D02*
G01*
X154526863Y-98143663D01*
X154554473Y-98204121D01*
X154579829Y-98364210D01*
X154635787Y-98536436D01*
X154635788Y-98536439D01*
X154718006Y-98697797D01*
X154824441Y-98844294D01*
X154824445Y-98844299D01*
X154952500Y-98972354D01*
X154952505Y-98972358D01*
X154997552Y-99005086D01*
X155099006Y-99078796D01*
X155204484Y-99132540D01*
X155260360Y-99161011D01*
X155260366Y-99161013D01*
X155363611Y-99194559D01*
X155421287Y-99233996D01*
X155448486Y-99298354D01*
X155436572Y-99367201D01*
X155389328Y-99418677D01*
X155363613Y-99430421D01*
X155222162Y-99476381D01*
X155046855Y-99565705D01*
X155046846Y-99565711D01*
X154970919Y-99620875D01*
X154970918Y-99620876D01*
X155516823Y-100166780D01*
X155509007Y-100168875D01*
X155394993Y-100234701D01*
X155301901Y-100327793D01*
X155236075Y-100441807D01*
X155233980Y-100449622D01*
X154688076Y-99903718D01*
X154688075Y-99903719D01*
X154632911Y-99979646D01*
X154632905Y-99979655D01*
X154542485Y-100157115D01*
X154494510Y-100207911D01*
X154426689Y-100224706D01*
X154360554Y-100202169D01*
X154321515Y-100157115D01*
X154231095Y-99979656D01*
X154175922Y-99903719D01*
X154175922Y-99903718D01*
X153630018Y-100449621D01*
X153627925Y-100441807D01*
X153562099Y-100327793D01*
X153469007Y-100234701D01*
X153354993Y-100168875D01*
X153347175Y-100166780D01*
X153893080Y-99620876D01*
X153817143Y-99565704D01*
X153641837Y-99476382D01*
X153500386Y-99430421D01*
X153442711Y-99390983D01*
X153415513Y-99326624D01*
X153427428Y-99257778D01*
X153474672Y-99206302D01*
X153500388Y-99194559D01*
X153603633Y-99161013D01*
X153603639Y-99161011D01*
X153624631Y-99150315D01*
X153764994Y-99078796D01*
X153911501Y-98972353D01*
X154039553Y-98844301D01*
X154145996Y-98697794D01*
X154228211Y-98536439D01*
X154284171Y-98364209D01*
X154298422Y-98274225D01*
X154309527Y-98204121D01*
X154339456Y-98140986D01*
X154398768Y-98104055D01*
X154468630Y-98105053D01*
G37*
%TD.AperFunction*%
%TA.AperFunction,Conductor*%
G36*
X157008630Y-98105053D02*
G01*
X157066863Y-98143663D01*
X157094473Y-98204121D01*
X157119829Y-98364210D01*
X157175787Y-98536436D01*
X157175788Y-98536439D01*
X157258006Y-98697797D01*
X157364441Y-98844294D01*
X157364445Y-98844299D01*
X157492500Y-98972354D01*
X157492505Y-98972358D01*
X157537552Y-99005086D01*
X157639006Y-99078796D01*
X157744484Y-99132540D01*
X157800360Y-99161011D01*
X157800366Y-99161013D01*
X157903611Y-99194559D01*
X157961287Y-99233996D01*
X157988486Y-99298354D01*
X157976572Y-99367201D01*
X157929328Y-99418677D01*
X157903613Y-99430421D01*
X157762162Y-99476381D01*
X157586855Y-99565705D01*
X157586846Y-99565711D01*
X157510919Y-99620875D01*
X157510918Y-99620876D01*
X158056823Y-100166780D01*
X158049007Y-100168875D01*
X157934993Y-100234701D01*
X157841901Y-100327793D01*
X157776075Y-100441807D01*
X157773980Y-100449622D01*
X157228076Y-99903718D01*
X157228075Y-99903719D01*
X157172911Y-99979646D01*
X157172905Y-99979655D01*
X157082485Y-100157115D01*
X157034510Y-100207911D01*
X156966689Y-100224706D01*
X156900554Y-100202169D01*
X156861515Y-100157115D01*
X156771095Y-99979656D01*
X156715922Y-99903719D01*
X156715922Y-99903718D01*
X156170018Y-100449621D01*
X156167925Y-100441807D01*
X156102099Y-100327793D01*
X156009007Y-100234701D01*
X155894993Y-100168875D01*
X155887177Y-100166780D01*
X156433080Y-99620877D01*
X156433079Y-99620876D01*
X156357143Y-99565704D01*
X156181837Y-99476382D01*
X156040386Y-99430421D01*
X155982711Y-99390983D01*
X155955513Y-99326624D01*
X155967428Y-99257778D01*
X156014672Y-99206302D01*
X156040388Y-99194559D01*
X156143633Y-99161013D01*
X156143639Y-99161011D01*
X156164631Y-99150315D01*
X156304994Y-99078796D01*
X156451501Y-98972353D01*
X156579553Y-98844301D01*
X156685996Y-98697794D01*
X156768211Y-98536439D01*
X156824171Y-98364209D01*
X156838422Y-98274225D01*
X156849527Y-98204121D01*
X156879456Y-98140986D01*
X156938768Y-98104055D01*
X157008630Y-98105053D01*
G37*
%TD.AperFunction*%
%TA.AperFunction,Conductor*%
G36*
X159548630Y-98105053D02*
G01*
X159606863Y-98143663D01*
X159634473Y-98204121D01*
X159659829Y-98364210D01*
X159715787Y-98536436D01*
X159715788Y-98536439D01*
X159798006Y-98697797D01*
X159904441Y-98844294D01*
X159904445Y-98844299D01*
X160032500Y-98972354D01*
X160032505Y-98972358D01*
X160077552Y-99005086D01*
X160179006Y-99078796D01*
X160284484Y-99132540D01*
X160340360Y-99161011D01*
X160340366Y-99161013D01*
X160443611Y-99194559D01*
X160501287Y-99233996D01*
X160528486Y-99298354D01*
X160516572Y-99367201D01*
X160469328Y-99418677D01*
X160443613Y-99430421D01*
X160302162Y-99476381D01*
X160126855Y-99565705D01*
X160126846Y-99565711D01*
X160050919Y-99620875D01*
X160050918Y-99620876D01*
X160596823Y-100166780D01*
X160589007Y-100168875D01*
X160474993Y-100234701D01*
X160381901Y-100327793D01*
X160316075Y-100441807D01*
X160313980Y-100449622D01*
X159768076Y-99903718D01*
X159768075Y-99903719D01*
X159712911Y-99979646D01*
X159712905Y-99979655D01*
X159622485Y-100157115D01*
X159574510Y-100207911D01*
X159506689Y-100224706D01*
X159440554Y-100202169D01*
X159401515Y-100157115D01*
X159311095Y-99979656D01*
X159255922Y-99903719D01*
X159255922Y-99903718D01*
X158710018Y-100449621D01*
X158707925Y-100441807D01*
X158642099Y-100327793D01*
X158549007Y-100234701D01*
X158434993Y-100168875D01*
X158427177Y-100166780D01*
X158973080Y-99620877D01*
X158973079Y-99620876D01*
X158897143Y-99565704D01*
X158721837Y-99476382D01*
X158580386Y-99430421D01*
X158522711Y-99390983D01*
X158495513Y-99326624D01*
X158507428Y-99257778D01*
X158554672Y-99206302D01*
X158580388Y-99194559D01*
X158683633Y-99161013D01*
X158683639Y-99161011D01*
X158704631Y-99150315D01*
X158844994Y-99078796D01*
X158991501Y-98972353D01*
X159119553Y-98844301D01*
X159225996Y-98697794D01*
X159308211Y-98536439D01*
X159364171Y-98364209D01*
X159378422Y-98274225D01*
X159389527Y-98204121D01*
X159419456Y-98140986D01*
X159478768Y-98104055D01*
X159548630Y-98105053D01*
G37*
%TD.AperFunction*%
%TA.AperFunction,Conductor*%
G36*
X162088630Y-98105053D02*
G01*
X162146863Y-98143663D01*
X162174473Y-98204121D01*
X162199829Y-98364210D01*
X162255787Y-98536436D01*
X162255788Y-98536439D01*
X162338006Y-98697797D01*
X162444441Y-98844294D01*
X162444445Y-98844299D01*
X162572500Y-98972354D01*
X162572505Y-98972358D01*
X162617552Y-99005086D01*
X162719006Y-99078796D01*
X162824484Y-99132540D01*
X162880360Y-99161011D01*
X162880366Y-99161013D01*
X162983611Y-99194559D01*
X163041287Y-99233996D01*
X163068486Y-99298354D01*
X163056572Y-99367201D01*
X163009328Y-99418677D01*
X162983613Y-99430421D01*
X162842162Y-99476381D01*
X162666855Y-99565705D01*
X162666846Y-99565711D01*
X162590919Y-99620875D01*
X162590918Y-99620876D01*
X163136823Y-100166780D01*
X163129007Y-100168875D01*
X163014993Y-100234701D01*
X162921901Y-100327793D01*
X162856075Y-100441807D01*
X162853980Y-100449622D01*
X162308076Y-99903718D01*
X162308075Y-99903719D01*
X162252911Y-99979646D01*
X162252905Y-99979655D01*
X162162485Y-100157115D01*
X162114510Y-100207911D01*
X162046689Y-100224706D01*
X161980554Y-100202169D01*
X161941515Y-100157115D01*
X161851095Y-99979656D01*
X161795922Y-99903719D01*
X161795922Y-99903718D01*
X161250018Y-100449621D01*
X161247925Y-100441807D01*
X161182099Y-100327793D01*
X161089007Y-100234701D01*
X160974993Y-100168875D01*
X160967177Y-100166780D01*
X161513080Y-99620877D01*
X161513079Y-99620876D01*
X161437143Y-99565704D01*
X161261837Y-99476382D01*
X161120386Y-99430421D01*
X161062711Y-99390983D01*
X161035513Y-99326624D01*
X161047428Y-99257778D01*
X161094672Y-99206302D01*
X161120388Y-99194559D01*
X161223633Y-99161013D01*
X161223639Y-99161011D01*
X161244631Y-99150315D01*
X161384994Y-99078796D01*
X161531501Y-98972353D01*
X161659553Y-98844301D01*
X161765996Y-98697794D01*
X161848211Y-98536439D01*
X161904171Y-98364209D01*
X161918422Y-98274225D01*
X161929527Y-98204121D01*
X161959456Y-98140986D01*
X162018768Y-98104055D01*
X162088630Y-98105053D01*
G37*
%TD.AperFunction*%
%TA.AperFunction,Conductor*%
G36*
X131315921Y-98825880D02*
G01*
X131315922Y-98825879D01*
X131371095Y-98749943D01*
X131460418Y-98574635D01*
X131506378Y-98433187D01*
X131545815Y-98375512D01*
X131610174Y-98348313D01*
X131679020Y-98360228D01*
X131730496Y-98407472D01*
X131742240Y-98433187D01*
X131775787Y-98536436D01*
X131775788Y-98536439D01*
X131858006Y-98697797D01*
X131964441Y-98844294D01*
X131964445Y-98844299D01*
X132092500Y-98972354D01*
X132092505Y-98972358D01*
X132137552Y-99005086D01*
X132239006Y-99078796D01*
X132344484Y-99132540D01*
X132400360Y-99161011D01*
X132400363Y-99161012D01*
X132486476Y-99188991D01*
X132572591Y-99216971D01*
X132645639Y-99228540D01*
X132732678Y-99242327D01*
X132795813Y-99272256D01*
X132832744Y-99331568D01*
X132831746Y-99401431D01*
X132793136Y-99459663D01*
X132732678Y-99487273D01*
X132572589Y-99512629D01*
X132400363Y-99568587D01*
X132400360Y-99568588D01*
X132239002Y-99650806D01*
X132092505Y-99757241D01*
X132092500Y-99757245D01*
X131964445Y-99885300D01*
X131964441Y-99885305D01*
X131858006Y-100031802D01*
X131775788Y-100193160D01*
X131775787Y-100193163D01*
X131742240Y-100296412D01*
X131702802Y-100354088D01*
X131638444Y-100381286D01*
X131569597Y-100369371D01*
X131518122Y-100322127D01*
X131506378Y-100296412D01*
X131460418Y-100154964D01*
X131371095Y-99979656D01*
X131315922Y-99903719D01*
X131315922Y-99903718D01*
X130770018Y-100449621D01*
X130767925Y-100441807D01*
X130702099Y-100327793D01*
X130609007Y-100234701D01*
X130494993Y-100168875D01*
X130487177Y-100166780D01*
X131033080Y-99620877D01*
X131033079Y-99620876D01*
X130957141Y-99565702D01*
X130779685Y-99475285D01*
X130728888Y-99427311D01*
X130712093Y-99359490D01*
X130734630Y-99293355D01*
X130779685Y-99254315D01*
X130957140Y-99163897D01*
X130957141Y-99163897D01*
X131033079Y-99108722D01*
X131033080Y-99108721D01*
X130487178Y-98562819D01*
X130494993Y-98560725D01*
X130609007Y-98494899D01*
X130702099Y-98401807D01*
X130767925Y-98287793D01*
X130770019Y-98279977D01*
X131315921Y-98825880D01*
G37*
%TD.AperFunction*%
%TD*%
M02*
