%TF.GenerationSoftware,KiCad,Pcbnew,10.0.3*%
%TF.CreationDate,2026-06-11T09:05:23+02:00*%
%TF.ProjectId,dataflyer-2650,64617461-666c-4796-9572-2d323635302e,1.1*%
%TF.SameCoordinates,Original*%
%TF.FileFunction,Copper,L1,Top*%
%TF.FilePolarity,Positive*%
%FSLAX46Y46*%
G04 Gerber Fmt 4.6, Leading zero omitted, Abs format (unit mm)*
G04 Created by KiCad (PCBNEW 10.0.3) date 2026-06-11 09:05:23*
%MOMM*%
%LPD*%
G01*
G04 APERTURE LIST*
G04 Aperture macros list*
%AMRoundRect*
0 Rectangle with rounded corners*
0 $1 Rounding radius*
0 $2 $3 $4 $5 $6 $7 $8 $9 X,Y pos of 4 corners*
0 Add a 4 corners polygon primitive as box body*
4,1,4,$2,$3,$4,$5,$6,$7,$8,$9,$2,$3,0*
0 Add four circle primitives for the rounded corners*
1,1,$1+$1,$2,$3*
1,1,$1+$1,$4,$5*
1,1,$1+$1,$6,$7*
1,1,$1+$1,$8,$9*
0 Add four rect primitives between the rounded corners*
20,1,$1+$1,$2,$3,$4,$5,0*
20,1,$1+$1,$4,$5,$6,$7,0*
20,1,$1+$1,$6,$7,$8,$9,0*
20,1,$1+$1,$8,$9,$2,$3,0*%
G04 Aperture macros list end*
%TA.AperFunction,ComponentPad*%
%ADD10R,1.700000X1.700000*%
%TD*%
%TA.AperFunction,ComponentPad*%
%ADD11C,1.700000*%
%TD*%
%TA.AperFunction,ComponentPad*%
%ADD12RoundRect,0.250000X-0.600000X0.600000X-0.600000X-0.600000X0.600000X-0.600000X0.600000X0.600000X0*%
%TD*%
%TA.AperFunction,ViaPad*%
%ADD13C,0.800000*%
%TD*%
%TA.AperFunction,Conductor*%
%ADD14C,0.250000*%
%TD*%
%TA.AperFunction,Conductor*%
%ADD15C,0.500000*%
%TD*%
G04 APERTURE END LIST*
D10*
%TO.P,J1,1,Pin_1_1*%
%TO.N,REQ*%
X132080000Y-116080000D03*
D11*
%TO.P,J1,2,Pin_2_2*%
%TO.N,GND*%
X132080000Y-113540000D03*
%TO.P,J1,3,Pin_3_3*%
%TO.N,MSG*%
X134620000Y-116080000D03*
%TO.P,J1,4,Pin_4_4*%
%TO.N,CD*%
X134620000Y-113540000D03*
%TO.P,J1,5,Pin_5_5*%
%TO.N,IO*%
X137160000Y-116080000D03*
%TO.P,J1,6,Pin_6_6*%
%TO.N,GND*%
X137160000Y-113540000D03*
%TO.P,J1,7,Pin_7_7*%
%TO.N,RST*%
X139700000Y-116080000D03*
%TO.P,J1,8,Pin_8_8*%
%TO.N,ATN*%
X139700000Y-113540000D03*
%TO.P,J1,9,Pin_9_9*%
%TO.N,ACK*%
X142240000Y-116080000D03*
%TO.P,J1,10,Pin_10_10*%
%TO.N,GND*%
X142240000Y-113540000D03*
%TO.P,J1,11,Pin_11_11*%
%TO.N,BSY*%
X144780000Y-116080000D03*
%TO.P,J1,12,Pin_12_12*%
%TO.N,SEL*%
X144780000Y-113540000D03*
%TO.P,J1,13,Pin_13_13*%
%TO.N,GND*%
X147320000Y-116080000D03*
%TO.P,J1,14,Pin_14_14*%
%TO.N,DBP*%
X147320000Y-113540000D03*
%TO.P,J1,15,Pin_15_15*%
%TO.N,DB0*%
X149860000Y-116080000D03*
%TO.P,J1,16,Pin_16_16*%
%TO.N,DB1*%
X149860000Y-113540000D03*
%TO.P,J1,17,Pin_17_17*%
%TO.N,GND*%
X152400000Y-116080000D03*
%TO.P,J1,18,Pin_18_18*%
%TO.N,DB2*%
X152400000Y-113540000D03*
%TO.P,J1,19,Pin_19_19*%
%TO.N,DB3*%
X154940000Y-116080000D03*
%TO.P,J1,20,Pin_20_20*%
%TO.N,DB4*%
X154940000Y-113540000D03*
%TO.P,J1,21,Pin_21_21*%
%TO.N,DB5*%
X157480000Y-116080000D03*
%TO.P,J1,22,Pin_22_22*%
%TO.N,GND*%
X157480000Y-113540000D03*
%TO.P,J1,23,Pin_23_23*%
%TO.N,DB6*%
X160020000Y-116080000D03*
%TO.P,J1,24,Pin_24_24*%
%TO.N,TERMPWR*%
X160020000Y-113540000D03*
%TO.P,J1,25,Pin_25_25*%
%TO.N,DB7*%
X162560000Y-116080000D03*
%TO.P,J1,26,Pin_26_26*%
%TO.N,GND*%
X162560000Y-113540000D03*
%TD*%
D12*
%TO.P,J2,1,Pin_1_1*%
%TO.N,GND*%
X163100000Y-100000000D03*
D11*
%TO.P,J2,2,Pin_2_2*%
%TO.N,DB0*%
X163100000Y-102540000D03*
%TO.P,J2,3,Pin_3_3*%
%TO.N,GND*%
X160560000Y-100000000D03*
%TO.P,J2,4,Pin_4_4*%
%TO.N,DB1*%
X160560000Y-102540000D03*
%TO.P,J2,5,Pin_5_5*%
%TO.N,GND*%
X158020000Y-100000000D03*
%TO.P,J2,6,Pin_6_6*%
%TO.N,DB2*%
X158020000Y-102540000D03*
%TO.P,J2,7,Pin_7_7*%
%TO.N,GND*%
X155480000Y-100000000D03*
%TO.P,J2,8,Pin_8_8*%
%TO.N,DB3*%
X155480000Y-102540000D03*
%TO.P,J2,9,Pin_9_9*%
%TO.N,GND*%
X152940000Y-100000000D03*
%TO.P,J2,10,Pin_10_10*%
%TO.N,DB4*%
X152940000Y-102540000D03*
%TO.P,J2,11,Pin_11_11*%
%TO.N,GND*%
X150400000Y-100000000D03*
%TO.P,J2,12,Pin_12_12*%
%TO.N,DB5*%
X150400000Y-102540000D03*
%TO.P,J2,13,Pin_13_13*%
%TO.N,GND*%
X147860000Y-100000000D03*
%TO.P,J2,14,Pin_14_14*%
%TO.N,DB6*%
X147860000Y-102540000D03*
%TO.P,J2,15,Pin_15_15*%
%TO.N,GND*%
X145320000Y-100000000D03*
%TO.P,J2,16,Pin_16_16*%
%TO.N,DB7*%
X145320000Y-102540000D03*
%TO.P,J2,17,Pin_17_17*%
%TO.N,GND*%
X142780000Y-100000000D03*
%TO.P,J2,18,Pin_18_18*%
%TO.N,DBP*%
X142780000Y-102540000D03*
%TO.P,J2,19,Pin_19_19*%
%TO.N,GND*%
X140240000Y-100000000D03*
%TO.P,J2,20,Pin_20_20*%
X140240000Y-102540000D03*
%TO.P,J2,21,Pin_21_21*%
X137700000Y-100000000D03*
%TO.P,J2,22,Pin_22_22*%
X137700000Y-102540000D03*
%TO.P,J2,23,Pin_23_23*%
X135160000Y-100000000D03*
%TO.P,J2,24,Pin_24_24*%
X135160000Y-102540000D03*
%TO.P,J2,25,Pin_25_25*%
%TO.N,unconnected-(J2-Pin_25-Pad25)*%
X132620000Y-100000000D03*
%TO.P,J2,26,Pin_26_26*%
%TO.N,TERMPWR*%
X132620000Y-102540000D03*
%TO.P,J2,27,Pin_27_27*%
%TO.N,GND*%
X130080000Y-100000000D03*
%TO.P,J2,28,Pin_28_28*%
X130080000Y-102540000D03*
%TO.P,J2,29,Pin_29_29*%
X127540000Y-100000000D03*
%TO.P,J2,30,Pin_30_30*%
X127540000Y-102540000D03*
%TO.P,J2,31,Pin_31_31*%
X125000000Y-100000000D03*
%TO.P,J2,32,Pin_32_32*%
%TO.N,ATN*%
X125000000Y-102540000D03*
%TO.P,J2,33,Pin_33_33*%
%TO.N,GND*%
X122460000Y-100000000D03*
%TO.P,J2,34,Pin_34_34*%
%TO.N,unconnected-(J2-Pin_34-Pad34)*%
X122460000Y-102540000D03*
%TO.P,J2,35,Pin_35_35*%
%TO.N,GND*%
X119920000Y-100000000D03*
%TO.P,J2,36,Pin_36_36*%
%TO.N,BSY*%
X119920000Y-102540000D03*
%TO.P,J2,37,Pin_37_37*%
%TO.N,GND*%
X117380000Y-100000000D03*
%TO.P,J2,38,Pin_38_38*%
%TO.N,ACK*%
X117380000Y-102540000D03*
%TO.P,J2,39,Pin_39_39*%
%TO.N,GND*%
X114840000Y-100000000D03*
%TO.P,J2,40,Pin_40_40*%
%TO.N,RST*%
X114840000Y-102540000D03*
%TO.P,J2,41,Pin_41_41*%
%TO.N,GND*%
X112300000Y-100000000D03*
%TO.P,J2,42,Pin_42_42*%
%TO.N,MSG*%
X112300000Y-102540000D03*
%TO.P,J2,43,Pin_43_43*%
%TO.N,GND*%
X109760000Y-100000000D03*
%TO.P,J2,44,Pin_44_44*%
%TO.N,SEL*%
X109760000Y-102540000D03*
%TO.P,J2,45,Pin_45_45*%
%TO.N,GND*%
X107220000Y-100000000D03*
%TO.P,J2,46,Pin_46_46*%
%TO.N,CD*%
X107220000Y-102540000D03*
%TO.P,J2,47,Pin_47_47*%
%TO.N,GND*%
X104680000Y-100000000D03*
%TO.P,J2,48,Pin_48_48*%
%TO.N,REQ*%
X104680000Y-102540000D03*
%TO.P,J2,49,Pin_49_49*%
%TO.N,GND*%
X102140000Y-100000000D03*
%TO.P,J2,50,Pin_50_50*%
%TO.N,IO*%
X102140000Y-102540000D03*
%TD*%
D13*
%TO.N,DB1*%
X157092400Y-111687200D03*
%TO.N,DB5*%
X153483300Y-114996700D03*
%TD*%
%TO.N,DB1*%
D14*
X149860000Y-113540000D02*
X151712800Y-111687200D01*
X151712800Y-111687200D02*
X157092400Y-111687200D01*
%TO.N,DB5*%
X156303300Y-114903300D02*
X153576700Y-114903300D01*
X157480000Y-116080000D02*
X156303300Y-114903300D01*
X153576700Y-114903300D02*
X153483300Y-114996700D01*
%TO.N,TERMPWR*%
D15*
X160020000Y-113540000D02*
X160020000Y-113339500D01*
X153260700Y-106580200D02*
X136660200Y-106580200D01*
X136660200Y-106580200D02*
X132620000Y-102540000D01*
X160020000Y-113339500D02*
X153260700Y-106580200D01*
%TO.N,IO*%
D14*
X137160000Y-116080000D02*
X135854700Y-114774700D01*
X135854700Y-113108500D02*
X126510400Y-103764200D01*
X103364200Y-103764200D02*
X102140000Y-102540000D01*
X135854700Y-114774700D02*
X135854700Y-113108500D01*
X126510400Y-103764200D02*
X103364200Y-103764200D01*
%TD*%
%TA.AperFunction,Conductor*%
%TO.N,GND*%
G36*
X138173921Y-114271080D02*
G01*
X138173922Y-114271079D01*
X138229095Y-114195143D01*
X138318418Y-114019835D01*
X138364378Y-113878387D01*
X138403815Y-113820712D01*
X138468174Y-113793513D01*
X138537020Y-113805428D01*
X138588496Y-113852672D01*
X138600240Y-113878387D01*
X138633787Y-113981636D01*
X138633788Y-113981639D01*
X138689664Y-114091300D01*
X138716003Y-114142993D01*
X138716006Y-114142997D01*
X138822441Y-114289494D01*
X138822445Y-114289499D01*
X138950500Y-114417554D01*
X138950505Y-114417558D01*
X139033422Y-114477800D01*
X139097006Y-114523996D01*
X139202484Y-114577740D01*
X139258360Y-114606211D01*
X139258363Y-114606212D01*
X139344476Y-114634191D01*
X139430591Y-114662171D01*
X139503639Y-114673740D01*
X139590678Y-114687527D01*
X139653813Y-114717456D01*
X139690744Y-114776768D01*
X139689746Y-114846631D01*
X139651136Y-114904863D01*
X139590678Y-114932473D01*
X139430589Y-114957829D01*
X139258363Y-115013787D01*
X139258360Y-115013788D01*
X139097002Y-115096006D01*
X138950505Y-115202441D01*
X138950500Y-115202445D01*
X138822445Y-115330500D01*
X138822441Y-115330505D01*
X138716006Y-115477002D01*
X138633788Y-115638360D01*
X138633787Y-115638363D01*
X138577829Y-115810589D01*
X138552473Y-115970678D01*
X138522544Y-116033813D01*
X138463232Y-116070744D01*
X138393369Y-116069746D01*
X138335137Y-116031136D01*
X138307527Y-115970678D01*
X138293740Y-115883639D01*
X138282171Y-115810591D01*
X138226211Y-115638361D01*
X138226211Y-115638360D01*
X138190056Y-115567403D01*
X138143996Y-115477006D01*
X138106100Y-115424846D01*
X138037558Y-115330505D01*
X138037554Y-115330500D01*
X137909499Y-115202445D01*
X137909494Y-115202441D01*
X137762997Y-115096006D01*
X137762996Y-115096005D01*
X137762994Y-115096004D01*
X137704257Y-115066076D01*
X137601639Y-115013788D01*
X137601636Y-115013787D01*
X137498387Y-114980240D01*
X137440711Y-114940803D01*
X137413513Y-114876444D01*
X137425428Y-114807598D01*
X137472672Y-114756122D01*
X137498387Y-114744378D01*
X137639835Y-114698418D01*
X137815143Y-114609095D01*
X137891079Y-114553922D01*
X137891080Y-114553922D01*
X137345177Y-114008019D01*
X137352993Y-114005925D01*
X137467007Y-113940099D01*
X137560099Y-113847007D01*
X137625925Y-113732993D01*
X137628019Y-113725177D01*
X138173921Y-114271080D01*
G37*
%TD.AperFunction*%
%TA.AperFunction,Conductor*%
G36*
X141774075Y-113732993D02*
G01*
X141839901Y-113847007D01*
X141932993Y-113940099D01*
X142047007Y-114005925D01*
X142054822Y-114008019D01*
X141508918Y-114553922D01*
X141584856Y-114609095D01*
X141760164Y-114698418D01*
X141901612Y-114744378D01*
X141959288Y-114783815D01*
X141986486Y-114848174D01*
X141974571Y-114917020D01*
X141927327Y-114968496D01*
X141901612Y-114980240D01*
X141798363Y-115013787D01*
X141798360Y-115013788D01*
X141637002Y-115096006D01*
X141490505Y-115202441D01*
X141490500Y-115202445D01*
X141362445Y-115330500D01*
X141362441Y-115330505D01*
X141256006Y-115477002D01*
X141173788Y-115638360D01*
X141173787Y-115638363D01*
X141117829Y-115810589D01*
X141092473Y-115970678D01*
X141062544Y-116033813D01*
X141003232Y-116070744D01*
X140933369Y-116069746D01*
X140875137Y-116031136D01*
X140847527Y-115970678D01*
X140833740Y-115883639D01*
X140822171Y-115810591D01*
X140766211Y-115638361D01*
X140766211Y-115638360D01*
X140730056Y-115567403D01*
X140683996Y-115477006D01*
X140646100Y-115424846D01*
X140577558Y-115330505D01*
X140577554Y-115330500D01*
X140449499Y-115202445D01*
X140449494Y-115202441D01*
X140302997Y-115096006D01*
X140302996Y-115096005D01*
X140302994Y-115096004D01*
X140244257Y-115066076D01*
X140141639Y-115013788D01*
X140141636Y-115013787D01*
X139969410Y-114957829D01*
X139809321Y-114932473D01*
X139746186Y-114902544D01*
X139709255Y-114843232D01*
X139710253Y-114773370D01*
X139748863Y-114715137D01*
X139809321Y-114687527D01*
X139879425Y-114676422D01*
X139969409Y-114662171D01*
X140141639Y-114606211D01*
X140302994Y-114523996D01*
X140449501Y-114417553D01*
X140577553Y-114289501D01*
X140683996Y-114142994D01*
X140766211Y-113981639D01*
X140799759Y-113878388D01*
X140839196Y-113820712D01*
X140903554Y-113793513D01*
X140972401Y-113805427D01*
X141023877Y-113852671D01*
X141035621Y-113878386D01*
X141081582Y-114019837D01*
X141170904Y-114195143D01*
X141226076Y-114271079D01*
X141226077Y-114271080D01*
X141771980Y-113725176D01*
X141774075Y-113732993D01*
G37*
%TD.AperFunction*%
%TA.AperFunction,Conductor*%
G36*
X143253921Y-114271080D02*
G01*
X143253922Y-114271079D01*
X143309095Y-114195143D01*
X143398418Y-114019835D01*
X143444378Y-113878387D01*
X143483815Y-113820712D01*
X143548174Y-113793513D01*
X143617020Y-113805428D01*
X143668496Y-113852672D01*
X143680240Y-113878387D01*
X143713787Y-113981636D01*
X143713788Y-113981639D01*
X143769664Y-114091300D01*
X143796003Y-114142993D01*
X143796006Y-114142997D01*
X143902441Y-114289494D01*
X143902445Y-114289499D01*
X144030500Y-114417554D01*
X144030505Y-114417558D01*
X144113422Y-114477800D01*
X144177006Y-114523996D01*
X144282484Y-114577740D01*
X144338360Y-114606211D01*
X144338363Y-114606212D01*
X144424476Y-114634191D01*
X144510591Y-114662171D01*
X144583639Y-114673740D01*
X144670678Y-114687527D01*
X144733813Y-114717456D01*
X144770744Y-114776768D01*
X144769746Y-114846631D01*
X144731136Y-114904863D01*
X144670678Y-114932473D01*
X144510589Y-114957829D01*
X144338363Y-115013787D01*
X144338360Y-115013788D01*
X144177002Y-115096006D01*
X144030505Y-115202441D01*
X144030500Y-115202445D01*
X143902445Y-115330500D01*
X143902441Y-115330505D01*
X143796006Y-115477002D01*
X143713788Y-115638360D01*
X143713787Y-115638363D01*
X143657829Y-115810589D01*
X143632473Y-115970678D01*
X143602544Y-116033813D01*
X143543232Y-116070744D01*
X143473369Y-116069746D01*
X143415137Y-116031136D01*
X143387527Y-115970678D01*
X143373740Y-115883639D01*
X143362171Y-115810591D01*
X143306211Y-115638361D01*
X143306211Y-115638360D01*
X143270056Y-115567403D01*
X143223996Y-115477006D01*
X143186100Y-115424846D01*
X143117558Y-115330505D01*
X143117554Y-115330500D01*
X142989499Y-115202445D01*
X142989494Y-115202441D01*
X142842997Y-115096006D01*
X142842996Y-115096005D01*
X142842994Y-115096004D01*
X142784257Y-115066076D01*
X142681639Y-115013788D01*
X142681636Y-115013787D01*
X142578387Y-114980240D01*
X142520711Y-114940803D01*
X142493513Y-114876444D01*
X142505428Y-114807598D01*
X142552672Y-114756122D01*
X142578387Y-114744378D01*
X142719835Y-114698418D01*
X142895143Y-114609095D01*
X142971079Y-114553922D01*
X142971080Y-114553921D01*
X142425178Y-114008019D01*
X142432993Y-114005925D01*
X142547007Y-113940099D01*
X142640099Y-113847007D01*
X142705925Y-113732993D01*
X142708019Y-113725177D01*
X143253921Y-114271080D01*
G37*
%TD.AperFunction*%
%TA.AperFunction,Conductor*%
G36*
X158493922Y-114271080D02*
G01*
X158493922Y-114271079D01*
X158549095Y-114195143D01*
X158638418Y-114019835D01*
X158684378Y-113878387D01*
X158723815Y-113820712D01*
X158788174Y-113793513D01*
X158857020Y-113805428D01*
X158908496Y-113852672D01*
X158920240Y-113878387D01*
X158953787Y-113981636D01*
X158953788Y-113981639D01*
X159009664Y-114091300D01*
X159036003Y-114142993D01*
X159036006Y-114142997D01*
X159142441Y-114289494D01*
X159142445Y-114289499D01*
X159270500Y-114417554D01*
X159270505Y-114417558D01*
X159353422Y-114477800D01*
X159417006Y-114523996D01*
X159522484Y-114577740D01*
X159578360Y-114606211D01*
X159578363Y-114606212D01*
X159664476Y-114634191D01*
X159750591Y-114662171D01*
X159823639Y-114673740D01*
X159910678Y-114687527D01*
X159973813Y-114717456D01*
X160010744Y-114776768D01*
X160009746Y-114846631D01*
X159971136Y-114904863D01*
X159910678Y-114932473D01*
X159750589Y-114957829D01*
X159578363Y-115013787D01*
X159578360Y-115013788D01*
X159417002Y-115096006D01*
X159270505Y-115202441D01*
X159270500Y-115202445D01*
X159142445Y-115330500D01*
X159142441Y-115330505D01*
X159036006Y-115477002D01*
X158953788Y-115638360D01*
X158953787Y-115638363D01*
X158897829Y-115810589D01*
X158872473Y-115970678D01*
X158842544Y-116033813D01*
X158783232Y-116070744D01*
X158713369Y-116069746D01*
X158655137Y-116031136D01*
X158627527Y-115970678D01*
X158613740Y-115883639D01*
X158602171Y-115810591D01*
X158546211Y-115638361D01*
X158546211Y-115638360D01*
X158510056Y-115567403D01*
X158463996Y-115477006D01*
X158426100Y-115424846D01*
X158357558Y-115330505D01*
X158357554Y-115330500D01*
X158229499Y-115202445D01*
X158229494Y-115202441D01*
X158082997Y-115096006D01*
X158082996Y-115096005D01*
X158082994Y-115096004D01*
X158024257Y-115066076D01*
X157921639Y-115013788D01*
X157921636Y-115013787D01*
X157818387Y-114980240D01*
X157760711Y-114940803D01*
X157733513Y-114876444D01*
X157745428Y-114807598D01*
X157792672Y-114756122D01*
X157818387Y-114744378D01*
X157959835Y-114698418D01*
X158135143Y-114609095D01*
X158211079Y-114553922D01*
X158211080Y-114553922D01*
X157665177Y-114008019D01*
X157672993Y-114005925D01*
X157787007Y-113940099D01*
X157880099Y-113847007D01*
X157945925Y-113732993D01*
X157948019Y-113725177D01*
X158493922Y-114271080D01*
G37*
%TD.AperFunction*%
%TA.AperFunction,Conductor*%
G36*
X162094075Y-113732993D02*
G01*
X162159901Y-113847007D01*
X162252993Y-113940099D01*
X162367007Y-114005925D01*
X162374822Y-114008019D01*
X161828918Y-114553922D01*
X161904856Y-114609095D01*
X162080164Y-114698418D01*
X162221612Y-114744378D01*
X162279288Y-114783815D01*
X162306486Y-114848174D01*
X162294571Y-114917020D01*
X162247327Y-114968496D01*
X162221612Y-114980240D01*
X162118363Y-115013787D01*
X162118360Y-115013788D01*
X161957002Y-115096006D01*
X161810505Y-115202441D01*
X161810500Y-115202445D01*
X161682445Y-115330500D01*
X161682441Y-115330505D01*
X161576006Y-115477002D01*
X161493788Y-115638360D01*
X161493787Y-115638363D01*
X161437829Y-115810589D01*
X161412473Y-115970678D01*
X161382544Y-116033813D01*
X161323232Y-116070744D01*
X161253369Y-116069746D01*
X161195137Y-116031136D01*
X161167527Y-115970678D01*
X161153740Y-115883639D01*
X161142171Y-115810591D01*
X161086211Y-115638361D01*
X161086211Y-115638360D01*
X161050056Y-115567403D01*
X161003996Y-115477006D01*
X160966100Y-115424846D01*
X160897558Y-115330505D01*
X160897554Y-115330500D01*
X160769499Y-115202445D01*
X160769494Y-115202441D01*
X160622997Y-115096006D01*
X160622996Y-115096005D01*
X160622994Y-115096004D01*
X160564257Y-115066076D01*
X160461639Y-115013788D01*
X160461636Y-115013787D01*
X160289410Y-114957829D01*
X160129321Y-114932473D01*
X160066186Y-114902544D01*
X160029255Y-114843232D01*
X160030253Y-114773370D01*
X160068863Y-114715137D01*
X160129321Y-114687527D01*
X160199425Y-114676422D01*
X160289409Y-114662171D01*
X160461639Y-114606211D01*
X160622994Y-114523996D01*
X160769501Y-114417553D01*
X160897553Y-114289501D01*
X161003996Y-114142994D01*
X161086211Y-113981639D01*
X161119759Y-113878388D01*
X161159196Y-113820712D01*
X161223554Y-113793513D01*
X161292401Y-113805427D01*
X161343877Y-113852671D01*
X161355621Y-113878386D01*
X161401582Y-114019837D01*
X161490904Y-114195143D01*
X161546076Y-114271079D01*
X161546077Y-114271080D01*
X162091980Y-113725176D01*
X162094075Y-113732993D01*
G37*
%TD.AperFunction*%
%TA.AperFunction,Conductor*%
G36*
X133093921Y-114271080D02*
G01*
X133093922Y-114271079D01*
X133149095Y-114195143D01*
X133238418Y-114019835D01*
X133284378Y-113878387D01*
X133323815Y-113820712D01*
X133388174Y-113793513D01*
X133457020Y-113805428D01*
X133508496Y-113852672D01*
X133520240Y-113878387D01*
X133553787Y-113981636D01*
X133553788Y-113981639D01*
X133609664Y-114091300D01*
X133636003Y-114142993D01*
X133636006Y-114142997D01*
X133742441Y-114289494D01*
X133742445Y-114289499D01*
X133870500Y-114417554D01*
X133870505Y-114417558D01*
X133953422Y-114477800D01*
X134017006Y-114523996D01*
X134122484Y-114577740D01*
X134178360Y-114606211D01*
X134178363Y-114606212D01*
X134264476Y-114634191D01*
X134350591Y-114662171D01*
X134423639Y-114673740D01*
X134510678Y-114687527D01*
X134573813Y-114717456D01*
X134610744Y-114776768D01*
X134609746Y-114846631D01*
X134571136Y-114904863D01*
X134510678Y-114932473D01*
X134350589Y-114957829D01*
X134178363Y-115013787D01*
X134178360Y-115013788D01*
X134017002Y-115096006D01*
X133870505Y-115202441D01*
X133870500Y-115202445D01*
X133742445Y-115330500D01*
X133742441Y-115330505D01*
X133636006Y-115477002D01*
X133553788Y-115638360D01*
X133553787Y-115638363D01*
X133497829Y-115810589D01*
X133476972Y-115942271D01*
X133447042Y-116005405D01*
X133387731Y-116042336D01*
X133317868Y-116041338D01*
X133259636Y-116002728D01*
X133231522Y-115938764D01*
X133230499Y-115922872D01*
X133230499Y-115185143D01*
X133230499Y-115185136D01*
X133227695Y-115160954D01*
X133227586Y-115160012D01*
X133227585Y-115160010D01*
X133227585Y-115160009D01*
X133182206Y-115057235D01*
X133102765Y-114977794D01*
X133081707Y-114968496D01*
X132999992Y-114932415D01*
X132974868Y-114929500D01*
X132622810Y-114929500D01*
X132555771Y-114909815D01*
X132510016Y-114857011D01*
X132500072Y-114787853D01*
X132529097Y-114724297D01*
X132566516Y-114695015D01*
X132735140Y-114609097D01*
X132735141Y-114609097D01*
X132811079Y-114553922D01*
X132811080Y-114553921D01*
X132265178Y-114008019D01*
X132272993Y-114005925D01*
X132387007Y-113940099D01*
X132480099Y-113847007D01*
X132545925Y-113732993D01*
X132548019Y-113725177D01*
X133093921Y-114271080D01*
G37*
%TD.AperFunction*%
%TA.AperFunction,Conductor*%
G36*
X146086630Y-113550253D02*
G01*
X146144863Y-113588863D01*
X146172473Y-113649321D01*
X146197829Y-113809410D01*
X146253787Y-113981636D01*
X146253788Y-113981639D01*
X146309664Y-114091300D01*
X146336003Y-114142993D01*
X146336006Y-114142997D01*
X146442441Y-114289494D01*
X146442445Y-114289499D01*
X146570500Y-114417554D01*
X146570505Y-114417558D01*
X146653422Y-114477800D01*
X146717006Y-114523996D01*
X146822484Y-114577740D01*
X146878360Y-114606211D01*
X146878366Y-114606213D01*
X146981611Y-114639759D01*
X147039287Y-114679196D01*
X147066486Y-114743554D01*
X147054572Y-114812401D01*
X147007328Y-114863877D01*
X146981613Y-114875621D01*
X146840162Y-114921581D01*
X146664855Y-115010905D01*
X146664846Y-115010911D01*
X146588919Y-115066075D01*
X146588918Y-115066076D01*
X147134823Y-115611980D01*
X147127007Y-115614075D01*
X147012993Y-115679901D01*
X146919901Y-115772993D01*
X146854075Y-115887007D01*
X146851980Y-115894822D01*
X146306076Y-115348918D01*
X146306075Y-115348919D01*
X146250911Y-115424846D01*
X146250905Y-115424855D01*
X146161581Y-115600162D01*
X146115621Y-115741613D01*
X146076183Y-115799288D01*
X146011824Y-115826486D01*
X145942978Y-115814571D01*
X145891502Y-115767327D01*
X145879759Y-115741611D01*
X145846213Y-115638366D01*
X145846211Y-115638360D01*
X145810056Y-115567403D01*
X145763996Y-115477006D01*
X145726100Y-115424846D01*
X145657558Y-115330505D01*
X145657554Y-115330500D01*
X145529499Y-115202445D01*
X145529494Y-115202441D01*
X145382997Y-115096006D01*
X145382996Y-115096005D01*
X145382994Y-115096004D01*
X145324257Y-115066076D01*
X145221639Y-115013788D01*
X145221636Y-115013787D01*
X145049410Y-114957829D01*
X144889321Y-114932473D01*
X144826186Y-114902544D01*
X144789255Y-114843232D01*
X144790253Y-114773370D01*
X144828863Y-114715137D01*
X144889321Y-114687527D01*
X144959425Y-114676422D01*
X145049409Y-114662171D01*
X145221639Y-114606211D01*
X145382994Y-114523996D01*
X145529501Y-114417553D01*
X145657553Y-114289501D01*
X145763996Y-114142994D01*
X145846211Y-113981639D01*
X145902171Y-113809409D01*
X145916422Y-113719425D01*
X145927527Y-113649321D01*
X145957456Y-113586186D01*
X146016768Y-113549255D01*
X146086630Y-113550253D01*
G37*
%TD.AperFunction*%
%TA.AperFunction,Conductor*%
G36*
X151166630Y-113550253D02*
G01*
X151224863Y-113588863D01*
X151252473Y-113649321D01*
X151277829Y-113809410D01*
X151333787Y-113981636D01*
X151333788Y-113981639D01*
X151389664Y-114091300D01*
X151416003Y-114142993D01*
X151416006Y-114142997D01*
X151522441Y-114289494D01*
X151522445Y-114289499D01*
X151650500Y-114417554D01*
X151650505Y-114417558D01*
X151733422Y-114477800D01*
X151797006Y-114523996D01*
X151902484Y-114577740D01*
X151958360Y-114606211D01*
X151958366Y-114606213D01*
X152061611Y-114639759D01*
X152119287Y-114679196D01*
X152146486Y-114743554D01*
X152134572Y-114812401D01*
X152087328Y-114863877D01*
X152061613Y-114875621D01*
X151920162Y-114921581D01*
X151744855Y-115010905D01*
X151744846Y-115010911D01*
X151668919Y-115066075D01*
X151668918Y-115066076D01*
X152214822Y-115611980D01*
X152207007Y-115614075D01*
X152092993Y-115679901D01*
X151999901Y-115772993D01*
X151934075Y-115887007D01*
X151931980Y-115894822D01*
X151386076Y-115348918D01*
X151386075Y-115348919D01*
X151330911Y-115424846D01*
X151330905Y-115424855D01*
X151241581Y-115600162D01*
X151195621Y-115741613D01*
X151156183Y-115799288D01*
X151091824Y-115826486D01*
X151022978Y-115814571D01*
X150971502Y-115767327D01*
X150959759Y-115741611D01*
X150926213Y-115638366D01*
X150926211Y-115638360D01*
X150890056Y-115567403D01*
X150843996Y-115477006D01*
X150806100Y-115424846D01*
X150737558Y-115330505D01*
X150737554Y-115330500D01*
X150609499Y-115202445D01*
X150609494Y-115202441D01*
X150462997Y-115096006D01*
X150462996Y-115096005D01*
X150462994Y-115096004D01*
X150404257Y-115066076D01*
X150301639Y-115013788D01*
X150301636Y-115013787D01*
X150129410Y-114957829D01*
X149969321Y-114932473D01*
X149906186Y-114902544D01*
X149869255Y-114843232D01*
X149870253Y-114773370D01*
X149908863Y-114715137D01*
X149969321Y-114687527D01*
X150039425Y-114676422D01*
X150129409Y-114662171D01*
X150301639Y-114606211D01*
X150462994Y-114523996D01*
X150609501Y-114417553D01*
X150737553Y-114289501D01*
X150843996Y-114142994D01*
X150926211Y-113981639D01*
X150982171Y-113809409D01*
X150996422Y-113719425D01*
X151007527Y-113649321D01*
X151037456Y-113586186D01*
X151096768Y-113549255D01*
X151166630Y-113550253D01*
G37*
%TD.AperFunction*%
%TA.AperFunction,Conductor*%
G36*
X148626630Y-113550253D02*
G01*
X148684863Y-113588863D01*
X148712473Y-113649321D01*
X148737829Y-113809410D01*
X148793787Y-113981636D01*
X148793788Y-113981639D01*
X148849664Y-114091300D01*
X148876003Y-114142993D01*
X148876006Y-114142997D01*
X148982441Y-114289494D01*
X148982445Y-114289499D01*
X149110500Y-114417554D01*
X149110505Y-114417558D01*
X149193422Y-114477800D01*
X149257006Y-114523996D01*
X149362484Y-114577740D01*
X149418360Y-114606211D01*
X149418363Y-114606212D01*
X149504476Y-114634191D01*
X149590591Y-114662171D01*
X149663639Y-114673740D01*
X149750678Y-114687527D01*
X149813813Y-114717456D01*
X149850744Y-114776768D01*
X149849746Y-114846631D01*
X149811136Y-114904863D01*
X149750678Y-114932473D01*
X149590589Y-114957829D01*
X149418363Y-115013787D01*
X149418360Y-115013788D01*
X149257002Y-115096006D01*
X149110505Y-115202441D01*
X149110500Y-115202445D01*
X148982445Y-115330500D01*
X148982441Y-115330505D01*
X148876006Y-115477002D01*
X148793788Y-115638360D01*
X148793787Y-115638363D01*
X148760240Y-115741612D01*
X148720802Y-115799288D01*
X148656444Y-115826486D01*
X148587597Y-115814571D01*
X148536122Y-115767327D01*
X148524378Y-115741612D01*
X148478418Y-115600164D01*
X148389095Y-115424856D01*
X148333922Y-115348919D01*
X148333922Y-115348918D01*
X147788018Y-115894821D01*
X147785925Y-115887007D01*
X147720099Y-115772993D01*
X147627007Y-115679901D01*
X147512993Y-115614075D01*
X147505177Y-115611980D01*
X148051080Y-115066077D01*
X148051079Y-115066076D01*
X147975143Y-115010904D01*
X147799837Y-114921582D01*
X147658386Y-114875621D01*
X147600711Y-114836183D01*
X147573513Y-114771824D01*
X147585428Y-114702978D01*
X147632672Y-114651502D01*
X147658388Y-114639759D01*
X147761633Y-114606213D01*
X147761639Y-114606211D01*
X147776867Y-114598452D01*
X147922994Y-114523996D01*
X148069501Y-114417553D01*
X148197553Y-114289501D01*
X148303996Y-114142994D01*
X148386211Y-113981639D01*
X148442171Y-113809409D01*
X148456422Y-113719425D01*
X148467527Y-113649321D01*
X148497456Y-113586186D01*
X148556768Y-113549255D01*
X148626630Y-113550253D01*
G37*
%TD.AperFunction*%
%TA.AperFunction,Conductor*%
G36*
X129614075Y-102732993D02*
G01*
X129679901Y-102847007D01*
X129772993Y-102940099D01*
X129887007Y-103005925D01*
X129894822Y-103008019D01*
X129348918Y-103553922D01*
X129424856Y-103609095D01*
X129600164Y-103698418D01*
X129787294Y-103759221D01*
X129981618Y-103790000D01*
X130178382Y-103790000D01*
X130372705Y-103759221D01*
X130559835Y-103698418D01*
X130735143Y-103609095D01*
X130811079Y-103553922D01*
X130811080Y-103553921D01*
X130265178Y-103008019D01*
X130272993Y-103005925D01*
X130387007Y-102940099D01*
X130480099Y-102847007D01*
X130545925Y-102732993D01*
X130548019Y-102725177D01*
X131093921Y-103271080D01*
X131093922Y-103271079D01*
X131149095Y-103195143D01*
X131238418Y-103019835D01*
X131284378Y-102878387D01*
X131323815Y-102820712D01*
X131388174Y-102793513D01*
X131457020Y-102805428D01*
X131508496Y-102852672D01*
X131520240Y-102878387D01*
X131553787Y-102981636D01*
X131553788Y-102981639D01*
X131636006Y-103142997D01*
X131742441Y-103289494D01*
X131742445Y-103289499D01*
X131870500Y-103417554D01*
X131870505Y-103417558D01*
X131998287Y-103510396D01*
X132017006Y-103523996D01*
X132122484Y-103577740D01*
X132178360Y-103606211D01*
X132178363Y-103606212D01*
X132227260Y-103622099D01*
X132350591Y-103662171D01*
X132433429Y-103675291D01*
X132529449Y-103690500D01*
X132529454Y-103690500D01*
X132710550Y-103690500D01*
X132803390Y-103675794D01*
X132889409Y-103662171D01*
X132889412Y-103662169D01*
X132891091Y-103661904D01*
X132960385Y-103670858D01*
X132998171Y-103696696D01*
X136322186Y-107020710D01*
X136447715Y-107093184D01*
X136587725Y-107130700D01*
X136587726Y-107130700D01*
X136732674Y-107130700D01*
X152981313Y-107130700D01*
X153048352Y-107150385D01*
X153068994Y-107167019D01*
X156778322Y-110876347D01*
X156811807Y-110937670D01*
X156806823Y-111007362D01*
X156764951Y-111063295D01*
X156759532Y-111067130D01*
X156645858Y-111143085D01*
X156645854Y-111143088D01*
X156563562Y-111225381D01*
X156502239Y-111258866D01*
X156475881Y-111261700D01*
X151656782Y-111261700D01*
X151548563Y-111290697D01*
X151548560Y-111290698D01*
X151451540Y-111346713D01*
X151451534Y-111346717D01*
X150372595Y-112425655D01*
X150311272Y-112459140D01*
X150246596Y-112455905D01*
X150222337Y-112448022D01*
X150129409Y-112417828D01*
X149950551Y-112389500D01*
X149950546Y-112389500D01*
X149769454Y-112389500D01*
X149769449Y-112389500D01*
X149590589Y-112417829D01*
X149418363Y-112473787D01*
X149418360Y-112473788D01*
X149257002Y-112556006D01*
X149110505Y-112662441D01*
X149110500Y-112662445D01*
X148982445Y-112790500D01*
X148982441Y-112790505D01*
X148876006Y-112937002D01*
X148793788Y-113098360D01*
X148793787Y-113098363D01*
X148737829Y-113270589D01*
X148712473Y-113430678D01*
X148682544Y-113493813D01*
X148623232Y-113530744D01*
X148553369Y-113529746D01*
X148495137Y-113491136D01*
X148467527Y-113430678D01*
X148453740Y-113343639D01*
X148442171Y-113270591D01*
X148386211Y-113098361D01*
X148386211Y-113098360D01*
X148350055Y-113027402D01*
X148303996Y-112937006D01*
X148266100Y-112884846D01*
X148197558Y-112790505D01*
X148197554Y-112790500D01*
X148069499Y-112662445D01*
X148069494Y-112662441D01*
X147922997Y-112556006D01*
X147922996Y-112556005D01*
X147922994Y-112556004D01*
X147864257Y-112526076D01*
X147761639Y-112473788D01*
X147761636Y-112473787D01*
X147589410Y-112417829D01*
X147410551Y-112389500D01*
X147410546Y-112389500D01*
X147229454Y-112389500D01*
X147229449Y-112389500D01*
X147050589Y-112417829D01*
X146878363Y-112473787D01*
X146878360Y-112473788D01*
X146717002Y-112556006D01*
X146570505Y-112662441D01*
X146570500Y-112662445D01*
X146442445Y-112790500D01*
X146442441Y-112790505D01*
X146336006Y-112937002D01*
X146253788Y-113098360D01*
X146253787Y-113098363D01*
X146197829Y-113270589D01*
X146172473Y-113430678D01*
X146142544Y-113493813D01*
X146083232Y-113530744D01*
X146013369Y-113529746D01*
X145955137Y-113491136D01*
X145927527Y-113430678D01*
X145913740Y-113343639D01*
X145902171Y-113270591D01*
X145846211Y-113098361D01*
X145846211Y-113098360D01*
X145810055Y-113027402D01*
X145763996Y-112937006D01*
X145726100Y-112884846D01*
X145657558Y-112790505D01*
X145657554Y-112790500D01*
X145529499Y-112662445D01*
X145529494Y-112662441D01*
X145382997Y-112556006D01*
X145382996Y-112556005D01*
X145382994Y-112556004D01*
X145324257Y-112526076D01*
X145221639Y-112473788D01*
X145221636Y-112473787D01*
X145049410Y-112417829D01*
X144870551Y-112389500D01*
X144870546Y-112389500D01*
X144689454Y-112389500D01*
X144689449Y-112389500D01*
X144510589Y-112417829D01*
X144338363Y-112473787D01*
X144338360Y-112473788D01*
X144177002Y-112556006D01*
X144030505Y-112662441D01*
X144030500Y-112662445D01*
X143902445Y-112790500D01*
X143902441Y-112790505D01*
X143796006Y-112937002D01*
X143713788Y-113098360D01*
X143713787Y-113098363D01*
X143680240Y-113201612D01*
X143640802Y-113259288D01*
X143576444Y-113286486D01*
X143507597Y-113274571D01*
X143456122Y-113227327D01*
X143444378Y-113201612D01*
X143398418Y-113060164D01*
X143309095Y-112884856D01*
X143253922Y-112808919D01*
X143253922Y-112808918D01*
X142708018Y-113354821D01*
X142705925Y-113347007D01*
X142640099Y-113232993D01*
X142547007Y-113139901D01*
X142432993Y-113074075D01*
X142425177Y-113071980D01*
X142971080Y-112526077D01*
X142971079Y-112526076D01*
X142895143Y-112470904D01*
X142719835Y-112381581D01*
X142532705Y-112320778D01*
X142338382Y-112290000D01*
X142141618Y-112290000D01*
X141947294Y-112320778D01*
X141760164Y-112381581D01*
X141584855Y-112470905D01*
X141584846Y-112470911D01*
X141508919Y-112526075D01*
X141508918Y-112526076D01*
X142054823Y-113071980D01*
X142047007Y-113074075D01*
X141932993Y-113139901D01*
X141839901Y-113232993D01*
X141774075Y-113347007D01*
X141771980Y-113354822D01*
X141226076Y-112808918D01*
X141226075Y-112808919D01*
X141170911Y-112884846D01*
X141170905Y-112884855D01*
X141081581Y-113060162D01*
X141035621Y-113201613D01*
X140996183Y-113259288D01*
X140931824Y-113286486D01*
X140862978Y-113274571D01*
X140811502Y-113227327D01*
X140799759Y-113201611D01*
X140766213Y-113098366D01*
X140766211Y-113098360D01*
X140730055Y-113027402D01*
X140683996Y-112937006D01*
X140646100Y-112884846D01*
X140577558Y-112790505D01*
X140577554Y-112790500D01*
X140449499Y-112662445D01*
X140449494Y-112662441D01*
X140302997Y-112556006D01*
X140302996Y-112556005D01*
X140302994Y-112556004D01*
X140244257Y-112526076D01*
X140141639Y-112473788D01*
X140141636Y-112473787D01*
X139969410Y-112417829D01*
X139790551Y-112389500D01*
X139790546Y-112389500D01*
X139609454Y-112389500D01*
X139609449Y-112389500D01*
X139430589Y-112417829D01*
X139258363Y-112473787D01*
X139258360Y-112473788D01*
X139097002Y-112556006D01*
X138950505Y-112662441D01*
X138950500Y-112662445D01*
X138822445Y-112790500D01*
X138822441Y-112790505D01*
X138716006Y-112937002D01*
X138633788Y-113098360D01*
X138633787Y-113098363D01*
X138600240Y-113201612D01*
X138560802Y-113259288D01*
X138496444Y-113286486D01*
X138427597Y-113274571D01*
X138376122Y-113227327D01*
X138364378Y-113201612D01*
X138318418Y-113060164D01*
X138229095Y-112884856D01*
X138173922Y-112808919D01*
X138173922Y-112808918D01*
X137628018Y-113354821D01*
X137625925Y-113347007D01*
X137560099Y-113232993D01*
X137467007Y-113139901D01*
X137352993Y-113074075D01*
X137345177Y-113071980D01*
X137891080Y-112526077D01*
X137891079Y-112526076D01*
X137815143Y-112470904D01*
X137639835Y-112381581D01*
X137452705Y-112320778D01*
X137258382Y-112290000D01*
X137061618Y-112290000D01*
X136867294Y-112320778D01*
X136680164Y-112381581D01*
X136504855Y-112470905D01*
X136504846Y-112470911D01*
X136428919Y-112526075D01*
X136428918Y-112526076D01*
X136974823Y-113071980D01*
X136967007Y-113074075D01*
X136852993Y-113139901D01*
X136759901Y-113232993D01*
X136694075Y-113347007D01*
X136691980Y-113354823D01*
X136221470Y-112884313D01*
X136217410Y-112876878D01*
X136201763Y-112858631D01*
X136195185Y-112847237D01*
X127349629Y-104001681D01*
X127316144Y-103940358D01*
X127321128Y-103870666D01*
X127363000Y-103814733D01*
X127428464Y-103790316D01*
X127437310Y-103790000D01*
X127638382Y-103790000D01*
X127832705Y-103759221D01*
X128019835Y-103698418D01*
X128195143Y-103609095D01*
X128271079Y-103553922D01*
X128271080Y-103553922D01*
X127725177Y-103008019D01*
X127732993Y-103005925D01*
X127847007Y-102940099D01*
X127940099Y-102847007D01*
X128005925Y-102732993D01*
X128008019Y-102725177D01*
X128553921Y-103271080D01*
X128553922Y-103271079D01*
X128609097Y-103195141D01*
X128609097Y-103195140D01*
X128699515Y-103017685D01*
X128747489Y-102966888D01*
X128815310Y-102950093D01*
X128881445Y-102972630D01*
X128920485Y-103017685D01*
X129010902Y-103195141D01*
X129066076Y-103271079D01*
X129066077Y-103271080D01*
X129611980Y-102725176D01*
X129614075Y-102732993D01*
G37*
%TD.AperFunction*%
%TA.AperFunction,Conductor*%
G36*
X156542920Y-112132385D02*
G01*
X156563562Y-112149019D01*
X156645854Y-112231311D01*
X156645858Y-112231314D01*
X156762954Y-112309556D01*
X156807759Y-112363168D01*
X156816466Y-112432493D01*
X156786311Y-112495521D01*
X156766948Y-112512976D01*
X156748919Y-112526074D01*
X156748918Y-112526076D01*
X157294822Y-113071980D01*
X157287007Y-113074075D01*
X157172993Y-113139901D01*
X157079901Y-113232993D01*
X157014075Y-113347007D01*
X157011980Y-113354822D01*
X156466076Y-112808918D01*
X156466075Y-112808919D01*
X156410911Y-112884846D01*
X156410905Y-112884855D01*
X156321581Y-113060162D01*
X156275621Y-113201613D01*
X156236183Y-113259288D01*
X156171824Y-113286486D01*
X156102978Y-113274571D01*
X156051502Y-113227327D01*
X156039759Y-113201611D01*
X156006213Y-113098366D01*
X156006211Y-113098360D01*
X155970055Y-113027402D01*
X155923996Y-112937006D01*
X155886100Y-112884846D01*
X155817558Y-112790505D01*
X155817554Y-112790500D01*
X155689499Y-112662445D01*
X155689494Y-112662441D01*
X155542997Y-112556006D01*
X155542996Y-112556005D01*
X155542994Y-112556004D01*
X155484257Y-112526076D01*
X155381639Y-112473788D01*
X155381636Y-112473787D01*
X155209410Y-112417829D01*
X155030551Y-112389500D01*
X155030546Y-112389500D01*
X154849454Y-112389500D01*
X154849449Y-112389500D01*
X154670589Y-112417829D01*
X154498363Y-112473787D01*
X154498360Y-112473788D01*
X154337002Y-112556006D01*
X154190505Y-112662441D01*
X154190500Y-112662445D01*
X154062445Y-112790500D01*
X154062441Y-112790505D01*
X153956006Y-112937002D01*
X153873788Y-113098360D01*
X153873787Y-113098363D01*
X153817829Y-113270589D01*
X153792473Y-113430678D01*
X153762544Y-113493813D01*
X153703232Y-113530744D01*
X153633369Y-113529746D01*
X153575137Y-113491136D01*
X153547527Y-113430678D01*
X153533740Y-113343639D01*
X153522171Y-113270591D01*
X153466211Y-113098361D01*
X153466211Y-113098360D01*
X153430055Y-113027402D01*
X153383996Y-112937006D01*
X153346100Y-112884846D01*
X153277558Y-112790505D01*
X153277554Y-112790500D01*
X153149499Y-112662445D01*
X153149494Y-112662441D01*
X153002997Y-112556006D01*
X153002996Y-112556005D01*
X153002994Y-112556004D01*
X152944257Y-112526076D01*
X152841639Y-112473788D01*
X152841636Y-112473787D01*
X152669410Y-112417829D01*
X152490551Y-112389500D01*
X152490546Y-112389500D01*
X152309454Y-112389500D01*
X152309449Y-112389500D01*
X152130589Y-112417829D01*
X151958363Y-112473787D01*
X151958360Y-112473788D01*
X151797005Y-112556004D01*
X151787142Y-112563170D01*
X151721335Y-112586647D01*
X151653281Y-112570819D01*
X151604588Y-112520712D01*
X151590715Y-112452233D01*
X151616067Y-112387125D01*
X151626573Y-112375174D01*
X151852729Y-112149019D01*
X151914052Y-112115534D01*
X151940410Y-112112700D01*
X156475881Y-112112700D01*
X156542920Y-112132385D01*
G37*
%TD.AperFunction*%
%TA.AperFunction,Conductor*%
G36*
X104214075Y-100192993D02*
G01*
X104279901Y-100307007D01*
X104372993Y-100400099D01*
X104487007Y-100465925D01*
X104494822Y-100468019D01*
X103948918Y-101013922D01*
X104024856Y-101069095D01*
X104200164Y-101158418D01*
X104341612Y-101204378D01*
X104399288Y-101243815D01*
X104426486Y-101308174D01*
X104414571Y-101377020D01*
X104367327Y-101428496D01*
X104341612Y-101440240D01*
X104238363Y-101473787D01*
X104238360Y-101473788D01*
X104077002Y-101556006D01*
X103930505Y-101662441D01*
X103930500Y-101662445D01*
X103802445Y-101790500D01*
X103802441Y-101790505D01*
X103696006Y-101937002D01*
X103613788Y-102098360D01*
X103613787Y-102098363D01*
X103557829Y-102270589D01*
X103532473Y-102430678D01*
X103502544Y-102493813D01*
X103443232Y-102530744D01*
X103373369Y-102529746D01*
X103315137Y-102491136D01*
X103287527Y-102430678D01*
X103273740Y-102343639D01*
X103262171Y-102270591D01*
X103219708Y-102139901D01*
X103206212Y-102098363D01*
X103206211Y-102098360D01*
X103176474Y-102040000D01*
X103123996Y-101937006D01*
X103030936Y-101808919D01*
X103017558Y-101790505D01*
X103017554Y-101790500D01*
X102889499Y-101662445D01*
X102889494Y-101662441D01*
X102742997Y-101556006D01*
X102742996Y-101556005D01*
X102742994Y-101556004D01*
X102684257Y-101526076D01*
X102581639Y-101473788D01*
X102581636Y-101473787D01*
X102478387Y-101440240D01*
X102420711Y-101400803D01*
X102393513Y-101336444D01*
X102405428Y-101267598D01*
X102452672Y-101216122D01*
X102478387Y-101204378D01*
X102619835Y-101158418D01*
X102795143Y-101069095D01*
X102871079Y-101013922D01*
X102871080Y-101013921D01*
X102325178Y-100468019D01*
X102332993Y-100465925D01*
X102447007Y-100400099D01*
X102540099Y-100307007D01*
X102605925Y-100192993D01*
X102608019Y-100185177D01*
X103153921Y-100731080D01*
X103153922Y-100731079D01*
X103209097Y-100655141D01*
X103209097Y-100655140D01*
X103299515Y-100477685D01*
X103347489Y-100426888D01*
X103415310Y-100410093D01*
X103481445Y-100432630D01*
X103520485Y-100477685D01*
X103610902Y-100655141D01*
X103666076Y-100731079D01*
X103666077Y-100731080D01*
X104211980Y-100185176D01*
X104214075Y-100192993D01*
G37*
%TD.AperFunction*%
%TA.AperFunction,Conductor*%
G36*
X106754075Y-100192993D02*
G01*
X106819901Y-100307007D01*
X106912993Y-100400099D01*
X107027007Y-100465925D01*
X107034822Y-100468019D01*
X106488918Y-101013922D01*
X106564856Y-101069095D01*
X106740164Y-101158418D01*
X106881612Y-101204378D01*
X106939288Y-101243815D01*
X106966486Y-101308174D01*
X106954571Y-101377020D01*
X106907327Y-101428496D01*
X106881612Y-101440240D01*
X106778363Y-101473787D01*
X106778360Y-101473788D01*
X106617002Y-101556006D01*
X106470505Y-101662441D01*
X106470500Y-101662445D01*
X106342445Y-101790500D01*
X106342441Y-101790505D01*
X106236006Y-101937002D01*
X106153788Y-102098360D01*
X106153787Y-102098363D01*
X106097829Y-102270589D01*
X106072473Y-102430678D01*
X106042544Y-102493813D01*
X105983232Y-102530744D01*
X105913369Y-102529746D01*
X105855137Y-102491136D01*
X105827527Y-102430678D01*
X105813740Y-102343639D01*
X105802171Y-102270591D01*
X105759708Y-102139901D01*
X105746212Y-102098363D01*
X105746211Y-102098360D01*
X105716474Y-102040000D01*
X105663996Y-101937006D01*
X105570936Y-101808919D01*
X105557558Y-101790505D01*
X105557554Y-101790500D01*
X105429499Y-101662445D01*
X105429494Y-101662441D01*
X105282997Y-101556006D01*
X105282996Y-101556005D01*
X105282994Y-101556004D01*
X105224257Y-101526076D01*
X105121639Y-101473788D01*
X105121636Y-101473787D01*
X105018387Y-101440240D01*
X104960711Y-101400803D01*
X104933513Y-101336444D01*
X104945428Y-101267598D01*
X104992672Y-101216122D01*
X105018387Y-101204378D01*
X105159835Y-101158418D01*
X105335143Y-101069095D01*
X105411079Y-101013922D01*
X105411080Y-101013921D01*
X104865178Y-100468019D01*
X104872993Y-100465925D01*
X104987007Y-100400099D01*
X105080099Y-100307007D01*
X105145925Y-100192993D01*
X105148019Y-100185177D01*
X105693921Y-100731080D01*
X105693922Y-100731079D01*
X105749097Y-100655141D01*
X105749097Y-100655140D01*
X105839515Y-100477685D01*
X105887489Y-100426888D01*
X105955310Y-100410093D01*
X106021445Y-100432630D01*
X106060485Y-100477685D01*
X106150902Y-100655141D01*
X106206076Y-100731079D01*
X106206077Y-100731080D01*
X106751980Y-100185176D01*
X106754075Y-100192993D01*
G37*
%TD.AperFunction*%
%TA.AperFunction,Conductor*%
G36*
X109294075Y-100192993D02*
G01*
X109359901Y-100307007D01*
X109452993Y-100400099D01*
X109567007Y-100465925D01*
X109574822Y-100468019D01*
X109028918Y-101013922D01*
X109104856Y-101069095D01*
X109280164Y-101158418D01*
X109421612Y-101204378D01*
X109479288Y-101243815D01*
X109506486Y-101308174D01*
X109494571Y-101377020D01*
X109447327Y-101428496D01*
X109421612Y-101440240D01*
X109318363Y-101473787D01*
X109318360Y-101473788D01*
X109157002Y-101556006D01*
X109010505Y-101662441D01*
X109010500Y-101662445D01*
X108882445Y-101790500D01*
X108882441Y-101790505D01*
X108776006Y-101937002D01*
X108693788Y-102098360D01*
X108693787Y-102098363D01*
X108637829Y-102270589D01*
X108612473Y-102430678D01*
X108582544Y-102493813D01*
X108523232Y-102530744D01*
X108453369Y-102529746D01*
X108395137Y-102491136D01*
X108367527Y-102430678D01*
X108353740Y-102343639D01*
X108342171Y-102270591D01*
X108299708Y-102139901D01*
X108286212Y-102098363D01*
X108286211Y-102098360D01*
X108256474Y-102040000D01*
X108203996Y-101937006D01*
X108110936Y-101808919D01*
X108097558Y-101790505D01*
X108097554Y-101790500D01*
X107969499Y-101662445D01*
X107969494Y-101662441D01*
X107822997Y-101556006D01*
X107822996Y-101556005D01*
X107822994Y-101556004D01*
X107764257Y-101526076D01*
X107661639Y-101473788D01*
X107661636Y-101473787D01*
X107558387Y-101440240D01*
X107500711Y-101400803D01*
X107473513Y-101336444D01*
X107485428Y-101267598D01*
X107532672Y-101216122D01*
X107558387Y-101204378D01*
X107699835Y-101158418D01*
X107875143Y-101069095D01*
X107951079Y-101013922D01*
X107951080Y-101013921D01*
X107405178Y-100468019D01*
X107412993Y-100465925D01*
X107527007Y-100400099D01*
X107620099Y-100307007D01*
X107685925Y-100192993D01*
X107688019Y-100185177D01*
X108233921Y-100731080D01*
X108233922Y-100731079D01*
X108289097Y-100655141D01*
X108289097Y-100655140D01*
X108379515Y-100477685D01*
X108427489Y-100426888D01*
X108495310Y-100410093D01*
X108561445Y-100432630D01*
X108600485Y-100477685D01*
X108690902Y-100655141D01*
X108746076Y-100731079D01*
X108746077Y-100731080D01*
X109291980Y-100185176D01*
X109294075Y-100192993D01*
G37*
%TD.AperFunction*%
%TA.AperFunction,Conductor*%
G36*
X111834075Y-100192993D02*
G01*
X111899901Y-100307007D01*
X111992993Y-100400099D01*
X112107007Y-100465925D01*
X112114822Y-100468019D01*
X111568918Y-101013922D01*
X111644856Y-101069095D01*
X111820164Y-101158418D01*
X111961612Y-101204378D01*
X112019288Y-101243815D01*
X112046486Y-101308174D01*
X112034571Y-101377020D01*
X111987327Y-101428496D01*
X111961612Y-101440240D01*
X111858363Y-101473787D01*
X111858360Y-101473788D01*
X111697002Y-101556006D01*
X111550505Y-101662441D01*
X111550500Y-101662445D01*
X111422445Y-101790500D01*
X111422441Y-101790505D01*
X111316006Y-101937002D01*
X111233788Y-102098360D01*
X111233787Y-102098363D01*
X111177829Y-102270589D01*
X111152473Y-102430678D01*
X111122544Y-102493813D01*
X111063232Y-102530744D01*
X110993369Y-102529746D01*
X110935137Y-102491136D01*
X110907527Y-102430678D01*
X110893740Y-102343639D01*
X110882171Y-102270591D01*
X110839708Y-102139901D01*
X110826212Y-102098363D01*
X110826211Y-102098360D01*
X110796474Y-102040000D01*
X110743996Y-101937006D01*
X110650936Y-101808919D01*
X110637558Y-101790505D01*
X110637554Y-101790500D01*
X110509499Y-101662445D01*
X110509494Y-101662441D01*
X110362997Y-101556006D01*
X110362996Y-101556005D01*
X110362994Y-101556004D01*
X110304257Y-101526076D01*
X110201639Y-101473788D01*
X110201636Y-101473787D01*
X110098387Y-101440240D01*
X110040711Y-101400803D01*
X110013513Y-101336444D01*
X110025428Y-101267598D01*
X110072672Y-101216122D01*
X110098387Y-101204378D01*
X110239835Y-101158418D01*
X110415143Y-101069095D01*
X110491079Y-101013922D01*
X110491080Y-101013921D01*
X109945178Y-100468019D01*
X109952993Y-100465925D01*
X110067007Y-100400099D01*
X110160099Y-100307007D01*
X110225925Y-100192993D01*
X110228019Y-100185177D01*
X110773921Y-100731080D01*
X110773922Y-100731079D01*
X110829097Y-100655141D01*
X110829097Y-100655140D01*
X110919515Y-100477685D01*
X110967489Y-100426888D01*
X111035310Y-100410093D01*
X111101445Y-100432630D01*
X111140485Y-100477685D01*
X111230902Y-100655141D01*
X111286076Y-100731079D01*
X111286077Y-100731080D01*
X111831980Y-100185176D01*
X111834075Y-100192993D01*
G37*
%TD.AperFunction*%
%TA.AperFunction,Conductor*%
G36*
X114374075Y-100192993D02*
G01*
X114439901Y-100307007D01*
X114532993Y-100400099D01*
X114647007Y-100465925D01*
X114654822Y-100468019D01*
X114108918Y-101013922D01*
X114184856Y-101069095D01*
X114360164Y-101158418D01*
X114501612Y-101204378D01*
X114559288Y-101243815D01*
X114586486Y-101308174D01*
X114574571Y-101377020D01*
X114527327Y-101428496D01*
X114501612Y-101440240D01*
X114398363Y-101473787D01*
X114398360Y-101473788D01*
X114237002Y-101556006D01*
X114090505Y-101662441D01*
X114090500Y-101662445D01*
X113962445Y-101790500D01*
X113962441Y-101790505D01*
X113856006Y-101937002D01*
X113773788Y-102098360D01*
X113773787Y-102098363D01*
X113717829Y-102270589D01*
X113692473Y-102430678D01*
X113662544Y-102493813D01*
X113603232Y-102530744D01*
X113533369Y-102529746D01*
X113475137Y-102491136D01*
X113447527Y-102430678D01*
X113433740Y-102343639D01*
X113422171Y-102270591D01*
X113379708Y-102139901D01*
X113366212Y-102098363D01*
X113366211Y-102098360D01*
X113336474Y-102040000D01*
X113283996Y-101937006D01*
X113190936Y-101808919D01*
X113177558Y-101790505D01*
X113177554Y-101790500D01*
X113049499Y-101662445D01*
X113049494Y-101662441D01*
X112902997Y-101556006D01*
X112902996Y-101556005D01*
X112902994Y-101556004D01*
X112844257Y-101526076D01*
X112741639Y-101473788D01*
X112741636Y-101473787D01*
X112638387Y-101440240D01*
X112580711Y-101400803D01*
X112553513Y-101336444D01*
X112565428Y-101267598D01*
X112612672Y-101216122D01*
X112638387Y-101204378D01*
X112779835Y-101158418D01*
X112955143Y-101069095D01*
X113031079Y-101013922D01*
X113031080Y-101013921D01*
X112485178Y-100468019D01*
X112492993Y-100465925D01*
X112607007Y-100400099D01*
X112700099Y-100307007D01*
X112765925Y-100192993D01*
X112768019Y-100185177D01*
X113313921Y-100731080D01*
X113313922Y-100731079D01*
X113369097Y-100655141D01*
X113369097Y-100655140D01*
X113459515Y-100477685D01*
X113507489Y-100426888D01*
X113575310Y-100410093D01*
X113641445Y-100432630D01*
X113680485Y-100477685D01*
X113770902Y-100655141D01*
X113826076Y-100731079D01*
X113826077Y-100731080D01*
X114371980Y-100185176D01*
X114374075Y-100192993D01*
G37*
%TD.AperFunction*%
%TA.AperFunction,Conductor*%
G36*
X116914075Y-100192993D02*
G01*
X116979901Y-100307007D01*
X117072993Y-100400099D01*
X117187007Y-100465925D01*
X117194822Y-100468019D01*
X116648918Y-101013922D01*
X116724856Y-101069095D01*
X116900164Y-101158418D01*
X117041612Y-101204378D01*
X117099288Y-101243815D01*
X117126486Y-101308174D01*
X117114571Y-101377020D01*
X117067327Y-101428496D01*
X117041612Y-101440240D01*
X116938363Y-101473787D01*
X116938360Y-101473788D01*
X116777002Y-101556006D01*
X116630505Y-101662441D01*
X116630500Y-101662445D01*
X116502445Y-101790500D01*
X116502441Y-101790505D01*
X116396006Y-101937002D01*
X116313788Y-102098360D01*
X116313787Y-102098363D01*
X116257829Y-102270589D01*
X116232473Y-102430678D01*
X116202544Y-102493813D01*
X116143232Y-102530744D01*
X116073369Y-102529746D01*
X116015137Y-102491136D01*
X115987527Y-102430678D01*
X115973740Y-102343639D01*
X115962171Y-102270591D01*
X115919708Y-102139901D01*
X115906212Y-102098363D01*
X115906211Y-102098360D01*
X115876474Y-102040000D01*
X115823996Y-101937006D01*
X115730936Y-101808919D01*
X115717558Y-101790505D01*
X115717554Y-101790500D01*
X115589499Y-101662445D01*
X115589494Y-101662441D01*
X115442997Y-101556006D01*
X115442996Y-101556005D01*
X115442994Y-101556004D01*
X115384257Y-101526076D01*
X115281639Y-101473788D01*
X115281636Y-101473787D01*
X115178387Y-101440240D01*
X115120711Y-101400803D01*
X115093513Y-101336444D01*
X115105428Y-101267598D01*
X115152672Y-101216122D01*
X115178387Y-101204378D01*
X115319835Y-101158418D01*
X115495143Y-101069095D01*
X115571079Y-101013922D01*
X115571080Y-101013921D01*
X115025178Y-100468019D01*
X115032993Y-100465925D01*
X115147007Y-100400099D01*
X115240099Y-100307007D01*
X115305925Y-100192993D01*
X115308019Y-100185177D01*
X115853921Y-100731080D01*
X115853922Y-100731079D01*
X115909097Y-100655141D01*
X115909097Y-100655140D01*
X115999515Y-100477685D01*
X116047489Y-100426888D01*
X116115310Y-100410093D01*
X116181445Y-100432630D01*
X116220485Y-100477685D01*
X116310902Y-100655141D01*
X116366076Y-100731079D01*
X116366077Y-100731080D01*
X116911980Y-100185176D01*
X116914075Y-100192993D01*
G37*
%TD.AperFunction*%
%TA.AperFunction,Conductor*%
G36*
X119454075Y-100192993D02*
G01*
X119519901Y-100307007D01*
X119612993Y-100400099D01*
X119727007Y-100465925D01*
X119734822Y-100468019D01*
X119188918Y-101013922D01*
X119264856Y-101069095D01*
X119440164Y-101158418D01*
X119581612Y-101204378D01*
X119639288Y-101243815D01*
X119666486Y-101308174D01*
X119654571Y-101377020D01*
X119607327Y-101428496D01*
X119581612Y-101440240D01*
X119478363Y-101473787D01*
X119478360Y-101473788D01*
X119317002Y-101556006D01*
X119170505Y-101662441D01*
X119170500Y-101662445D01*
X119042445Y-101790500D01*
X119042441Y-101790505D01*
X118936006Y-101937002D01*
X118853788Y-102098360D01*
X118853787Y-102098363D01*
X118797829Y-102270589D01*
X118772473Y-102430678D01*
X118742544Y-102493813D01*
X118683232Y-102530744D01*
X118613369Y-102529746D01*
X118555137Y-102491136D01*
X118527527Y-102430678D01*
X118513740Y-102343639D01*
X118502171Y-102270591D01*
X118459708Y-102139901D01*
X118446212Y-102098363D01*
X118446211Y-102098360D01*
X118416474Y-102040000D01*
X118363996Y-101937006D01*
X118270936Y-101808919D01*
X118257558Y-101790505D01*
X118257554Y-101790500D01*
X118129499Y-101662445D01*
X118129494Y-101662441D01*
X117982997Y-101556006D01*
X117982996Y-101556005D01*
X117982994Y-101556004D01*
X117924257Y-101526076D01*
X117821639Y-101473788D01*
X117821636Y-101473787D01*
X117718387Y-101440240D01*
X117660711Y-101400803D01*
X117633513Y-101336444D01*
X117645428Y-101267598D01*
X117692672Y-101216122D01*
X117718387Y-101204378D01*
X117859835Y-101158418D01*
X118035143Y-101069095D01*
X118111079Y-101013922D01*
X118111080Y-101013921D01*
X117565178Y-100468019D01*
X117572993Y-100465925D01*
X117687007Y-100400099D01*
X117780099Y-100307007D01*
X117845925Y-100192993D01*
X117848019Y-100185177D01*
X118393921Y-100731080D01*
X118393922Y-100731079D01*
X118449097Y-100655141D01*
X118449097Y-100655140D01*
X118539515Y-100477685D01*
X118587489Y-100426888D01*
X118655310Y-100410093D01*
X118721445Y-100432630D01*
X118760485Y-100477685D01*
X118850902Y-100655141D01*
X118906076Y-100731079D01*
X118906077Y-100731080D01*
X119451980Y-100185176D01*
X119454075Y-100192993D01*
G37*
%TD.AperFunction*%
%TA.AperFunction,Conductor*%
G36*
X121994075Y-100192993D02*
G01*
X122059901Y-100307007D01*
X122152993Y-100400099D01*
X122267007Y-100465925D01*
X122274822Y-100468019D01*
X121728918Y-101013922D01*
X121804856Y-101069095D01*
X121980164Y-101158418D01*
X122121612Y-101204378D01*
X122179288Y-101243815D01*
X122206486Y-101308174D01*
X122194571Y-101377020D01*
X122147327Y-101428496D01*
X122121612Y-101440240D01*
X122018363Y-101473787D01*
X122018360Y-101473788D01*
X121857002Y-101556006D01*
X121710505Y-101662441D01*
X121710500Y-101662445D01*
X121582445Y-101790500D01*
X121582441Y-101790505D01*
X121476006Y-101937002D01*
X121393788Y-102098360D01*
X121393787Y-102098363D01*
X121337829Y-102270589D01*
X121312473Y-102430678D01*
X121282544Y-102493813D01*
X121223232Y-102530744D01*
X121153369Y-102529746D01*
X121095137Y-102491136D01*
X121067527Y-102430678D01*
X121053740Y-102343639D01*
X121042171Y-102270591D01*
X120999708Y-102139901D01*
X120986212Y-102098363D01*
X120986211Y-102098360D01*
X120956474Y-102040000D01*
X120903996Y-101937006D01*
X120810936Y-101808919D01*
X120797558Y-101790505D01*
X120797554Y-101790500D01*
X120669499Y-101662445D01*
X120669494Y-101662441D01*
X120522997Y-101556006D01*
X120522996Y-101556005D01*
X120522994Y-101556004D01*
X120464257Y-101526076D01*
X120361639Y-101473788D01*
X120361636Y-101473787D01*
X120258387Y-101440240D01*
X120200711Y-101400803D01*
X120173513Y-101336444D01*
X120185428Y-101267598D01*
X120232672Y-101216122D01*
X120258387Y-101204378D01*
X120399835Y-101158418D01*
X120575143Y-101069095D01*
X120651079Y-101013922D01*
X120651080Y-101013921D01*
X120105178Y-100468019D01*
X120112993Y-100465925D01*
X120227007Y-100400099D01*
X120320099Y-100307007D01*
X120385925Y-100192993D01*
X120388019Y-100185177D01*
X120933921Y-100731080D01*
X120933922Y-100731079D01*
X120989097Y-100655141D01*
X120989097Y-100655140D01*
X121079515Y-100477685D01*
X121127489Y-100426888D01*
X121195310Y-100410093D01*
X121261445Y-100432630D01*
X121300485Y-100477685D01*
X121390902Y-100655141D01*
X121446076Y-100731079D01*
X121446077Y-100731080D01*
X121991980Y-100185176D01*
X121994075Y-100192993D01*
G37*
%TD.AperFunction*%
%TA.AperFunction,Conductor*%
G36*
X124534075Y-100192993D02*
G01*
X124599901Y-100307007D01*
X124692993Y-100400099D01*
X124807007Y-100465925D01*
X124814822Y-100468019D01*
X124268918Y-101013922D01*
X124344856Y-101069095D01*
X124520164Y-101158418D01*
X124661612Y-101204378D01*
X124719288Y-101243815D01*
X124746486Y-101308174D01*
X124734571Y-101377020D01*
X124687327Y-101428496D01*
X124661612Y-101440240D01*
X124558363Y-101473787D01*
X124558360Y-101473788D01*
X124397002Y-101556006D01*
X124250505Y-101662441D01*
X124250500Y-101662445D01*
X124122445Y-101790500D01*
X124122441Y-101790505D01*
X124016006Y-101937002D01*
X123933788Y-102098360D01*
X123933787Y-102098363D01*
X123877829Y-102270589D01*
X123852473Y-102430678D01*
X123822544Y-102493813D01*
X123763232Y-102530744D01*
X123693369Y-102529746D01*
X123635137Y-102491136D01*
X123607527Y-102430678D01*
X123593740Y-102343639D01*
X123582171Y-102270591D01*
X123539708Y-102139901D01*
X123526212Y-102098363D01*
X123526211Y-102098360D01*
X123496474Y-102040000D01*
X123443996Y-101937006D01*
X123350936Y-101808919D01*
X123337558Y-101790505D01*
X123337554Y-101790500D01*
X123209499Y-101662445D01*
X123209494Y-101662441D01*
X123062997Y-101556006D01*
X123062996Y-101556005D01*
X123062994Y-101556004D01*
X123004257Y-101526076D01*
X122901639Y-101473788D01*
X122901636Y-101473787D01*
X122798387Y-101440240D01*
X122740711Y-101400803D01*
X122713513Y-101336444D01*
X122725428Y-101267598D01*
X122772672Y-101216122D01*
X122798387Y-101204378D01*
X122939835Y-101158418D01*
X123115143Y-101069095D01*
X123191079Y-101013922D01*
X123191080Y-101013921D01*
X122645178Y-100468019D01*
X122652993Y-100465925D01*
X122767007Y-100400099D01*
X122860099Y-100307007D01*
X122925925Y-100192993D01*
X122928019Y-100185177D01*
X123473921Y-100731080D01*
X123473922Y-100731079D01*
X123529097Y-100655141D01*
X123529097Y-100655140D01*
X123619515Y-100477685D01*
X123667489Y-100426888D01*
X123735310Y-100410093D01*
X123801445Y-100432630D01*
X123840485Y-100477685D01*
X123930902Y-100655141D01*
X123986076Y-100731079D01*
X123986077Y-100731080D01*
X124531980Y-100185176D01*
X124534075Y-100192993D01*
G37*
%TD.AperFunction*%
%TA.AperFunction,Conductor*%
G36*
X144854075Y-100192993D02*
G01*
X144919901Y-100307007D01*
X145012993Y-100400099D01*
X145127007Y-100465925D01*
X145134822Y-100468019D01*
X144588918Y-101013922D01*
X144664856Y-101069095D01*
X144840164Y-101158418D01*
X144981612Y-101204378D01*
X145039288Y-101243815D01*
X145066486Y-101308174D01*
X145054571Y-101377020D01*
X145007327Y-101428496D01*
X144981612Y-101440240D01*
X144878363Y-101473787D01*
X144878360Y-101473788D01*
X144717002Y-101556006D01*
X144570505Y-101662441D01*
X144570500Y-101662445D01*
X144442445Y-101790500D01*
X144442441Y-101790505D01*
X144336006Y-101937002D01*
X144253788Y-102098360D01*
X144253787Y-102098363D01*
X144197829Y-102270589D01*
X144172473Y-102430678D01*
X144142544Y-102493813D01*
X144083232Y-102530744D01*
X144013369Y-102529746D01*
X143955137Y-102491136D01*
X143927527Y-102430678D01*
X143913740Y-102343639D01*
X143902171Y-102270591D01*
X143859708Y-102139901D01*
X143846212Y-102098363D01*
X143846211Y-102098360D01*
X143816474Y-102040000D01*
X143763996Y-101937006D01*
X143670936Y-101808919D01*
X143657558Y-101790505D01*
X143657554Y-101790500D01*
X143529499Y-101662445D01*
X143529494Y-101662441D01*
X143382997Y-101556006D01*
X143382996Y-101556005D01*
X143382994Y-101556004D01*
X143324257Y-101526076D01*
X143221639Y-101473788D01*
X143221636Y-101473787D01*
X143118387Y-101440240D01*
X143060711Y-101400803D01*
X143033513Y-101336444D01*
X143045428Y-101267598D01*
X143092672Y-101216122D01*
X143118387Y-101204378D01*
X143259835Y-101158418D01*
X143435143Y-101069095D01*
X143511079Y-101013922D01*
X143511080Y-101013921D01*
X142965178Y-100468019D01*
X142972993Y-100465925D01*
X143087007Y-100400099D01*
X143180099Y-100307007D01*
X143245925Y-100192993D01*
X143248019Y-100185177D01*
X143793921Y-100731080D01*
X143793922Y-100731079D01*
X143849097Y-100655141D01*
X143849097Y-100655140D01*
X143939515Y-100477685D01*
X143987489Y-100426888D01*
X144055310Y-100410093D01*
X144121445Y-100432630D01*
X144160485Y-100477685D01*
X144250902Y-100655141D01*
X144306076Y-100731079D01*
X144306077Y-100731080D01*
X144851980Y-100185176D01*
X144854075Y-100192993D01*
G37*
%TD.AperFunction*%
%TA.AperFunction,Conductor*%
G36*
X147394075Y-100192993D02*
G01*
X147459901Y-100307007D01*
X147552993Y-100400099D01*
X147667007Y-100465925D01*
X147674822Y-100468019D01*
X147128918Y-101013922D01*
X147204856Y-101069095D01*
X147380164Y-101158418D01*
X147521612Y-101204378D01*
X147579288Y-101243815D01*
X147606486Y-101308174D01*
X147594571Y-101377020D01*
X147547327Y-101428496D01*
X147521612Y-101440240D01*
X147418363Y-101473787D01*
X147418360Y-101473788D01*
X147257002Y-101556006D01*
X147110505Y-101662441D01*
X147110500Y-101662445D01*
X146982445Y-101790500D01*
X146982441Y-101790505D01*
X146876006Y-101937002D01*
X146793788Y-102098360D01*
X146793787Y-102098363D01*
X146737829Y-102270589D01*
X146712473Y-102430678D01*
X146682544Y-102493813D01*
X146623232Y-102530744D01*
X146553369Y-102529746D01*
X146495137Y-102491136D01*
X146467527Y-102430678D01*
X146453740Y-102343639D01*
X146442171Y-102270591D01*
X146399708Y-102139901D01*
X146386212Y-102098363D01*
X146386211Y-102098360D01*
X146356474Y-102040000D01*
X146303996Y-101937006D01*
X146210936Y-101808919D01*
X146197558Y-101790505D01*
X146197554Y-101790500D01*
X146069499Y-101662445D01*
X146069494Y-101662441D01*
X145922997Y-101556006D01*
X145922996Y-101556005D01*
X145922994Y-101556004D01*
X145864257Y-101526076D01*
X145761639Y-101473788D01*
X145761636Y-101473787D01*
X145658387Y-101440240D01*
X145600711Y-101400803D01*
X145573513Y-101336444D01*
X145585428Y-101267598D01*
X145632672Y-101216122D01*
X145658387Y-101204378D01*
X145799835Y-101158418D01*
X145975143Y-101069095D01*
X146051079Y-101013922D01*
X146051080Y-101013921D01*
X145505178Y-100468019D01*
X145512993Y-100465925D01*
X145627007Y-100400099D01*
X145720099Y-100307007D01*
X145785925Y-100192993D01*
X145788019Y-100185177D01*
X146333921Y-100731080D01*
X146333922Y-100731079D01*
X146389097Y-100655141D01*
X146389097Y-100655140D01*
X146479515Y-100477685D01*
X146527489Y-100426888D01*
X146595310Y-100410093D01*
X146661445Y-100432630D01*
X146700485Y-100477685D01*
X146790902Y-100655141D01*
X146846076Y-100731079D01*
X146846077Y-100731080D01*
X147391980Y-100185176D01*
X147394075Y-100192993D01*
G37*
%TD.AperFunction*%
%TA.AperFunction,Conductor*%
G36*
X149934075Y-100192993D02*
G01*
X149999901Y-100307007D01*
X150092993Y-100400099D01*
X150207007Y-100465925D01*
X150214822Y-100468019D01*
X149668918Y-101013922D01*
X149744856Y-101069095D01*
X149920164Y-101158418D01*
X150061612Y-101204378D01*
X150119288Y-101243815D01*
X150146486Y-101308174D01*
X150134571Y-101377020D01*
X150087327Y-101428496D01*
X150061612Y-101440240D01*
X149958363Y-101473787D01*
X149958360Y-101473788D01*
X149797002Y-101556006D01*
X149650505Y-101662441D01*
X149650500Y-101662445D01*
X149522445Y-101790500D01*
X149522441Y-101790505D01*
X149416006Y-101937002D01*
X149333788Y-102098360D01*
X149333787Y-102098363D01*
X149277829Y-102270589D01*
X149252473Y-102430678D01*
X149222544Y-102493813D01*
X149163232Y-102530744D01*
X149093369Y-102529746D01*
X149035137Y-102491136D01*
X149007527Y-102430678D01*
X148993740Y-102343639D01*
X148982171Y-102270591D01*
X148939708Y-102139901D01*
X148926212Y-102098363D01*
X148926211Y-102098360D01*
X148896474Y-102040000D01*
X148843996Y-101937006D01*
X148750936Y-101808919D01*
X148737558Y-101790505D01*
X148737554Y-101790500D01*
X148609499Y-101662445D01*
X148609494Y-101662441D01*
X148462997Y-101556006D01*
X148462996Y-101556005D01*
X148462994Y-101556004D01*
X148404257Y-101526076D01*
X148301639Y-101473788D01*
X148301636Y-101473787D01*
X148198387Y-101440240D01*
X148140711Y-101400803D01*
X148113513Y-101336444D01*
X148125428Y-101267598D01*
X148172672Y-101216122D01*
X148198387Y-101204378D01*
X148339835Y-101158418D01*
X148515143Y-101069095D01*
X148591079Y-101013922D01*
X148591080Y-101013921D01*
X148045178Y-100468019D01*
X148052993Y-100465925D01*
X148167007Y-100400099D01*
X148260099Y-100307007D01*
X148325925Y-100192993D01*
X148328019Y-100185177D01*
X148873921Y-100731080D01*
X148873922Y-100731079D01*
X148929097Y-100655141D01*
X148929097Y-100655140D01*
X149019515Y-100477685D01*
X149067489Y-100426888D01*
X149135310Y-100410093D01*
X149201445Y-100432630D01*
X149240485Y-100477685D01*
X149330902Y-100655141D01*
X149386076Y-100731079D01*
X149386077Y-100731080D01*
X149931980Y-100185176D01*
X149934075Y-100192993D01*
G37*
%TD.AperFunction*%
%TA.AperFunction,Conductor*%
G36*
X152474075Y-100192993D02*
G01*
X152539901Y-100307007D01*
X152632993Y-100400099D01*
X152747007Y-100465925D01*
X152754822Y-100468019D01*
X152208918Y-101013922D01*
X152284856Y-101069095D01*
X152460164Y-101158418D01*
X152601612Y-101204378D01*
X152659288Y-101243815D01*
X152686486Y-101308174D01*
X152674571Y-101377020D01*
X152627327Y-101428496D01*
X152601612Y-101440240D01*
X152498363Y-101473787D01*
X152498360Y-101473788D01*
X152337002Y-101556006D01*
X152190505Y-101662441D01*
X152190500Y-101662445D01*
X152062445Y-101790500D01*
X152062441Y-101790505D01*
X151956006Y-101937002D01*
X151873788Y-102098360D01*
X151873787Y-102098363D01*
X151817829Y-102270589D01*
X151792473Y-102430678D01*
X151762544Y-102493813D01*
X151703232Y-102530744D01*
X151633369Y-102529746D01*
X151575137Y-102491136D01*
X151547527Y-102430678D01*
X151533740Y-102343639D01*
X151522171Y-102270591D01*
X151479708Y-102139901D01*
X151466212Y-102098363D01*
X151466211Y-102098360D01*
X151436474Y-102040000D01*
X151383996Y-101937006D01*
X151290936Y-101808919D01*
X151277558Y-101790505D01*
X151277554Y-101790500D01*
X151149499Y-101662445D01*
X151149494Y-101662441D01*
X151002997Y-101556006D01*
X151002996Y-101556005D01*
X151002994Y-101556004D01*
X150944257Y-101526076D01*
X150841639Y-101473788D01*
X150841636Y-101473787D01*
X150738387Y-101440240D01*
X150680711Y-101400803D01*
X150653513Y-101336444D01*
X150665428Y-101267598D01*
X150712672Y-101216122D01*
X150738387Y-101204378D01*
X150879835Y-101158418D01*
X151055143Y-101069095D01*
X151131079Y-101013922D01*
X151131080Y-101013921D01*
X150585178Y-100468019D01*
X150592993Y-100465925D01*
X150707007Y-100400099D01*
X150800099Y-100307007D01*
X150865925Y-100192993D01*
X150868019Y-100185177D01*
X151413921Y-100731080D01*
X151413922Y-100731079D01*
X151469097Y-100655141D01*
X151469097Y-100655140D01*
X151559515Y-100477685D01*
X151607489Y-100426888D01*
X151675310Y-100410093D01*
X151741445Y-100432630D01*
X151780485Y-100477685D01*
X151870902Y-100655141D01*
X151926076Y-100731079D01*
X151926077Y-100731080D01*
X152471980Y-100185176D01*
X152474075Y-100192993D01*
G37*
%TD.AperFunction*%
%TA.AperFunction,Conductor*%
G36*
X155014075Y-100192993D02*
G01*
X155079901Y-100307007D01*
X155172993Y-100400099D01*
X155287007Y-100465925D01*
X155294822Y-100468019D01*
X154748918Y-101013922D01*
X154824856Y-101069095D01*
X155000164Y-101158418D01*
X155141612Y-101204378D01*
X155199288Y-101243815D01*
X155226486Y-101308174D01*
X155214571Y-101377020D01*
X155167327Y-101428496D01*
X155141612Y-101440240D01*
X155038363Y-101473787D01*
X155038360Y-101473788D01*
X154877002Y-101556006D01*
X154730505Y-101662441D01*
X154730500Y-101662445D01*
X154602445Y-101790500D01*
X154602441Y-101790505D01*
X154496006Y-101937002D01*
X154413788Y-102098360D01*
X154413787Y-102098363D01*
X154357829Y-102270589D01*
X154332473Y-102430678D01*
X154302544Y-102493813D01*
X154243232Y-102530744D01*
X154173369Y-102529746D01*
X154115137Y-102491136D01*
X154087527Y-102430678D01*
X154073740Y-102343639D01*
X154062171Y-102270591D01*
X154019708Y-102139901D01*
X154006212Y-102098363D01*
X154006211Y-102098360D01*
X153976474Y-102040000D01*
X153923996Y-101937006D01*
X153830936Y-101808919D01*
X153817558Y-101790505D01*
X153817554Y-101790500D01*
X153689499Y-101662445D01*
X153689494Y-101662441D01*
X153542997Y-101556006D01*
X153542996Y-101556005D01*
X153542994Y-101556004D01*
X153484257Y-101526076D01*
X153381639Y-101473788D01*
X153381636Y-101473787D01*
X153278387Y-101440240D01*
X153220711Y-101400803D01*
X153193513Y-101336444D01*
X153205428Y-101267598D01*
X153252672Y-101216122D01*
X153278387Y-101204378D01*
X153419835Y-101158418D01*
X153595143Y-101069095D01*
X153671079Y-101013922D01*
X153671080Y-101013921D01*
X153125178Y-100468019D01*
X153132993Y-100465925D01*
X153247007Y-100400099D01*
X153340099Y-100307007D01*
X153405925Y-100192993D01*
X153408019Y-100185177D01*
X153953921Y-100731080D01*
X153953922Y-100731079D01*
X154009097Y-100655141D01*
X154009097Y-100655140D01*
X154099515Y-100477685D01*
X154147489Y-100426888D01*
X154215310Y-100410093D01*
X154281445Y-100432630D01*
X154320485Y-100477685D01*
X154410902Y-100655141D01*
X154466076Y-100731079D01*
X154466077Y-100731080D01*
X155011980Y-100185176D01*
X155014075Y-100192993D01*
G37*
%TD.AperFunction*%
%TA.AperFunction,Conductor*%
G36*
X157554075Y-100192993D02*
G01*
X157619901Y-100307007D01*
X157712993Y-100400099D01*
X157827007Y-100465925D01*
X157834822Y-100468019D01*
X157288918Y-101013922D01*
X157364856Y-101069095D01*
X157540164Y-101158418D01*
X157681612Y-101204378D01*
X157739288Y-101243815D01*
X157766486Y-101308174D01*
X157754571Y-101377020D01*
X157707327Y-101428496D01*
X157681612Y-101440240D01*
X157578363Y-101473787D01*
X157578360Y-101473788D01*
X157417002Y-101556006D01*
X157270505Y-101662441D01*
X157270500Y-101662445D01*
X157142445Y-101790500D01*
X157142441Y-101790505D01*
X157036006Y-101937002D01*
X156953788Y-102098360D01*
X156953787Y-102098363D01*
X156897829Y-102270589D01*
X156872473Y-102430678D01*
X156842544Y-102493813D01*
X156783232Y-102530744D01*
X156713369Y-102529746D01*
X156655137Y-102491136D01*
X156627527Y-102430678D01*
X156613740Y-102343639D01*
X156602171Y-102270591D01*
X156559708Y-102139901D01*
X156546212Y-102098363D01*
X156546211Y-102098360D01*
X156516474Y-102040000D01*
X156463996Y-101937006D01*
X156370936Y-101808919D01*
X156357558Y-101790505D01*
X156357554Y-101790500D01*
X156229499Y-101662445D01*
X156229494Y-101662441D01*
X156082997Y-101556006D01*
X156082996Y-101556005D01*
X156082994Y-101556004D01*
X156024257Y-101526076D01*
X155921639Y-101473788D01*
X155921636Y-101473787D01*
X155818387Y-101440240D01*
X155760711Y-101400803D01*
X155733513Y-101336444D01*
X155745428Y-101267598D01*
X155792672Y-101216122D01*
X155818387Y-101204378D01*
X155959835Y-101158418D01*
X156135143Y-101069095D01*
X156211079Y-101013922D01*
X156211080Y-101013921D01*
X155665178Y-100468019D01*
X155672993Y-100465925D01*
X155787007Y-100400099D01*
X155880099Y-100307007D01*
X155945925Y-100192993D01*
X155948019Y-100185177D01*
X156493921Y-100731080D01*
X156493922Y-100731079D01*
X156549097Y-100655141D01*
X156549097Y-100655140D01*
X156639515Y-100477685D01*
X156687489Y-100426888D01*
X156755310Y-100410093D01*
X156821445Y-100432630D01*
X156860485Y-100477685D01*
X156950902Y-100655141D01*
X157006076Y-100731079D01*
X157006077Y-100731080D01*
X157551980Y-100185176D01*
X157554075Y-100192993D01*
G37*
%TD.AperFunction*%
%TA.AperFunction,Conductor*%
G36*
X160094075Y-100192993D02*
G01*
X160159901Y-100307007D01*
X160252993Y-100400099D01*
X160367007Y-100465925D01*
X160374822Y-100468019D01*
X159828918Y-101013922D01*
X159904856Y-101069095D01*
X160080164Y-101158418D01*
X160221612Y-101204378D01*
X160279288Y-101243815D01*
X160306486Y-101308174D01*
X160294571Y-101377020D01*
X160247327Y-101428496D01*
X160221612Y-101440240D01*
X160118363Y-101473787D01*
X160118360Y-101473788D01*
X159957002Y-101556006D01*
X159810505Y-101662441D01*
X159810500Y-101662445D01*
X159682445Y-101790500D01*
X159682441Y-101790505D01*
X159576006Y-101937002D01*
X159493788Y-102098360D01*
X159493787Y-102098363D01*
X159437829Y-102270589D01*
X159412473Y-102430678D01*
X159382544Y-102493813D01*
X159323232Y-102530744D01*
X159253369Y-102529746D01*
X159195137Y-102491136D01*
X159167527Y-102430678D01*
X159153740Y-102343639D01*
X159142171Y-102270591D01*
X159099708Y-102139901D01*
X159086212Y-102098363D01*
X159086211Y-102098360D01*
X159056474Y-102040000D01*
X159003996Y-101937006D01*
X158910936Y-101808919D01*
X158897558Y-101790505D01*
X158897554Y-101790500D01*
X158769499Y-101662445D01*
X158769494Y-101662441D01*
X158622997Y-101556006D01*
X158622996Y-101556005D01*
X158622994Y-101556004D01*
X158564257Y-101526076D01*
X158461639Y-101473788D01*
X158461636Y-101473787D01*
X158358387Y-101440240D01*
X158300711Y-101400803D01*
X158273513Y-101336444D01*
X158285428Y-101267598D01*
X158332672Y-101216122D01*
X158358387Y-101204378D01*
X158499835Y-101158418D01*
X158675143Y-101069095D01*
X158751079Y-101013922D01*
X158751080Y-101013921D01*
X158205178Y-100468019D01*
X158212993Y-100465925D01*
X158327007Y-100400099D01*
X158420099Y-100307007D01*
X158485925Y-100192993D01*
X158488019Y-100185177D01*
X159033921Y-100731080D01*
X159033922Y-100731079D01*
X159089097Y-100655141D01*
X159089097Y-100655140D01*
X159179515Y-100477685D01*
X159227489Y-100426888D01*
X159295310Y-100410093D01*
X159361445Y-100432630D01*
X159400485Y-100477685D01*
X159490902Y-100655141D01*
X159546076Y-100731079D01*
X159546077Y-100731080D01*
X160091980Y-100185176D01*
X160094075Y-100192993D01*
G37*
%TD.AperFunction*%
%TA.AperFunction,Conductor*%
G36*
X161573921Y-100731080D02*
G01*
X161573922Y-100731079D01*
X161630774Y-100652833D01*
X161686104Y-100610168D01*
X161755718Y-100604190D01*
X161817512Y-100636797D01*
X161851869Y-100697636D01*
X161852817Y-100702209D01*
X161898716Y-100860193D01*
X161898717Y-100860196D01*
X161982314Y-101001552D01*
X161982321Y-101001561D01*
X162098438Y-101117678D01*
X162098447Y-101117685D01*
X162239803Y-101201282D01*
X162239806Y-101201283D01*
X162397504Y-101247099D01*
X162397510Y-101247100D01*
X162434350Y-101249999D01*
X162434366Y-101250000D01*
X162581074Y-101250000D01*
X162648113Y-101269685D01*
X162693868Y-101322489D01*
X162703812Y-101391647D01*
X162674787Y-101455203D01*
X162637369Y-101484485D01*
X162497002Y-101556006D01*
X162350505Y-101662441D01*
X162350500Y-101662445D01*
X162222445Y-101790500D01*
X162222441Y-101790505D01*
X162116006Y-101937002D01*
X162033788Y-102098360D01*
X162033787Y-102098363D01*
X161977829Y-102270589D01*
X161952473Y-102430678D01*
X161922544Y-102493813D01*
X161863232Y-102530744D01*
X161793369Y-102529746D01*
X161735137Y-102491136D01*
X161707527Y-102430678D01*
X161693740Y-102343639D01*
X161682171Y-102270591D01*
X161639708Y-102139901D01*
X161626212Y-102098363D01*
X161626211Y-102098360D01*
X161596474Y-102040000D01*
X161543996Y-101937006D01*
X161450936Y-101808919D01*
X161437558Y-101790505D01*
X161437554Y-101790500D01*
X161309499Y-101662445D01*
X161309494Y-101662441D01*
X161162997Y-101556006D01*
X161162996Y-101556005D01*
X161162994Y-101556004D01*
X161104257Y-101526076D01*
X161001639Y-101473788D01*
X161001636Y-101473787D01*
X160898387Y-101440240D01*
X160840711Y-101400803D01*
X160813513Y-101336444D01*
X160825428Y-101267598D01*
X160872672Y-101216122D01*
X160898387Y-101204378D01*
X161039835Y-101158418D01*
X161215143Y-101069095D01*
X161291079Y-101013922D01*
X161291080Y-101013921D01*
X160745178Y-100468019D01*
X160752993Y-100465925D01*
X160867007Y-100400099D01*
X160960099Y-100307007D01*
X161025925Y-100192993D01*
X161028019Y-100185177D01*
X161573921Y-100731080D01*
G37*
%TD.AperFunction*%
%TA.AperFunction,Conductor*%
G36*
X127074075Y-100192993D02*
G01*
X127139901Y-100307007D01*
X127232993Y-100400099D01*
X127347007Y-100465925D01*
X127354822Y-100468019D01*
X126808918Y-101013922D01*
X126884856Y-101069095D01*
X127062315Y-101159515D01*
X127113111Y-101207489D01*
X127129906Y-101275310D01*
X127107369Y-101341445D01*
X127062315Y-101380485D01*
X126884855Y-101470905D01*
X126884846Y-101470911D01*
X126808919Y-101526075D01*
X126808918Y-101526076D01*
X127354823Y-102071980D01*
X127347007Y-102074075D01*
X127232993Y-102139901D01*
X127139901Y-102232993D01*
X127074075Y-102347007D01*
X127071980Y-102354822D01*
X126526076Y-101808918D01*
X126526075Y-101808919D01*
X126470911Y-101884846D01*
X126470905Y-101884855D01*
X126381581Y-102060162D01*
X126335621Y-102201613D01*
X126296183Y-102259288D01*
X126231824Y-102286486D01*
X126162978Y-102274571D01*
X126111502Y-102227327D01*
X126099759Y-102201611D01*
X126066213Y-102098366D01*
X126066211Y-102098360D01*
X126036474Y-102040000D01*
X125983996Y-101937006D01*
X125890936Y-101808919D01*
X125877558Y-101790505D01*
X125877554Y-101790500D01*
X125749499Y-101662445D01*
X125749494Y-101662441D01*
X125602997Y-101556006D01*
X125602996Y-101556005D01*
X125602994Y-101556004D01*
X125544257Y-101526076D01*
X125441639Y-101473788D01*
X125441636Y-101473787D01*
X125338387Y-101440240D01*
X125280711Y-101400803D01*
X125253513Y-101336444D01*
X125265428Y-101267598D01*
X125312672Y-101216122D01*
X125338387Y-101204378D01*
X125479835Y-101158418D01*
X125655143Y-101069095D01*
X125731079Y-101013922D01*
X125731080Y-101013921D01*
X125185178Y-100468019D01*
X125192993Y-100465925D01*
X125307007Y-100400099D01*
X125400099Y-100307007D01*
X125465925Y-100192993D01*
X125468019Y-100185177D01*
X126013921Y-100731080D01*
X126013922Y-100731079D01*
X126069097Y-100655141D01*
X126069097Y-100655140D01*
X126159515Y-100477685D01*
X126207489Y-100426888D01*
X126275310Y-100410093D01*
X126341445Y-100432630D01*
X126380485Y-100477685D01*
X126470902Y-100655141D01*
X126526076Y-100731079D01*
X126526077Y-100731080D01*
X127071980Y-100185176D01*
X127074075Y-100192993D01*
G37*
%TD.AperFunction*%
%TA.AperFunction,Conductor*%
G36*
X129614075Y-100192993D02*
G01*
X129679901Y-100307007D01*
X129772993Y-100400099D01*
X129887007Y-100465925D01*
X129894822Y-100468019D01*
X129348918Y-101013922D01*
X129424856Y-101069095D01*
X129602315Y-101159515D01*
X129653111Y-101207489D01*
X129669906Y-101275310D01*
X129647369Y-101341445D01*
X129602315Y-101380485D01*
X129424855Y-101470905D01*
X129424846Y-101470911D01*
X129348919Y-101526075D01*
X129348918Y-101526076D01*
X129894823Y-102071980D01*
X129887007Y-102074075D01*
X129772993Y-102139901D01*
X129679901Y-102232993D01*
X129614075Y-102347007D01*
X129611980Y-102354822D01*
X129066076Y-101808918D01*
X129066075Y-101808919D01*
X129010911Y-101884846D01*
X129010905Y-101884855D01*
X128920485Y-102062315D01*
X128872510Y-102113111D01*
X128804689Y-102129906D01*
X128738554Y-102107369D01*
X128699515Y-102062315D01*
X128609095Y-101884856D01*
X128553922Y-101808919D01*
X128553922Y-101808918D01*
X128008018Y-102354821D01*
X128005925Y-102347007D01*
X127940099Y-102232993D01*
X127847007Y-102139901D01*
X127732993Y-102074075D01*
X127725177Y-102071980D01*
X128271080Y-101526077D01*
X128271079Y-101526076D01*
X128195141Y-101470902D01*
X128017685Y-101380485D01*
X127966888Y-101332511D01*
X127950093Y-101264690D01*
X127972630Y-101198555D01*
X128017685Y-101159515D01*
X128195140Y-101069097D01*
X128195141Y-101069097D01*
X128271079Y-101013922D01*
X128271080Y-101013921D01*
X127725178Y-100468019D01*
X127732993Y-100465925D01*
X127847007Y-100400099D01*
X127940099Y-100307007D01*
X128005925Y-100192993D01*
X128008019Y-100185177D01*
X128553921Y-100731080D01*
X128553922Y-100731079D01*
X128609097Y-100655141D01*
X128609097Y-100655140D01*
X128699515Y-100477685D01*
X128747489Y-100426888D01*
X128815310Y-100410093D01*
X128881445Y-100432630D01*
X128920485Y-100477685D01*
X129010902Y-100655141D01*
X129066076Y-100731079D01*
X129066077Y-100731080D01*
X129611980Y-100185176D01*
X129614075Y-100192993D01*
G37*
%TD.AperFunction*%
%TA.AperFunction,Conductor*%
G36*
X134694075Y-100192993D02*
G01*
X134759901Y-100307007D01*
X134852993Y-100400099D01*
X134967007Y-100465925D01*
X134974822Y-100468019D01*
X134428918Y-101013922D01*
X134504856Y-101069095D01*
X134682315Y-101159515D01*
X134733111Y-101207489D01*
X134749906Y-101275310D01*
X134727369Y-101341445D01*
X134682315Y-101380485D01*
X134504855Y-101470905D01*
X134504846Y-101470911D01*
X134428919Y-101526075D01*
X134428918Y-101526076D01*
X134974823Y-102071980D01*
X134967007Y-102074075D01*
X134852993Y-102139901D01*
X134759901Y-102232993D01*
X134694075Y-102347007D01*
X134691980Y-102354822D01*
X134146076Y-101808918D01*
X134146075Y-101808919D01*
X134090911Y-101884846D01*
X134090905Y-101884855D01*
X134001581Y-102060162D01*
X133955621Y-102201613D01*
X133916183Y-102259288D01*
X133851824Y-102286486D01*
X133782978Y-102274571D01*
X133731502Y-102227327D01*
X133719759Y-102201611D01*
X133686213Y-102098366D01*
X133686211Y-102098360D01*
X133656474Y-102040000D01*
X133603996Y-101937006D01*
X133510936Y-101808919D01*
X133497558Y-101790505D01*
X133497554Y-101790500D01*
X133369499Y-101662445D01*
X133369494Y-101662441D01*
X133222997Y-101556006D01*
X133222996Y-101556005D01*
X133222994Y-101556004D01*
X133164257Y-101526076D01*
X133061639Y-101473788D01*
X133061636Y-101473787D01*
X132889410Y-101417829D01*
X132729321Y-101392473D01*
X132666186Y-101362544D01*
X132629255Y-101303232D01*
X132630253Y-101233370D01*
X132668863Y-101175137D01*
X132729321Y-101147527D01*
X132799425Y-101136422D01*
X132889409Y-101122171D01*
X133061639Y-101066211D01*
X133222994Y-100983996D01*
X133369501Y-100877553D01*
X133497553Y-100749501D01*
X133603996Y-100602994D01*
X133686211Y-100441639D01*
X133719759Y-100338388D01*
X133759196Y-100280712D01*
X133823554Y-100253513D01*
X133892401Y-100265427D01*
X133943877Y-100312671D01*
X133955621Y-100338386D01*
X134001582Y-100479837D01*
X134090904Y-100655143D01*
X134146076Y-100731079D01*
X134146077Y-100731080D01*
X134691980Y-100185176D01*
X134694075Y-100192993D01*
G37*
%TD.AperFunction*%
%TA.AperFunction,Conductor*%
G36*
X137234075Y-100192993D02*
G01*
X137299901Y-100307007D01*
X137392993Y-100400099D01*
X137507007Y-100465925D01*
X137514822Y-100468019D01*
X136968918Y-101013922D01*
X137044856Y-101069095D01*
X137222315Y-101159515D01*
X137273111Y-101207489D01*
X137289906Y-101275310D01*
X137267369Y-101341445D01*
X137222315Y-101380485D01*
X137044855Y-101470905D01*
X137044846Y-101470911D01*
X136968919Y-101526075D01*
X136968918Y-101526076D01*
X137514823Y-102071980D01*
X137507007Y-102074075D01*
X137392993Y-102139901D01*
X137299901Y-102232993D01*
X137234075Y-102347007D01*
X137231980Y-102354822D01*
X136686076Y-101808918D01*
X136686075Y-101808919D01*
X136630911Y-101884846D01*
X136630905Y-101884855D01*
X136540485Y-102062315D01*
X136492510Y-102113111D01*
X136424689Y-102129906D01*
X136358554Y-102107369D01*
X136319515Y-102062315D01*
X136229095Y-101884856D01*
X136173922Y-101808919D01*
X136173922Y-101808918D01*
X135628018Y-102354821D01*
X135625925Y-102347007D01*
X135560099Y-102232993D01*
X135467007Y-102139901D01*
X135352993Y-102074075D01*
X135345177Y-102071980D01*
X135891080Y-101526077D01*
X135891079Y-101526076D01*
X135815141Y-101470902D01*
X135637685Y-101380485D01*
X135586888Y-101332511D01*
X135570093Y-101264690D01*
X135592630Y-101198555D01*
X135637685Y-101159515D01*
X135815140Y-101069097D01*
X135815141Y-101069097D01*
X135891079Y-101013922D01*
X135891080Y-101013921D01*
X135345178Y-100468019D01*
X135352993Y-100465925D01*
X135467007Y-100400099D01*
X135560099Y-100307007D01*
X135625925Y-100192993D01*
X135628019Y-100185177D01*
X136173921Y-100731080D01*
X136173922Y-100731079D01*
X136229097Y-100655141D01*
X136229097Y-100655140D01*
X136319515Y-100477685D01*
X136367489Y-100426888D01*
X136435310Y-100410093D01*
X136501445Y-100432630D01*
X136540485Y-100477685D01*
X136630902Y-100655141D01*
X136686076Y-100731079D01*
X136686077Y-100731080D01*
X137231980Y-100185176D01*
X137234075Y-100192993D01*
G37*
%TD.AperFunction*%
%TA.AperFunction,Conductor*%
G36*
X139774075Y-100192993D02*
G01*
X139839901Y-100307007D01*
X139932993Y-100400099D01*
X140047007Y-100465925D01*
X140054822Y-100468019D01*
X139508918Y-101013922D01*
X139584856Y-101069095D01*
X139762315Y-101159515D01*
X139813111Y-101207489D01*
X139829906Y-101275310D01*
X139807369Y-101341445D01*
X139762315Y-101380485D01*
X139584855Y-101470905D01*
X139584846Y-101470911D01*
X139508919Y-101526075D01*
X139508918Y-101526076D01*
X140054823Y-102071980D01*
X140047007Y-102074075D01*
X139932993Y-102139901D01*
X139839901Y-102232993D01*
X139774075Y-102347007D01*
X139771980Y-102354822D01*
X139226076Y-101808918D01*
X139226075Y-101808919D01*
X139170911Y-101884846D01*
X139170905Y-101884855D01*
X139080485Y-102062315D01*
X139032510Y-102113111D01*
X138964689Y-102129906D01*
X138898554Y-102107369D01*
X138859515Y-102062315D01*
X138769095Y-101884856D01*
X138713922Y-101808919D01*
X138713922Y-101808918D01*
X138168018Y-102354821D01*
X138165925Y-102347007D01*
X138100099Y-102232993D01*
X138007007Y-102139901D01*
X137892993Y-102074075D01*
X137885177Y-102071980D01*
X138431080Y-101526077D01*
X138431079Y-101526076D01*
X138355141Y-101470902D01*
X138177685Y-101380485D01*
X138126888Y-101332511D01*
X138110093Y-101264690D01*
X138132630Y-101198555D01*
X138177685Y-101159515D01*
X138355140Y-101069097D01*
X138355141Y-101069097D01*
X138431079Y-101013922D01*
X138431080Y-101013921D01*
X137885178Y-100468019D01*
X137892993Y-100465925D01*
X138007007Y-100400099D01*
X138100099Y-100307007D01*
X138165925Y-100192993D01*
X138168019Y-100185177D01*
X138713921Y-100731080D01*
X138713922Y-100731079D01*
X138769097Y-100655141D01*
X138769097Y-100655140D01*
X138859515Y-100477685D01*
X138907489Y-100426888D01*
X138975310Y-100410093D01*
X139041445Y-100432630D01*
X139080485Y-100477685D01*
X139170902Y-100655141D01*
X139226076Y-100731079D01*
X139226077Y-100731080D01*
X139771980Y-100185176D01*
X139774075Y-100192993D01*
G37*
%TD.AperFunction*%
%TA.AperFunction,Conductor*%
G36*
X131093921Y-100731080D02*
G01*
X131093922Y-100731079D01*
X131149095Y-100655143D01*
X131238418Y-100479835D01*
X131284378Y-100338387D01*
X131323815Y-100280712D01*
X131388174Y-100253513D01*
X131457020Y-100265428D01*
X131508496Y-100312672D01*
X131520240Y-100338387D01*
X131553787Y-100441636D01*
X131553788Y-100441639D01*
X131636006Y-100602997D01*
X131742441Y-100749494D01*
X131742445Y-100749499D01*
X131870500Y-100877554D01*
X131870505Y-100877558D01*
X131998287Y-100970396D01*
X132017006Y-100983996D01*
X132122484Y-101037740D01*
X132178360Y-101066211D01*
X132178363Y-101066212D01*
X132264476Y-101094191D01*
X132350591Y-101122171D01*
X132423639Y-101133740D01*
X132510678Y-101147527D01*
X132573813Y-101177456D01*
X132610744Y-101236768D01*
X132609746Y-101306631D01*
X132571136Y-101364863D01*
X132510678Y-101392473D01*
X132350589Y-101417829D01*
X132178363Y-101473787D01*
X132178360Y-101473788D01*
X132017002Y-101556006D01*
X131870505Y-101662441D01*
X131870500Y-101662445D01*
X131742445Y-101790500D01*
X131742441Y-101790505D01*
X131636006Y-101937002D01*
X131553788Y-102098360D01*
X131553787Y-102098363D01*
X131520240Y-102201612D01*
X131480802Y-102259288D01*
X131416444Y-102286486D01*
X131347597Y-102274571D01*
X131296122Y-102227327D01*
X131284378Y-102201612D01*
X131238418Y-102060164D01*
X131149095Y-101884856D01*
X131093922Y-101808919D01*
X131093922Y-101808918D01*
X130548018Y-102354821D01*
X130545925Y-102347007D01*
X130480099Y-102232993D01*
X130387007Y-102139901D01*
X130272993Y-102074075D01*
X130265177Y-102071980D01*
X130811080Y-101526077D01*
X130811079Y-101526076D01*
X130735141Y-101470902D01*
X130557685Y-101380485D01*
X130506888Y-101332511D01*
X130490093Y-101264690D01*
X130512630Y-101198555D01*
X130557685Y-101159515D01*
X130735140Y-101069097D01*
X130735141Y-101069097D01*
X130811079Y-101013922D01*
X130811080Y-101013921D01*
X130265178Y-100468019D01*
X130272993Y-100465925D01*
X130387007Y-100400099D01*
X130480099Y-100307007D01*
X130545925Y-100192993D01*
X130548019Y-100185177D01*
X131093921Y-100731080D01*
G37*
%TD.AperFunction*%
%TA.AperFunction,Conductor*%
G36*
X142314075Y-100192993D02*
G01*
X142379901Y-100307007D01*
X142472993Y-100400099D01*
X142587007Y-100465925D01*
X142594822Y-100468019D01*
X142048918Y-101013922D01*
X142124856Y-101069095D01*
X142300164Y-101158418D01*
X142441612Y-101204378D01*
X142499288Y-101243815D01*
X142526486Y-101308174D01*
X142514571Y-101377020D01*
X142467327Y-101428496D01*
X142441612Y-101440240D01*
X142338363Y-101473787D01*
X142338360Y-101473788D01*
X142177002Y-101556006D01*
X142030505Y-101662441D01*
X142030500Y-101662445D01*
X141902445Y-101790500D01*
X141902441Y-101790505D01*
X141796006Y-101937002D01*
X141713788Y-102098360D01*
X141713787Y-102098363D01*
X141680240Y-102201612D01*
X141640802Y-102259288D01*
X141576444Y-102286486D01*
X141507597Y-102274571D01*
X141456122Y-102227327D01*
X141444378Y-102201612D01*
X141398418Y-102060164D01*
X141309095Y-101884856D01*
X141253922Y-101808919D01*
X141253922Y-101808918D01*
X140708018Y-102354821D01*
X140705925Y-102347007D01*
X140640099Y-102232993D01*
X140547007Y-102139901D01*
X140432993Y-102074075D01*
X140425177Y-102071980D01*
X140971080Y-101526077D01*
X140971079Y-101526076D01*
X140895141Y-101470902D01*
X140717685Y-101380485D01*
X140666888Y-101332511D01*
X140650093Y-101264690D01*
X140672630Y-101198555D01*
X140717685Y-101159515D01*
X140895140Y-101069097D01*
X140895141Y-101069097D01*
X140971079Y-101013922D01*
X140971080Y-101013921D01*
X140425178Y-100468019D01*
X140432993Y-100465925D01*
X140547007Y-100400099D01*
X140640099Y-100307007D01*
X140705925Y-100192993D01*
X140708019Y-100185177D01*
X141253921Y-100731080D01*
X141253922Y-100731079D01*
X141309097Y-100655141D01*
X141309097Y-100655140D01*
X141399515Y-100477685D01*
X141447489Y-100426888D01*
X141515310Y-100410093D01*
X141581445Y-100432630D01*
X141620485Y-100477685D01*
X141710902Y-100655141D01*
X141766076Y-100731079D01*
X141766077Y-100731080D01*
X142311980Y-100185176D01*
X142314075Y-100192993D01*
G37*
%TD.AperFunction*%
%TA.AperFunction,Conductor*%
G36*
X173682539Y-93560185D02*
G01*
X173728294Y-93612989D01*
X173739500Y-93664500D01*
X173739500Y-118375500D01*
X173719815Y-118442539D01*
X173667011Y-118488294D01*
X173615500Y-118499500D01*
X129373930Y-118499500D01*
X129306891Y-118479815D01*
X129261136Y-118427011D01*
X129249930Y-118375598D01*
X129247049Y-114715137D01*
X129245493Y-112738076D01*
X129245364Y-112573434D01*
X129244519Y-111499801D01*
X129244519Y-111499790D01*
X129244519Y-111499107D01*
X129244519Y-111434108D01*
X129244472Y-111433933D01*
X129244472Y-111433759D01*
X129244467Y-111433719D01*
X129244467Y-111433714D01*
X129227377Y-111370135D01*
X129210411Y-111306814D01*
X129210320Y-111306657D01*
X129210274Y-111306484D01*
X129210260Y-111306450D01*
X129210259Y-111306447D01*
X129177335Y-111249525D01*
X129144519Y-111192686D01*
X129144382Y-111192549D01*
X129144288Y-111192386D01*
X129144275Y-111192369D01*
X129097647Y-111145814D01*
X129097647Y-111145813D01*
X129097642Y-111145809D01*
X129051333Y-111099500D01*
X129051179Y-111099411D01*
X129051054Y-111099286D01*
X129051013Y-111099254D01*
X128993810Y-111066289D01*
X128993810Y-111066288D01*
X128993727Y-111066241D01*
X128993725Y-111066240D01*
X128993344Y-111066020D01*
X128937205Y-111033608D01*
X128937012Y-111033556D01*
X128936838Y-111033456D01*
X128936811Y-111033448D01*
X128936810Y-111033448D01*
X128888087Y-111020434D01*
X128873215Y-111016461D01*
X128873124Y-111016437D01*
X128873123Y-111016437D01*
X128872927Y-111016384D01*
X128872079Y-111016157D01*
X128809911Y-110999500D01*
X128809712Y-110999500D01*
X128809517Y-110999448D01*
X128809510Y-110999448D01*
X128743624Y-110999500D01*
X95872219Y-110999500D01*
X95805180Y-110979815D01*
X95759425Y-110927011D01*
X95748219Y-110875554D01*
X95745288Y-104104686D01*
X95743469Y-99901617D01*
X100890000Y-99901617D01*
X100890000Y-100098382D01*
X100920778Y-100292705D01*
X100981581Y-100479835D01*
X101070904Y-100655143D01*
X101126076Y-100731079D01*
X101126077Y-100731080D01*
X101671980Y-100185176D01*
X101674075Y-100192993D01*
X101739901Y-100307007D01*
X101832993Y-100400099D01*
X101947007Y-100465925D01*
X101954822Y-100468019D01*
X101408918Y-101013922D01*
X101484856Y-101069095D01*
X101660164Y-101158418D01*
X101801612Y-101204378D01*
X101859288Y-101243815D01*
X101886486Y-101308174D01*
X101874571Y-101377020D01*
X101827327Y-101428496D01*
X101801612Y-101440240D01*
X101698363Y-101473787D01*
X101698360Y-101473788D01*
X101537002Y-101556006D01*
X101390505Y-101662441D01*
X101390500Y-101662445D01*
X101262445Y-101790500D01*
X101262441Y-101790505D01*
X101156006Y-101937002D01*
X101073788Y-102098360D01*
X101073787Y-102098363D01*
X101017829Y-102270589D01*
X100989500Y-102449448D01*
X100989500Y-102630551D01*
X101017829Y-102809410D01*
X101073787Y-102981636D01*
X101073788Y-102981639D01*
X101156006Y-103142997D01*
X101262441Y-103289494D01*
X101262445Y-103289499D01*
X101390500Y-103417554D01*
X101390505Y-103417558D01*
X101518287Y-103510396D01*
X101537006Y-103523996D01*
X101642484Y-103577740D01*
X101698360Y-103606211D01*
X101698363Y-103606212D01*
X101747260Y-103622099D01*
X101870591Y-103662171D01*
X101953429Y-103675291D01*
X102049449Y-103690500D01*
X102049454Y-103690500D01*
X102230551Y-103690500D01*
X102409409Y-103662171D01*
X102433498Y-103654344D01*
X102526600Y-103624093D01*
X102596439Y-103622099D01*
X102652597Y-103654344D01*
X103019374Y-104021121D01*
X103019384Y-104021132D01*
X103023714Y-104025462D01*
X103023715Y-104025463D01*
X103102937Y-104104685D01*
X103199963Y-104160703D01*
X103308181Y-104189700D01*
X103308182Y-104189700D01*
X126282790Y-104189700D01*
X126349829Y-104209385D01*
X126370471Y-104226019D01*
X134367283Y-112222831D01*
X134400768Y-112284154D01*
X134395784Y-112353846D01*
X134353912Y-112409779D01*
X134317920Y-112428443D01*
X134178363Y-112473787D01*
X134178360Y-112473788D01*
X134017002Y-112556006D01*
X133870505Y-112662441D01*
X133870500Y-112662445D01*
X133742445Y-112790500D01*
X133742441Y-112790505D01*
X133636006Y-112937002D01*
X133553788Y-113098360D01*
X133553787Y-113098363D01*
X133520240Y-113201612D01*
X133480802Y-113259288D01*
X133416444Y-113286486D01*
X133347597Y-113274571D01*
X133296122Y-113227327D01*
X133284378Y-113201612D01*
X133238418Y-113060164D01*
X133149095Y-112884856D01*
X133093922Y-112808919D01*
X133093922Y-112808918D01*
X132548018Y-113354821D01*
X132545925Y-113347007D01*
X132480099Y-113232993D01*
X132387007Y-113139901D01*
X132272993Y-113074075D01*
X132265177Y-113071980D01*
X132811080Y-112526077D01*
X132811079Y-112526076D01*
X132735143Y-112470904D01*
X132559835Y-112381581D01*
X132372705Y-112320778D01*
X132178382Y-112290000D01*
X131981618Y-112290000D01*
X131787294Y-112320778D01*
X131600164Y-112381581D01*
X131424855Y-112470905D01*
X131424846Y-112470911D01*
X131348919Y-112526075D01*
X131348918Y-112526076D01*
X131894823Y-113071980D01*
X131887007Y-113074075D01*
X131772993Y-113139901D01*
X131679901Y-113232993D01*
X131614075Y-113347007D01*
X131611980Y-113354822D01*
X131066076Y-112808918D01*
X131066075Y-112808919D01*
X131010911Y-112884846D01*
X131010905Y-112884855D01*
X130921581Y-113060164D01*
X130860778Y-113247294D01*
X130830000Y-113441617D01*
X130830000Y-113638382D01*
X130860778Y-113832705D01*
X130921581Y-114019835D01*
X131010904Y-114195143D01*
X131066076Y-114271079D01*
X131066077Y-114271080D01*
X131611980Y-113725176D01*
X131614075Y-113732993D01*
X131679901Y-113847007D01*
X131772993Y-113940099D01*
X131887007Y-114005925D01*
X131894822Y-114008019D01*
X131348918Y-114553922D01*
X131424858Y-114609097D01*
X131593484Y-114695015D01*
X131644280Y-114742989D01*
X131661076Y-114810810D01*
X131638539Y-114876945D01*
X131583824Y-114920397D01*
X131537190Y-114929500D01*
X131185143Y-114929500D01*
X131185117Y-114929502D01*
X131160012Y-114932413D01*
X131160008Y-114932415D01*
X131057235Y-114977793D01*
X130977794Y-115057234D01*
X130932415Y-115160006D01*
X130932415Y-115160008D01*
X130929500Y-115185131D01*
X130929500Y-116974856D01*
X130929502Y-116974882D01*
X130932413Y-116999987D01*
X130932415Y-116999991D01*
X130977793Y-117102764D01*
X130977794Y-117102765D01*
X131057235Y-117182206D01*
X131160009Y-117227585D01*
X131185135Y-117230500D01*
X132974864Y-117230499D01*
X132974879Y-117230497D01*
X132974882Y-117230497D01*
X132999987Y-117227586D01*
X132999988Y-117227585D01*
X132999991Y-117227585D01*
X133102765Y-117182206D01*
X133182206Y-117102765D01*
X133227585Y-116999991D01*
X133230500Y-116974865D01*
X133230499Y-116237125D01*
X133250183Y-116170089D01*
X133302987Y-116124334D01*
X133372146Y-116114390D01*
X133435702Y-116143415D01*
X133473476Y-116202193D01*
X133476972Y-116217729D01*
X133497829Y-116349410D01*
X133553787Y-116521636D01*
X133553788Y-116521639D01*
X133636006Y-116682997D01*
X133742441Y-116829494D01*
X133742445Y-116829499D01*
X133870500Y-116957554D01*
X133870505Y-116957558D01*
X133998287Y-117050396D01*
X134017006Y-117063996D01*
X134093094Y-117102765D01*
X134178360Y-117146211D01*
X134178363Y-117146212D01*
X134264476Y-117174191D01*
X134350591Y-117202171D01*
X134433429Y-117215291D01*
X134529449Y-117230500D01*
X134529454Y-117230500D01*
X134710551Y-117230500D01*
X134797259Y-117216765D01*
X134889409Y-117202171D01*
X135061639Y-117146211D01*
X135222994Y-117063996D01*
X135369501Y-116957553D01*
X135497553Y-116829501D01*
X135603996Y-116682994D01*
X135686211Y-116521639D01*
X135742171Y-116349409D01*
X135756422Y-116259425D01*
X135767527Y-116189321D01*
X135797456Y-116126186D01*
X135856768Y-116089255D01*
X135926630Y-116090253D01*
X135984863Y-116128863D01*
X136012473Y-116189321D01*
X136037829Y-116349410D01*
X136093787Y-116521636D01*
X136093788Y-116521639D01*
X136176006Y-116682997D01*
X136282441Y-116829494D01*
X136282445Y-116829499D01*
X136410500Y-116957554D01*
X136410505Y-116957558D01*
X136538287Y-117050396D01*
X136557006Y-117063996D01*
X136633094Y-117102765D01*
X136718360Y-117146211D01*
X136718363Y-117146212D01*
X136804476Y-117174191D01*
X136890591Y-117202171D01*
X136973429Y-117215291D01*
X137069449Y-117230500D01*
X137069454Y-117230500D01*
X137250551Y-117230500D01*
X137337259Y-117216765D01*
X137429409Y-117202171D01*
X137601639Y-117146211D01*
X137762994Y-117063996D01*
X137909501Y-116957553D01*
X138037553Y-116829501D01*
X138143996Y-116682994D01*
X138226211Y-116521639D01*
X138282171Y-116349409D01*
X138296422Y-116259425D01*
X138307527Y-116189321D01*
X138337456Y-116126186D01*
X138396768Y-116089255D01*
X138466630Y-116090253D01*
X138524863Y-116128863D01*
X138552473Y-116189321D01*
X138577829Y-116349410D01*
X138633787Y-116521636D01*
X138633788Y-116521639D01*
X138716006Y-116682997D01*
X138822441Y-116829494D01*
X138822445Y-116829499D01*
X138950500Y-116957554D01*
X138950505Y-116957558D01*
X139078287Y-117050396D01*
X139097006Y-117063996D01*
X139173094Y-117102765D01*
X139258360Y-117146211D01*
X139258363Y-117146212D01*
X139344476Y-117174191D01*
X139430591Y-117202171D01*
X139513429Y-117215291D01*
X139609449Y-117230500D01*
X139609454Y-117230500D01*
X139790551Y-117230500D01*
X139877259Y-117216765D01*
X139969409Y-117202171D01*
X140141639Y-117146211D01*
X140302994Y-117063996D01*
X140449501Y-116957553D01*
X140577553Y-116829501D01*
X140683996Y-116682994D01*
X140766211Y-116521639D01*
X140822171Y-116349409D01*
X140836422Y-116259425D01*
X140847527Y-116189321D01*
X140877456Y-116126186D01*
X140936768Y-116089255D01*
X141006630Y-116090253D01*
X141064863Y-116128863D01*
X141092473Y-116189321D01*
X141117829Y-116349410D01*
X141173787Y-116521636D01*
X141173788Y-116521639D01*
X141256006Y-116682997D01*
X141362441Y-116829494D01*
X141362445Y-116829499D01*
X141490500Y-116957554D01*
X141490505Y-116957558D01*
X141618287Y-117050396D01*
X141637006Y-117063996D01*
X141713094Y-117102765D01*
X141798360Y-117146211D01*
X141798363Y-117146212D01*
X141884476Y-117174191D01*
X141970591Y-117202171D01*
X142053429Y-117215291D01*
X142149449Y-117230500D01*
X142149454Y-117230500D01*
X142330551Y-117230500D01*
X142417259Y-117216765D01*
X142509409Y-117202171D01*
X142681639Y-117146211D01*
X142842994Y-117063996D01*
X142989501Y-116957553D01*
X143117553Y-116829501D01*
X143223996Y-116682994D01*
X143306211Y-116521639D01*
X143362171Y-116349409D01*
X143376422Y-116259425D01*
X143387527Y-116189321D01*
X143417456Y-116126186D01*
X143476768Y-116089255D01*
X143546630Y-116090253D01*
X143604863Y-116128863D01*
X143632473Y-116189321D01*
X143657829Y-116349410D01*
X143713787Y-116521636D01*
X143713788Y-116521639D01*
X143796006Y-116682997D01*
X143902441Y-116829494D01*
X143902445Y-116829499D01*
X144030500Y-116957554D01*
X144030505Y-116957558D01*
X144158287Y-117050396D01*
X144177006Y-117063996D01*
X144253094Y-117102765D01*
X144338360Y-117146211D01*
X144338363Y-117146212D01*
X144424476Y-117174191D01*
X144510591Y-117202171D01*
X144593429Y-117215291D01*
X144689449Y-117230500D01*
X144689454Y-117230500D01*
X144870551Y-117230500D01*
X144957259Y-117216765D01*
X145049409Y-117202171D01*
X145221639Y-117146211D01*
X145382994Y-117063996D01*
X145529501Y-116957553D01*
X145657553Y-116829501D01*
X145763996Y-116682994D01*
X145846211Y-116521639D01*
X145879759Y-116418388D01*
X145919196Y-116360712D01*
X145983554Y-116333513D01*
X146052401Y-116345427D01*
X146103877Y-116392671D01*
X146115621Y-116418386D01*
X146161582Y-116559837D01*
X146250904Y-116735143D01*
X146306076Y-116811079D01*
X146306077Y-116811080D01*
X146851980Y-116265176D01*
X146854075Y-116272993D01*
X146919901Y-116387007D01*
X147012993Y-116480099D01*
X147127007Y-116545925D01*
X147134822Y-116548019D01*
X146588918Y-117093922D01*
X146664856Y-117149095D01*
X146840164Y-117238418D01*
X147027294Y-117299221D01*
X147221618Y-117330000D01*
X147418382Y-117330000D01*
X147612705Y-117299221D01*
X147799835Y-117238418D01*
X147975143Y-117149095D01*
X148051079Y-117093922D01*
X148051080Y-117093921D01*
X147505178Y-116548019D01*
X147512993Y-116545925D01*
X147627007Y-116480099D01*
X147720099Y-116387007D01*
X147785925Y-116272993D01*
X147788019Y-116265177D01*
X148333921Y-116811080D01*
X148333922Y-116811079D01*
X148389095Y-116735143D01*
X148478418Y-116559835D01*
X148524378Y-116418387D01*
X148563815Y-116360712D01*
X148628174Y-116333513D01*
X148697020Y-116345428D01*
X148748496Y-116392672D01*
X148760240Y-116418387D01*
X148793787Y-116521636D01*
X148793788Y-116521639D01*
X148876006Y-116682997D01*
X148982441Y-116829494D01*
X148982445Y-116829499D01*
X149110500Y-116957554D01*
X149110505Y-116957558D01*
X149238287Y-117050396D01*
X149257006Y-117063996D01*
X149333094Y-117102765D01*
X149418360Y-117146211D01*
X149418363Y-117146212D01*
X149504476Y-117174191D01*
X149590591Y-117202171D01*
X149673429Y-117215291D01*
X149769449Y-117230500D01*
X149769454Y-117230500D01*
X149950551Y-117230500D01*
X150037259Y-117216765D01*
X150129409Y-117202171D01*
X150301639Y-117146211D01*
X150462994Y-117063996D01*
X150609501Y-116957553D01*
X150737553Y-116829501D01*
X150843996Y-116682994D01*
X150926211Y-116521639D01*
X150959759Y-116418388D01*
X150999196Y-116360712D01*
X151063554Y-116333513D01*
X151132401Y-116345427D01*
X151183877Y-116392671D01*
X151195621Y-116418386D01*
X151241582Y-116559837D01*
X151330904Y-116735143D01*
X151386076Y-116811079D01*
X151386077Y-116811080D01*
X151931980Y-116265176D01*
X151934075Y-116272993D01*
X151999901Y-116387007D01*
X152092993Y-116480099D01*
X152207007Y-116545925D01*
X152214822Y-116548019D01*
X151668918Y-117093922D01*
X151744856Y-117149095D01*
X151920164Y-117238418D01*
X152107294Y-117299221D01*
X152301618Y-117330000D01*
X152498382Y-117330000D01*
X152692705Y-117299221D01*
X152879835Y-117238418D01*
X153055143Y-117149095D01*
X153131079Y-117093922D01*
X153131080Y-117093921D01*
X152585178Y-116548019D01*
X152592993Y-116545925D01*
X152707007Y-116480099D01*
X152800099Y-116387007D01*
X152865925Y-116272993D01*
X152868019Y-116265177D01*
X153413922Y-116811080D01*
X153413922Y-116811079D01*
X153469095Y-116735143D01*
X153558418Y-116559835D01*
X153604378Y-116418387D01*
X153643815Y-116360712D01*
X153708174Y-116333513D01*
X153777020Y-116345428D01*
X153828496Y-116392672D01*
X153840240Y-116418387D01*
X153873787Y-116521636D01*
X153873788Y-116521639D01*
X153956006Y-116682997D01*
X154062441Y-116829494D01*
X154062445Y-116829499D01*
X154190500Y-116957554D01*
X154190505Y-116957558D01*
X154318287Y-117050396D01*
X154337006Y-117063996D01*
X154413094Y-117102765D01*
X154498360Y-117146211D01*
X154498363Y-117146212D01*
X154584476Y-117174191D01*
X154670591Y-117202171D01*
X154753429Y-117215291D01*
X154849449Y-117230500D01*
X154849454Y-117230500D01*
X155030551Y-117230500D01*
X155117259Y-117216765D01*
X155209409Y-117202171D01*
X155381639Y-117146211D01*
X155542994Y-117063996D01*
X155689501Y-116957553D01*
X155817553Y-116829501D01*
X155923996Y-116682994D01*
X156006211Y-116521639D01*
X156062171Y-116349409D01*
X156076422Y-116259425D01*
X156087527Y-116189321D01*
X156117456Y-116126186D01*
X156176768Y-116089255D01*
X156246630Y-116090253D01*
X156304863Y-116128863D01*
X156332473Y-116189321D01*
X156357829Y-116349410D01*
X156413787Y-116521636D01*
X156413788Y-116521639D01*
X156496006Y-116682997D01*
X156602441Y-116829494D01*
X156602445Y-116829499D01*
X156730500Y-116957554D01*
X156730505Y-116957558D01*
X156858287Y-117050396D01*
X156877006Y-117063996D01*
X156953094Y-117102765D01*
X157038360Y-117146211D01*
X157038363Y-117146212D01*
X157124476Y-117174191D01*
X157210591Y-117202171D01*
X157293429Y-117215291D01*
X157389449Y-117230500D01*
X157389454Y-117230500D01*
X157570551Y-117230500D01*
X157657259Y-117216765D01*
X157749409Y-117202171D01*
X157921639Y-117146211D01*
X158082994Y-117063996D01*
X158229501Y-116957553D01*
X158357553Y-116829501D01*
X158463996Y-116682994D01*
X158546211Y-116521639D01*
X158602171Y-116349409D01*
X158616422Y-116259425D01*
X158627527Y-116189321D01*
X158657456Y-116126186D01*
X158716768Y-116089255D01*
X158786630Y-116090253D01*
X158844863Y-116128863D01*
X158872473Y-116189321D01*
X158897829Y-116349410D01*
X158953787Y-116521636D01*
X158953788Y-116521639D01*
X159036006Y-116682997D01*
X159142441Y-116829494D01*
X159142445Y-116829499D01*
X159270500Y-116957554D01*
X159270505Y-116957558D01*
X159398287Y-117050396D01*
X159417006Y-117063996D01*
X159493094Y-117102765D01*
X159578360Y-117146211D01*
X159578363Y-117146212D01*
X159664476Y-117174191D01*
X159750591Y-117202171D01*
X159833429Y-117215291D01*
X159929449Y-117230500D01*
X159929454Y-117230500D01*
X160110551Y-117230500D01*
X160197259Y-117216765D01*
X160289409Y-117202171D01*
X160461639Y-117146211D01*
X160622994Y-117063996D01*
X160769501Y-116957553D01*
X160897553Y-116829501D01*
X161003996Y-116682994D01*
X161086211Y-116521639D01*
X161142171Y-116349409D01*
X161156422Y-116259425D01*
X161167527Y-116189321D01*
X161197456Y-116126186D01*
X161256768Y-116089255D01*
X161326630Y-116090253D01*
X161384863Y-116128863D01*
X161412473Y-116189321D01*
X161437829Y-116349410D01*
X161493787Y-116521636D01*
X161493788Y-116521639D01*
X161576006Y-116682997D01*
X161682441Y-116829494D01*
X161682445Y-116829499D01*
X161810500Y-116957554D01*
X161810505Y-116957558D01*
X161938287Y-117050396D01*
X161957006Y-117063996D01*
X162033094Y-117102765D01*
X162118360Y-117146211D01*
X162118363Y-117146212D01*
X162204476Y-117174191D01*
X162290591Y-117202171D01*
X162373429Y-117215291D01*
X162469449Y-117230500D01*
X162469454Y-117230500D01*
X162650551Y-117230500D01*
X162737259Y-117216765D01*
X162829409Y-117202171D01*
X163001639Y-117146211D01*
X163162994Y-117063996D01*
X163309501Y-116957553D01*
X163437553Y-116829501D01*
X163543996Y-116682994D01*
X163626211Y-116521639D01*
X163682171Y-116349409D01*
X163696765Y-116257259D01*
X163710500Y-116170551D01*
X163710500Y-115989448D01*
X163694019Y-115885397D01*
X163682171Y-115810591D01*
X163626211Y-115638361D01*
X163626211Y-115638360D01*
X163590056Y-115567403D01*
X163543996Y-115477006D01*
X163506100Y-115424846D01*
X163437558Y-115330505D01*
X163437554Y-115330500D01*
X163309499Y-115202445D01*
X163309494Y-115202441D01*
X163162997Y-115096006D01*
X163162996Y-115096005D01*
X163162994Y-115096004D01*
X163104257Y-115066076D01*
X163001639Y-115013788D01*
X163001636Y-115013787D01*
X162898387Y-114980240D01*
X162840711Y-114940803D01*
X162813513Y-114876444D01*
X162825428Y-114807598D01*
X162872672Y-114756122D01*
X162898387Y-114744378D01*
X163039835Y-114698418D01*
X163215143Y-114609095D01*
X163291079Y-114553922D01*
X163291080Y-114553921D01*
X162745178Y-114008019D01*
X162752993Y-114005925D01*
X162867007Y-113940099D01*
X162960099Y-113847007D01*
X163025925Y-113732993D01*
X163028019Y-113725177D01*
X163573921Y-114271080D01*
X163573922Y-114271079D01*
X163629095Y-114195143D01*
X163718418Y-114019835D01*
X163779221Y-113832705D01*
X163810000Y-113638382D01*
X163810000Y-113441617D01*
X163779221Y-113247294D01*
X163718418Y-113060164D01*
X163629095Y-112884856D01*
X163573922Y-112808919D01*
X163573922Y-112808918D01*
X163028018Y-113354821D01*
X163025925Y-113347007D01*
X162960099Y-113232993D01*
X162867007Y-113139901D01*
X162752993Y-113074075D01*
X162745177Y-113071980D01*
X163291080Y-112526077D01*
X163291079Y-112526076D01*
X163215143Y-112470904D01*
X163039835Y-112381581D01*
X162852705Y-112320778D01*
X162658382Y-112290000D01*
X162461618Y-112290000D01*
X162267294Y-112320778D01*
X162080164Y-112381581D01*
X161904855Y-112470905D01*
X161904846Y-112470911D01*
X161828919Y-112526075D01*
X161828918Y-112526076D01*
X162374823Y-113071980D01*
X162367007Y-113074075D01*
X162252993Y-113139901D01*
X162159901Y-113232993D01*
X162094075Y-113347007D01*
X162091980Y-113354822D01*
X161546076Y-112808918D01*
X161546075Y-112808919D01*
X161490911Y-112884846D01*
X161490905Y-112884855D01*
X161401581Y-113060162D01*
X161355621Y-113201613D01*
X161316183Y-113259288D01*
X161251824Y-113286486D01*
X161182978Y-113274571D01*
X161131502Y-113227327D01*
X161119759Y-113201611D01*
X161086213Y-113098366D01*
X161086211Y-113098360D01*
X161050055Y-113027402D01*
X161003996Y-112937006D01*
X160966100Y-112884846D01*
X160897558Y-112790505D01*
X160897554Y-112790500D01*
X160769499Y-112662445D01*
X160769494Y-112662441D01*
X160622997Y-112556006D01*
X160622996Y-112556005D01*
X160622994Y-112556004D01*
X160564257Y-112526076D01*
X160461639Y-112473788D01*
X160461636Y-112473787D01*
X160289410Y-112417829D01*
X160110551Y-112389500D01*
X160110546Y-112389500D01*
X159929454Y-112389500D01*
X159929450Y-112389500D01*
X159921993Y-112390681D01*
X159852699Y-112381726D01*
X159814914Y-112355889D01*
X153598716Y-106139691D01*
X153598715Y-106139690D01*
X153473185Y-106067216D01*
X153473186Y-106067216D01*
X153438182Y-106057837D01*
X153333175Y-106029700D01*
X153333172Y-106029700D01*
X136939586Y-106029700D01*
X136872547Y-106010015D01*
X136851905Y-105993381D01*
X134840638Y-103982113D01*
X134807153Y-103920790D01*
X134812137Y-103851098D01*
X134854009Y-103795165D01*
X134919473Y-103770748D01*
X134947718Y-103771959D01*
X135061619Y-103790000D01*
X135258382Y-103790000D01*
X135452705Y-103759221D01*
X135639835Y-103698418D01*
X135815143Y-103609095D01*
X135891079Y-103553922D01*
X135891080Y-103553922D01*
X135345177Y-103008019D01*
X135352993Y-103005925D01*
X135467007Y-102940099D01*
X135560099Y-102847007D01*
X135625925Y-102732993D01*
X135628019Y-102725177D01*
X136173921Y-103271080D01*
X136173922Y-103271079D01*
X136229097Y-103195141D01*
X136229097Y-103195140D01*
X136319515Y-103017685D01*
X136367489Y-102966888D01*
X136435310Y-102950093D01*
X136501445Y-102972630D01*
X136540485Y-103017685D01*
X136630902Y-103195141D01*
X136686076Y-103271079D01*
X136686077Y-103271080D01*
X137231980Y-102725176D01*
X137234075Y-102732993D01*
X137299901Y-102847007D01*
X137392993Y-102940099D01*
X137507007Y-103005925D01*
X137514822Y-103008019D01*
X136968918Y-103553922D01*
X137044856Y-103609095D01*
X137220164Y-103698418D01*
X137407294Y-103759221D01*
X137601618Y-103790000D01*
X137798382Y-103790000D01*
X137992705Y-103759221D01*
X138179835Y-103698418D01*
X138355143Y-103609095D01*
X138431079Y-103553922D01*
X138431080Y-103553921D01*
X137885178Y-103008019D01*
X137892993Y-103005925D01*
X138007007Y-102940099D01*
X138100099Y-102847007D01*
X138165925Y-102732993D01*
X138168019Y-102725177D01*
X138713921Y-103271080D01*
X138713922Y-103271079D01*
X138769097Y-103195141D01*
X138769097Y-103195140D01*
X138859515Y-103017685D01*
X138907489Y-102966888D01*
X138975310Y-102950093D01*
X139041445Y-102972630D01*
X139080485Y-103017685D01*
X139170902Y-103195141D01*
X139226076Y-103271079D01*
X139226077Y-103271080D01*
X139771980Y-102725176D01*
X139774075Y-102732993D01*
X139839901Y-102847007D01*
X139932993Y-102940099D01*
X140047007Y-103005925D01*
X140054822Y-103008019D01*
X139508918Y-103553922D01*
X139584856Y-103609095D01*
X139760164Y-103698418D01*
X139947294Y-103759221D01*
X140141618Y-103790000D01*
X140338382Y-103790000D01*
X140532705Y-103759221D01*
X140719835Y-103698418D01*
X140895143Y-103609095D01*
X140971079Y-103553922D01*
X140971080Y-103553921D01*
X140425178Y-103008019D01*
X140432993Y-103005925D01*
X140547007Y-102940099D01*
X140640099Y-102847007D01*
X140705925Y-102732993D01*
X140708019Y-102725177D01*
X141253921Y-103271080D01*
X141253922Y-103271079D01*
X141309095Y-103195143D01*
X141398418Y-103019835D01*
X141444378Y-102878387D01*
X141483815Y-102820712D01*
X141548174Y-102793513D01*
X141617020Y-102805428D01*
X141668496Y-102852672D01*
X141680240Y-102878387D01*
X141713787Y-102981636D01*
X141713788Y-102981639D01*
X141796006Y-103142997D01*
X141902441Y-103289494D01*
X141902445Y-103289499D01*
X142030500Y-103417554D01*
X142030505Y-103417558D01*
X142158287Y-103510396D01*
X142177006Y-103523996D01*
X142282484Y-103577740D01*
X142338360Y-103606211D01*
X142338363Y-103606212D01*
X142387260Y-103622099D01*
X142510591Y-103662171D01*
X142593429Y-103675291D01*
X142689449Y-103690500D01*
X142689454Y-103690500D01*
X142870551Y-103690500D01*
X142957259Y-103676765D01*
X143049409Y-103662171D01*
X143221639Y-103606211D01*
X143382994Y-103523996D01*
X143529501Y-103417553D01*
X143657553Y-103289501D01*
X143763996Y-103142994D01*
X143846211Y-102981639D01*
X143902171Y-102809409D01*
X143916422Y-102719425D01*
X143927527Y-102649321D01*
X143957456Y-102586186D01*
X144016768Y-102549255D01*
X144086630Y-102550253D01*
X144144863Y-102588863D01*
X144172473Y-102649321D01*
X144197829Y-102809410D01*
X144253787Y-102981636D01*
X144253788Y-102981639D01*
X144336006Y-103142997D01*
X144442441Y-103289494D01*
X144442445Y-103289499D01*
X144570500Y-103417554D01*
X144570505Y-103417558D01*
X144698287Y-103510396D01*
X144717006Y-103523996D01*
X144822484Y-103577740D01*
X144878360Y-103606211D01*
X144878363Y-103606212D01*
X144927260Y-103622099D01*
X145050591Y-103662171D01*
X145133429Y-103675291D01*
X145229449Y-103690500D01*
X145229454Y-103690500D01*
X145410551Y-103690500D01*
X145497259Y-103676765D01*
X145589409Y-103662171D01*
X145761639Y-103606211D01*
X145922994Y-103523996D01*
X146069501Y-103417553D01*
X146197553Y-103289501D01*
X146303996Y-103142994D01*
X146386211Y-102981639D01*
X146442171Y-102809409D01*
X146456422Y-102719425D01*
X146467527Y-102649321D01*
X146497456Y-102586186D01*
X146556768Y-102549255D01*
X146626630Y-102550253D01*
X146684863Y-102588863D01*
X146712473Y-102649321D01*
X146737829Y-102809410D01*
X146793787Y-102981636D01*
X146793788Y-102981639D01*
X146876006Y-103142997D01*
X146982441Y-103289494D01*
X146982445Y-103289499D01*
X147110500Y-103417554D01*
X147110505Y-103417558D01*
X147238287Y-103510396D01*
X147257006Y-103523996D01*
X147362484Y-103577740D01*
X147418360Y-103606211D01*
X147418363Y-103606212D01*
X147467260Y-103622099D01*
X147590591Y-103662171D01*
X147673429Y-103675291D01*
X147769449Y-103690500D01*
X147769454Y-103690500D01*
X147950551Y-103690500D01*
X148037259Y-103676765D01*
X148129409Y-103662171D01*
X148301639Y-103606211D01*
X148462994Y-103523996D01*
X148609501Y-103417553D01*
X148737553Y-103289501D01*
X148843996Y-103142994D01*
X148926211Y-102981639D01*
X148982171Y-102809409D01*
X148996422Y-102719425D01*
X149007527Y-102649321D01*
X149037456Y-102586186D01*
X149096768Y-102549255D01*
X149166630Y-102550253D01*
X149224863Y-102588863D01*
X149252473Y-102649321D01*
X149277829Y-102809410D01*
X149333787Y-102981636D01*
X149333788Y-102981639D01*
X149416006Y-103142997D01*
X149522441Y-103289494D01*
X149522445Y-103289499D01*
X149650500Y-103417554D01*
X149650505Y-103417558D01*
X149778287Y-103510396D01*
X149797006Y-103523996D01*
X149902484Y-103577740D01*
X149958360Y-103606211D01*
X149958363Y-103606212D01*
X150007260Y-103622099D01*
X150130591Y-103662171D01*
X150213429Y-103675291D01*
X150309449Y-103690500D01*
X150309454Y-103690500D01*
X150490551Y-103690500D01*
X150577259Y-103676765D01*
X150669409Y-103662171D01*
X150841639Y-103606211D01*
X151002994Y-103523996D01*
X151149501Y-103417553D01*
X151277553Y-103289501D01*
X151383996Y-103142994D01*
X151466211Y-102981639D01*
X151522171Y-102809409D01*
X151536422Y-102719425D01*
X151547527Y-102649321D01*
X151577456Y-102586186D01*
X151636768Y-102549255D01*
X151706630Y-102550253D01*
X151764863Y-102588863D01*
X151792473Y-102649321D01*
X151817829Y-102809410D01*
X151873787Y-102981636D01*
X151873788Y-102981639D01*
X151956006Y-103142997D01*
X152062441Y-103289494D01*
X152062445Y-103289499D01*
X152190500Y-103417554D01*
X152190505Y-103417558D01*
X152318287Y-103510396D01*
X152337006Y-103523996D01*
X152442484Y-103577740D01*
X152498360Y-103606211D01*
X152498363Y-103606212D01*
X152547260Y-103622099D01*
X152670591Y-103662171D01*
X152753429Y-103675291D01*
X152849449Y-103690500D01*
X152849454Y-103690500D01*
X153030551Y-103690500D01*
X153117259Y-103676765D01*
X153209409Y-103662171D01*
X153381639Y-103606211D01*
X153542994Y-103523996D01*
X153689501Y-103417553D01*
X153817553Y-103289501D01*
X153923996Y-103142994D01*
X154006211Y-102981639D01*
X154062171Y-102809409D01*
X154076422Y-102719425D01*
X154087527Y-102649321D01*
X154117456Y-102586186D01*
X154176768Y-102549255D01*
X154246630Y-102550253D01*
X154304863Y-102588863D01*
X154332473Y-102649321D01*
X154357829Y-102809410D01*
X154413787Y-102981636D01*
X154413788Y-102981639D01*
X154496006Y-103142997D01*
X154602441Y-103289494D01*
X154602445Y-103289499D01*
X154730500Y-103417554D01*
X154730505Y-103417558D01*
X154858287Y-103510396D01*
X154877006Y-103523996D01*
X154982484Y-103577740D01*
X155038360Y-103606211D01*
X155038363Y-103606212D01*
X155087260Y-103622099D01*
X155210591Y-103662171D01*
X155293429Y-103675291D01*
X155389449Y-103690500D01*
X155389454Y-103690500D01*
X155570551Y-103690500D01*
X155657259Y-103676765D01*
X155749409Y-103662171D01*
X155921639Y-103606211D01*
X156082994Y-103523996D01*
X156229501Y-103417553D01*
X156357553Y-103289501D01*
X156463996Y-103142994D01*
X156546211Y-102981639D01*
X156602171Y-102809409D01*
X156616422Y-102719425D01*
X156627527Y-102649321D01*
X156657456Y-102586186D01*
X156716768Y-102549255D01*
X156786630Y-102550253D01*
X156844863Y-102588863D01*
X156872473Y-102649321D01*
X156897829Y-102809410D01*
X156953787Y-102981636D01*
X156953788Y-102981639D01*
X157036006Y-103142997D01*
X157142441Y-103289494D01*
X157142445Y-103289499D01*
X157270500Y-103417554D01*
X157270505Y-103417558D01*
X157398287Y-103510396D01*
X157417006Y-103523996D01*
X157522484Y-103577740D01*
X157578360Y-103606211D01*
X157578363Y-103606212D01*
X157627260Y-103622099D01*
X157750591Y-103662171D01*
X157833429Y-103675291D01*
X157929449Y-103690500D01*
X157929454Y-103690500D01*
X158110551Y-103690500D01*
X158197259Y-103676765D01*
X158289409Y-103662171D01*
X158461639Y-103606211D01*
X158622994Y-103523996D01*
X158769501Y-103417553D01*
X158897553Y-103289501D01*
X159003996Y-103142994D01*
X159086211Y-102981639D01*
X159142171Y-102809409D01*
X159156422Y-102719425D01*
X159167527Y-102649321D01*
X159197456Y-102586186D01*
X159256768Y-102549255D01*
X159326630Y-102550253D01*
X159384863Y-102588863D01*
X159412473Y-102649321D01*
X159437829Y-102809410D01*
X159493787Y-102981636D01*
X159493788Y-102981639D01*
X159576006Y-103142997D01*
X159682441Y-103289494D01*
X159682445Y-103289499D01*
X159810500Y-103417554D01*
X159810505Y-103417558D01*
X159938287Y-103510396D01*
X159957006Y-103523996D01*
X160062484Y-103577740D01*
X160118360Y-103606211D01*
X160118363Y-103606212D01*
X160167260Y-103622099D01*
X160290591Y-103662171D01*
X160373429Y-103675291D01*
X160469449Y-103690500D01*
X160469454Y-103690500D01*
X160650551Y-103690500D01*
X160737259Y-103676765D01*
X160829409Y-103662171D01*
X161001639Y-103606211D01*
X161162994Y-103523996D01*
X161309501Y-103417553D01*
X161437553Y-103289501D01*
X161543996Y-103142994D01*
X161626211Y-102981639D01*
X161682171Y-102809409D01*
X161696422Y-102719425D01*
X161707527Y-102649321D01*
X161737456Y-102586186D01*
X161796768Y-102549255D01*
X161866630Y-102550253D01*
X161924863Y-102588863D01*
X161952473Y-102649321D01*
X161977829Y-102809410D01*
X162033787Y-102981636D01*
X162033788Y-102981639D01*
X162116006Y-103142997D01*
X162222441Y-103289494D01*
X162222445Y-103289499D01*
X162350500Y-103417554D01*
X162350505Y-103417558D01*
X162478287Y-103510396D01*
X162497006Y-103523996D01*
X162602484Y-103577740D01*
X162658360Y-103606211D01*
X162658363Y-103606212D01*
X162707260Y-103622099D01*
X162830591Y-103662171D01*
X162913429Y-103675291D01*
X163009449Y-103690500D01*
X163009454Y-103690500D01*
X163190551Y-103690500D01*
X163277259Y-103676765D01*
X163369409Y-103662171D01*
X163541639Y-103606211D01*
X163702994Y-103523996D01*
X163849501Y-103417553D01*
X163977553Y-103289501D01*
X164083996Y-103142994D01*
X164166211Y-102981639D01*
X164222171Y-102809409D01*
X164236765Y-102717259D01*
X164250500Y-102630551D01*
X164250500Y-102449448D01*
X164234019Y-102345397D01*
X164222171Y-102270591D01*
X164179708Y-102139901D01*
X164166212Y-102098363D01*
X164166211Y-102098360D01*
X164136474Y-102040000D01*
X164083996Y-101937006D01*
X163990936Y-101808919D01*
X163977558Y-101790505D01*
X163977554Y-101790500D01*
X163849499Y-101662445D01*
X163849494Y-101662441D01*
X163702997Y-101556006D01*
X163702996Y-101556005D01*
X163702994Y-101556004D01*
X163562631Y-101484485D01*
X163511835Y-101436510D01*
X163495040Y-101368689D01*
X163517578Y-101302554D01*
X163572293Y-101259103D01*
X163618926Y-101250000D01*
X163765634Y-101250000D01*
X163765649Y-101249999D01*
X163802489Y-101247100D01*
X163802495Y-101247099D01*
X163960193Y-101201283D01*
X163960196Y-101201282D01*
X164101552Y-101117685D01*
X164101561Y-101117678D01*
X164217678Y-101001561D01*
X164217685Y-101001552D01*
X164301282Y-100860196D01*
X164301283Y-100860193D01*
X164347099Y-100702495D01*
X164347100Y-100702489D01*
X164349999Y-100665649D01*
X164350000Y-100665634D01*
X164350000Y-100200000D01*
X163561880Y-100200000D01*
X163565925Y-100192993D01*
X163600000Y-100065826D01*
X163600000Y-99934174D01*
X163565925Y-99807007D01*
X163561880Y-99800000D01*
X164350000Y-99800000D01*
X164350000Y-99334365D01*
X164349999Y-99334350D01*
X164347100Y-99297510D01*
X164347099Y-99297504D01*
X164301283Y-99139806D01*
X164301282Y-99139803D01*
X164217685Y-98998447D01*
X164217678Y-98998438D01*
X164101561Y-98882321D01*
X164101552Y-98882314D01*
X163960196Y-98798717D01*
X163960193Y-98798716D01*
X163802495Y-98752900D01*
X163802489Y-98752899D01*
X163765649Y-98750000D01*
X163300000Y-98750000D01*
X163300000Y-99538120D01*
X163292993Y-99534075D01*
X163165826Y-99500000D01*
X163034174Y-99500000D01*
X162907007Y-99534075D01*
X162900000Y-99538120D01*
X162900000Y-98750000D01*
X162434350Y-98750000D01*
X162397510Y-98752899D01*
X162397504Y-98752900D01*
X162239806Y-98798716D01*
X162239803Y-98798717D01*
X162098447Y-98882314D01*
X162098438Y-98882321D01*
X161982321Y-98998438D01*
X161982314Y-98998447D01*
X161898717Y-99139803D01*
X161898716Y-99139806D01*
X161851132Y-99303593D01*
X161849739Y-99303188D01*
X161821657Y-99358978D01*
X161761488Y-99394496D01*
X161691669Y-99391846D01*
X161634366Y-99351869D01*
X161630773Y-99347165D01*
X161573923Y-99268919D01*
X161573922Y-99268918D01*
X161028018Y-99814821D01*
X161025925Y-99807007D01*
X160960099Y-99692993D01*
X160867007Y-99599901D01*
X160752993Y-99534075D01*
X160745177Y-99531980D01*
X161291080Y-98986077D01*
X161291079Y-98986076D01*
X161215143Y-98930904D01*
X161039835Y-98841581D01*
X160852705Y-98780778D01*
X160658382Y-98750000D01*
X160461618Y-98750000D01*
X160267294Y-98780778D01*
X160080164Y-98841581D01*
X159904855Y-98930905D01*
X159904846Y-98930911D01*
X159828919Y-98986075D01*
X159828918Y-98986076D01*
X160374823Y-99531980D01*
X160367007Y-99534075D01*
X160252993Y-99599901D01*
X160159901Y-99692993D01*
X160094075Y-99807007D01*
X160091980Y-99814822D01*
X159546076Y-99268918D01*
X159546075Y-99268919D01*
X159490911Y-99344846D01*
X159490905Y-99344855D01*
X159400485Y-99522315D01*
X159352510Y-99573111D01*
X159284689Y-99589906D01*
X159218554Y-99567369D01*
X159179515Y-99522315D01*
X159089095Y-99344856D01*
X159033922Y-99268919D01*
X159033922Y-99268918D01*
X158488018Y-99814821D01*
X158485925Y-99807007D01*
X158420099Y-99692993D01*
X158327007Y-99599901D01*
X158212993Y-99534075D01*
X158205177Y-99531980D01*
X158751080Y-98986077D01*
X158751079Y-98986076D01*
X158675143Y-98930904D01*
X158499835Y-98841581D01*
X158312705Y-98780778D01*
X158118382Y-98750000D01*
X157921618Y-98750000D01*
X157727294Y-98780778D01*
X157540164Y-98841581D01*
X157364855Y-98930905D01*
X157364846Y-98930911D01*
X157288919Y-98986075D01*
X157288918Y-98986076D01*
X157834823Y-99531980D01*
X157827007Y-99534075D01*
X157712993Y-99599901D01*
X157619901Y-99692993D01*
X157554075Y-99807007D01*
X157551980Y-99814822D01*
X157006076Y-99268918D01*
X157006075Y-99268919D01*
X156950911Y-99344846D01*
X156950905Y-99344855D01*
X156860485Y-99522315D01*
X156812510Y-99573111D01*
X156744689Y-99589906D01*
X156678554Y-99567369D01*
X156639515Y-99522315D01*
X156549095Y-99344856D01*
X156493922Y-99268919D01*
X156493922Y-99268918D01*
X155948018Y-99814821D01*
X155945925Y-99807007D01*
X155880099Y-99692993D01*
X155787007Y-99599901D01*
X155672993Y-99534075D01*
X155665177Y-99531980D01*
X156211080Y-98986077D01*
X156211079Y-98986076D01*
X156135143Y-98930904D01*
X155959835Y-98841581D01*
X155772705Y-98780778D01*
X155578382Y-98750000D01*
X155381618Y-98750000D01*
X155187294Y-98780778D01*
X155000164Y-98841581D01*
X154824855Y-98930905D01*
X154824846Y-98930911D01*
X154748919Y-98986075D01*
X154748918Y-98986076D01*
X155294823Y-99531980D01*
X155287007Y-99534075D01*
X155172993Y-99599901D01*
X155079901Y-99692993D01*
X155014075Y-99807007D01*
X155011980Y-99814822D01*
X154466076Y-99268918D01*
X154466075Y-99268919D01*
X154410911Y-99344846D01*
X154410905Y-99344855D01*
X154320485Y-99522315D01*
X154272510Y-99573111D01*
X154204689Y-99589906D01*
X154138554Y-99567369D01*
X154099515Y-99522315D01*
X154009095Y-99344856D01*
X153953922Y-99268919D01*
X153953922Y-99268918D01*
X153408018Y-99814821D01*
X153405925Y-99807007D01*
X153340099Y-99692993D01*
X153247007Y-99599901D01*
X153132993Y-99534075D01*
X153125177Y-99531980D01*
X153671080Y-98986077D01*
X153671079Y-98986076D01*
X153595143Y-98930904D01*
X153419835Y-98841581D01*
X153232705Y-98780778D01*
X153038382Y-98750000D01*
X152841618Y-98750000D01*
X152647294Y-98780778D01*
X152460164Y-98841581D01*
X152284855Y-98930905D01*
X152284846Y-98930911D01*
X152208919Y-98986075D01*
X152208918Y-98986076D01*
X152754823Y-99531980D01*
X152747007Y-99534075D01*
X152632993Y-99599901D01*
X152539901Y-99692993D01*
X152474075Y-99807007D01*
X152471980Y-99814822D01*
X151926076Y-99268918D01*
X151926075Y-99268919D01*
X151870911Y-99344846D01*
X151870905Y-99344855D01*
X151780485Y-99522315D01*
X151732510Y-99573111D01*
X151664689Y-99589906D01*
X151598554Y-99567369D01*
X151559515Y-99522315D01*
X151469095Y-99344856D01*
X151413922Y-99268919D01*
X151413922Y-99268918D01*
X150868018Y-99814821D01*
X150865925Y-99807007D01*
X150800099Y-99692993D01*
X150707007Y-99599901D01*
X150592993Y-99534075D01*
X150585177Y-99531980D01*
X151131080Y-98986077D01*
X151131079Y-98986076D01*
X151055143Y-98930904D01*
X150879835Y-98841581D01*
X150692705Y-98780778D01*
X150498382Y-98750000D01*
X150301618Y-98750000D01*
X150107294Y-98780778D01*
X149920164Y-98841581D01*
X149744855Y-98930905D01*
X149744846Y-98930911D01*
X149668919Y-98986075D01*
X149668918Y-98986076D01*
X150214823Y-99531980D01*
X150207007Y-99534075D01*
X150092993Y-99599901D01*
X149999901Y-99692993D01*
X149934075Y-99807007D01*
X149931980Y-99814822D01*
X149386076Y-99268918D01*
X149386075Y-99268919D01*
X149330911Y-99344846D01*
X149330905Y-99344855D01*
X149240485Y-99522315D01*
X149192510Y-99573111D01*
X149124689Y-99589906D01*
X149058554Y-99567369D01*
X149019515Y-99522315D01*
X148929095Y-99344856D01*
X148873922Y-99268919D01*
X148873922Y-99268918D01*
X148328018Y-99814821D01*
X148325925Y-99807007D01*
X148260099Y-99692993D01*
X148167007Y-99599901D01*
X148052993Y-99534075D01*
X148045177Y-99531980D01*
X148591080Y-98986077D01*
X148591079Y-98986076D01*
X148515143Y-98930904D01*
X148339835Y-98841581D01*
X148152705Y-98780778D01*
X147958382Y-98750000D01*
X147761618Y-98750000D01*
X147567294Y-98780778D01*
X147380164Y-98841581D01*
X147204855Y-98930905D01*
X147204846Y-98930911D01*
X147128919Y-98986075D01*
X147128918Y-98986076D01*
X147674823Y-99531980D01*
X147667007Y-99534075D01*
X147552993Y-99599901D01*
X147459901Y-99692993D01*
X147394075Y-99807007D01*
X147391980Y-99814822D01*
X146846076Y-99268918D01*
X146846075Y-99268919D01*
X146790911Y-99344846D01*
X146790905Y-99344855D01*
X146700485Y-99522315D01*
X146652510Y-99573111D01*
X146584689Y-99589906D01*
X146518554Y-99567369D01*
X146479515Y-99522315D01*
X146389095Y-99344856D01*
X146333922Y-99268919D01*
X146333922Y-99268918D01*
X145788018Y-99814821D01*
X145785925Y-99807007D01*
X145720099Y-99692993D01*
X145627007Y-99599901D01*
X145512993Y-99534075D01*
X145505177Y-99531980D01*
X146051080Y-98986077D01*
X146051079Y-98986076D01*
X145975143Y-98930904D01*
X145799835Y-98841581D01*
X145612705Y-98780778D01*
X145418382Y-98750000D01*
X145221618Y-98750000D01*
X145027294Y-98780778D01*
X144840164Y-98841581D01*
X144664855Y-98930905D01*
X144664846Y-98930911D01*
X144588919Y-98986075D01*
X144588918Y-98986076D01*
X145134823Y-99531980D01*
X145127007Y-99534075D01*
X145012993Y-99599901D01*
X144919901Y-99692993D01*
X144854075Y-99807007D01*
X144851980Y-99814822D01*
X144306076Y-99268918D01*
X144306075Y-99268919D01*
X144250911Y-99344846D01*
X144250905Y-99344855D01*
X144160485Y-99522315D01*
X144112510Y-99573111D01*
X144044689Y-99589906D01*
X143978554Y-99567369D01*
X143939515Y-99522315D01*
X143849095Y-99344856D01*
X143793922Y-99268919D01*
X143793922Y-99268918D01*
X143248018Y-99814821D01*
X143245925Y-99807007D01*
X143180099Y-99692993D01*
X143087007Y-99599901D01*
X142972993Y-99534075D01*
X142965177Y-99531980D01*
X143511080Y-98986077D01*
X143511079Y-98986076D01*
X143435143Y-98930904D01*
X143259835Y-98841581D01*
X143072705Y-98780778D01*
X142878382Y-98750000D01*
X142681618Y-98750000D01*
X142487294Y-98780778D01*
X142300164Y-98841581D01*
X142124855Y-98930905D01*
X142124846Y-98930911D01*
X142048919Y-98986075D01*
X142048918Y-98986076D01*
X142594823Y-99531980D01*
X142587007Y-99534075D01*
X142472993Y-99599901D01*
X142379901Y-99692993D01*
X142314075Y-99807007D01*
X142311980Y-99814822D01*
X141766076Y-99268918D01*
X141766075Y-99268919D01*
X141710911Y-99344846D01*
X141710905Y-99344855D01*
X141620485Y-99522315D01*
X141572510Y-99573111D01*
X141504689Y-99589906D01*
X141438554Y-99567369D01*
X141399515Y-99522315D01*
X141309095Y-99344856D01*
X141253922Y-99268919D01*
X141253922Y-99268918D01*
X140708018Y-99814821D01*
X140705925Y-99807007D01*
X140640099Y-99692993D01*
X140547007Y-99599901D01*
X140432993Y-99534075D01*
X140425177Y-99531980D01*
X140971080Y-98986077D01*
X140971079Y-98986076D01*
X140895143Y-98930904D01*
X140719835Y-98841581D01*
X140532705Y-98780778D01*
X140338382Y-98750000D01*
X140141618Y-98750000D01*
X139947294Y-98780778D01*
X139760164Y-98841581D01*
X139584855Y-98930905D01*
X139584846Y-98930911D01*
X139508919Y-98986075D01*
X139508918Y-98986076D01*
X140054823Y-99531980D01*
X140047007Y-99534075D01*
X139932993Y-99599901D01*
X139839901Y-99692993D01*
X139774075Y-99807007D01*
X139771980Y-99814822D01*
X139226076Y-99268918D01*
X139226075Y-99268919D01*
X139170911Y-99344846D01*
X139170905Y-99344855D01*
X139080485Y-99522315D01*
X139032510Y-99573111D01*
X138964689Y-99589906D01*
X138898554Y-99567369D01*
X138859515Y-99522315D01*
X138769095Y-99344856D01*
X138713922Y-99268919D01*
X138713922Y-99268918D01*
X138168018Y-99814821D01*
X138165925Y-99807007D01*
X138100099Y-99692993D01*
X138007007Y-99599901D01*
X137892993Y-99534075D01*
X137885177Y-99531980D01*
X138431080Y-98986077D01*
X138431079Y-98986076D01*
X138355143Y-98930904D01*
X138179835Y-98841581D01*
X137992705Y-98780778D01*
X137798382Y-98750000D01*
X137601618Y-98750000D01*
X137407294Y-98780778D01*
X137220164Y-98841581D01*
X137044855Y-98930905D01*
X137044846Y-98930911D01*
X136968919Y-98986075D01*
X136968918Y-98986076D01*
X137514823Y-99531980D01*
X137507007Y-99534075D01*
X137392993Y-99599901D01*
X137299901Y-99692993D01*
X137234075Y-99807007D01*
X137231980Y-99814822D01*
X136686076Y-99268918D01*
X136686075Y-99268919D01*
X136630911Y-99344846D01*
X136630905Y-99344855D01*
X136540485Y-99522315D01*
X136492510Y-99573111D01*
X136424689Y-99589906D01*
X136358554Y-99567369D01*
X136319515Y-99522315D01*
X136229095Y-99344856D01*
X136173922Y-99268919D01*
X136173922Y-99268918D01*
X135628018Y-99814821D01*
X135625925Y-99807007D01*
X135560099Y-99692993D01*
X135467007Y-99599901D01*
X135352993Y-99534075D01*
X135345177Y-99531980D01*
X135891080Y-98986077D01*
X135891079Y-98986076D01*
X135815143Y-98930904D01*
X135639835Y-98841581D01*
X135452705Y-98780778D01*
X135258382Y-98750000D01*
X135061618Y-98750000D01*
X134867294Y-98780778D01*
X134680164Y-98841581D01*
X134504855Y-98930905D01*
X134504846Y-98930911D01*
X134428919Y-98986075D01*
X134428918Y-98986076D01*
X134974823Y-99531980D01*
X134967007Y-99534075D01*
X134852993Y-99599901D01*
X134759901Y-99692993D01*
X134694075Y-99807007D01*
X134691980Y-99814822D01*
X134146076Y-99268918D01*
X134146075Y-99268919D01*
X134090911Y-99344846D01*
X134090905Y-99344855D01*
X134001581Y-99520162D01*
X133955621Y-99661613D01*
X133916183Y-99719288D01*
X133851824Y-99746486D01*
X133782978Y-99734571D01*
X133731502Y-99687327D01*
X133719759Y-99661611D01*
X133686213Y-99558366D01*
X133686211Y-99558360D01*
X133656474Y-99500000D01*
X133603996Y-99397006D01*
X133535834Y-99303188D01*
X133497558Y-99250505D01*
X133497554Y-99250500D01*
X133369499Y-99122445D01*
X133369494Y-99122441D01*
X133222997Y-99016006D01*
X133222996Y-99016005D01*
X133222994Y-99016004D01*
X133164257Y-98986076D01*
X133061639Y-98933788D01*
X133061636Y-98933787D01*
X132889410Y-98877829D01*
X132710551Y-98849500D01*
X132710546Y-98849500D01*
X132529454Y-98849500D01*
X132529449Y-98849500D01*
X132350589Y-98877829D01*
X132178363Y-98933787D01*
X132178360Y-98933788D01*
X132017002Y-99016006D01*
X131870505Y-99122441D01*
X131870500Y-99122445D01*
X131742445Y-99250500D01*
X131742441Y-99250505D01*
X131636006Y-99397002D01*
X131553788Y-99558360D01*
X131553787Y-99558363D01*
X131520240Y-99661612D01*
X131480802Y-99719288D01*
X131416444Y-99746486D01*
X131347597Y-99734571D01*
X131296122Y-99687327D01*
X131284378Y-99661612D01*
X131238418Y-99520164D01*
X131149095Y-99344856D01*
X131093922Y-99268919D01*
X131093922Y-99268918D01*
X130548018Y-99814821D01*
X130545925Y-99807007D01*
X130480099Y-99692993D01*
X130387007Y-99599901D01*
X130272993Y-99534075D01*
X130265177Y-99531980D01*
X130811080Y-98986077D01*
X130811079Y-98986076D01*
X130735143Y-98930904D01*
X130559835Y-98841581D01*
X130372705Y-98780778D01*
X130178382Y-98750000D01*
X129981618Y-98750000D01*
X129787294Y-98780778D01*
X129600164Y-98841581D01*
X129424855Y-98930905D01*
X129424846Y-98930911D01*
X129348919Y-98986075D01*
X129348918Y-98986076D01*
X129894823Y-99531980D01*
X129887007Y-99534075D01*
X129772993Y-99599901D01*
X129679901Y-99692993D01*
X129614075Y-99807007D01*
X129611980Y-99814822D01*
X129066076Y-99268918D01*
X129066075Y-99268919D01*
X129010911Y-99344846D01*
X129010905Y-99344855D01*
X128920485Y-99522315D01*
X128872510Y-99573111D01*
X128804689Y-99589906D01*
X128738554Y-99567369D01*
X128699515Y-99522315D01*
X128609095Y-99344856D01*
X128553922Y-99268919D01*
X128553922Y-99268918D01*
X128008018Y-99814821D01*
X128005925Y-99807007D01*
X127940099Y-99692993D01*
X127847007Y-99599901D01*
X127732993Y-99534075D01*
X127725177Y-99531980D01*
X128271080Y-98986077D01*
X128271079Y-98986076D01*
X128195143Y-98930904D01*
X128019835Y-98841581D01*
X127832705Y-98780778D01*
X127638382Y-98750000D01*
X127441618Y-98750000D01*
X127247294Y-98780778D01*
X127060164Y-98841581D01*
X126884855Y-98930905D01*
X126884846Y-98930911D01*
X126808919Y-98986075D01*
X126808918Y-98986076D01*
X127354823Y-99531980D01*
X127347007Y-99534075D01*
X127232993Y-99599901D01*
X127139901Y-99692993D01*
X127074075Y-99807007D01*
X127071980Y-99814822D01*
X126526076Y-99268918D01*
X126526075Y-99268919D01*
X126470911Y-99344846D01*
X126470905Y-99344855D01*
X126380485Y-99522315D01*
X126332510Y-99573111D01*
X126264689Y-99589906D01*
X126198554Y-99567369D01*
X126159515Y-99522315D01*
X126069095Y-99344856D01*
X126013922Y-99268919D01*
X126013922Y-99268918D01*
X125468018Y-99814821D01*
X125465925Y-99807007D01*
X125400099Y-99692993D01*
X125307007Y-99599901D01*
X125192993Y-99534075D01*
X125185177Y-99531980D01*
X125731080Y-98986077D01*
X125731079Y-98986076D01*
X125655143Y-98930904D01*
X125479835Y-98841581D01*
X125292705Y-98780778D01*
X125098382Y-98750000D01*
X124901618Y-98750000D01*
X124707294Y-98780778D01*
X124520164Y-98841581D01*
X124344855Y-98930905D01*
X124344846Y-98930911D01*
X124268919Y-98986075D01*
X124268918Y-98986076D01*
X124814823Y-99531980D01*
X124807007Y-99534075D01*
X124692993Y-99599901D01*
X124599901Y-99692993D01*
X124534075Y-99807007D01*
X124531980Y-99814822D01*
X123986076Y-99268918D01*
X123986075Y-99268919D01*
X123930911Y-99344846D01*
X123930905Y-99344855D01*
X123840485Y-99522315D01*
X123792510Y-99573111D01*
X123724689Y-99589906D01*
X123658554Y-99567369D01*
X123619515Y-99522315D01*
X123529095Y-99344856D01*
X123473922Y-99268919D01*
X123473922Y-99268918D01*
X122928018Y-99814821D01*
X122925925Y-99807007D01*
X122860099Y-99692993D01*
X122767007Y-99599901D01*
X122652993Y-99534075D01*
X122645177Y-99531980D01*
X123191080Y-98986077D01*
X123191079Y-98986076D01*
X123115143Y-98930904D01*
X122939835Y-98841581D01*
X122752705Y-98780778D01*
X122558382Y-98750000D01*
X122361618Y-98750000D01*
X122167294Y-98780778D01*
X121980164Y-98841581D01*
X121804855Y-98930905D01*
X121804846Y-98930911D01*
X121728919Y-98986075D01*
X121728918Y-98986076D01*
X122274823Y-99531980D01*
X122267007Y-99534075D01*
X122152993Y-99599901D01*
X122059901Y-99692993D01*
X121994075Y-99807007D01*
X121991980Y-99814822D01*
X121446076Y-99268918D01*
X121446075Y-99268919D01*
X121390911Y-99344846D01*
X121390905Y-99344855D01*
X121300485Y-99522315D01*
X121252510Y-99573111D01*
X121184689Y-99589906D01*
X121118554Y-99567369D01*
X121079515Y-99522315D01*
X120989095Y-99344856D01*
X120933922Y-99268919D01*
X120933922Y-99268918D01*
X120388018Y-99814821D01*
X120385925Y-99807007D01*
X120320099Y-99692993D01*
X120227007Y-99599901D01*
X120112993Y-99534075D01*
X120105177Y-99531980D01*
X120651080Y-98986077D01*
X120651079Y-98986076D01*
X120575143Y-98930904D01*
X120399835Y-98841581D01*
X120212705Y-98780778D01*
X120018382Y-98750000D01*
X119821618Y-98750000D01*
X119627294Y-98780778D01*
X119440164Y-98841581D01*
X119264855Y-98930905D01*
X119264846Y-98930911D01*
X119188919Y-98986075D01*
X119188918Y-98986076D01*
X119734823Y-99531980D01*
X119727007Y-99534075D01*
X119612993Y-99599901D01*
X119519901Y-99692993D01*
X119454075Y-99807007D01*
X119451980Y-99814822D01*
X118906076Y-99268918D01*
X118906075Y-99268919D01*
X118850911Y-99344846D01*
X118850905Y-99344855D01*
X118760485Y-99522315D01*
X118712510Y-99573111D01*
X118644689Y-99589906D01*
X118578554Y-99567369D01*
X118539515Y-99522315D01*
X118449095Y-99344856D01*
X118393922Y-99268919D01*
X118393922Y-99268918D01*
X117848018Y-99814821D01*
X117845925Y-99807007D01*
X117780099Y-99692993D01*
X117687007Y-99599901D01*
X117572993Y-99534075D01*
X117565177Y-99531980D01*
X118111080Y-98986077D01*
X118111079Y-98986076D01*
X118035143Y-98930904D01*
X117859835Y-98841581D01*
X117672705Y-98780778D01*
X117478382Y-98750000D01*
X117281618Y-98750000D01*
X117087294Y-98780778D01*
X116900164Y-98841581D01*
X116724855Y-98930905D01*
X116724846Y-98930911D01*
X116648919Y-98986075D01*
X116648918Y-98986076D01*
X117194823Y-99531980D01*
X117187007Y-99534075D01*
X117072993Y-99599901D01*
X116979901Y-99692993D01*
X116914075Y-99807007D01*
X116911980Y-99814822D01*
X116366076Y-99268918D01*
X116366075Y-99268919D01*
X116310911Y-99344846D01*
X116310905Y-99344855D01*
X116220485Y-99522315D01*
X116172510Y-99573111D01*
X116104689Y-99589906D01*
X116038554Y-99567369D01*
X115999515Y-99522315D01*
X115909095Y-99344856D01*
X115853922Y-99268919D01*
X115853922Y-99268918D01*
X115308018Y-99814821D01*
X115305925Y-99807007D01*
X115240099Y-99692993D01*
X115147007Y-99599901D01*
X115032993Y-99534075D01*
X115025177Y-99531980D01*
X115571080Y-98986077D01*
X115571079Y-98986076D01*
X115495143Y-98930904D01*
X115319835Y-98841581D01*
X115132705Y-98780778D01*
X114938382Y-98750000D01*
X114741618Y-98750000D01*
X114547294Y-98780778D01*
X114360164Y-98841581D01*
X114184855Y-98930905D01*
X114184846Y-98930911D01*
X114108919Y-98986075D01*
X114108918Y-98986076D01*
X114654823Y-99531980D01*
X114647007Y-99534075D01*
X114532993Y-99599901D01*
X114439901Y-99692993D01*
X114374075Y-99807007D01*
X114371980Y-99814822D01*
X113826076Y-99268918D01*
X113826075Y-99268919D01*
X113770911Y-99344846D01*
X113770905Y-99344855D01*
X113680485Y-99522315D01*
X113632510Y-99573111D01*
X113564689Y-99589906D01*
X113498554Y-99567369D01*
X113459515Y-99522315D01*
X113369095Y-99344856D01*
X113313922Y-99268919D01*
X113313922Y-99268918D01*
X112768018Y-99814821D01*
X112765925Y-99807007D01*
X112700099Y-99692993D01*
X112607007Y-99599901D01*
X112492993Y-99534075D01*
X112485177Y-99531980D01*
X113031080Y-98986077D01*
X113031079Y-98986076D01*
X112955143Y-98930904D01*
X112779835Y-98841581D01*
X112592705Y-98780778D01*
X112398382Y-98750000D01*
X112201618Y-98750000D01*
X112007294Y-98780778D01*
X111820164Y-98841581D01*
X111644855Y-98930905D01*
X111644846Y-98930911D01*
X111568919Y-98986075D01*
X111568918Y-98986076D01*
X112114823Y-99531980D01*
X112107007Y-99534075D01*
X111992993Y-99599901D01*
X111899901Y-99692993D01*
X111834075Y-99807007D01*
X111831980Y-99814822D01*
X111286076Y-99268918D01*
X111286075Y-99268919D01*
X111230911Y-99344846D01*
X111230905Y-99344855D01*
X111140485Y-99522315D01*
X111092510Y-99573111D01*
X111024689Y-99589906D01*
X110958554Y-99567369D01*
X110919515Y-99522315D01*
X110829095Y-99344856D01*
X110773922Y-99268919D01*
X110773922Y-99268918D01*
X110228018Y-99814821D01*
X110225925Y-99807007D01*
X110160099Y-99692993D01*
X110067007Y-99599901D01*
X109952993Y-99534075D01*
X109945177Y-99531980D01*
X110491080Y-98986077D01*
X110491079Y-98986076D01*
X110415143Y-98930904D01*
X110239835Y-98841581D01*
X110052705Y-98780778D01*
X109858382Y-98750000D01*
X109661618Y-98750000D01*
X109467294Y-98780778D01*
X109280164Y-98841581D01*
X109104855Y-98930905D01*
X109104846Y-98930911D01*
X109028919Y-98986075D01*
X109028918Y-98986076D01*
X109574823Y-99531980D01*
X109567007Y-99534075D01*
X109452993Y-99599901D01*
X109359901Y-99692993D01*
X109294075Y-99807007D01*
X109291980Y-99814822D01*
X108746076Y-99268918D01*
X108746075Y-99268919D01*
X108690911Y-99344846D01*
X108690905Y-99344855D01*
X108600485Y-99522315D01*
X108552510Y-99573111D01*
X108484689Y-99589906D01*
X108418554Y-99567369D01*
X108379515Y-99522315D01*
X108289095Y-99344856D01*
X108233922Y-99268919D01*
X108233922Y-99268918D01*
X107688018Y-99814821D01*
X107685925Y-99807007D01*
X107620099Y-99692993D01*
X107527007Y-99599901D01*
X107412993Y-99534075D01*
X107405177Y-99531980D01*
X107951080Y-98986077D01*
X107951079Y-98986076D01*
X107875143Y-98930904D01*
X107699835Y-98841581D01*
X107512705Y-98780778D01*
X107318382Y-98750000D01*
X107121618Y-98750000D01*
X106927294Y-98780778D01*
X106740164Y-98841581D01*
X106564855Y-98930905D01*
X106564846Y-98930911D01*
X106488919Y-98986075D01*
X106488918Y-98986076D01*
X107034823Y-99531980D01*
X107027007Y-99534075D01*
X106912993Y-99599901D01*
X106819901Y-99692993D01*
X106754075Y-99807007D01*
X106751980Y-99814822D01*
X106206076Y-99268918D01*
X106206075Y-99268919D01*
X106150911Y-99344846D01*
X106150905Y-99344855D01*
X106060485Y-99522315D01*
X106012510Y-99573111D01*
X105944689Y-99589906D01*
X105878554Y-99567369D01*
X105839515Y-99522315D01*
X105749095Y-99344856D01*
X105693922Y-99268919D01*
X105693922Y-99268918D01*
X105148018Y-99814821D01*
X105145925Y-99807007D01*
X105080099Y-99692993D01*
X104987007Y-99599901D01*
X104872993Y-99534075D01*
X104865177Y-99531980D01*
X105411080Y-98986077D01*
X105411079Y-98986076D01*
X105335143Y-98930904D01*
X105159835Y-98841581D01*
X104972705Y-98780778D01*
X104778382Y-98750000D01*
X104581618Y-98750000D01*
X104387294Y-98780778D01*
X104200164Y-98841581D01*
X104024855Y-98930905D01*
X104024846Y-98930911D01*
X103948919Y-98986075D01*
X103948918Y-98986076D01*
X104494823Y-99531980D01*
X104487007Y-99534075D01*
X104372993Y-99599901D01*
X104279901Y-99692993D01*
X104214075Y-99807007D01*
X104211980Y-99814822D01*
X103666076Y-99268918D01*
X103666075Y-99268919D01*
X103610911Y-99344846D01*
X103610905Y-99344855D01*
X103520485Y-99522315D01*
X103472510Y-99573111D01*
X103404689Y-99589906D01*
X103338554Y-99567369D01*
X103299515Y-99522315D01*
X103209095Y-99344856D01*
X103153922Y-99268919D01*
X103153922Y-99268918D01*
X102608018Y-99814821D01*
X102605925Y-99807007D01*
X102540099Y-99692993D01*
X102447007Y-99599901D01*
X102332993Y-99534075D01*
X102325177Y-99531980D01*
X102871080Y-98986077D01*
X102871079Y-98986076D01*
X102795143Y-98930904D01*
X102619835Y-98841581D01*
X102432705Y-98780778D01*
X102238382Y-98750000D01*
X102041618Y-98750000D01*
X101847294Y-98780778D01*
X101660164Y-98841581D01*
X101484855Y-98930905D01*
X101484846Y-98930911D01*
X101408919Y-98986075D01*
X101408918Y-98986076D01*
X101954823Y-99531980D01*
X101947007Y-99534075D01*
X101832993Y-99599901D01*
X101739901Y-99692993D01*
X101674075Y-99807007D01*
X101671980Y-99814822D01*
X101126076Y-99268918D01*
X101126075Y-99268919D01*
X101070911Y-99344846D01*
X101070905Y-99344855D01*
X100981581Y-99520164D01*
X100920778Y-99707294D01*
X100890000Y-99901617D01*
X95743469Y-99901617D01*
X95740770Y-93664554D01*
X95760426Y-93597506D01*
X95813210Y-93551728D01*
X95864770Y-93540500D01*
X173615500Y-93540500D01*
X173682539Y-93560185D01*
G37*
%TD.AperFunction*%
%TD*%
M02*
