M48
; DRILL file KiCad 10.0.3 date 2026-06-11T09:49:31
; FORMAT={-:-/ absolute / metric / decimal}
; #@! TF.CreationDate,2026-06-11T09:49:31+02:00
; #@! TF.GenerationSoftware,Kicad,Pcbnew,10.0.3
; #@! TF.FileFunction,MixedPlating,1,2
FMAT,2
METRIC
; #@! TA.AperFunction,Plated,PTH,ViaDrill
T1C0.400
; #@! TA.AperFunction,Plated,PTH,ComponentDrill
T2C1.000
%
G90
G05
T1
X153.483Y-114.997
X157.092Y-111.687
T2
X102.14Y-100.0
X102.14Y-102.54
X104.68Y-100.0
X104.68Y-102.54
X107.22Y-100.0
X107.22Y-102.54
X109.76Y-100.0
X109.76Y-102.54
X112.3Y-100.0
X112.3Y-102.54
X114.84Y-100.0
X114.84Y-102.54
X117.38Y-100.0
X117.38Y-102.54
X119.92Y-100.0
X119.92Y-102.54
X122.46Y-100.0
X122.46Y-102.54
X125.0Y-100.0
X125.0Y-102.54
X127.54Y-100.0
X127.54Y-102.54
X130.08Y-100.0
X130.08Y-102.54
X132.08Y-113.54
X132.08Y-116.08
X132.62Y-100.0
X132.62Y-102.54
X134.62Y-113.54
X134.62Y-116.08
X135.16Y-100.0
X135.16Y-102.54
X137.16Y-113.54
X137.16Y-116.08
X137.7Y-100.0
X137.7Y-102.54
X139.7Y-113.54
X139.7Y-116.08
X140.24Y-100.0
X140.24Y-102.54
X142.24Y-113.54
X142.24Y-116.08
X142.78Y-100.0
X142.78Y-102.54
X144.78Y-113.54
X144.78Y-116.08
X145.32Y-100.0
X145.32Y-102.54
X147.32Y-113.54
X147.32Y-116.08
X147.86Y-100.0
X147.86Y-102.54
X149.86Y-113.54
X149.86Y-116.08
X150.4Y-100.0
X150.4Y-102.54
X152.4Y-113.54
X152.4Y-116.08
X152.94Y-100.0
X152.94Y-102.54
X154.94Y-113.54
X154.94Y-116.08
X155.48Y-100.0
X155.48Y-102.54
X157.48Y-113.54
X157.48Y-116.08
X158.02Y-100.0
X158.02Y-102.54
X160.02Y-113.54
X160.02Y-116.08
X160.56Y-100.0
X160.56Y-102.54
X162.56Y-113.54
X162.56Y-116.08
X163.1Y-100.0
X163.1Y-102.54
M30
