%TF.GenerationSoftware,KiCad,Pcbnew,10.0.3*%
%TF.CreationDate,2026-06-03T00:01:12+02:00*%
%TF.ProjectId,dataflyer-2650,64617461-666c-4796-9572-2d323635302e,1.1*%
%TF.SameCoordinates,Original*%
%TF.FileFunction,Copper,L1,Top*%
%TF.FilePolarity,Positive*%
%FSLAX46Y46*%
G04 Gerber Fmt 4.6, Leading zero omitted, Abs format (unit mm)*
G04 Created by KiCad (PCBNEW 10.0.3) date 2026-06-03 00:01:12*
%MOMM*%
%LPD*%
G01*
G04 APERTURE LIST*
G04 Aperture macros list*
%AMRoundRect*
0 Rectangle with rounded corners*
0 $1 Rounding radius*
0 $2 $3 $4 $5 $6 $7 $8 $9 X,Y pos of 4 corners*
0 Add a 4 corners polygon primitive as box body*
4,1,4,$2,$3,$4,$5,$6,$7,$8,$9,$2,$3,0*
0 Add four circle primitives for the rounded corners*
1,1,$1+$1,$2,$3*
1,1,$1+$1,$4,$5*
1,1,$1+$1,$6,$7*
1,1,$1+$1,$8,$9*
0 Add four rect primitives between the rounded corners*
20,1,$1+$1,$2,$3,$4,$5,0*
20,1,$1+$1,$4,$5,$6,$7,0*
20,1,$1+$1,$6,$7,$8,$9,0*
20,1,$1+$1,$8,$9,$2,$3,0*%
G04 Aperture macros list end*
%TA.AperFunction,ComponentPad*%
%ADD10RoundRect,0.250000X0.600000X-0.600000X0.600000X0.600000X-0.600000X0.600000X-0.600000X-0.600000X0*%
%TD*%
%TA.AperFunction,ComponentPad*%
%ADD11C,1.700000*%
%TD*%
%TA.AperFunction,ComponentPad*%
%ADD12R,1.700000X1.700000*%
%TD*%
%TA.AperFunction,ViaPad*%
%ADD13C,0.800000*%
%TD*%
%TA.AperFunction,Conductor*%
%ADD14C,0.250000*%
%TD*%
G04 APERTURE END LIST*
D10*
%TO.P,J2,1,Pin_1_1*%
%TO.N,GND*%
X70540000Y-126040000D03*
D11*
%TO.P,J2,2,Pin_2_2*%
%TO.N,DB0*%
X70540000Y-123500000D03*
%TO.P,J2,3,Pin_3_3*%
%TO.N,GND*%
X73080000Y-126040000D03*
%TO.P,J2,4,Pin_4_4*%
%TO.N,DB1*%
X73080000Y-123500000D03*
%TO.P,J2,5,Pin_5_5*%
%TO.N,GND*%
X75620000Y-126040000D03*
%TO.P,J2,6,Pin_6_6*%
%TO.N,DB2*%
X75620000Y-123500000D03*
%TO.P,J2,7,Pin_7_7*%
%TO.N,GND*%
X78160000Y-126040000D03*
%TO.P,J2,8,Pin_8_8*%
%TO.N,DB3*%
X78160000Y-123500000D03*
%TO.P,J2,9,Pin_9_9*%
%TO.N,GND*%
X80700000Y-126040000D03*
%TO.P,J2,10,Pin_10_10*%
%TO.N,DB4*%
X80700000Y-123500000D03*
%TO.P,J2,11,Pin_11_11*%
%TO.N,GND*%
X83240000Y-126040000D03*
%TO.P,J2,12,Pin_12_12*%
%TO.N,DB5*%
X83240000Y-123500000D03*
%TO.P,J2,13,Pin_13_13*%
%TO.N,GND*%
X85780000Y-126040000D03*
%TO.P,J2,14,Pin_14_14*%
%TO.N,DB6*%
X85780000Y-123500000D03*
%TO.P,J2,15,Pin_15_15*%
%TO.N,GND*%
X88320000Y-126040000D03*
%TO.P,J2,16,Pin_16_16*%
%TO.N,DB7*%
X88320000Y-123500000D03*
%TO.P,J2,17,Pin_17_17*%
%TO.N,GND*%
X90860000Y-126040000D03*
%TO.P,J2,18,Pin_18_18*%
%TO.N,DBP*%
X90860000Y-123500000D03*
%TO.P,J2,19,Pin_19_19*%
%TO.N,GND*%
X93400000Y-126040000D03*
%TO.P,J2,20,Pin_20_20*%
X93400000Y-123500000D03*
%TO.P,J2,21,Pin_21_21*%
X95940000Y-126040000D03*
%TO.P,J2,22,Pin_22_22*%
X95940000Y-123500000D03*
%TO.P,J2,23,Pin_23_23*%
X98480000Y-126040000D03*
%TO.P,J2,24,Pin_24_24*%
X98480000Y-123500000D03*
%TO.P,J2,25,Pin_25_25*%
%TO.N,unconnected-(J2-Pin_25-Pad25)*%
X101020000Y-126040000D03*
%TO.P,J2,26,Pin_26_26*%
%TO.N,TERMPWR*%
X101020000Y-123500000D03*
%TO.P,J2,27,Pin_27_27*%
%TO.N,GND*%
X103560000Y-126040000D03*
%TO.P,J2,28,Pin_28_28*%
X103560000Y-123500000D03*
%TO.P,J2,29,Pin_29_29*%
X106100000Y-126040000D03*
%TO.P,J2,30,Pin_30_30*%
X106100000Y-123500000D03*
%TO.P,J2,31,Pin_31_31*%
X108640000Y-126040000D03*
%TO.P,J2,32,Pin_32_32*%
%TO.N,ATN*%
X108640000Y-123500000D03*
%TO.P,J2,33,Pin_33_33*%
%TO.N,GND*%
X111180000Y-126040000D03*
%TO.P,J2,34,Pin_34_34*%
%TO.N,unconnected-(J2-Pin_34-Pad34)*%
X111180000Y-123500000D03*
%TO.P,J2,35,Pin_35_35*%
%TO.N,GND*%
X113720000Y-126040000D03*
%TO.P,J2,36,Pin_36_36*%
%TO.N,BSY*%
X113720000Y-123500000D03*
%TO.P,J2,37,Pin_37_37*%
%TO.N,GND*%
X116260000Y-126040000D03*
%TO.P,J2,38,Pin_38_38*%
%TO.N,ACK*%
X116260000Y-123500000D03*
%TO.P,J2,39,Pin_39_39*%
%TO.N,GND*%
X118800000Y-126040000D03*
%TO.P,J2,40,Pin_40_40*%
%TO.N,RST*%
X118800000Y-123500000D03*
%TO.P,J2,41,Pin_41_41*%
%TO.N,GND*%
X121340000Y-126040000D03*
%TO.P,J2,42,Pin_42_42*%
%TO.N,MSG*%
X121340000Y-123500000D03*
%TO.P,J2,43,Pin_43_43*%
%TO.N,GND*%
X123880000Y-126040000D03*
%TO.P,J2,44,Pin_44_44*%
%TO.N,SEL*%
X123880000Y-123500000D03*
%TO.P,J2,45,Pin_45_45*%
%TO.N,GND*%
X126420000Y-126040000D03*
%TO.P,J2,46,Pin_46_46*%
%TO.N,CD*%
X126420000Y-123500000D03*
%TO.P,J2,47,Pin_47_47*%
%TO.N,GND*%
X128960000Y-126040000D03*
%TO.P,J2,48,Pin_48_48*%
%TO.N,REQ*%
X128960000Y-123500000D03*
%TO.P,J2,49,Pin_49_49*%
%TO.N,GND*%
X131500000Y-126040000D03*
%TO.P,J2,50,Pin_50_50*%
%TO.N,IO*%
X131500000Y-123500000D03*
%TD*%
D12*
%TO.P,J1,1,Pin_1_1*%
%TO.N,REQ*%
X135540000Y-105500000D03*
D11*
%TO.P,J1,2,Pin_2_2*%
%TO.N,GND*%
X135540000Y-108040000D03*
%TO.P,J1,3,Pin_3_3*%
%TO.N,MSG*%
X133000000Y-105500000D03*
%TO.P,J1,4,Pin_4_4*%
%TO.N,CD*%
X133000000Y-108040000D03*
%TO.P,J1,5,Pin_5_5*%
%TO.N,IO*%
X130460000Y-105500000D03*
%TO.P,J1,6,Pin_6_6*%
%TO.N,GND*%
X130460000Y-108040000D03*
%TO.P,J1,7,Pin_7_7*%
%TO.N,RST*%
X127920000Y-105500000D03*
%TO.P,J1,8,Pin_8_8*%
%TO.N,ATN*%
X127920000Y-108040000D03*
%TO.P,J1,9,Pin_9_9*%
%TO.N,ACK*%
X125380000Y-105500000D03*
%TO.P,J1,10,Pin_10_10*%
%TO.N,GND*%
X125380000Y-108040000D03*
%TO.P,J1,11,Pin_11_11*%
%TO.N,BSY*%
X122840000Y-105500000D03*
%TO.P,J1,12,Pin_12_12*%
%TO.N,SEL*%
X122840000Y-108040000D03*
%TO.P,J1,13,Pin_13_13*%
%TO.N,GND*%
X120300000Y-105500000D03*
%TO.P,J1,14,Pin_14_14*%
%TO.N,DBP*%
X120300000Y-108040000D03*
%TO.P,J1,15,Pin_15_15*%
%TO.N,DB0*%
X117760000Y-105500000D03*
%TO.P,J1,16,Pin_16_16*%
%TO.N,DB1*%
X117760000Y-108040000D03*
%TO.P,J1,17,Pin_17_17*%
%TO.N,GND*%
X115220000Y-105500000D03*
%TO.P,J1,18,Pin_18_18*%
%TO.N,DB2*%
X115220000Y-108040000D03*
%TO.P,J1,19,Pin_19_19*%
%TO.N,DB3*%
X112680000Y-105500000D03*
%TO.P,J1,20,Pin_20_20*%
%TO.N,DB4*%
X112680000Y-108040000D03*
%TO.P,J1,21,Pin_21_21*%
%TO.N,DB5*%
X110140000Y-105500000D03*
%TO.P,J1,22,Pin_22_22*%
%TO.N,GND*%
X110140000Y-108040000D03*
%TO.P,J1,23,Pin_23_23*%
%TO.N,DB6*%
X107600000Y-105500000D03*
%TO.P,J1,24,Pin_24_24*%
%TO.N,TERMPWR*%
X107600000Y-108040000D03*
%TO.P,J1,25,Pin_25_25*%
%TO.N,DB7*%
X105060000Y-105500000D03*
%TO.P,J1,26,Pin_26_26*%
%TO.N,GND*%
X105060000Y-108040000D03*
%TD*%
D13*
%TO.N,RST*%
X124691500Y-121239300D03*
%TD*%
%TO.N,DB2*%
D14*
X75620000Y-123500000D02*
X89272800Y-109847200D01*
X89272800Y-109847200D02*
X113412800Y-109847200D01*
X113412800Y-109847200D02*
X115220000Y-108040000D01*
%TO.N,DBP*%
X90860000Y-123500000D02*
X103749000Y-110611000D01*
X103749000Y-110611000D02*
X117729000Y-110611000D01*
X117729000Y-110611000D02*
X120300000Y-108040000D01*
%TO.N,RST*%
X121060700Y-121239300D02*
X124691500Y-121239300D01*
X118800000Y-123500000D02*
X121060700Y-121239300D01*
%TO.N,MSG*%
X133000000Y-105500000D02*
X131765400Y-106734600D01*
X122558700Y-122281300D02*
X121340000Y-123500000D01*
X131765400Y-115273600D02*
X124757700Y-122281300D01*
X131765400Y-106734600D02*
X131765400Y-115273600D01*
X124757700Y-122281300D02*
X122558700Y-122281300D01*
%TD*%
%TA.AperFunction,Conductor*%
%TO.N,GND*%
G36*
X136942539Y-100520185D02*
G01*
X136988294Y-100572989D01*
X136999500Y-100624500D01*
X136999500Y-107703889D01*
X136979815Y-107770928D01*
X136927011Y-107816683D01*
X136857853Y-107826627D01*
X136794297Y-107797602D01*
X136757569Y-107742208D01*
X136698417Y-107560162D01*
X136609095Y-107384856D01*
X136553922Y-107308919D01*
X136553922Y-107308918D01*
X136008018Y-107854821D01*
X136005925Y-107847007D01*
X135940099Y-107732993D01*
X135847007Y-107639901D01*
X135732993Y-107574075D01*
X135725177Y-107571980D01*
X136271080Y-107026077D01*
X136271079Y-107026076D01*
X136195143Y-106970904D01*
X136026514Y-106884984D01*
X135975718Y-106837010D01*
X135958923Y-106769189D01*
X135981460Y-106703054D01*
X136036175Y-106659602D01*
X136082807Y-106650499D01*
X136434864Y-106650499D01*
X136434879Y-106650497D01*
X136434882Y-106650497D01*
X136459987Y-106647586D01*
X136459988Y-106647585D01*
X136459991Y-106647585D01*
X136562765Y-106602206D01*
X136642206Y-106522765D01*
X136687585Y-106419991D01*
X136690500Y-106394865D01*
X136690499Y-104605136D01*
X136690497Y-104605117D01*
X136687586Y-104580012D01*
X136687585Y-104580010D01*
X136687585Y-104580009D01*
X136642206Y-104477235D01*
X136562765Y-104397794D01*
X136562763Y-104397793D01*
X136459992Y-104352415D01*
X136434865Y-104349500D01*
X134645143Y-104349500D01*
X134645117Y-104349502D01*
X134620012Y-104352413D01*
X134620008Y-104352415D01*
X134517235Y-104397793D01*
X134437794Y-104477234D01*
X134392415Y-104580006D01*
X134392415Y-104580008D01*
X134389500Y-104605131D01*
X134389500Y-105342871D01*
X134369815Y-105409910D01*
X134317011Y-105455665D01*
X134247853Y-105465609D01*
X134184297Y-105436584D01*
X134146523Y-105377806D01*
X134143027Y-105362269D01*
X134134274Y-105307007D01*
X134122171Y-105230591D01*
X134066211Y-105058361D01*
X134066211Y-105058360D01*
X134036474Y-105000000D01*
X133983996Y-104897006D01*
X133890936Y-104768919D01*
X133877558Y-104750505D01*
X133877554Y-104750500D01*
X133749499Y-104622445D01*
X133749494Y-104622441D01*
X133602997Y-104516006D01*
X133602996Y-104516005D01*
X133602994Y-104516004D01*
X133544257Y-104486076D01*
X133441639Y-104433788D01*
X133441636Y-104433787D01*
X133269410Y-104377829D01*
X133090551Y-104349500D01*
X133090546Y-104349500D01*
X132909454Y-104349500D01*
X132909449Y-104349500D01*
X132730589Y-104377829D01*
X132558363Y-104433787D01*
X132558360Y-104433788D01*
X132397002Y-104516006D01*
X132250505Y-104622441D01*
X132250500Y-104622445D01*
X132122445Y-104750500D01*
X132122441Y-104750505D01*
X132016006Y-104897002D01*
X131933788Y-105058360D01*
X131933787Y-105058363D01*
X131877829Y-105230589D01*
X131852473Y-105390678D01*
X131822544Y-105453813D01*
X131763232Y-105490744D01*
X131693369Y-105489746D01*
X131635137Y-105451136D01*
X131607527Y-105390678D01*
X131593740Y-105303639D01*
X131582171Y-105230591D01*
X131526211Y-105058361D01*
X131526211Y-105058360D01*
X131496474Y-105000000D01*
X131443996Y-104897006D01*
X131350936Y-104768919D01*
X131337558Y-104750505D01*
X131337554Y-104750500D01*
X131209499Y-104622445D01*
X131209494Y-104622441D01*
X131062997Y-104516006D01*
X131062996Y-104516005D01*
X131062994Y-104516004D01*
X131004257Y-104486076D01*
X130901639Y-104433788D01*
X130901636Y-104433787D01*
X130729410Y-104377829D01*
X130550551Y-104349500D01*
X130550546Y-104349500D01*
X130369454Y-104349500D01*
X130369449Y-104349500D01*
X130190589Y-104377829D01*
X130018363Y-104433787D01*
X130018360Y-104433788D01*
X129857002Y-104516006D01*
X129710505Y-104622441D01*
X129710500Y-104622445D01*
X129582445Y-104750500D01*
X129582441Y-104750505D01*
X129476006Y-104897002D01*
X129393788Y-105058360D01*
X129393787Y-105058363D01*
X129337829Y-105230589D01*
X129312473Y-105390678D01*
X129282544Y-105453813D01*
X129223232Y-105490744D01*
X129153369Y-105489746D01*
X129095137Y-105451136D01*
X129067527Y-105390678D01*
X129053740Y-105303639D01*
X129042171Y-105230591D01*
X128986211Y-105058361D01*
X128986211Y-105058360D01*
X128956474Y-105000000D01*
X128903996Y-104897006D01*
X128810936Y-104768919D01*
X128797558Y-104750505D01*
X128797554Y-104750500D01*
X128669499Y-104622445D01*
X128669494Y-104622441D01*
X128522997Y-104516006D01*
X128522996Y-104516005D01*
X128522994Y-104516004D01*
X128464257Y-104486076D01*
X128361639Y-104433788D01*
X128361636Y-104433787D01*
X128189410Y-104377829D01*
X128010551Y-104349500D01*
X128010546Y-104349500D01*
X127829454Y-104349500D01*
X127829449Y-104349500D01*
X127650589Y-104377829D01*
X127478363Y-104433787D01*
X127478360Y-104433788D01*
X127317002Y-104516006D01*
X127170505Y-104622441D01*
X127170500Y-104622445D01*
X127042445Y-104750500D01*
X127042441Y-104750505D01*
X126936006Y-104897002D01*
X126853788Y-105058360D01*
X126853787Y-105058363D01*
X126797829Y-105230589D01*
X126772473Y-105390678D01*
X126742544Y-105453813D01*
X126683232Y-105490744D01*
X126613369Y-105489746D01*
X126555137Y-105451136D01*
X126527527Y-105390678D01*
X126513740Y-105303639D01*
X126502171Y-105230591D01*
X126446211Y-105058361D01*
X126446211Y-105058360D01*
X126416474Y-105000000D01*
X126363996Y-104897006D01*
X126270936Y-104768919D01*
X126257558Y-104750505D01*
X126257554Y-104750500D01*
X126129499Y-104622445D01*
X126129494Y-104622441D01*
X125982997Y-104516006D01*
X125982996Y-104516005D01*
X125982994Y-104516004D01*
X125924257Y-104486076D01*
X125821639Y-104433788D01*
X125821636Y-104433787D01*
X125649410Y-104377829D01*
X125470551Y-104349500D01*
X125470546Y-104349500D01*
X125289454Y-104349500D01*
X125289449Y-104349500D01*
X125110589Y-104377829D01*
X124938363Y-104433787D01*
X124938360Y-104433788D01*
X124777002Y-104516006D01*
X124630505Y-104622441D01*
X124630500Y-104622445D01*
X124502445Y-104750500D01*
X124502441Y-104750505D01*
X124396006Y-104897002D01*
X124313788Y-105058360D01*
X124313787Y-105058363D01*
X124257829Y-105230589D01*
X124232473Y-105390678D01*
X124202544Y-105453813D01*
X124143232Y-105490744D01*
X124073369Y-105489746D01*
X124015137Y-105451136D01*
X123987527Y-105390678D01*
X123973740Y-105303639D01*
X123962171Y-105230591D01*
X123906211Y-105058361D01*
X123906211Y-105058360D01*
X123876474Y-105000000D01*
X123823996Y-104897006D01*
X123730936Y-104768919D01*
X123717558Y-104750505D01*
X123717554Y-104750500D01*
X123589499Y-104622445D01*
X123589494Y-104622441D01*
X123442997Y-104516006D01*
X123442996Y-104516005D01*
X123442994Y-104516004D01*
X123384257Y-104486076D01*
X123281639Y-104433788D01*
X123281636Y-104433787D01*
X123109410Y-104377829D01*
X122930551Y-104349500D01*
X122930546Y-104349500D01*
X122749454Y-104349500D01*
X122749449Y-104349500D01*
X122570589Y-104377829D01*
X122398363Y-104433787D01*
X122398360Y-104433788D01*
X122237002Y-104516006D01*
X122090505Y-104622441D01*
X122090500Y-104622445D01*
X121962445Y-104750500D01*
X121962441Y-104750505D01*
X121856006Y-104897002D01*
X121773788Y-105058360D01*
X121773787Y-105058363D01*
X121740240Y-105161612D01*
X121700802Y-105219288D01*
X121636444Y-105246486D01*
X121567597Y-105234571D01*
X121516122Y-105187327D01*
X121504378Y-105161612D01*
X121458418Y-105020164D01*
X121369095Y-104844856D01*
X121313922Y-104768919D01*
X121313922Y-104768918D01*
X120768018Y-105314821D01*
X120765925Y-105307007D01*
X120700099Y-105192993D01*
X120607007Y-105099901D01*
X120492993Y-105034075D01*
X120485177Y-105031980D01*
X121031080Y-104486077D01*
X121031079Y-104486076D01*
X120955143Y-104430904D01*
X120779835Y-104341581D01*
X120592705Y-104280778D01*
X120398382Y-104250000D01*
X120201618Y-104250000D01*
X120007294Y-104280778D01*
X119820164Y-104341581D01*
X119644855Y-104430905D01*
X119644846Y-104430911D01*
X119568919Y-104486075D01*
X119568918Y-104486076D01*
X120114823Y-105031980D01*
X120107007Y-105034075D01*
X119992993Y-105099901D01*
X119899901Y-105192993D01*
X119834075Y-105307007D01*
X119831980Y-105314822D01*
X119286076Y-104768918D01*
X119286075Y-104768919D01*
X119230911Y-104844846D01*
X119230905Y-104844855D01*
X119141581Y-105020162D01*
X119095621Y-105161613D01*
X119056183Y-105219288D01*
X118991824Y-105246486D01*
X118922978Y-105234571D01*
X118871502Y-105187327D01*
X118859759Y-105161611D01*
X118826213Y-105058366D01*
X118826211Y-105058360D01*
X118796474Y-105000000D01*
X118743996Y-104897006D01*
X118650936Y-104768919D01*
X118637558Y-104750505D01*
X118637554Y-104750500D01*
X118509499Y-104622445D01*
X118509494Y-104622441D01*
X118362997Y-104516006D01*
X118362996Y-104516005D01*
X118362994Y-104516004D01*
X118304257Y-104486076D01*
X118201639Y-104433788D01*
X118201636Y-104433787D01*
X118029410Y-104377829D01*
X117850551Y-104349500D01*
X117850546Y-104349500D01*
X117669454Y-104349500D01*
X117669449Y-104349500D01*
X117490589Y-104377829D01*
X117318363Y-104433787D01*
X117318360Y-104433788D01*
X117157002Y-104516006D01*
X117010505Y-104622441D01*
X117010500Y-104622445D01*
X116882445Y-104750500D01*
X116882441Y-104750505D01*
X116776006Y-104897002D01*
X116693788Y-105058360D01*
X116693787Y-105058363D01*
X116660240Y-105161612D01*
X116620802Y-105219288D01*
X116556444Y-105246486D01*
X116487597Y-105234571D01*
X116436122Y-105187327D01*
X116424378Y-105161612D01*
X116378418Y-105020164D01*
X116289095Y-104844856D01*
X116233922Y-104768919D01*
X116233922Y-104768918D01*
X115688018Y-105314821D01*
X115685925Y-105307007D01*
X115620099Y-105192993D01*
X115527007Y-105099901D01*
X115412993Y-105034075D01*
X115405177Y-105031980D01*
X115951080Y-104486077D01*
X115951079Y-104486076D01*
X115875143Y-104430904D01*
X115699835Y-104341581D01*
X115512705Y-104280778D01*
X115318382Y-104250000D01*
X115121618Y-104250000D01*
X114927294Y-104280778D01*
X114740164Y-104341581D01*
X114564855Y-104430905D01*
X114564846Y-104430911D01*
X114488919Y-104486075D01*
X114488918Y-104486076D01*
X115034823Y-105031980D01*
X115027007Y-105034075D01*
X114912993Y-105099901D01*
X114819901Y-105192993D01*
X114754075Y-105307007D01*
X114751980Y-105314822D01*
X114206076Y-104768918D01*
X114206075Y-104768919D01*
X114150911Y-104844846D01*
X114150905Y-104844855D01*
X114061581Y-105020162D01*
X114015621Y-105161613D01*
X113976183Y-105219288D01*
X113911824Y-105246486D01*
X113842978Y-105234571D01*
X113791502Y-105187327D01*
X113779759Y-105161611D01*
X113746213Y-105058366D01*
X113746211Y-105058360D01*
X113716474Y-105000000D01*
X113663996Y-104897006D01*
X113570936Y-104768919D01*
X113557558Y-104750505D01*
X113557554Y-104750500D01*
X113429499Y-104622445D01*
X113429494Y-104622441D01*
X113282997Y-104516006D01*
X113282996Y-104516005D01*
X113282994Y-104516004D01*
X113224257Y-104486076D01*
X113121639Y-104433788D01*
X113121636Y-104433787D01*
X112949410Y-104377829D01*
X112770551Y-104349500D01*
X112770546Y-104349500D01*
X112589454Y-104349500D01*
X112589449Y-104349500D01*
X112410589Y-104377829D01*
X112238363Y-104433787D01*
X112238360Y-104433788D01*
X112077002Y-104516006D01*
X111930505Y-104622441D01*
X111930500Y-104622445D01*
X111802445Y-104750500D01*
X111802441Y-104750505D01*
X111696006Y-104897002D01*
X111613788Y-105058360D01*
X111613787Y-105058363D01*
X111557829Y-105230589D01*
X111532473Y-105390678D01*
X111502544Y-105453813D01*
X111443232Y-105490744D01*
X111373369Y-105489746D01*
X111315137Y-105451136D01*
X111287527Y-105390678D01*
X111273740Y-105303639D01*
X111262171Y-105230591D01*
X111206211Y-105058361D01*
X111206211Y-105058360D01*
X111176474Y-105000000D01*
X111123996Y-104897006D01*
X111030936Y-104768919D01*
X111017558Y-104750505D01*
X111017554Y-104750500D01*
X110889499Y-104622445D01*
X110889494Y-104622441D01*
X110742997Y-104516006D01*
X110742996Y-104516005D01*
X110742994Y-104516004D01*
X110684257Y-104486076D01*
X110581639Y-104433788D01*
X110581636Y-104433787D01*
X110409410Y-104377829D01*
X110230551Y-104349500D01*
X110230546Y-104349500D01*
X110049454Y-104349500D01*
X110049449Y-104349500D01*
X109870589Y-104377829D01*
X109698363Y-104433787D01*
X109698360Y-104433788D01*
X109537002Y-104516006D01*
X109390505Y-104622441D01*
X109390500Y-104622445D01*
X109262445Y-104750500D01*
X109262441Y-104750505D01*
X109156006Y-104897002D01*
X109073788Y-105058360D01*
X109073787Y-105058363D01*
X109017829Y-105230589D01*
X108992473Y-105390678D01*
X108962544Y-105453813D01*
X108903232Y-105490744D01*
X108833369Y-105489746D01*
X108775137Y-105451136D01*
X108747527Y-105390678D01*
X108733740Y-105303639D01*
X108722171Y-105230591D01*
X108666211Y-105058361D01*
X108666211Y-105058360D01*
X108636474Y-105000000D01*
X108583996Y-104897006D01*
X108490936Y-104768919D01*
X108477558Y-104750505D01*
X108477554Y-104750500D01*
X108349499Y-104622445D01*
X108349494Y-104622441D01*
X108202997Y-104516006D01*
X108202996Y-104516005D01*
X108202994Y-104516004D01*
X108144257Y-104486076D01*
X108041639Y-104433788D01*
X108041636Y-104433787D01*
X107869410Y-104377829D01*
X107690551Y-104349500D01*
X107690546Y-104349500D01*
X107509454Y-104349500D01*
X107509449Y-104349500D01*
X107330589Y-104377829D01*
X107158363Y-104433787D01*
X107158360Y-104433788D01*
X106997002Y-104516006D01*
X106850505Y-104622441D01*
X106850500Y-104622445D01*
X106722445Y-104750500D01*
X106722441Y-104750505D01*
X106616006Y-104897002D01*
X106533788Y-105058360D01*
X106533787Y-105058363D01*
X106477829Y-105230589D01*
X106452473Y-105390678D01*
X106422544Y-105453813D01*
X106363232Y-105490744D01*
X106293369Y-105489746D01*
X106235137Y-105451136D01*
X106207527Y-105390678D01*
X106193740Y-105303639D01*
X106182171Y-105230591D01*
X106126211Y-105058361D01*
X106126211Y-105058360D01*
X106096474Y-105000000D01*
X106043996Y-104897006D01*
X105950936Y-104768919D01*
X105937558Y-104750505D01*
X105937554Y-104750500D01*
X105809499Y-104622445D01*
X105809494Y-104622441D01*
X105662997Y-104516006D01*
X105662996Y-104516005D01*
X105662994Y-104516004D01*
X105604257Y-104486076D01*
X105501639Y-104433788D01*
X105501636Y-104433787D01*
X105329410Y-104377829D01*
X105150551Y-104349500D01*
X105150546Y-104349500D01*
X104969454Y-104349500D01*
X104969449Y-104349500D01*
X104790589Y-104377829D01*
X104618363Y-104433787D01*
X104618360Y-104433788D01*
X104457002Y-104516006D01*
X104310505Y-104622441D01*
X104310500Y-104622445D01*
X104182445Y-104750500D01*
X104182441Y-104750505D01*
X104076006Y-104897002D01*
X103993788Y-105058360D01*
X103993787Y-105058363D01*
X103937829Y-105230589D01*
X103909500Y-105409448D01*
X103909500Y-105590551D01*
X103937829Y-105769410D01*
X103993787Y-105941636D01*
X103993788Y-105941639D01*
X104076006Y-106102997D01*
X104182441Y-106249494D01*
X104182445Y-106249499D01*
X104310500Y-106377554D01*
X104310505Y-106377558D01*
X104374564Y-106424099D01*
X104457006Y-106483996D01*
X104533094Y-106522765D01*
X104618360Y-106566211D01*
X104618366Y-106566213D01*
X104721611Y-106599759D01*
X104779287Y-106639196D01*
X104806486Y-106703554D01*
X104794572Y-106772401D01*
X104747328Y-106823877D01*
X104721613Y-106835621D01*
X104580162Y-106881581D01*
X104404855Y-106970905D01*
X104404846Y-106970911D01*
X104328919Y-107026075D01*
X104328918Y-107026076D01*
X104874823Y-107571980D01*
X104867007Y-107574075D01*
X104752993Y-107639901D01*
X104659901Y-107732993D01*
X104594075Y-107847007D01*
X104591980Y-107854822D01*
X104046076Y-107308918D01*
X104046075Y-107308919D01*
X103990911Y-107384846D01*
X103990905Y-107384855D01*
X103901581Y-107560164D01*
X103840778Y-107747294D01*
X103810000Y-107941617D01*
X103810000Y-108138382D01*
X103840778Y-108332705D01*
X103901581Y-108519835D01*
X103990904Y-108695143D01*
X104046076Y-108771079D01*
X104046077Y-108771080D01*
X104591980Y-108225176D01*
X104594075Y-108232993D01*
X104659901Y-108347007D01*
X104752993Y-108440099D01*
X104867007Y-108505925D01*
X104874822Y-108508019D01*
X104328918Y-109053922D01*
X104404856Y-109109095D01*
X104558175Y-109187215D01*
X104608971Y-109235189D01*
X104625766Y-109303010D01*
X104603229Y-109369145D01*
X104548514Y-109412597D01*
X104501880Y-109421700D01*
X89216782Y-109421700D01*
X89108563Y-109450697D01*
X89108560Y-109450698D01*
X89011540Y-109506713D01*
X89011534Y-109506717D01*
X76132595Y-122385655D01*
X76071272Y-122419140D01*
X76006596Y-122415905D01*
X75982337Y-122408022D01*
X75889409Y-122377828D01*
X75710551Y-122349500D01*
X75710546Y-122349500D01*
X75529454Y-122349500D01*
X75529449Y-122349500D01*
X75350589Y-122377829D01*
X75178363Y-122433787D01*
X75178360Y-122433788D01*
X75017002Y-122516006D01*
X74870505Y-122622441D01*
X74870500Y-122622445D01*
X74742445Y-122750500D01*
X74742441Y-122750505D01*
X74636006Y-122897002D01*
X74553788Y-123058360D01*
X74553787Y-123058363D01*
X74497829Y-123230589D01*
X74472473Y-123390678D01*
X74442544Y-123453813D01*
X74383232Y-123490744D01*
X74313369Y-123489746D01*
X74255137Y-123451136D01*
X74227527Y-123390678D01*
X74213740Y-123303639D01*
X74202171Y-123230591D01*
X74159708Y-123099901D01*
X74146212Y-123058363D01*
X74146211Y-123058360D01*
X74110055Y-122987401D01*
X74063996Y-122897006D01*
X73998368Y-122806676D01*
X73957558Y-122750505D01*
X73957554Y-122750500D01*
X73829499Y-122622445D01*
X73829494Y-122622441D01*
X73682997Y-122516006D01*
X73682996Y-122516005D01*
X73682994Y-122516004D01*
X73624257Y-122486076D01*
X73521639Y-122433788D01*
X73521636Y-122433787D01*
X73349410Y-122377829D01*
X73170551Y-122349500D01*
X73170546Y-122349500D01*
X72989454Y-122349500D01*
X72989449Y-122349500D01*
X72810589Y-122377829D01*
X72638363Y-122433787D01*
X72638360Y-122433788D01*
X72477002Y-122516006D01*
X72330505Y-122622441D01*
X72330500Y-122622445D01*
X72202445Y-122750500D01*
X72202441Y-122750505D01*
X72096006Y-122897002D01*
X72013788Y-123058360D01*
X72013787Y-123058363D01*
X71957829Y-123230589D01*
X71932473Y-123390678D01*
X71902544Y-123453813D01*
X71843232Y-123490744D01*
X71773369Y-123489746D01*
X71715137Y-123451136D01*
X71687527Y-123390678D01*
X71673740Y-123303639D01*
X71662171Y-123230591D01*
X71619708Y-123099901D01*
X71606212Y-123058363D01*
X71606211Y-123058360D01*
X71570055Y-122987401D01*
X71523996Y-122897006D01*
X71458368Y-122806676D01*
X71417558Y-122750505D01*
X71417554Y-122750500D01*
X71289499Y-122622445D01*
X71289494Y-122622441D01*
X71142997Y-122516006D01*
X71142996Y-122516005D01*
X71142994Y-122516004D01*
X71084257Y-122486076D01*
X70981639Y-122433788D01*
X70981636Y-122433787D01*
X70809410Y-122377829D01*
X70630551Y-122349500D01*
X70630546Y-122349500D01*
X70449454Y-122349500D01*
X70449449Y-122349500D01*
X70270589Y-122377829D01*
X70098363Y-122433787D01*
X70098360Y-122433788D01*
X69937002Y-122516006D01*
X69790505Y-122622441D01*
X69790500Y-122622445D01*
X69662445Y-122750500D01*
X69662441Y-122750505D01*
X69556006Y-122897002D01*
X69473788Y-123058360D01*
X69473787Y-123058363D01*
X69417829Y-123230589D01*
X69389500Y-123409448D01*
X69389500Y-123590551D01*
X69417829Y-123769410D01*
X69473787Y-123941636D01*
X69473788Y-123941639D01*
X69556006Y-124102997D01*
X69662441Y-124249494D01*
X69662445Y-124249499D01*
X69790500Y-124377554D01*
X69790505Y-124377558D01*
X69918287Y-124470396D01*
X69937006Y-124483996D01*
X70073670Y-124553630D01*
X70077369Y-124555515D01*
X70128165Y-124603490D01*
X70144960Y-124671311D01*
X70122422Y-124737446D01*
X70067707Y-124780897D01*
X70021074Y-124790000D01*
X69874350Y-124790000D01*
X69837510Y-124792899D01*
X69837504Y-124792900D01*
X69679806Y-124838716D01*
X69679803Y-124838717D01*
X69538447Y-124922314D01*
X69538438Y-124922321D01*
X69422321Y-125038438D01*
X69422314Y-125038447D01*
X69338717Y-125179803D01*
X69338716Y-125179806D01*
X69292900Y-125337504D01*
X69292899Y-125337510D01*
X69290000Y-125374350D01*
X69290000Y-125840000D01*
X70078120Y-125840000D01*
X70074075Y-125847007D01*
X70040000Y-125974174D01*
X70040000Y-126105826D01*
X70074075Y-126232993D01*
X70078120Y-126240000D01*
X69290000Y-126240000D01*
X69290000Y-126705649D01*
X69292899Y-126742489D01*
X69292900Y-126742495D01*
X69338716Y-126900193D01*
X69338717Y-126900196D01*
X69422314Y-127041552D01*
X69422321Y-127041561D01*
X69538438Y-127157678D01*
X69538447Y-127157685D01*
X69679803Y-127241282D01*
X69679806Y-127241283D01*
X69837504Y-127287099D01*
X69837510Y-127287100D01*
X69874350Y-127289999D01*
X69874366Y-127290000D01*
X70340000Y-127290000D01*
X70340000Y-126501879D01*
X70347007Y-126505925D01*
X70474174Y-126540000D01*
X70605826Y-126540000D01*
X70732993Y-126505925D01*
X70740000Y-126501879D01*
X70740000Y-127290000D01*
X71205634Y-127290000D01*
X71205649Y-127289999D01*
X71242489Y-127287100D01*
X71242495Y-127287099D01*
X71400193Y-127241283D01*
X71400196Y-127241282D01*
X71541552Y-127157685D01*
X71541561Y-127157678D01*
X71657678Y-127041561D01*
X71657684Y-127041553D01*
X71715648Y-126943542D01*
X71741282Y-126900196D01*
X71741283Y-126900193D01*
X71788868Y-126736407D01*
X71790265Y-126736813D01*
X71818324Y-126681041D01*
X71878485Y-126645510D01*
X71948305Y-126648145D01*
X72005617Y-126688109D01*
X72009226Y-126692834D01*
X72066075Y-126771079D01*
X72066077Y-126771080D01*
X72611980Y-126225176D01*
X72614075Y-126232993D01*
X72679901Y-126347007D01*
X72772993Y-126440099D01*
X72887007Y-126505925D01*
X72894822Y-126508019D01*
X72348918Y-127053922D01*
X72424856Y-127109095D01*
X72600164Y-127198418D01*
X72787294Y-127259221D01*
X72981618Y-127290000D01*
X73178382Y-127290000D01*
X73372705Y-127259221D01*
X73559835Y-127198418D01*
X73735143Y-127109095D01*
X73811079Y-127053922D01*
X73811080Y-127053921D01*
X73265178Y-126508019D01*
X73272993Y-126505925D01*
X73387007Y-126440099D01*
X73480099Y-126347007D01*
X73545925Y-126232993D01*
X73548019Y-126225177D01*
X74093921Y-126771080D01*
X74093922Y-126771079D01*
X74149097Y-126695141D01*
X74149097Y-126695140D01*
X74239515Y-126517685D01*
X74287489Y-126466888D01*
X74355310Y-126450093D01*
X74421445Y-126472630D01*
X74460485Y-126517685D01*
X74550902Y-126695141D01*
X74606076Y-126771079D01*
X74606077Y-126771080D01*
X75151980Y-126225176D01*
X75154075Y-126232993D01*
X75219901Y-126347007D01*
X75312993Y-126440099D01*
X75427007Y-126505925D01*
X75434822Y-126508019D01*
X74888918Y-127053922D01*
X74964856Y-127109095D01*
X75140164Y-127198418D01*
X75327294Y-127259221D01*
X75521618Y-127290000D01*
X75718382Y-127290000D01*
X75912705Y-127259221D01*
X76099835Y-127198418D01*
X76275143Y-127109095D01*
X76351079Y-127053922D01*
X76351080Y-127053921D01*
X75805178Y-126508019D01*
X75812993Y-126505925D01*
X75927007Y-126440099D01*
X76020099Y-126347007D01*
X76085925Y-126232993D01*
X76088019Y-126225177D01*
X76633921Y-126771080D01*
X76633922Y-126771079D01*
X76689097Y-126695141D01*
X76689097Y-126695140D01*
X76779515Y-126517685D01*
X76827489Y-126466888D01*
X76895310Y-126450093D01*
X76961445Y-126472630D01*
X77000485Y-126517685D01*
X77090902Y-126695141D01*
X77146076Y-126771079D01*
X77146077Y-126771080D01*
X77691980Y-126225176D01*
X77694075Y-126232993D01*
X77759901Y-126347007D01*
X77852993Y-126440099D01*
X77967007Y-126505925D01*
X77974822Y-126508019D01*
X77428918Y-127053922D01*
X77504856Y-127109095D01*
X77680164Y-127198418D01*
X77867294Y-127259221D01*
X78061618Y-127290000D01*
X78258382Y-127290000D01*
X78452705Y-127259221D01*
X78639835Y-127198418D01*
X78815143Y-127109095D01*
X78891079Y-127053922D01*
X78891080Y-127053921D01*
X78345178Y-126508019D01*
X78352993Y-126505925D01*
X78467007Y-126440099D01*
X78560099Y-126347007D01*
X78625925Y-126232993D01*
X78628019Y-126225177D01*
X79173921Y-126771080D01*
X79173922Y-126771079D01*
X79229097Y-126695141D01*
X79229097Y-126695140D01*
X79319515Y-126517685D01*
X79367489Y-126466888D01*
X79435310Y-126450093D01*
X79501445Y-126472630D01*
X79540485Y-126517685D01*
X79630902Y-126695141D01*
X79686076Y-126771079D01*
X79686077Y-126771080D01*
X80231980Y-126225176D01*
X80234075Y-126232993D01*
X80299901Y-126347007D01*
X80392993Y-126440099D01*
X80507007Y-126505925D01*
X80514822Y-126508019D01*
X79968918Y-127053922D01*
X80044856Y-127109095D01*
X80220164Y-127198418D01*
X80407294Y-127259221D01*
X80601618Y-127290000D01*
X80798382Y-127290000D01*
X80992705Y-127259221D01*
X81179835Y-127198418D01*
X81355143Y-127109095D01*
X81431079Y-127053922D01*
X81431080Y-127053921D01*
X80885178Y-126508019D01*
X80892993Y-126505925D01*
X81007007Y-126440099D01*
X81100099Y-126347007D01*
X81165925Y-126232993D01*
X81168019Y-126225177D01*
X81713921Y-126771080D01*
X81713922Y-126771079D01*
X81769097Y-126695141D01*
X81769097Y-126695140D01*
X81859515Y-126517685D01*
X81907489Y-126466888D01*
X81975310Y-126450093D01*
X82041445Y-126472630D01*
X82080485Y-126517685D01*
X82170902Y-126695141D01*
X82226076Y-126771079D01*
X82226077Y-126771080D01*
X82771980Y-126225176D01*
X82774075Y-126232993D01*
X82839901Y-126347007D01*
X82932993Y-126440099D01*
X83047007Y-126505925D01*
X83054822Y-126508019D01*
X82508918Y-127053922D01*
X82584856Y-127109095D01*
X82760164Y-127198418D01*
X82947294Y-127259221D01*
X83141618Y-127290000D01*
X83338382Y-127290000D01*
X83532705Y-127259221D01*
X83719835Y-127198418D01*
X83895143Y-127109095D01*
X83971079Y-127053922D01*
X83971080Y-127053921D01*
X83425178Y-126508019D01*
X83432993Y-126505925D01*
X83547007Y-126440099D01*
X83640099Y-126347007D01*
X83705925Y-126232993D01*
X83708019Y-126225177D01*
X84253921Y-126771080D01*
X84253922Y-126771079D01*
X84309097Y-126695141D01*
X84309097Y-126695140D01*
X84399515Y-126517685D01*
X84447489Y-126466888D01*
X84515310Y-126450093D01*
X84581445Y-126472630D01*
X84620485Y-126517685D01*
X84710902Y-126695141D01*
X84766076Y-126771079D01*
X84766077Y-126771080D01*
X85311980Y-126225176D01*
X85314075Y-126232993D01*
X85379901Y-126347007D01*
X85472993Y-126440099D01*
X85587007Y-126505925D01*
X85594822Y-126508019D01*
X85048918Y-127053922D01*
X85124856Y-127109095D01*
X85300164Y-127198418D01*
X85487294Y-127259221D01*
X85681618Y-127290000D01*
X85878382Y-127290000D01*
X86072705Y-127259221D01*
X86259835Y-127198418D01*
X86435143Y-127109095D01*
X86511079Y-127053922D01*
X86511080Y-127053921D01*
X85965178Y-126508019D01*
X85972993Y-126505925D01*
X86087007Y-126440099D01*
X86180099Y-126347007D01*
X86245925Y-126232993D01*
X86248019Y-126225177D01*
X86793921Y-126771080D01*
X86793922Y-126771079D01*
X86849097Y-126695141D01*
X86849097Y-126695140D01*
X86939515Y-126517685D01*
X86987489Y-126466888D01*
X87055310Y-126450093D01*
X87121445Y-126472630D01*
X87160485Y-126517685D01*
X87250902Y-126695141D01*
X87306076Y-126771079D01*
X87306077Y-126771080D01*
X87851980Y-126225176D01*
X87854075Y-126232993D01*
X87919901Y-126347007D01*
X88012993Y-126440099D01*
X88127007Y-126505925D01*
X88134822Y-126508019D01*
X87588918Y-127053922D01*
X87664856Y-127109095D01*
X87840164Y-127198418D01*
X88027294Y-127259221D01*
X88221618Y-127290000D01*
X88418382Y-127290000D01*
X88612705Y-127259221D01*
X88799835Y-127198418D01*
X88975143Y-127109095D01*
X89051079Y-127053922D01*
X89051080Y-127053921D01*
X88505178Y-126508019D01*
X88512993Y-126505925D01*
X88627007Y-126440099D01*
X88720099Y-126347007D01*
X88785925Y-126232993D01*
X88788019Y-126225177D01*
X89333921Y-126771080D01*
X89333922Y-126771079D01*
X89389097Y-126695141D01*
X89389097Y-126695140D01*
X89479515Y-126517685D01*
X89527489Y-126466888D01*
X89595310Y-126450093D01*
X89661445Y-126472630D01*
X89700485Y-126517685D01*
X89790902Y-126695141D01*
X89846076Y-126771079D01*
X89846077Y-126771080D01*
X90391980Y-126225176D01*
X90394075Y-126232993D01*
X90459901Y-126347007D01*
X90552993Y-126440099D01*
X90667007Y-126505925D01*
X90674822Y-126508019D01*
X90128918Y-127053922D01*
X90204856Y-127109095D01*
X90380164Y-127198418D01*
X90567294Y-127259221D01*
X90761618Y-127290000D01*
X90958382Y-127290000D01*
X91152705Y-127259221D01*
X91339835Y-127198418D01*
X91515143Y-127109095D01*
X91591079Y-127053922D01*
X91591080Y-127053921D01*
X91045178Y-126508019D01*
X91052993Y-126505925D01*
X91167007Y-126440099D01*
X91260099Y-126347007D01*
X91325925Y-126232993D01*
X91328019Y-126225177D01*
X91873921Y-126771080D01*
X91873922Y-126771079D01*
X91929097Y-126695141D01*
X91929097Y-126695140D01*
X92019515Y-126517685D01*
X92067489Y-126466888D01*
X92135310Y-126450093D01*
X92201445Y-126472630D01*
X92240485Y-126517685D01*
X92330902Y-126695141D01*
X92386076Y-126771079D01*
X92386077Y-126771080D01*
X92931980Y-126225176D01*
X92934075Y-126232993D01*
X92999901Y-126347007D01*
X93092993Y-126440099D01*
X93207007Y-126505925D01*
X93214822Y-126508019D01*
X92668918Y-127053922D01*
X92744856Y-127109095D01*
X92920164Y-127198418D01*
X93107294Y-127259221D01*
X93301618Y-127290000D01*
X93498382Y-127290000D01*
X93692705Y-127259221D01*
X93879835Y-127198418D01*
X94055143Y-127109095D01*
X94131079Y-127053922D01*
X94131080Y-127053921D01*
X93585178Y-126508019D01*
X93592993Y-126505925D01*
X93707007Y-126440099D01*
X93800099Y-126347007D01*
X93865925Y-126232993D01*
X93868019Y-126225177D01*
X94413921Y-126771080D01*
X94413922Y-126771079D01*
X94469097Y-126695141D01*
X94469097Y-126695140D01*
X94559515Y-126517685D01*
X94607489Y-126466888D01*
X94675310Y-126450093D01*
X94741445Y-126472630D01*
X94780485Y-126517685D01*
X94870902Y-126695141D01*
X94926076Y-126771079D01*
X94926077Y-126771080D01*
X95471980Y-126225176D01*
X95474075Y-126232993D01*
X95539901Y-126347007D01*
X95632993Y-126440099D01*
X95747007Y-126505925D01*
X95754822Y-126508019D01*
X95208918Y-127053922D01*
X95284856Y-127109095D01*
X95460164Y-127198418D01*
X95647294Y-127259221D01*
X95841618Y-127290000D01*
X96038382Y-127290000D01*
X96232705Y-127259221D01*
X96419835Y-127198418D01*
X96595143Y-127109095D01*
X96671079Y-127053922D01*
X96671080Y-127053921D01*
X96125178Y-126508019D01*
X96132993Y-126505925D01*
X96247007Y-126440099D01*
X96340099Y-126347007D01*
X96405925Y-126232993D01*
X96408019Y-126225177D01*
X96953921Y-126771080D01*
X96953922Y-126771079D01*
X97009097Y-126695141D01*
X97009097Y-126695140D01*
X97099515Y-126517685D01*
X97147489Y-126466888D01*
X97215310Y-126450093D01*
X97281445Y-126472630D01*
X97320485Y-126517685D01*
X97410902Y-126695141D01*
X97466076Y-126771079D01*
X97466077Y-126771080D01*
X98011980Y-126225176D01*
X98014075Y-126232993D01*
X98079901Y-126347007D01*
X98172993Y-126440099D01*
X98287007Y-126505925D01*
X98294822Y-126508019D01*
X97748918Y-127053922D01*
X97824856Y-127109095D01*
X98000164Y-127198418D01*
X98187294Y-127259221D01*
X98381618Y-127290000D01*
X98578382Y-127290000D01*
X98772705Y-127259221D01*
X98959835Y-127198418D01*
X99135143Y-127109095D01*
X99211079Y-127053922D01*
X99211080Y-127053921D01*
X98665178Y-126508019D01*
X98672993Y-126505925D01*
X98787007Y-126440099D01*
X98880099Y-126347007D01*
X98945925Y-126232993D01*
X98948019Y-126225177D01*
X99493921Y-126771080D01*
X99493922Y-126771079D01*
X99549095Y-126695143D01*
X99638418Y-126519835D01*
X99684378Y-126378387D01*
X99723815Y-126320712D01*
X99788174Y-126293513D01*
X99857020Y-126305428D01*
X99908496Y-126352672D01*
X99920240Y-126378387D01*
X99953787Y-126481636D01*
X99953788Y-126481639D01*
X100036006Y-126642997D01*
X100142441Y-126789494D01*
X100142445Y-126789499D01*
X100270500Y-126917554D01*
X100270505Y-126917558D01*
X100398287Y-127010396D01*
X100417006Y-127023996D01*
X100522484Y-127077740D01*
X100578360Y-127106211D01*
X100578363Y-127106212D01*
X100664476Y-127134191D01*
X100750591Y-127162171D01*
X100833429Y-127175291D01*
X100929449Y-127190500D01*
X100929454Y-127190500D01*
X101110551Y-127190500D01*
X101197259Y-127176765D01*
X101289409Y-127162171D01*
X101461639Y-127106211D01*
X101622994Y-127023996D01*
X101769501Y-126917553D01*
X101897553Y-126789501D01*
X102003996Y-126642994D01*
X102086211Y-126481639D01*
X102119759Y-126378388D01*
X102159196Y-126320712D01*
X102223554Y-126293513D01*
X102292401Y-126305427D01*
X102343877Y-126352671D01*
X102355621Y-126378386D01*
X102401582Y-126519837D01*
X102490904Y-126695143D01*
X102546076Y-126771079D01*
X102546077Y-126771080D01*
X103091980Y-126225176D01*
X103094075Y-126232993D01*
X103159901Y-126347007D01*
X103252993Y-126440099D01*
X103367007Y-126505925D01*
X103374822Y-126508019D01*
X102828918Y-127053922D01*
X102904856Y-127109095D01*
X103080164Y-127198418D01*
X103267294Y-127259221D01*
X103461618Y-127290000D01*
X103658382Y-127290000D01*
X103852705Y-127259221D01*
X104039835Y-127198418D01*
X104215143Y-127109095D01*
X104291079Y-127053922D01*
X104291080Y-127053921D01*
X103745178Y-126508019D01*
X103752993Y-126505925D01*
X103867007Y-126440099D01*
X103960099Y-126347007D01*
X104025925Y-126232993D01*
X104028019Y-126225177D01*
X104573921Y-126771080D01*
X104573922Y-126771079D01*
X104629097Y-126695141D01*
X104629097Y-126695140D01*
X104719515Y-126517685D01*
X104767489Y-126466888D01*
X104835310Y-126450093D01*
X104901445Y-126472630D01*
X104940485Y-126517685D01*
X105030902Y-126695141D01*
X105086076Y-126771079D01*
X105086077Y-126771080D01*
X105631980Y-126225176D01*
X105634075Y-126232993D01*
X105699901Y-126347007D01*
X105792993Y-126440099D01*
X105907007Y-126505925D01*
X105914822Y-126508019D01*
X105368918Y-127053922D01*
X105444856Y-127109095D01*
X105620164Y-127198418D01*
X105807294Y-127259221D01*
X106001618Y-127290000D01*
X106198382Y-127290000D01*
X106392705Y-127259221D01*
X106579835Y-127198418D01*
X106755143Y-127109095D01*
X106831079Y-127053922D01*
X106831080Y-127053921D01*
X106285178Y-126508019D01*
X106292993Y-126505925D01*
X106407007Y-126440099D01*
X106500099Y-126347007D01*
X106565925Y-126232993D01*
X106568019Y-126225177D01*
X107113921Y-126771080D01*
X107113922Y-126771079D01*
X107169097Y-126695141D01*
X107169097Y-126695140D01*
X107259515Y-126517685D01*
X107307489Y-126466888D01*
X107375310Y-126450093D01*
X107441445Y-126472630D01*
X107480485Y-126517685D01*
X107570902Y-126695141D01*
X107626076Y-126771079D01*
X107626077Y-126771080D01*
X108171980Y-126225176D01*
X108174075Y-126232993D01*
X108239901Y-126347007D01*
X108332993Y-126440099D01*
X108447007Y-126505925D01*
X108454822Y-126508019D01*
X107908918Y-127053922D01*
X107984856Y-127109095D01*
X108160164Y-127198418D01*
X108347294Y-127259221D01*
X108541618Y-127290000D01*
X108738382Y-127290000D01*
X108932705Y-127259221D01*
X109119835Y-127198418D01*
X109295143Y-127109095D01*
X109371079Y-127053922D01*
X109371080Y-127053921D01*
X108825178Y-126508019D01*
X108832993Y-126505925D01*
X108947007Y-126440099D01*
X109040099Y-126347007D01*
X109105925Y-126232993D01*
X109108019Y-126225177D01*
X109653921Y-126771080D01*
X109653922Y-126771079D01*
X109709097Y-126695141D01*
X109709097Y-126695140D01*
X109799515Y-126517685D01*
X109847489Y-126466888D01*
X109915310Y-126450093D01*
X109981445Y-126472630D01*
X110020485Y-126517685D01*
X110110902Y-126695141D01*
X110166076Y-126771079D01*
X110166077Y-126771080D01*
X110711980Y-126225176D01*
X110714075Y-126232993D01*
X110779901Y-126347007D01*
X110872993Y-126440099D01*
X110987007Y-126505925D01*
X110994822Y-126508019D01*
X110448918Y-127053922D01*
X110524856Y-127109095D01*
X110700164Y-127198418D01*
X110887294Y-127259221D01*
X111081618Y-127290000D01*
X111278382Y-127290000D01*
X111472705Y-127259221D01*
X111659835Y-127198418D01*
X111835143Y-127109095D01*
X111911079Y-127053922D01*
X111911080Y-127053921D01*
X111365178Y-126508019D01*
X111372993Y-126505925D01*
X111487007Y-126440099D01*
X111580099Y-126347007D01*
X111645925Y-126232993D01*
X111648019Y-126225177D01*
X112193921Y-126771080D01*
X112193922Y-126771079D01*
X112249097Y-126695141D01*
X112249097Y-126695140D01*
X112339515Y-126517685D01*
X112387489Y-126466888D01*
X112455310Y-126450093D01*
X112521445Y-126472630D01*
X112560485Y-126517685D01*
X112650902Y-126695141D01*
X112706076Y-126771079D01*
X112706077Y-126771080D01*
X113251980Y-126225176D01*
X113254075Y-126232993D01*
X113319901Y-126347007D01*
X113412993Y-126440099D01*
X113527007Y-126505925D01*
X113534822Y-126508019D01*
X112988918Y-127053922D01*
X113064856Y-127109095D01*
X113240164Y-127198418D01*
X113427294Y-127259221D01*
X113621618Y-127290000D01*
X113818382Y-127290000D01*
X114012705Y-127259221D01*
X114199835Y-127198418D01*
X114375143Y-127109095D01*
X114451079Y-127053922D01*
X114451080Y-127053921D01*
X113905178Y-126508019D01*
X113912993Y-126505925D01*
X114027007Y-126440099D01*
X114120099Y-126347007D01*
X114185925Y-126232993D01*
X114188019Y-126225177D01*
X114733921Y-126771080D01*
X114733922Y-126771079D01*
X114789097Y-126695141D01*
X114789097Y-126695140D01*
X114879515Y-126517685D01*
X114927489Y-126466888D01*
X114995310Y-126450093D01*
X115061445Y-126472630D01*
X115100485Y-126517685D01*
X115190902Y-126695141D01*
X115246076Y-126771079D01*
X115246077Y-126771080D01*
X115791980Y-126225176D01*
X115794075Y-126232993D01*
X115859901Y-126347007D01*
X115952993Y-126440099D01*
X116067007Y-126505925D01*
X116074822Y-126508019D01*
X115528918Y-127053922D01*
X115604856Y-127109095D01*
X115780164Y-127198418D01*
X115967294Y-127259221D01*
X116161618Y-127290000D01*
X116358382Y-127290000D01*
X116552705Y-127259221D01*
X116739835Y-127198418D01*
X116915143Y-127109095D01*
X116991079Y-127053922D01*
X116991080Y-127053921D01*
X116445178Y-126508019D01*
X116452993Y-126505925D01*
X116567007Y-126440099D01*
X116660099Y-126347007D01*
X116725925Y-126232993D01*
X116728019Y-126225177D01*
X117273921Y-126771080D01*
X117273922Y-126771079D01*
X117329097Y-126695141D01*
X117329097Y-126695140D01*
X117419515Y-126517685D01*
X117467489Y-126466888D01*
X117535310Y-126450093D01*
X117601445Y-126472630D01*
X117640485Y-126517685D01*
X117730902Y-126695141D01*
X117786076Y-126771079D01*
X117786077Y-126771080D01*
X118331980Y-126225176D01*
X118334075Y-126232993D01*
X118399901Y-126347007D01*
X118492993Y-126440099D01*
X118607007Y-126505925D01*
X118614822Y-126508019D01*
X118068918Y-127053922D01*
X118144856Y-127109095D01*
X118320164Y-127198418D01*
X118507294Y-127259221D01*
X118701618Y-127290000D01*
X118898382Y-127290000D01*
X119092705Y-127259221D01*
X119279835Y-127198418D01*
X119455143Y-127109095D01*
X119531079Y-127053922D01*
X119531080Y-127053921D01*
X118985178Y-126508019D01*
X118992993Y-126505925D01*
X119107007Y-126440099D01*
X119200099Y-126347007D01*
X119265925Y-126232993D01*
X119268019Y-126225177D01*
X119813921Y-126771080D01*
X119813922Y-126771079D01*
X119869097Y-126695141D01*
X119869097Y-126695140D01*
X119959515Y-126517685D01*
X120007489Y-126466888D01*
X120075310Y-126450093D01*
X120141445Y-126472630D01*
X120180485Y-126517685D01*
X120270902Y-126695141D01*
X120326076Y-126771079D01*
X120326077Y-126771080D01*
X120871980Y-126225176D01*
X120874075Y-126232993D01*
X120939901Y-126347007D01*
X121032993Y-126440099D01*
X121147007Y-126505925D01*
X121154822Y-126508019D01*
X120608918Y-127053922D01*
X120684856Y-127109095D01*
X120860164Y-127198418D01*
X121047294Y-127259221D01*
X121241618Y-127290000D01*
X121438382Y-127290000D01*
X121632705Y-127259221D01*
X121819835Y-127198418D01*
X121995143Y-127109095D01*
X122071079Y-127053922D01*
X122071080Y-127053921D01*
X121525178Y-126508019D01*
X121532993Y-126505925D01*
X121647007Y-126440099D01*
X121740099Y-126347007D01*
X121805925Y-126232993D01*
X121808019Y-126225177D01*
X122353921Y-126771080D01*
X122353922Y-126771079D01*
X122409097Y-126695141D01*
X122409097Y-126695140D01*
X122499515Y-126517685D01*
X122547489Y-126466888D01*
X122615310Y-126450093D01*
X122681445Y-126472630D01*
X122720485Y-126517685D01*
X122810902Y-126695141D01*
X122866076Y-126771079D01*
X122866077Y-126771080D01*
X123411980Y-126225176D01*
X123414075Y-126232993D01*
X123479901Y-126347007D01*
X123572993Y-126440099D01*
X123687007Y-126505925D01*
X123694822Y-126508019D01*
X123148918Y-127053922D01*
X123224856Y-127109095D01*
X123400164Y-127198418D01*
X123587294Y-127259221D01*
X123781618Y-127290000D01*
X123978382Y-127290000D01*
X124172705Y-127259221D01*
X124359835Y-127198418D01*
X124535143Y-127109095D01*
X124611079Y-127053922D01*
X124611080Y-127053921D01*
X124065178Y-126508019D01*
X124072993Y-126505925D01*
X124187007Y-126440099D01*
X124280099Y-126347007D01*
X124345925Y-126232993D01*
X124348019Y-126225177D01*
X124893921Y-126771080D01*
X124893922Y-126771079D01*
X124949097Y-126695141D01*
X124949097Y-126695140D01*
X125039515Y-126517685D01*
X125087489Y-126466888D01*
X125155310Y-126450093D01*
X125221445Y-126472630D01*
X125260485Y-126517685D01*
X125350902Y-126695141D01*
X125406076Y-126771079D01*
X125406077Y-126771080D01*
X125951980Y-126225176D01*
X125954075Y-126232993D01*
X126019901Y-126347007D01*
X126112993Y-126440099D01*
X126227007Y-126505925D01*
X126234822Y-126508019D01*
X125688918Y-127053922D01*
X125764856Y-127109095D01*
X125940164Y-127198418D01*
X126127294Y-127259221D01*
X126321618Y-127290000D01*
X126518382Y-127290000D01*
X126712705Y-127259221D01*
X126899835Y-127198418D01*
X127075143Y-127109095D01*
X127151079Y-127053922D01*
X127151080Y-127053921D01*
X126605178Y-126508019D01*
X126612993Y-126505925D01*
X126727007Y-126440099D01*
X126820099Y-126347007D01*
X126885925Y-126232993D01*
X126888019Y-126225177D01*
X127433921Y-126771080D01*
X127433922Y-126771079D01*
X127489097Y-126695141D01*
X127489097Y-126695140D01*
X127579515Y-126517685D01*
X127627489Y-126466888D01*
X127695310Y-126450093D01*
X127761445Y-126472630D01*
X127800485Y-126517685D01*
X127890902Y-126695141D01*
X127946076Y-126771079D01*
X127946077Y-126771080D01*
X128491980Y-126225176D01*
X128494075Y-126232993D01*
X128559901Y-126347007D01*
X128652993Y-126440099D01*
X128767007Y-126505925D01*
X128774822Y-126508019D01*
X128228918Y-127053922D01*
X128304856Y-127109095D01*
X128480164Y-127198418D01*
X128667294Y-127259221D01*
X128861618Y-127290000D01*
X129058382Y-127290000D01*
X129252705Y-127259221D01*
X129439835Y-127198418D01*
X129615143Y-127109095D01*
X129691079Y-127053922D01*
X129691080Y-127053921D01*
X129145178Y-126508019D01*
X129152993Y-126505925D01*
X129267007Y-126440099D01*
X129360099Y-126347007D01*
X129425925Y-126232993D01*
X129428019Y-126225177D01*
X129973921Y-126771080D01*
X129973922Y-126771079D01*
X130029097Y-126695141D01*
X130029097Y-126695140D01*
X130119515Y-126517685D01*
X130167489Y-126466888D01*
X130235310Y-126450093D01*
X130301445Y-126472630D01*
X130340485Y-126517685D01*
X130430902Y-126695141D01*
X130486076Y-126771079D01*
X130486077Y-126771080D01*
X131031980Y-126225176D01*
X131034075Y-126232993D01*
X131099901Y-126347007D01*
X131192993Y-126440099D01*
X131307007Y-126505925D01*
X131314822Y-126508019D01*
X130768918Y-127053922D01*
X130844856Y-127109095D01*
X131020164Y-127198418D01*
X131207294Y-127259221D01*
X131401618Y-127290000D01*
X131598382Y-127290000D01*
X131792705Y-127259221D01*
X131979835Y-127198418D01*
X132155143Y-127109095D01*
X132231079Y-127053922D01*
X132231080Y-127053921D01*
X131685178Y-126508019D01*
X131692993Y-126505925D01*
X131807007Y-126440099D01*
X131900099Y-126347007D01*
X131965925Y-126232993D01*
X131968019Y-126225177D01*
X132513921Y-126771080D01*
X132513922Y-126771079D01*
X132569095Y-126695143D01*
X132658418Y-126519835D01*
X132719221Y-126332705D01*
X132750000Y-126138382D01*
X132750000Y-125941617D01*
X132719221Y-125747294D01*
X132658418Y-125560164D01*
X132569095Y-125384856D01*
X132513922Y-125308919D01*
X132513922Y-125308918D01*
X131968018Y-125854821D01*
X131965925Y-125847007D01*
X131900099Y-125732993D01*
X131807007Y-125639901D01*
X131692993Y-125574075D01*
X131685177Y-125571980D01*
X132231080Y-125026077D01*
X132231079Y-125026076D01*
X132155143Y-124970904D01*
X131979837Y-124881582D01*
X131838386Y-124835621D01*
X131780711Y-124796183D01*
X131753513Y-124731824D01*
X131765428Y-124662978D01*
X131812672Y-124611502D01*
X131838388Y-124599759D01*
X131941633Y-124566213D01*
X131941639Y-124566211D01*
X131962631Y-124555515D01*
X132102994Y-124483996D01*
X132249501Y-124377553D01*
X132377553Y-124249501D01*
X132483996Y-124102994D01*
X132566211Y-123941639D01*
X132622171Y-123769409D01*
X132636765Y-123677259D01*
X132650500Y-123590551D01*
X132650500Y-123409448D01*
X132634019Y-123305397D01*
X132622171Y-123230591D01*
X132579708Y-123099901D01*
X132566212Y-123058363D01*
X132566211Y-123058360D01*
X132530055Y-122987401D01*
X132483996Y-122897006D01*
X132418368Y-122806676D01*
X132377558Y-122750505D01*
X132377554Y-122750500D01*
X132249499Y-122622445D01*
X132249494Y-122622441D01*
X132102997Y-122516006D01*
X132102996Y-122516005D01*
X132102994Y-122516004D01*
X132044257Y-122486076D01*
X131941639Y-122433788D01*
X131941636Y-122433787D01*
X131769410Y-122377829D01*
X131590551Y-122349500D01*
X131590546Y-122349500D01*
X131409454Y-122349500D01*
X131409449Y-122349500D01*
X131230589Y-122377829D01*
X131058363Y-122433787D01*
X131058360Y-122433788D01*
X130897002Y-122516006D01*
X130750505Y-122622441D01*
X130750500Y-122622445D01*
X130622445Y-122750500D01*
X130622441Y-122750505D01*
X130516006Y-122897002D01*
X130433788Y-123058360D01*
X130433787Y-123058363D01*
X130377829Y-123230589D01*
X130352473Y-123390678D01*
X130322544Y-123453813D01*
X130263232Y-123490744D01*
X130193369Y-123489746D01*
X130135137Y-123451136D01*
X130107527Y-123390678D01*
X130093740Y-123303639D01*
X130082171Y-123230591D01*
X130039708Y-123099901D01*
X130026212Y-123058363D01*
X130026211Y-123058360D01*
X129990055Y-122987401D01*
X129943996Y-122897006D01*
X129878368Y-122806676D01*
X129837558Y-122750505D01*
X129837554Y-122750500D01*
X129709499Y-122622445D01*
X129709494Y-122622441D01*
X129562997Y-122516006D01*
X129562996Y-122516005D01*
X129562994Y-122516004D01*
X129504257Y-122486076D01*
X129401639Y-122433788D01*
X129401636Y-122433787D01*
X129229410Y-122377829D01*
X129050551Y-122349500D01*
X129050546Y-122349500D01*
X128869454Y-122349500D01*
X128869449Y-122349500D01*
X128690589Y-122377829D01*
X128518363Y-122433787D01*
X128518360Y-122433788D01*
X128357002Y-122516006D01*
X128210505Y-122622441D01*
X128210500Y-122622445D01*
X128082445Y-122750500D01*
X128082441Y-122750505D01*
X127976006Y-122897002D01*
X127893788Y-123058360D01*
X127893787Y-123058363D01*
X127837829Y-123230589D01*
X127812473Y-123390678D01*
X127782544Y-123453813D01*
X127723232Y-123490744D01*
X127653369Y-123489746D01*
X127595137Y-123451136D01*
X127567527Y-123390678D01*
X127553740Y-123303639D01*
X127542171Y-123230591D01*
X127499708Y-123099901D01*
X127486212Y-123058363D01*
X127486211Y-123058360D01*
X127450055Y-122987401D01*
X127403996Y-122897006D01*
X127338368Y-122806676D01*
X127297558Y-122750505D01*
X127297554Y-122750500D01*
X127169499Y-122622445D01*
X127169494Y-122622441D01*
X127022997Y-122516006D01*
X127022996Y-122516005D01*
X127022994Y-122516004D01*
X126964257Y-122486076D01*
X126861639Y-122433788D01*
X126861636Y-122433787D01*
X126689410Y-122377829D01*
X126510551Y-122349500D01*
X126510546Y-122349500D01*
X126329454Y-122349500D01*
X126329449Y-122349500D01*
X126150589Y-122377829D01*
X125978363Y-122433787D01*
X125978360Y-122433788D01*
X125817002Y-122516006D01*
X125670505Y-122622441D01*
X125670500Y-122622445D01*
X125542445Y-122750500D01*
X125542441Y-122750505D01*
X125436006Y-122897002D01*
X125353788Y-123058360D01*
X125353787Y-123058363D01*
X125297829Y-123230589D01*
X125272473Y-123390678D01*
X125242544Y-123453813D01*
X125183232Y-123490744D01*
X125113369Y-123489746D01*
X125055137Y-123451136D01*
X125027527Y-123390678D01*
X125013740Y-123303639D01*
X125002171Y-123230591D01*
X124959708Y-123099901D01*
X124946212Y-123058363D01*
X124946211Y-123058360D01*
X124863995Y-122897005D01*
X124860752Y-122892541D01*
X124846177Y-122872481D01*
X124822698Y-122806676D01*
X124838523Y-122738622D01*
X124888629Y-122689927D01*
X124914395Y-122679823D01*
X124921937Y-122677803D01*
X125018963Y-122621785D01*
X132016453Y-115624292D01*
X132016458Y-115624289D01*
X132026661Y-115614085D01*
X132026663Y-115614085D01*
X132105885Y-115534863D01*
X132161903Y-115437837D01*
X132190900Y-115329618D01*
X132190900Y-109117615D01*
X132210585Y-109050576D01*
X132263389Y-109004821D01*
X132332547Y-108994877D01*
X132387787Y-109017298D01*
X132397004Y-109023995D01*
X132558360Y-109106211D01*
X132558363Y-109106212D01*
X132624671Y-109127756D01*
X132730591Y-109162171D01*
X132813024Y-109175227D01*
X132909449Y-109190500D01*
X132909454Y-109190500D01*
X133090551Y-109190500D01*
X133186976Y-109175227D01*
X133269409Y-109162171D01*
X133441639Y-109106211D01*
X133602994Y-109023996D01*
X133749501Y-108917553D01*
X133877553Y-108789501D01*
X133983996Y-108642994D01*
X134066211Y-108481639D01*
X134099759Y-108378388D01*
X134139196Y-108320712D01*
X134203554Y-108293513D01*
X134272401Y-108305427D01*
X134323877Y-108352671D01*
X134335621Y-108378386D01*
X134381582Y-108519837D01*
X134470904Y-108695143D01*
X134526076Y-108771079D01*
X134526077Y-108771080D01*
X135071980Y-108225176D01*
X135074075Y-108232993D01*
X135139901Y-108347007D01*
X135232993Y-108440099D01*
X135347007Y-108505925D01*
X135354822Y-108508019D01*
X134808918Y-109053922D01*
X134884856Y-109109095D01*
X135060164Y-109198418D01*
X135247294Y-109259221D01*
X135441618Y-109290000D01*
X135638382Y-109290000D01*
X135832705Y-109259221D01*
X136019835Y-109198418D01*
X136195143Y-109109095D01*
X136271079Y-109053922D01*
X136271080Y-109053921D01*
X135725178Y-108508019D01*
X135732993Y-108505925D01*
X135847007Y-108440099D01*
X135940099Y-108347007D01*
X136005925Y-108232993D01*
X136008019Y-108225177D01*
X136553921Y-108771080D01*
X136553922Y-108771079D01*
X136609095Y-108695143D01*
X136698418Y-108519835D01*
X136757569Y-108337792D01*
X136797007Y-108280116D01*
X136861365Y-108252918D01*
X136930212Y-108264833D01*
X136981687Y-108312077D01*
X136999500Y-108376110D01*
X136999500Y-134375500D01*
X136979815Y-134442539D01*
X136927011Y-134488294D01*
X136875500Y-134499500D01*
X64624500Y-134499500D01*
X64557461Y-134479815D01*
X64511706Y-134427011D01*
X64500500Y-134375500D01*
X64500500Y-100624500D01*
X64520185Y-100557461D01*
X64572989Y-100511706D01*
X64624500Y-100500500D01*
X136875500Y-100500500D01*
X136942539Y-100520185D01*
G37*
%TD.AperFunction*%
%TA.AperFunction,Conductor*%
G36*
X71846630Y-123510253D02*
G01*
X71904863Y-123548863D01*
X71932473Y-123609321D01*
X71957829Y-123769410D01*
X72013787Y-123941636D01*
X72013788Y-123941639D01*
X72096006Y-124102997D01*
X72202441Y-124249494D01*
X72202445Y-124249499D01*
X72330500Y-124377554D01*
X72330505Y-124377558D01*
X72458287Y-124470396D01*
X72477006Y-124483996D01*
X72582484Y-124537740D01*
X72638360Y-124566211D01*
X72638366Y-124566213D01*
X72741611Y-124599759D01*
X72799287Y-124639196D01*
X72826486Y-124703554D01*
X72814572Y-124772401D01*
X72767328Y-124823877D01*
X72741613Y-124835621D01*
X72600162Y-124881581D01*
X72424855Y-124970905D01*
X72424846Y-124970911D01*
X72348919Y-125026075D01*
X72348918Y-125026076D01*
X72894823Y-125571980D01*
X72887007Y-125574075D01*
X72772993Y-125639901D01*
X72679901Y-125732993D01*
X72614075Y-125847007D01*
X72611980Y-125854822D01*
X72066076Y-125308918D01*
X72066075Y-125308919D01*
X72009226Y-125387165D01*
X71953896Y-125429830D01*
X71884282Y-125435809D01*
X71822487Y-125403203D01*
X71788130Y-125342364D01*
X71787181Y-125337787D01*
X71741283Y-125179806D01*
X71741282Y-125179803D01*
X71657685Y-125038447D01*
X71657678Y-125038438D01*
X71541561Y-124922321D01*
X71541552Y-124922314D01*
X71400196Y-124838717D01*
X71400193Y-124838716D01*
X71242495Y-124792900D01*
X71242489Y-124792899D01*
X71205649Y-124790000D01*
X71058926Y-124790000D01*
X70991887Y-124770315D01*
X70946132Y-124717511D01*
X70936188Y-124648353D01*
X70965213Y-124584797D01*
X71002631Y-124555515D01*
X71005070Y-124554271D01*
X71142994Y-124483996D01*
X71289501Y-124377553D01*
X71417553Y-124249501D01*
X71523996Y-124102994D01*
X71606211Y-123941639D01*
X71662171Y-123769409D01*
X71676422Y-123679425D01*
X71687527Y-123609321D01*
X71717456Y-123546186D01*
X71776768Y-123509255D01*
X71846630Y-123510253D01*
G37*
%TD.AperFunction*%
%TA.AperFunction,Conductor*%
G36*
X74386630Y-123510253D02*
G01*
X74444863Y-123548863D01*
X74472473Y-123609321D01*
X74497829Y-123769410D01*
X74553787Y-123941636D01*
X74553788Y-123941639D01*
X74636006Y-124102997D01*
X74742441Y-124249494D01*
X74742445Y-124249499D01*
X74870500Y-124377554D01*
X74870505Y-124377558D01*
X74998287Y-124470396D01*
X75017006Y-124483996D01*
X75122484Y-124537740D01*
X75178360Y-124566211D01*
X75178366Y-124566213D01*
X75281611Y-124599759D01*
X75339287Y-124639196D01*
X75366486Y-124703554D01*
X75354572Y-124772401D01*
X75307328Y-124823877D01*
X75281613Y-124835621D01*
X75140162Y-124881581D01*
X74964855Y-124970905D01*
X74964846Y-124970911D01*
X74888919Y-125026075D01*
X74888918Y-125026076D01*
X75434823Y-125571980D01*
X75427007Y-125574075D01*
X75312993Y-125639901D01*
X75219901Y-125732993D01*
X75154075Y-125847007D01*
X75151980Y-125854822D01*
X74606076Y-125308918D01*
X74606075Y-125308919D01*
X74550911Y-125384846D01*
X74550905Y-125384855D01*
X74460485Y-125562315D01*
X74412510Y-125613111D01*
X74344689Y-125629906D01*
X74278554Y-125607369D01*
X74239515Y-125562315D01*
X74149095Y-125384856D01*
X74093922Y-125308919D01*
X74093922Y-125308918D01*
X73548018Y-125854821D01*
X73545925Y-125847007D01*
X73480099Y-125732993D01*
X73387007Y-125639901D01*
X73272993Y-125574075D01*
X73265177Y-125571980D01*
X73811080Y-125026077D01*
X73811079Y-125026076D01*
X73735143Y-124970904D01*
X73559837Y-124881582D01*
X73418386Y-124835621D01*
X73360711Y-124796183D01*
X73333513Y-124731824D01*
X73345428Y-124662978D01*
X73392672Y-124611502D01*
X73418388Y-124599759D01*
X73521633Y-124566213D01*
X73521639Y-124566211D01*
X73542631Y-124555515D01*
X73682994Y-124483996D01*
X73829501Y-124377553D01*
X73957553Y-124249501D01*
X74063996Y-124102994D01*
X74146211Y-123941639D01*
X74202171Y-123769409D01*
X74216422Y-123679425D01*
X74227527Y-123609321D01*
X74257456Y-123546186D01*
X74316768Y-123509255D01*
X74386630Y-123510253D01*
G37*
%TD.AperFunction*%
%TA.AperFunction,Conductor*%
G36*
X76926630Y-123510253D02*
G01*
X76984863Y-123548863D01*
X77012473Y-123609321D01*
X77037829Y-123769410D01*
X77093787Y-123941636D01*
X77093788Y-123941639D01*
X77176006Y-124102997D01*
X77282441Y-124249494D01*
X77282445Y-124249499D01*
X77410500Y-124377554D01*
X77410505Y-124377558D01*
X77538287Y-124470396D01*
X77557006Y-124483996D01*
X77662484Y-124537740D01*
X77718360Y-124566211D01*
X77718366Y-124566213D01*
X77821611Y-124599759D01*
X77879287Y-124639196D01*
X77906486Y-124703554D01*
X77894572Y-124772401D01*
X77847328Y-124823877D01*
X77821613Y-124835621D01*
X77680162Y-124881581D01*
X77504855Y-124970905D01*
X77504846Y-124970911D01*
X77428919Y-125026075D01*
X77428918Y-125026076D01*
X77974823Y-125571980D01*
X77967007Y-125574075D01*
X77852993Y-125639901D01*
X77759901Y-125732993D01*
X77694075Y-125847007D01*
X77691980Y-125854822D01*
X77146076Y-125308918D01*
X77146075Y-125308919D01*
X77090911Y-125384846D01*
X77090905Y-125384855D01*
X77000485Y-125562315D01*
X76952510Y-125613111D01*
X76884689Y-125629906D01*
X76818554Y-125607369D01*
X76779515Y-125562315D01*
X76689095Y-125384856D01*
X76633922Y-125308919D01*
X76633922Y-125308918D01*
X76088018Y-125854821D01*
X76085925Y-125847007D01*
X76020099Y-125732993D01*
X75927007Y-125639901D01*
X75812993Y-125574075D01*
X75805177Y-125571980D01*
X76351080Y-125026077D01*
X76351079Y-125026076D01*
X76275143Y-124970904D01*
X76099837Y-124881582D01*
X75958386Y-124835621D01*
X75900711Y-124796183D01*
X75873513Y-124731824D01*
X75885428Y-124662978D01*
X75932672Y-124611502D01*
X75958388Y-124599759D01*
X76061633Y-124566213D01*
X76061639Y-124566211D01*
X76082631Y-124555515D01*
X76222994Y-124483996D01*
X76369501Y-124377553D01*
X76497553Y-124249501D01*
X76603996Y-124102994D01*
X76686211Y-123941639D01*
X76742171Y-123769409D01*
X76756422Y-123679425D01*
X76767527Y-123609321D01*
X76797456Y-123546186D01*
X76856768Y-123509255D01*
X76926630Y-123510253D01*
G37*
%TD.AperFunction*%
%TA.AperFunction,Conductor*%
G36*
X79466630Y-123510253D02*
G01*
X79524863Y-123548863D01*
X79552473Y-123609321D01*
X79577829Y-123769410D01*
X79633787Y-123941636D01*
X79633788Y-123941639D01*
X79716006Y-124102997D01*
X79822441Y-124249494D01*
X79822445Y-124249499D01*
X79950500Y-124377554D01*
X79950505Y-124377558D01*
X80078287Y-124470396D01*
X80097006Y-124483996D01*
X80202484Y-124537740D01*
X80258360Y-124566211D01*
X80258366Y-124566213D01*
X80361611Y-124599759D01*
X80419287Y-124639196D01*
X80446486Y-124703554D01*
X80434572Y-124772401D01*
X80387328Y-124823877D01*
X80361613Y-124835621D01*
X80220162Y-124881581D01*
X80044855Y-124970905D01*
X80044846Y-124970911D01*
X79968919Y-125026075D01*
X79968918Y-125026076D01*
X80514823Y-125571980D01*
X80507007Y-125574075D01*
X80392993Y-125639901D01*
X80299901Y-125732993D01*
X80234075Y-125847007D01*
X80231980Y-125854822D01*
X79686076Y-125308918D01*
X79686075Y-125308919D01*
X79630911Y-125384846D01*
X79630905Y-125384855D01*
X79540485Y-125562315D01*
X79492510Y-125613111D01*
X79424689Y-125629906D01*
X79358554Y-125607369D01*
X79319515Y-125562315D01*
X79229095Y-125384856D01*
X79173922Y-125308919D01*
X79173922Y-125308918D01*
X78628018Y-125854821D01*
X78625925Y-125847007D01*
X78560099Y-125732993D01*
X78467007Y-125639901D01*
X78352993Y-125574075D01*
X78345177Y-125571980D01*
X78891080Y-125026077D01*
X78891079Y-125026076D01*
X78815143Y-124970904D01*
X78639837Y-124881582D01*
X78498386Y-124835621D01*
X78440711Y-124796183D01*
X78413513Y-124731824D01*
X78425428Y-124662978D01*
X78472672Y-124611502D01*
X78498388Y-124599759D01*
X78601633Y-124566213D01*
X78601639Y-124566211D01*
X78622631Y-124555515D01*
X78762994Y-124483996D01*
X78909501Y-124377553D01*
X79037553Y-124249501D01*
X79143996Y-124102994D01*
X79226211Y-123941639D01*
X79282171Y-123769409D01*
X79296422Y-123679425D01*
X79307527Y-123609321D01*
X79337456Y-123546186D01*
X79396768Y-123509255D01*
X79466630Y-123510253D01*
G37*
%TD.AperFunction*%
%TA.AperFunction,Conductor*%
G36*
X82006630Y-123510253D02*
G01*
X82064863Y-123548863D01*
X82092473Y-123609321D01*
X82117829Y-123769410D01*
X82173787Y-123941636D01*
X82173788Y-123941639D01*
X82256006Y-124102997D01*
X82362441Y-124249494D01*
X82362445Y-124249499D01*
X82490500Y-124377554D01*
X82490505Y-124377558D01*
X82618287Y-124470396D01*
X82637006Y-124483996D01*
X82742484Y-124537740D01*
X82798360Y-124566211D01*
X82798366Y-124566213D01*
X82901611Y-124599759D01*
X82959287Y-124639196D01*
X82986486Y-124703554D01*
X82974572Y-124772401D01*
X82927328Y-124823877D01*
X82901613Y-124835621D01*
X82760162Y-124881581D01*
X82584855Y-124970905D01*
X82584846Y-124970911D01*
X82508919Y-125026075D01*
X82508918Y-125026076D01*
X83054823Y-125571980D01*
X83047007Y-125574075D01*
X82932993Y-125639901D01*
X82839901Y-125732993D01*
X82774075Y-125847007D01*
X82771980Y-125854822D01*
X82226076Y-125308918D01*
X82226075Y-125308919D01*
X82170911Y-125384846D01*
X82170905Y-125384855D01*
X82080485Y-125562315D01*
X82032510Y-125613111D01*
X81964689Y-125629906D01*
X81898554Y-125607369D01*
X81859515Y-125562315D01*
X81769095Y-125384856D01*
X81713922Y-125308919D01*
X81713922Y-125308918D01*
X81168018Y-125854821D01*
X81165925Y-125847007D01*
X81100099Y-125732993D01*
X81007007Y-125639901D01*
X80892993Y-125574075D01*
X80885177Y-125571980D01*
X81431080Y-125026077D01*
X81431079Y-125026076D01*
X81355143Y-124970904D01*
X81179837Y-124881582D01*
X81038386Y-124835621D01*
X80980711Y-124796183D01*
X80953513Y-124731824D01*
X80965428Y-124662978D01*
X81012672Y-124611502D01*
X81038388Y-124599759D01*
X81141633Y-124566213D01*
X81141639Y-124566211D01*
X81162631Y-124555515D01*
X81302994Y-124483996D01*
X81449501Y-124377553D01*
X81577553Y-124249501D01*
X81683996Y-124102994D01*
X81766211Y-123941639D01*
X81822171Y-123769409D01*
X81836422Y-123679425D01*
X81847527Y-123609321D01*
X81877456Y-123546186D01*
X81936768Y-123509255D01*
X82006630Y-123510253D01*
G37*
%TD.AperFunction*%
%TA.AperFunction,Conductor*%
G36*
X84546630Y-123510253D02*
G01*
X84604863Y-123548863D01*
X84632473Y-123609321D01*
X84657829Y-123769410D01*
X84713787Y-123941636D01*
X84713788Y-123941639D01*
X84796006Y-124102997D01*
X84902441Y-124249494D01*
X84902445Y-124249499D01*
X85030500Y-124377554D01*
X85030505Y-124377558D01*
X85158287Y-124470396D01*
X85177006Y-124483996D01*
X85282484Y-124537740D01*
X85338360Y-124566211D01*
X85338366Y-124566213D01*
X85441611Y-124599759D01*
X85499287Y-124639196D01*
X85526486Y-124703554D01*
X85514572Y-124772401D01*
X85467328Y-124823877D01*
X85441613Y-124835621D01*
X85300162Y-124881581D01*
X85124855Y-124970905D01*
X85124846Y-124970911D01*
X85048919Y-125026075D01*
X85048918Y-125026076D01*
X85594823Y-125571980D01*
X85587007Y-125574075D01*
X85472993Y-125639901D01*
X85379901Y-125732993D01*
X85314075Y-125847007D01*
X85311980Y-125854822D01*
X84766076Y-125308918D01*
X84766075Y-125308919D01*
X84710911Y-125384846D01*
X84710905Y-125384855D01*
X84620485Y-125562315D01*
X84572510Y-125613111D01*
X84504689Y-125629906D01*
X84438554Y-125607369D01*
X84399515Y-125562315D01*
X84309095Y-125384856D01*
X84253922Y-125308919D01*
X84253922Y-125308918D01*
X83708018Y-125854821D01*
X83705925Y-125847007D01*
X83640099Y-125732993D01*
X83547007Y-125639901D01*
X83432993Y-125574075D01*
X83425177Y-125571980D01*
X83971080Y-125026077D01*
X83971079Y-125026076D01*
X83895143Y-124970904D01*
X83719837Y-124881582D01*
X83578386Y-124835621D01*
X83520711Y-124796183D01*
X83493513Y-124731824D01*
X83505428Y-124662978D01*
X83552672Y-124611502D01*
X83578388Y-124599759D01*
X83681633Y-124566213D01*
X83681639Y-124566211D01*
X83702631Y-124555515D01*
X83842994Y-124483996D01*
X83989501Y-124377553D01*
X84117553Y-124249501D01*
X84223996Y-124102994D01*
X84306211Y-123941639D01*
X84362171Y-123769409D01*
X84376422Y-123679425D01*
X84387527Y-123609321D01*
X84417456Y-123546186D01*
X84476768Y-123509255D01*
X84546630Y-123510253D01*
G37*
%TD.AperFunction*%
%TA.AperFunction,Conductor*%
G36*
X87086630Y-123510253D02*
G01*
X87144863Y-123548863D01*
X87172473Y-123609321D01*
X87197829Y-123769410D01*
X87253787Y-123941636D01*
X87253788Y-123941639D01*
X87336006Y-124102997D01*
X87442441Y-124249494D01*
X87442445Y-124249499D01*
X87570500Y-124377554D01*
X87570505Y-124377558D01*
X87698287Y-124470396D01*
X87717006Y-124483996D01*
X87822484Y-124537740D01*
X87878360Y-124566211D01*
X87878366Y-124566213D01*
X87981611Y-124599759D01*
X88039287Y-124639196D01*
X88066486Y-124703554D01*
X88054572Y-124772401D01*
X88007328Y-124823877D01*
X87981613Y-124835621D01*
X87840162Y-124881581D01*
X87664855Y-124970905D01*
X87664846Y-124970911D01*
X87588919Y-125026075D01*
X87588918Y-125026076D01*
X88134823Y-125571980D01*
X88127007Y-125574075D01*
X88012993Y-125639901D01*
X87919901Y-125732993D01*
X87854075Y-125847007D01*
X87851980Y-125854822D01*
X87306076Y-125308918D01*
X87306075Y-125308919D01*
X87250911Y-125384846D01*
X87250905Y-125384855D01*
X87160485Y-125562315D01*
X87112510Y-125613111D01*
X87044689Y-125629906D01*
X86978554Y-125607369D01*
X86939515Y-125562315D01*
X86849095Y-125384856D01*
X86793922Y-125308919D01*
X86793922Y-125308918D01*
X86248018Y-125854821D01*
X86245925Y-125847007D01*
X86180099Y-125732993D01*
X86087007Y-125639901D01*
X85972993Y-125574075D01*
X85965177Y-125571980D01*
X86511080Y-125026077D01*
X86511079Y-125026076D01*
X86435143Y-124970904D01*
X86259837Y-124881582D01*
X86118386Y-124835621D01*
X86060711Y-124796183D01*
X86033513Y-124731824D01*
X86045428Y-124662978D01*
X86092672Y-124611502D01*
X86118388Y-124599759D01*
X86221633Y-124566213D01*
X86221639Y-124566211D01*
X86242631Y-124555515D01*
X86382994Y-124483996D01*
X86529501Y-124377553D01*
X86657553Y-124249501D01*
X86763996Y-124102994D01*
X86846211Y-123941639D01*
X86902171Y-123769409D01*
X86916422Y-123679425D01*
X86927527Y-123609321D01*
X86957456Y-123546186D01*
X87016768Y-123509255D01*
X87086630Y-123510253D01*
G37*
%TD.AperFunction*%
%TA.AperFunction,Conductor*%
G36*
X89626630Y-123510253D02*
G01*
X89684863Y-123548863D01*
X89712473Y-123609321D01*
X89737829Y-123769410D01*
X89793787Y-123941636D01*
X89793788Y-123941639D01*
X89876006Y-124102997D01*
X89982441Y-124249494D01*
X89982445Y-124249499D01*
X90110500Y-124377554D01*
X90110505Y-124377558D01*
X90238287Y-124470396D01*
X90257006Y-124483996D01*
X90362484Y-124537740D01*
X90418360Y-124566211D01*
X90418366Y-124566213D01*
X90521611Y-124599759D01*
X90579287Y-124639196D01*
X90606486Y-124703554D01*
X90594572Y-124772401D01*
X90547328Y-124823877D01*
X90521613Y-124835621D01*
X90380162Y-124881581D01*
X90204855Y-124970905D01*
X90204846Y-124970911D01*
X90128919Y-125026075D01*
X90128918Y-125026076D01*
X90674823Y-125571980D01*
X90667007Y-125574075D01*
X90552993Y-125639901D01*
X90459901Y-125732993D01*
X90394075Y-125847007D01*
X90391980Y-125854822D01*
X89846076Y-125308918D01*
X89846075Y-125308919D01*
X89790911Y-125384846D01*
X89790905Y-125384855D01*
X89700485Y-125562315D01*
X89652510Y-125613111D01*
X89584689Y-125629906D01*
X89518554Y-125607369D01*
X89479515Y-125562315D01*
X89389095Y-125384856D01*
X89333922Y-125308919D01*
X89333922Y-125308918D01*
X88788018Y-125854821D01*
X88785925Y-125847007D01*
X88720099Y-125732993D01*
X88627007Y-125639901D01*
X88512993Y-125574075D01*
X88505177Y-125571980D01*
X89051080Y-125026077D01*
X89051079Y-125026076D01*
X88975143Y-124970904D01*
X88799837Y-124881582D01*
X88658386Y-124835621D01*
X88600711Y-124796183D01*
X88573513Y-124731824D01*
X88585428Y-124662978D01*
X88632672Y-124611502D01*
X88658388Y-124599759D01*
X88761633Y-124566213D01*
X88761639Y-124566211D01*
X88782631Y-124555515D01*
X88922994Y-124483996D01*
X89069501Y-124377553D01*
X89197553Y-124249501D01*
X89303996Y-124102994D01*
X89386211Y-123941639D01*
X89442171Y-123769409D01*
X89456422Y-123679425D01*
X89467527Y-123609321D01*
X89497456Y-123546186D01*
X89556768Y-123509255D01*
X89626630Y-123510253D01*
G37*
%TD.AperFunction*%
%TA.AperFunction,Conductor*%
G36*
X92934075Y-123692993D02*
G01*
X92999901Y-123807007D01*
X93092993Y-123900099D01*
X93207007Y-123965925D01*
X93214822Y-123968019D01*
X92668918Y-124513922D01*
X92744856Y-124569095D01*
X92922315Y-124659515D01*
X92973111Y-124707489D01*
X92989906Y-124775310D01*
X92967369Y-124841445D01*
X92922315Y-124880485D01*
X92744855Y-124970905D01*
X92744846Y-124970911D01*
X92668919Y-125026075D01*
X92668918Y-125026076D01*
X93214823Y-125571980D01*
X93207007Y-125574075D01*
X93092993Y-125639901D01*
X92999901Y-125732993D01*
X92934075Y-125847007D01*
X92931980Y-125854822D01*
X92386076Y-125308918D01*
X92386075Y-125308919D01*
X92330911Y-125384846D01*
X92330905Y-125384855D01*
X92240485Y-125562315D01*
X92192510Y-125613111D01*
X92124689Y-125629906D01*
X92058554Y-125607369D01*
X92019515Y-125562315D01*
X91929095Y-125384856D01*
X91873922Y-125308919D01*
X91873922Y-125308918D01*
X91328018Y-125854821D01*
X91325925Y-125847007D01*
X91260099Y-125732993D01*
X91167007Y-125639901D01*
X91052993Y-125574075D01*
X91045177Y-125571980D01*
X91591080Y-125026077D01*
X91591079Y-125026076D01*
X91515143Y-124970904D01*
X91339837Y-124881582D01*
X91198386Y-124835621D01*
X91140711Y-124796183D01*
X91113513Y-124731824D01*
X91125428Y-124662978D01*
X91172672Y-124611502D01*
X91198388Y-124599759D01*
X91301633Y-124566213D01*
X91301639Y-124566211D01*
X91322631Y-124555515D01*
X91462994Y-124483996D01*
X91609501Y-124377553D01*
X91737553Y-124249501D01*
X91843996Y-124102994D01*
X91926211Y-123941639D01*
X91959759Y-123838388D01*
X91999196Y-123780712D01*
X92063554Y-123753513D01*
X92132401Y-123765427D01*
X92183877Y-123812671D01*
X92195621Y-123838386D01*
X92241582Y-123979837D01*
X92330904Y-124155143D01*
X92386076Y-124231079D01*
X92386077Y-124231080D01*
X92931980Y-123685176D01*
X92934075Y-123692993D01*
G37*
%TD.AperFunction*%
%TA.AperFunction,Conductor*%
G36*
X95474075Y-123692993D02*
G01*
X95539901Y-123807007D01*
X95632993Y-123900099D01*
X95747007Y-123965925D01*
X95754822Y-123968019D01*
X95208918Y-124513922D01*
X95284856Y-124569095D01*
X95462315Y-124659515D01*
X95513111Y-124707489D01*
X95529906Y-124775310D01*
X95507369Y-124841445D01*
X95462315Y-124880485D01*
X95284855Y-124970905D01*
X95284846Y-124970911D01*
X95208919Y-125026075D01*
X95208918Y-125026076D01*
X95754823Y-125571980D01*
X95747007Y-125574075D01*
X95632993Y-125639901D01*
X95539901Y-125732993D01*
X95474075Y-125847007D01*
X95471980Y-125854822D01*
X94926076Y-125308918D01*
X94926075Y-125308919D01*
X94870911Y-125384846D01*
X94870905Y-125384855D01*
X94780485Y-125562315D01*
X94732510Y-125613111D01*
X94664689Y-125629906D01*
X94598554Y-125607369D01*
X94559515Y-125562315D01*
X94469095Y-125384856D01*
X94413922Y-125308919D01*
X94413922Y-125308918D01*
X93868018Y-125854821D01*
X93865925Y-125847007D01*
X93800099Y-125732993D01*
X93707007Y-125639901D01*
X93592993Y-125574075D01*
X93585177Y-125571980D01*
X94131080Y-125026077D01*
X94131079Y-125026076D01*
X94055141Y-124970902D01*
X93877685Y-124880485D01*
X93826888Y-124832511D01*
X93810093Y-124764690D01*
X93832630Y-124698555D01*
X93877685Y-124659515D01*
X94055140Y-124569097D01*
X94055141Y-124569097D01*
X94131079Y-124513922D01*
X94131080Y-124513921D01*
X93585178Y-123968019D01*
X93592993Y-123965925D01*
X93707007Y-123900099D01*
X93800099Y-123807007D01*
X93865925Y-123692993D01*
X93868019Y-123685177D01*
X94413921Y-124231080D01*
X94413922Y-124231079D01*
X94469097Y-124155141D01*
X94469097Y-124155140D01*
X94559515Y-123977685D01*
X94607489Y-123926888D01*
X94675310Y-123910093D01*
X94741445Y-123932630D01*
X94780485Y-123977685D01*
X94870902Y-124155141D01*
X94926076Y-124231079D01*
X94926077Y-124231080D01*
X95471980Y-123685176D01*
X95474075Y-123692993D01*
G37*
%TD.AperFunction*%
%TA.AperFunction,Conductor*%
G36*
X98014075Y-123692993D02*
G01*
X98079901Y-123807007D01*
X98172993Y-123900099D01*
X98287007Y-123965925D01*
X98294822Y-123968019D01*
X97748918Y-124513922D01*
X97824856Y-124569095D01*
X98002315Y-124659515D01*
X98053111Y-124707489D01*
X98069906Y-124775310D01*
X98047369Y-124841445D01*
X98002315Y-124880485D01*
X97824855Y-124970905D01*
X97824846Y-124970911D01*
X97748919Y-125026075D01*
X97748918Y-125026076D01*
X98294823Y-125571980D01*
X98287007Y-125574075D01*
X98172993Y-125639901D01*
X98079901Y-125732993D01*
X98014075Y-125847007D01*
X98011980Y-125854822D01*
X97466076Y-125308918D01*
X97466075Y-125308919D01*
X97410911Y-125384846D01*
X97410905Y-125384855D01*
X97320485Y-125562315D01*
X97272510Y-125613111D01*
X97204689Y-125629906D01*
X97138554Y-125607369D01*
X97099515Y-125562315D01*
X97009095Y-125384856D01*
X96953922Y-125308919D01*
X96953922Y-125308918D01*
X96408018Y-125854821D01*
X96405925Y-125847007D01*
X96340099Y-125732993D01*
X96247007Y-125639901D01*
X96132993Y-125574075D01*
X96125177Y-125571980D01*
X96671080Y-125026077D01*
X96671079Y-125026076D01*
X96595141Y-124970902D01*
X96417685Y-124880485D01*
X96366888Y-124832511D01*
X96350093Y-124764690D01*
X96372630Y-124698555D01*
X96417685Y-124659515D01*
X96595140Y-124569097D01*
X96595141Y-124569097D01*
X96671079Y-124513922D01*
X96671080Y-124513921D01*
X96125178Y-123968019D01*
X96132993Y-123965925D01*
X96247007Y-123900099D01*
X96340099Y-123807007D01*
X96405925Y-123692993D01*
X96408019Y-123685177D01*
X96953921Y-124231080D01*
X96953922Y-124231079D01*
X97009097Y-124155141D01*
X97009097Y-124155140D01*
X97099515Y-123977685D01*
X97147489Y-123926888D01*
X97215310Y-123910093D01*
X97281445Y-123932630D01*
X97320485Y-123977685D01*
X97410902Y-124155141D01*
X97466076Y-124231079D01*
X97466077Y-124231080D01*
X98011980Y-123685176D01*
X98014075Y-123692993D01*
G37*
%TD.AperFunction*%
%TA.AperFunction,Conductor*%
G36*
X103094075Y-123692993D02*
G01*
X103159901Y-123807007D01*
X103252993Y-123900099D01*
X103367007Y-123965925D01*
X103374822Y-123968019D01*
X102828918Y-124513922D01*
X102904856Y-124569095D01*
X103082315Y-124659515D01*
X103133111Y-124707489D01*
X103149906Y-124775310D01*
X103127369Y-124841445D01*
X103082315Y-124880485D01*
X102904855Y-124970905D01*
X102904846Y-124970911D01*
X102828919Y-125026075D01*
X102828918Y-125026076D01*
X103374823Y-125571980D01*
X103367007Y-125574075D01*
X103252993Y-125639901D01*
X103159901Y-125732993D01*
X103094075Y-125847007D01*
X103091980Y-125854822D01*
X102546076Y-125308918D01*
X102546075Y-125308919D01*
X102490911Y-125384846D01*
X102490905Y-125384855D01*
X102401581Y-125560162D01*
X102355621Y-125701613D01*
X102316183Y-125759288D01*
X102251824Y-125786486D01*
X102182978Y-125774571D01*
X102131502Y-125727327D01*
X102119759Y-125701611D01*
X102086213Y-125598366D01*
X102086211Y-125598360D01*
X102056474Y-125540000D01*
X102003996Y-125437006D01*
X101931910Y-125337787D01*
X101897558Y-125290505D01*
X101897554Y-125290500D01*
X101769499Y-125162445D01*
X101769494Y-125162441D01*
X101622997Y-125056006D01*
X101622996Y-125056005D01*
X101622994Y-125056004D01*
X101564257Y-125026076D01*
X101461639Y-124973788D01*
X101461636Y-124973787D01*
X101289410Y-124917829D01*
X101129321Y-124892473D01*
X101066186Y-124862544D01*
X101029255Y-124803232D01*
X101030253Y-124733370D01*
X101068863Y-124675137D01*
X101129321Y-124647527D01*
X101199425Y-124636422D01*
X101289409Y-124622171D01*
X101461639Y-124566211D01*
X101622994Y-124483996D01*
X101769501Y-124377553D01*
X101897553Y-124249501D01*
X102003996Y-124102994D01*
X102086211Y-123941639D01*
X102119759Y-123838388D01*
X102159196Y-123780712D01*
X102223554Y-123753513D01*
X102292401Y-123765427D01*
X102343877Y-123812671D01*
X102355621Y-123838386D01*
X102401582Y-123979837D01*
X102490904Y-124155143D01*
X102546076Y-124231079D01*
X102546077Y-124231080D01*
X103091980Y-123685176D01*
X103094075Y-123692993D01*
G37*
%TD.AperFunction*%
%TA.AperFunction,Conductor*%
G36*
X105634075Y-123692993D02*
G01*
X105699901Y-123807007D01*
X105792993Y-123900099D01*
X105907007Y-123965925D01*
X105914822Y-123968019D01*
X105368918Y-124513922D01*
X105444856Y-124569095D01*
X105622315Y-124659515D01*
X105673111Y-124707489D01*
X105689906Y-124775310D01*
X105667369Y-124841445D01*
X105622315Y-124880485D01*
X105444855Y-124970905D01*
X105444846Y-124970911D01*
X105368919Y-125026075D01*
X105368918Y-125026076D01*
X105914823Y-125571980D01*
X105907007Y-125574075D01*
X105792993Y-125639901D01*
X105699901Y-125732993D01*
X105634075Y-125847007D01*
X105631980Y-125854822D01*
X105086076Y-125308918D01*
X105086075Y-125308919D01*
X105030911Y-125384846D01*
X105030905Y-125384855D01*
X104940485Y-125562315D01*
X104892510Y-125613111D01*
X104824689Y-125629906D01*
X104758554Y-125607369D01*
X104719515Y-125562315D01*
X104629095Y-125384856D01*
X104573922Y-125308919D01*
X104573922Y-125308918D01*
X104028018Y-125854821D01*
X104025925Y-125847007D01*
X103960099Y-125732993D01*
X103867007Y-125639901D01*
X103752993Y-125574075D01*
X103745177Y-125571980D01*
X104291080Y-125026077D01*
X104291079Y-125026076D01*
X104215141Y-124970902D01*
X104037685Y-124880485D01*
X103986888Y-124832511D01*
X103970093Y-124764690D01*
X103992630Y-124698555D01*
X104037685Y-124659515D01*
X104215140Y-124569097D01*
X104215141Y-124569097D01*
X104291079Y-124513922D01*
X104291080Y-124513921D01*
X103745178Y-123968019D01*
X103752993Y-123965925D01*
X103867007Y-123900099D01*
X103960099Y-123807007D01*
X104025925Y-123692993D01*
X104028019Y-123685177D01*
X104573921Y-124231080D01*
X104573922Y-124231079D01*
X104629097Y-124155141D01*
X104629097Y-124155140D01*
X104719515Y-123977685D01*
X104767489Y-123926888D01*
X104835310Y-123910093D01*
X104901445Y-123932630D01*
X104940485Y-123977685D01*
X105030902Y-124155141D01*
X105086076Y-124231079D01*
X105086077Y-124231080D01*
X105631980Y-123685176D01*
X105634075Y-123692993D01*
G37*
%TD.AperFunction*%
%TA.AperFunction,Conductor*%
G36*
X107113921Y-124231080D02*
G01*
X107113922Y-124231079D01*
X107169095Y-124155143D01*
X107258418Y-123979835D01*
X107304378Y-123838387D01*
X107343815Y-123780712D01*
X107408174Y-123753513D01*
X107477020Y-123765428D01*
X107528496Y-123812672D01*
X107540240Y-123838387D01*
X107573787Y-123941636D01*
X107573788Y-123941639D01*
X107656006Y-124102997D01*
X107762441Y-124249494D01*
X107762445Y-124249499D01*
X107890500Y-124377554D01*
X107890505Y-124377558D01*
X108018287Y-124470396D01*
X108037006Y-124483996D01*
X108142484Y-124537740D01*
X108198360Y-124566211D01*
X108198366Y-124566213D01*
X108301611Y-124599759D01*
X108359287Y-124639196D01*
X108386486Y-124703554D01*
X108374572Y-124772401D01*
X108327328Y-124823877D01*
X108301613Y-124835621D01*
X108160162Y-124881581D01*
X107984855Y-124970905D01*
X107984846Y-124970911D01*
X107908919Y-125026075D01*
X107908918Y-125026076D01*
X108454823Y-125571980D01*
X108447007Y-125574075D01*
X108332993Y-125639901D01*
X108239901Y-125732993D01*
X108174075Y-125847007D01*
X108171980Y-125854822D01*
X107626076Y-125308918D01*
X107626075Y-125308919D01*
X107570911Y-125384846D01*
X107570905Y-125384855D01*
X107480485Y-125562315D01*
X107432510Y-125613111D01*
X107364689Y-125629906D01*
X107298554Y-125607369D01*
X107259515Y-125562315D01*
X107169095Y-125384856D01*
X107113922Y-125308919D01*
X107113922Y-125308918D01*
X106568018Y-125854821D01*
X106565925Y-125847007D01*
X106500099Y-125732993D01*
X106407007Y-125639901D01*
X106292993Y-125574075D01*
X106285177Y-125571980D01*
X106831080Y-125026077D01*
X106831079Y-125026076D01*
X106755141Y-124970902D01*
X106577685Y-124880485D01*
X106526888Y-124832511D01*
X106510093Y-124764690D01*
X106532630Y-124698555D01*
X106577685Y-124659515D01*
X106755140Y-124569097D01*
X106755141Y-124569097D01*
X106831079Y-124513922D01*
X106831080Y-124513921D01*
X106285178Y-123968019D01*
X106292993Y-123965925D01*
X106407007Y-123900099D01*
X106500099Y-123807007D01*
X106565925Y-123692993D01*
X106568019Y-123685177D01*
X107113921Y-124231080D01*
G37*
%TD.AperFunction*%
%TA.AperFunction,Conductor*%
G36*
X109946630Y-123510253D02*
G01*
X110004863Y-123548863D01*
X110032473Y-123609321D01*
X110057829Y-123769410D01*
X110113787Y-123941636D01*
X110113788Y-123941639D01*
X110196006Y-124102997D01*
X110302441Y-124249494D01*
X110302445Y-124249499D01*
X110430500Y-124377554D01*
X110430505Y-124377558D01*
X110558287Y-124470396D01*
X110577006Y-124483996D01*
X110682484Y-124537740D01*
X110738360Y-124566211D01*
X110738366Y-124566213D01*
X110841611Y-124599759D01*
X110899287Y-124639196D01*
X110926486Y-124703554D01*
X110914572Y-124772401D01*
X110867328Y-124823877D01*
X110841613Y-124835621D01*
X110700162Y-124881581D01*
X110524855Y-124970905D01*
X110524846Y-124970911D01*
X110448919Y-125026075D01*
X110448918Y-125026076D01*
X110994823Y-125571980D01*
X110987007Y-125574075D01*
X110872993Y-125639901D01*
X110779901Y-125732993D01*
X110714075Y-125847007D01*
X110711980Y-125854822D01*
X110166076Y-125308918D01*
X110166075Y-125308919D01*
X110110911Y-125384846D01*
X110110905Y-125384855D01*
X110020485Y-125562315D01*
X109972510Y-125613111D01*
X109904689Y-125629906D01*
X109838554Y-125607369D01*
X109799515Y-125562315D01*
X109709095Y-125384856D01*
X109653922Y-125308919D01*
X109653922Y-125308918D01*
X109108018Y-125854821D01*
X109105925Y-125847007D01*
X109040099Y-125732993D01*
X108947007Y-125639901D01*
X108832993Y-125574075D01*
X108825177Y-125571980D01*
X109371080Y-125026077D01*
X109371079Y-125026076D01*
X109295143Y-124970904D01*
X109119837Y-124881582D01*
X108978386Y-124835621D01*
X108920711Y-124796183D01*
X108893513Y-124731824D01*
X108905428Y-124662978D01*
X108952672Y-124611502D01*
X108978388Y-124599759D01*
X109081633Y-124566213D01*
X109081639Y-124566211D01*
X109102631Y-124555515D01*
X109242994Y-124483996D01*
X109389501Y-124377553D01*
X109517553Y-124249501D01*
X109623996Y-124102994D01*
X109706211Y-123941639D01*
X109762171Y-123769409D01*
X109776422Y-123679425D01*
X109787527Y-123609321D01*
X109817456Y-123546186D01*
X109876768Y-123509255D01*
X109946630Y-123510253D01*
G37*
%TD.AperFunction*%
%TA.AperFunction,Conductor*%
G36*
X112486630Y-123510253D02*
G01*
X112544863Y-123548863D01*
X112572473Y-123609321D01*
X112597829Y-123769410D01*
X112653787Y-123941636D01*
X112653788Y-123941639D01*
X112736006Y-124102997D01*
X112842441Y-124249494D01*
X112842445Y-124249499D01*
X112970500Y-124377554D01*
X112970505Y-124377558D01*
X113098287Y-124470396D01*
X113117006Y-124483996D01*
X113222484Y-124537740D01*
X113278360Y-124566211D01*
X113278366Y-124566213D01*
X113381611Y-124599759D01*
X113439287Y-124639196D01*
X113466486Y-124703554D01*
X113454572Y-124772401D01*
X113407328Y-124823877D01*
X113381613Y-124835621D01*
X113240162Y-124881581D01*
X113064855Y-124970905D01*
X113064846Y-124970911D01*
X112988919Y-125026075D01*
X112988918Y-125026076D01*
X113534823Y-125571980D01*
X113527007Y-125574075D01*
X113412993Y-125639901D01*
X113319901Y-125732993D01*
X113254075Y-125847007D01*
X113251980Y-125854822D01*
X112706076Y-125308918D01*
X112706075Y-125308919D01*
X112650911Y-125384846D01*
X112650905Y-125384855D01*
X112560485Y-125562315D01*
X112512510Y-125613111D01*
X112444689Y-125629906D01*
X112378554Y-125607369D01*
X112339515Y-125562315D01*
X112249095Y-125384856D01*
X112193922Y-125308919D01*
X112193922Y-125308918D01*
X111648018Y-125854821D01*
X111645925Y-125847007D01*
X111580099Y-125732993D01*
X111487007Y-125639901D01*
X111372993Y-125574075D01*
X111365177Y-125571980D01*
X111911080Y-125026077D01*
X111911079Y-125026076D01*
X111835143Y-124970904D01*
X111659837Y-124881582D01*
X111518386Y-124835621D01*
X111460711Y-124796183D01*
X111433513Y-124731824D01*
X111445428Y-124662978D01*
X111492672Y-124611502D01*
X111518388Y-124599759D01*
X111621633Y-124566213D01*
X111621639Y-124566211D01*
X111642631Y-124555515D01*
X111782994Y-124483996D01*
X111929501Y-124377553D01*
X112057553Y-124249501D01*
X112163996Y-124102994D01*
X112246211Y-123941639D01*
X112302171Y-123769409D01*
X112316422Y-123679425D01*
X112327527Y-123609321D01*
X112357456Y-123546186D01*
X112416768Y-123509255D01*
X112486630Y-123510253D01*
G37*
%TD.AperFunction*%
%TA.AperFunction,Conductor*%
G36*
X115026630Y-123510253D02*
G01*
X115084863Y-123548863D01*
X115112473Y-123609321D01*
X115137829Y-123769410D01*
X115193787Y-123941636D01*
X115193788Y-123941639D01*
X115276006Y-124102997D01*
X115382441Y-124249494D01*
X115382445Y-124249499D01*
X115510500Y-124377554D01*
X115510505Y-124377558D01*
X115638287Y-124470396D01*
X115657006Y-124483996D01*
X115762484Y-124537740D01*
X115818360Y-124566211D01*
X115818366Y-124566213D01*
X115921611Y-124599759D01*
X115979287Y-124639196D01*
X116006486Y-124703554D01*
X115994572Y-124772401D01*
X115947328Y-124823877D01*
X115921613Y-124835621D01*
X115780162Y-124881581D01*
X115604855Y-124970905D01*
X115604846Y-124970911D01*
X115528919Y-125026075D01*
X115528918Y-125026076D01*
X116074823Y-125571980D01*
X116067007Y-125574075D01*
X115952993Y-125639901D01*
X115859901Y-125732993D01*
X115794075Y-125847007D01*
X115791980Y-125854822D01*
X115246076Y-125308918D01*
X115246075Y-125308919D01*
X115190911Y-125384846D01*
X115190905Y-125384855D01*
X115100485Y-125562315D01*
X115052510Y-125613111D01*
X114984689Y-125629906D01*
X114918554Y-125607369D01*
X114879515Y-125562315D01*
X114789095Y-125384856D01*
X114733922Y-125308919D01*
X114733922Y-125308918D01*
X114188018Y-125854821D01*
X114185925Y-125847007D01*
X114120099Y-125732993D01*
X114027007Y-125639901D01*
X113912993Y-125574075D01*
X113905177Y-125571980D01*
X114451080Y-125026077D01*
X114451079Y-125026076D01*
X114375143Y-124970904D01*
X114199837Y-124881582D01*
X114058386Y-124835621D01*
X114000711Y-124796183D01*
X113973513Y-124731824D01*
X113985428Y-124662978D01*
X114032672Y-124611502D01*
X114058388Y-124599759D01*
X114161633Y-124566213D01*
X114161639Y-124566211D01*
X114182631Y-124555515D01*
X114322994Y-124483996D01*
X114469501Y-124377553D01*
X114597553Y-124249501D01*
X114703996Y-124102994D01*
X114786211Y-123941639D01*
X114842171Y-123769409D01*
X114856422Y-123679425D01*
X114867527Y-123609321D01*
X114897456Y-123546186D01*
X114956768Y-123509255D01*
X115026630Y-123510253D01*
G37*
%TD.AperFunction*%
%TA.AperFunction,Conductor*%
G36*
X117566630Y-123510253D02*
G01*
X117624863Y-123548863D01*
X117652473Y-123609321D01*
X117677829Y-123769410D01*
X117733787Y-123941636D01*
X117733788Y-123941639D01*
X117816006Y-124102997D01*
X117922441Y-124249494D01*
X117922445Y-124249499D01*
X118050500Y-124377554D01*
X118050505Y-124377558D01*
X118178287Y-124470396D01*
X118197006Y-124483996D01*
X118302484Y-124537740D01*
X118358360Y-124566211D01*
X118358366Y-124566213D01*
X118461611Y-124599759D01*
X118519287Y-124639196D01*
X118546486Y-124703554D01*
X118534572Y-124772401D01*
X118487328Y-124823877D01*
X118461613Y-124835621D01*
X118320162Y-124881581D01*
X118144855Y-124970905D01*
X118144846Y-124970911D01*
X118068919Y-125026075D01*
X118068918Y-125026076D01*
X118614823Y-125571980D01*
X118607007Y-125574075D01*
X118492993Y-125639901D01*
X118399901Y-125732993D01*
X118334075Y-125847007D01*
X118331980Y-125854822D01*
X117786076Y-125308918D01*
X117786075Y-125308919D01*
X117730911Y-125384846D01*
X117730905Y-125384855D01*
X117640485Y-125562315D01*
X117592510Y-125613111D01*
X117524689Y-125629906D01*
X117458554Y-125607369D01*
X117419515Y-125562315D01*
X117329095Y-125384856D01*
X117273922Y-125308919D01*
X117273922Y-125308918D01*
X116728018Y-125854821D01*
X116725925Y-125847007D01*
X116660099Y-125732993D01*
X116567007Y-125639901D01*
X116452993Y-125574075D01*
X116445177Y-125571980D01*
X116991080Y-125026077D01*
X116991079Y-125026076D01*
X116915143Y-124970904D01*
X116739837Y-124881582D01*
X116598386Y-124835621D01*
X116540711Y-124796183D01*
X116513513Y-124731824D01*
X116525428Y-124662978D01*
X116572672Y-124611502D01*
X116598388Y-124599759D01*
X116701633Y-124566213D01*
X116701639Y-124566211D01*
X116722631Y-124555515D01*
X116862994Y-124483996D01*
X117009501Y-124377553D01*
X117137553Y-124249501D01*
X117243996Y-124102994D01*
X117326211Y-123941639D01*
X117382171Y-123769409D01*
X117396422Y-123679425D01*
X117407527Y-123609321D01*
X117437456Y-123546186D01*
X117496768Y-123509255D01*
X117566630Y-123510253D01*
G37*
%TD.AperFunction*%
%TA.AperFunction,Conductor*%
G36*
X120106630Y-123510253D02*
G01*
X120164863Y-123548863D01*
X120192473Y-123609321D01*
X120217829Y-123769410D01*
X120273787Y-123941636D01*
X120273788Y-123941639D01*
X120356006Y-124102997D01*
X120462441Y-124249494D01*
X120462445Y-124249499D01*
X120590500Y-124377554D01*
X120590505Y-124377558D01*
X120718287Y-124470396D01*
X120737006Y-124483996D01*
X120842484Y-124537740D01*
X120898360Y-124566211D01*
X120898366Y-124566213D01*
X121001611Y-124599759D01*
X121059287Y-124639196D01*
X121086486Y-124703554D01*
X121074572Y-124772401D01*
X121027328Y-124823877D01*
X121001613Y-124835621D01*
X120860162Y-124881581D01*
X120684855Y-124970905D01*
X120684846Y-124970911D01*
X120608919Y-125026075D01*
X120608918Y-125026076D01*
X121154823Y-125571980D01*
X121147007Y-125574075D01*
X121032993Y-125639901D01*
X120939901Y-125732993D01*
X120874075Y-125847007D01*
X120871980Y-125854822D01*
X120326076Y-125308918D01*
X120326075Y-125308919D01*
X120270911Y-125384846D01*
X120270905Y-125384855D01*
X120180485Y-125562315D01*
X120132510Y-125613111D01*
X120064689Y-125629906D01*
X119998554Y-125607369D01*
X119959515Y-125562315D01*
X119869095Y-125384856D01*
X119813922Y-125308919D01*
X119813922Y-125308918D01*
X119268018Y-125854821D01*
X119265925Y-125847007D01*
X119200099Y-125732993D01*
X119107007Y-125639901D01*
X118992993Y-125574075D01*
X118985177Y-125571980D01*
X119531080Y-125026077D01*
X119531079Y-125026076D01*
X119455143Y-124970904D01*
X119279837Y-124881582D01*
X119138386Y-124835621D01*
X119080711Y-124796183D01*
X119053513Y-124731824D01*
X119065428Y-124662978D01*
X119112672Y-124611502D01*
X119138388Y-124599759D01*
X119241633Y-124566213D01*
X119241639Y-124566211D01*
X119262631Y-124555515D01*
X119402994Y-124483996D01*
X119549501Y-124377553D01*
X119677553Y-124249501D01*
X119783996Y-124102994D01*
X119866211Y-123941639D01*
X119922171Y-123769409D01*
X119936422Y-123679425D01*
X119947527Y-123609321D01*
X119977456Y-123546186D01*
X120036768Y-123509255D01*
X120106630Y-123510253D01*
G37*
%TD.AperFunction*%
%TA.AperFunction,Conductor*%
G36*
X122646630Y-123510253D02*
G01*
X122704863Y-123548863D01*
X122732473Y-123609321D01*
X122757829Y-123769410D01*
X122813787Y-123941636D01*
X122813788Y-123941639D01*
X122896006Y-124102997D01*
X123002441Y-124249494D01*
X123002445Y-124249499D01*
X123130500Y-124377554D01*
X123130505Y-124377558D01*
X123258287Y-124470396D01*
X123277006Y-124483996D01*
X123382484Y-124537740D01*
X123438360Y-124566211D01*
X123438366Y-124566213D01*
X123541611Y-124599759D01*
X123599287Y-124639196D01*
X123626486Y-124703554D01*
X123614572Y-124772401D01*
X123567328Y-124823877D01*
X123541613Y-124835621D01*
X123400162Y-124881581D01*
X123224855Y-124970905D01*
X123224846Y-124970911D01*
X123148919Y-125026075D01*
X123148918Y-125026076D01*
X123694823Y-125571980D01*
X123687007Y-125574075D01*
X123572993Y-125639901D01*
X123479901Y-125732993D01*
X123414075Y-125847007D01*
X123411980Y-125854822D01*
X122866076Y-125308918D01*
X122866075Y-125308919D01*
X122810911Y-125384846D01*
X122810905Y-125384855D01*
X122720485Y-125562315D01*
X122672510Y-125613111D01*
X122604689Y-125629906D01*
X122538554Y-125607369D01*
X122499515Y-125562315D01*
X122409095Y-125384856D01*
X122353922Y-125308919D01*
X122353922Y-125308918D01*
X121808018Y-125854821D01*
X121805925Y-125847007D01*
X121740099Y-125732993D01*
X121647007Y-125639901D01*
X121532993Y-125574075D01*
X121525177Y-125571980D01*
X122071080Y-125026077D01*
X122071079Y-125026076D01*
X121995143Y-124970904D01*
X121819837Y-124881582D01*
X121678386Y-124835621D01*
X121620711Y-124796183D01*
X121593513Y-124731824D01*
X121605428Y-124662978D01*
X121652672Y-124611502D01*
X121678388Y-124599759D01*
X121781633Y-124566213D01*
X121781639Y-124566211D01*
X121802631Y-124555515D01*
X121942994Y-124483996D01*
X122089501Y-124377553D01*
X122217553Y-124249501D01*
X122323996Y-124102994D01*
X122406211Y-123941639D01*
X122462171Y-123769409D01*
X122476422Y-123679425D01*
X122487527Y-123609321D01*
X122517456Y-123546186D01*
X122576768Y-123509255D01*
X122646630Y-123510253D01*
G37*
%TD.AperFunction*%
%TA.AperFunction,Conductor*%
G36*
X125186630Y-123510253D02*
G01*
X125244863Y-123548863D01*
X125272473Y-123609321D01*
X125297829Y-123769410D01*
X125353787Y-123941636D01*
X125353788Y-123941639D01*
X125436006Y-124102997D01*
X125542441Y-124249494D01*
X125542445Y-124249499D01*
X125670500Y-124377554D01*
X125670505Y-124377558D01*
X125798287Y-124470396D01*
X125817006Y-124483996D01*
X125922484Y-124537740D01*
X125978360Y-124566211D01*
X125978366Y-124566213D01*
X126081611Y-124599759D01*
X126139287Y-124639196D01*
X126166486Y-124703554D01*
X126154572Y-124772401D01*
X126107328Y-124823877D01*
X126081613Y-124835621D01*
X125940162Y-124881581D01*
X125764855Y-124970905D01*
X125764846Y-124970911D01*
X125688919Y-125026075D01*
X125688918Y-125026076D01*
X126234823Y-125571980D01*
X126227007Y-125574075D01*
X126112993Y-125639901D01*
X126019901Y-125732993D01*
X125954075Y-125847007D01*
X125951980Y-125854822D01*
X125406076Y-125308918D01*
X125406075Y-125308919D01*
X125350911Y-125384846D01*
X125350905Y-125384855D01*
X125260485Y-125562315D01*
X125212510Y-125613111D01*
X125144689Y-125629906D01*
X125078554Y-125607369D01*
X125039515Y-125562315D01*
X124949095Y-125384856D01*
X124893922Y-125308919D01*
X124893922Y-125308918D01*
X124348018Y-125854821D01*
X124345925Y-125847007D01*
X124280099Y-125732993D01*
X124187007Y-125639901D01*
X124072993Y-125574075D01*
X124065177Y-125571980D01*
X124611080Y-125026077D01*
X124611079Y-125026076D01*
X124535143Y-124970904D01*
X124359837Y-124881582D01*
X124218386Y-124835621D01*
X124160711Y-124796183D01*
X124133513Y-124731824D01*
X124145428Y-124662978D01*
X124192672Y-124611502D01*
X124218388Y-124599759D01*
X124321633Y-124566213D01*
X124321639Y-124566211D01*
X124342631Y-124555515D01*
X124482994Y-124483996D01*
X124629501Y-124377553D01*
X124757553Y-124249501D01*
X124863996Y-124102994D01*
X124946211Y-123941639D01*
X125002171Y-123769409D01*
X125016422Y-123679425D01*
X125027527Y-123609321D01*
X125057456Y-123546186D01*
X125116768Y-123509255D01*
X125186630Y-123510253D01*
G37*
%TD.AperFunction*%
%TA.AperFunction,Conductor*%
G36*
X127726630Y-123510253D02*
G01*
X127784863Y-123548863D01*
X127812473Y-123609321D01*
X127837829Y-123769410D01*
X127893787Y-123941636D01*
X127893788Y-123941639D01*
X127976006Y-124102997D01*
X128082441Y-124249494D01*
X128082445Y-124249499D01*
X128210500Y-124377554D01*
X128210505Y-124377558D01*
X128338287Y-124470396D01*
X128357006Y-124483996D01*
X128462484Y-124537740D01*
X128518360Y-124566211D01*
X128518366Y-124566213D01*
X128621611Y-124599759D01*
X128679287Y-124639196D01*
X128706486Y-124703554D01*
X128694572Y-124772401D01*
X128647328Y-124823877D01*
X128621613Y-124835621D01*
X128480162Y-124881581D01*
X128304855Y-124970905D01*
X128304846Y-124970911D01*
X128228919Y-125026075D01*
X128228918Y-125026076D01*
X128774823Y-125571980D01*
X128767007Y-125574075D01*
X128652993Y-125639901D01*
X128559901Y-125732993D01*
X128494075Y-125847007D01*
X128491980Y-125854822D01*
X127946076Y-125308918D01*
X127946075Y-125308919D01*
X127890911Y-125384846D01*
X127890905Y-125384855D01*
X127800485Y-125562315D01*
X127752510Y-125613111D01*
X127684689Y-125629906D01*
X127618554Y-125607369D01*
X127579515Y-125562315D01*
X127489095Y-125384856D01*
X127433922Y-125308919D01*
X127433922Y-125308918D01*
X126888018Y-125854821D01*
X126885925Y-125847007D01*
X126820099Y-125732993D01*
X126727007Y-125639901D01*
X126612993Y-125574075D01*
X126605177Y-125571980D01*
X127151080Y-125026077D01*
X127151079Y-125026076D01*
X127075143Y-124970904D01*
X126899837Y-124881582D01*
X126758386Y-124835621D01*
X126700711Y-124796183D01*
X126673513Y-124731824D01*
X126685428Y-124662978D01*
X126732672Y-124611502D01*
X126758388Y-124599759D01*
X126861633Y-124566213D01*
X126861639Y-124566211D01*
X126882631Y-124555515D01*
X127022994Y-124483996D01*
X127169501Y-124377553D01*
X127297553Y-124249501D01*
X127403996Y-124102994D01*
X127486211Y-123941639D01*
X127542171Y-123769409D01*
X127556422Y-123679425D01*
X127567527Y-123609321D01*
X127597456Y-123546186D01*
X127656768Y-123509255D01*
X127726630Y-123510253D01*
G37*
%TD.AperFunction*%
%TA.AperFunction,Conductor*%
G36*
X130266630Y-123510253D02*
G01*
X130324863Y-123548863D01*
X130352473Y-123609321D01*
X130377829Y-123769410D01*
X130433787Y-123941636D01*
X130433788Y-123941639D01*
X130516006Y-124102997D01*
X130622441Y-124249494D01*
X130622445Y-124249499D01*
X130750500Y-124377554D01*
X130750505Y-124377558D01*
X130878287Y-124470396D01*
X130897006Y-124483996D01*
X131002484Y-124537740D01*
X131058360Y-124566211D01*
X131058366Y-124566213D01*
X131161611Y-124599759D01*
X131219287Y-124639196D01*
X131246486Y-124703554D01*
X131234572Y-124772401D01*
X131187328Y-124823877D01*
X131161613Y-124835621D01*
X131020162Y-124881581D01*
X130844855Y-124970905D01*
X130844846Y-124970911D01*
X130768919Y-125026075D01*
X130768918Y-125026076D01*
X131314823Y-125571980D01*
X131307007Y-125574075D01*
X131192993Y-125639901D01*
X131099901Y-125732993D01*
X131034075Y-125847007D01*
X131031980Y-125854822D01*
X130486076Y-125308918D01*
X130486075Y-125308919D01*
X130430911Y-125384846D01*
X130430905Y-125384855D01*
X130340485Y-125562315D01*
X130292510Y-125613111D01*
X130224689Y-125629906D01*
X130158554Y-125607369D01*
X130119515Y-125562315D01*
X130029095Y-125384856D01*
X129973922Y-125308919D01*
X129973922Y-125308918D01*
X129428018Y-125854821D01*
X129425925Y-125847007D01*
X129360099Y-125732993D01*
X129267007Y-125639901D01*
X129152993Y-125574075D01*
X129145177Y-125571980D01*
X129691080Y-125026077D01*
X129691079Y-125026076D01*
X129615143Y-124970904D01*
X129439837Y-124881582D01*
X129298386Y-124835621D01*
X129240711Y-124796183D01*
X129213513Y-124731824D01*
X129225428Y-124662978D01*
X129272672Y-124611502D01*
X129298388Y-124599759D01*
X129401633Y-124566213D01*
X129401639Y-124566211D01*
X129422631Y-124555515D01*
X129562994Y-124483996D01*
X129709501Y-124377553D01*
X129837553Y-124249501D01*
X129943996Y-124102994D01*
X130026211Y-123941639D01*
X130082171Y-123769409D01*
X130096422Y-123679425D01*
X130107527Y-123609321D01*
X130137456Y-123546186D01*
X130196768Y-123509255D01*
X130266630Y-123510253D01*
G37*
%TD.AperFunction*%
%TA.AperFunction,Conductor*%
G36*
X99493921Y-124231080D02*
G01*
X99493922Y-124231079D01*
X99549095Y-124155143D01*
X99638418Y-123979835D01*
X99684378Y-123838387D01*
X99723815Y-123780712D01*
X99788174Y-123753513D01*
X99857020Y-123765428D01*
X99908496Y-123812672D01*
X99920240Y-123838387D01*
X99953787Y-123941636D01*
X99953788Y-123941639D01*
X100036006Y-124102997D01*
X100142441Y-124249494D01*
X100142445Y-124249499D01*
X100270500Y-124377554D01*
X100270505Y-124377558D01*
X100398287Y-124470396D01*
X100417006Y-124483996D01*
X100522484Y-124537740D01*
X100578360Y-124566211D01*
X100578363Y-124566212D01*
X100664476Y-124594191D01*
X100750591Y-124622171D01*
X100823639Y-124633740D01*
X100910678Y-124647527D01*
X100973813Y-124677456D01*
X101010744Y-124736768D01*
X101009746Y-124806631D01*
X100971136Y-124864863D01*
X100910678Y-124892473D01*
X100750589Y-124917829D01*
X100578363Y-124973787D01*
X100578360Y-124973788D01*
X100417002Y-125056006D01*
X100270505Y-125162441D01*
X100270500Y-125162445D01*
X100142445Y-125290500D01*
X100142441Y-125290505D01*
X100036006Y-125437002D01*
X99953788Y-125598360D01*
X99953787Y-125598363D01*
X99920240Y-125701612D01*
X99880802Y-125759288D01*
X99816444Y-125786486D01*
X99747597Y-125774571D01*
X99696122Y-125727327D01*
X99684378Y-125701612D01*
X99638418Y-125560164D01*
X99549095Y-125384856D01*
X99493922Y-125308919D01*
X99493922Y-125308918D01*
X98948018Y-125854821D01*
X98945925Y-125847007D01*
X98880099Y-125732993D01*
X98787007Y-125639901D01*
X98672993Y-125574075D01*
X98665177Y-125571980D01*
X99211080Y-125026077D01*
X99211079Y-125026076D01*
X99135141Y-124970902D01*
X98957685Y-124880485D01*
X98906888Y-124832511D01*
X98890093Y-124764690D01*
X98912630Y-124698555D01*
X98957685Y-124659515D01*
X99135140Y-124569097D01*
X99135141Y-124569097D01*
X99211079Y-124513922D01*
X99211080Y-124513921D01*
X98665178Y-123968019D01*
X98672993Y-123965925D01*
X98787007Y-123900099D01*
X98880099Y-123807007D01*
X98945925Y-123692993D01*
X98948019Y-123685177D01*
X99493921Y-124231080D01*
G37*
%TD.AperFunction*%
%TA.AperFunction,Conductor*%
G36*
X121606630Y-108050253D02*
G01*
X121664863Y-108088863D01*
X121692473Y-108149321D01*
X121717829Y-108309410D01*
X121773787Y-108481636D01*
X121773788Y-108481639D01*
X121809943Y-108552595D01*
X121856003Y-108642993D01*
X121856006Y-108642997D01*
X121962441Y-108789494D01*
X121962445Y-108789499D01*
X122090500Y-108917554D01*
X122090505Y-108917558D01*
X122194831Y-108993354D01*
X122237006Y-109023996D01*
X122318199Y-109065366D01*
X122398360Y-109106211D01*
X122398363Y-109106212D01*
X122464671Y-109127756D01*
X122570591Y-109162171D01*
X122653024Y-109175227D01*
X122749449Y-109190500D01*
X122749454Y-109190500D01*
X122930551Y-109190500D01*
X123026976Y-109175227D01*
X123109409Y-109162171D01*
X123281639Y-109106211D01*
X123442994Y-109023996D01*
X123589501Y-108917553D01*
X123717553Y-108789501D01*
X123823996Y-108642994D01*
X123906211Y-108481639D01*
X123939759Y-108378388D01*
X123979196Y-108320712D01*
X124043554Y-108293513D01*
X124112401Y-108305427D01*
X124163877Y-108352671D01*
X124175621Y-108378386D01*
X124221582Y-108519837D01*
X124310904Y-108695143D01*
X124366076Y-108771079D01*
X124366077Y-108771080D01*
X124911980Y-108225176D01*
X124914075Y-108232993D01*
X124979901Y-108347007D01*
X125072993Y-108440099D01*
X125187007Y-108505925D01*
X125194822Y-108508019D01*
X124648918Y-109053922D01*
X124724856Y-109109095D01*
X124900164Y-109198418D01*
X125087294Y-109259221D01*
X125281618Y-109290000D01*
X125478382Y-109290000D01*
X125672705Y-109259221D01*
X125859835Y-109198418D01*
X126035143Y-109109095D01*
X126111079Y-109053922D01*
X126111080Y-109053921D01*
X125565178Y-108508019D01*
X125572993Y-108505925D01*
X125687007Y-108440099D01*
X125780099Y-108347007D01*
X125845925Y-108232993D01*
X125848019Y-108225177D01*
X126393921Y-108771080D01*
X126393922Y-108771079D01*
X126449095Y-108695143D01*
X126538418Y-108519835D01*
X126584378Y-108378387D01*
X126623815Y-108320712D01*
X126688174Y-108293513D01*
X126757020Y-108305428D01*
X126808496Y-108352672D01*
X126820240Y-108378387D01*
X126853787Y-108481636D01*
X126853788Y-108481639D01*
X126889943Y-108552595D01*
X126936003Y-108642993D01*
X126936006Y-108642997D01*
X127042441Y-108789494D01*
X127042445Y-108789499D01*
X127170500Y-108917554D01*
X127170505Y-108917558D01*
X127274831Y-108993354D01*
X127317006Y-109023996D01*
X127398199Y-109065366D01*
X127478360Y-109106211D01*
X127478363Y-109106212D01*
X127544671Y-109127756D01*
X127650591Y-109162171D01*
X127733024Y-109175227D01*
X127829449Y-109190500D01*
X127829454Y-109190500D01*
X128010551Y-109190500D01*
X128106976Y-109175227D01*
X128189409Y-109162171D01*
X128361639Y-109106211D01*
X128522994Y-109023996D01*
X128669501Y-108917553D01*
X128797553Y-108789501D01*
X128903996Y-108642994D01*
X128986211Y-108481639D01*
X129019759Y-108378388D01*
X129059196Y-108320712D01*
X129123554Y-108293513D01*
X129192401Y-108305427D01*
X129243877Y-108352671D01*
X129255621Y-108378386D01*
X129301582Y-108519837D01*
X129390904Y-108695143D01*
X129446076Y-108771079D01*
X129446077Y-108771080D01*
X129991980Y-108225176D01*
X129994075Y-108232993D01*
X130059901Y-108347007D01*
X130152993Y-108440099D01*
X130267007Y-108505925D01*
X130274820Y-108508018D01*
X129728918Y-109053921D01*
X129728919Y-109053922D01*
X129804856Y-109109095D01*
X129980164Y-109198418D01*
X130167294Y-109259221D01*
X130361618Y-109290000D01*
X130558382Y-109290000D01*
X130752705Y-109259221D01*
X130939835Y-109198418D01*
X131115147Y-109109093D01*
X131143014Y-109088847D01*
X131208820Y-109065366D01*
X131276874Y-109081191D01*
X131325569Y-109131296D01*
X131339900Y-109189164D01*
X131339900Y-115045989D01*
X131320215Y-115113028D01*
X131303581Y-115133670D01*
X125506228Y-120931022D01*
X125444905Y-120964507D01*
X125375213Y-120959523D01*
X125319280Y-120917651D01*
X125315445Y-120912232D01*
X125235614Y-120792758D01*
X125235611Y-120792754D01*
X125138045Y-120695188D01*
X125138041Y-120695185D01*
X125023317Y-120618528D01*
X125023304Y-120618521D01*
X124895832Y-120565721D01*
X124895822Y-120565718D01*
X124760495Y-120538800D01*
X124760493Y-120538800D01*
X124622507Y-120538800D01*
X124622505Y-120538800D01*
X124487177Y-120565718D01*
X124487167Y-120565721D01*
X124359695Y-120618521D01*
X124359682Y-120618528D01*
X124244958Y-120695185D01*
X124244954Y-120695188D01*
X124162662Y-120777481D01*
X124101339Y-120810966D01*
X124074981Y-120813800D01*
X121004682Y-120813800D01*
X120896463Y-120842797D01*
X120896460Y-120842798D01*
X120799440Y-120898813D01*
X120799434Y-120898817D01*
X119312595Y-122385655D01*
X119251272Y-122419140D01*
X119186596Y-122415905D01*
X119162337Y-122408022D01*
X119069409Y-122377828D01*
X118890551Y-122349500D01*
X118890546Y-122349500D01*
X118709454Y-122349500D01*
X118709449Y-122349500D01*
X118530589Y-122377829D01*
X118358363Y-122433787D01*
X118358360Y-122433788D01*
X118197002Y-122516006D01*
X118050505Y-122622441D01*
X118050500Y-122622445D01*
X117922445Y-122750500D01*
X117922441Y-122750505D01*
X117816006Y-122897002D01*
X117733788Y-123058360D01*
X117733787Y-123058363D01*
X117677829Y-123230589D01*
X117652473Y-123390678D01*
X117622544Y-123453813D01*
X117563232Y-123490744D01*
X117493369Y-123489746D01*
X117435137Y-123451136D01*
X117407527Y-123390678D01*
X117393740Y-123303639D01*
X117382171Y-123230591D01*
X117339708Y-123099901D01*
X117326212Y-123058363D01*
X117326211Y-123058360D01*
X117290055Y-122987401D01*
X117243996Y-122897006D01*
X117178368Y-122806676D01*
X117137558Y-122750505D01*
X117137554Y-122750500D01*
X117009499Y-122622445D01*
X117009494Y-122622441D01*
X116862997Y-122516006D01*
X116862996Y-122516005D01*
X116862994Y-122516004D01*
X116804257Y-122486076D01*
X116701639Y-122433788D01*
X116701636Y-122433787D01*
X116529410Y-122377829D01*
X116350551Y-122349500D01*
X116350546Y-122349500D01*
X116169454Y-122349500D01*
X116169449Y-122349500D01*
X115990589Y-122377829D01*
X115818363Y-122433787D01*
X115818360Y-122433788D01*
X115657002Y-122516006D01*
X115510505Y-122622441D01*
X115510500Y-122622445D01*
X115382445Y-122750500D01*
X115382441Y-122750505D01*
X115276006Y-122897002D01*
X115193788Y-123058360D01*
X115193787Y-123058363D01*
X115137829Y-123230589D01*
X115112473Y-123390678D01*
X115082544Y-123453813D01*
X115023232Y-123490744D01*
X114953369Y-123489746D01*
X114895137Y-123451136D01*
X114867527Y-123390678D01*
X114853740Y-123303639D01*
X114842171Y-123230591D01*
X114799708Y-123099901D01*
X114786212Y-123058363D01*
X114786211Y-123058360D01*
X114750055Y-122987401D01*
X114703996Y-122897006D01*
X114638368Y-122806676D01*
X114597558Y-122750505D01*
X114597554Y-122750500D01*
X114469499Y-122622445D01*
X114469494Y-122622441D01*
X114322997Y-122516006D01*
X114322996Y-122516005D01*
X114322994Y-122516004D01*
X114264257Y-122486076D01*
X114161639Y-122433788D01*
X114161636Y-122433787D01*
X113989410Y-122377829D01*
X113810551Y-122349500D01*
X113810546Y-122349500D01*
X113629454Y-122349500D01*
X113629449Y-122349500D01*
X113450589Y-122377829D01*
X113278363Y-122433787D01*
X113278360Y-122433788D01*
X113117002Y-122516006D01*
X112970505Y-122622441D01*
X112970500Y-122622445D01*
X112842445Y-122750500D01*
X112842441Y-122750505D01*
X112736006Y-122897002D01*
X112653788Y-123058360D01*
X112653787Y-123058363D01*
X112597829Y-123230589D01*
X112572473Y-123390678D01*
X112542544Y-123453813D01*
X112483232Y-123490744D01*
X112413369Y-123489746D01*
X112355137Y-123451136D01*
X112327527Y-123390678D01*
X112313740Y-123303639D01*
X112302171Y-123230591D01*
X112259708Y-123099901D01*
X112246212Y-123058363D01*
X112246211Y-123058360D01*
X112210055Y-122987401D01*
X112163996Y-122897006D01*
X112098368Y-122806676D01*
X112057558Y-122750505D01*
X112057554Y-122750500D01*
X111929499Y-122622445D01*
X111929494Y-122622441D01*
X111782997Y-122516006D01*
X111782996Y-122516005D01*
X111782994Y-122516004D01*
X111724257Y-122486076D01*
X111621639Y-122433788D01*
X111621636Y-122433787D01*
X111449410Y-122377829D01*
X111270551Y-122349500D01*
X111270546Y-122349500D01*
X111089454Y-122349500D01*
X111089449Y-122349500D01*
X110910589Y-122377829D01*
X110738363Y-122433787D01*
X110738360Y-122433788D01*
X110577002Y-122516006D01*
X110430505Y-122622441D01*
X110430500Y-122622445D01*
X110302445Y-122750500D01*
X110302441Y-122750505D01*
X110196006Y-122897002D01*
X110113788Y-123058360D01*
X110113787Y-123058363D01*
X110057829Y-123230589D01*
X110032473Y-123390678D01*
X110002544Y-123453813D01*
X109943232Y-123490744D01*
X109873369Y-123489746D01*
X109815137Y-123451136D01*
X109787527Y-123390678D01*
X109773740Y-123303639D01*
X109762171Y-123230591D01*
X109719708Y-123099901D01*
X109706212Y-123058363D01*
X109706211Y-123058360D01*
X109670055Y-122987401D01*
X109623996Y-122897006D01*
X109558368Y-122806676D01*
X109517558Y-122750505D01*
X109517554Y-122750500D01*
X109389499Y-122622445D01*
X109389494Y-122622441D01*
X109242997Y-122516006D01*
X109242996Y-122516005D01*
X109242994Y-122516004D01*
X109184257Y-122486076D01*
X109081639Y-122433788D01*
X109081636Y-122433787D01*
X108909410Y-122377829D01*
X108730551Y-122349500D01*
X108730546Y-122349500D01*
X108549454Y-122349500D01*
X108549449Y-122349500D01*
X108370589Y-122377829D01*
X108198363Y-122433787D01*
X108198360Y-122433788D01*
X108037002Y-122516006D01*
X107890505Y-122622441D01*
X107890500Y-122622445D01*
X107762445Y-122750500D01*
X107762441Y-122750505D01*
X107656006Y-122897002D01*
X107573788Y-123058360D01*
X107573787Y-123058363D01*
X107540240Y-123161612D01*
X107500802Y-123219288D01*
X107436444Y-123246486D01*
X107367597Y-123234571D01*
X107316122Y-123187327D01*
X107304378Y-123161612D01*
X107258418Y-123020164D01*
X107169095Y-122844856D01*
X107113922Y-122768919D01*
X107113922Y-122768918D01*
X106568018Y-123314821D01*
X106565925Y-123307007D01*
X106500099Y-123192993D01*
X106407007Y-123099901D01*
X106292993Y-123034075D01*
X106285177Y-123031980D01*
X106831080Y-122486077D01*
X106831079Y-122486076D01*
X106755143Y-122430904D01*
X106579835Y-122341581D01*
X106392705Y-122280778D01*
X106198382Y-122250000D01*
X106001618Y-122250000D01*
X105807294Y-122280778D01*
X105620164Y-122341581D01*
X105444855Y-122430905D01*
X105444846Y-122430911D01*
X105368919Y-122486075D01*
X105368918Y-122486076D01*
X105914823Y-123031980D01*
X105907007Y-123034075D01*
X105792993Y-123099901D01*
X105699901Y-123192993D01*
X105634075Y-123307007D01*
X105631980Y-123314822D01*
X105086076Y-122768918D01*
X105086075Y-122768919D01*
X105030911Y-122844846D01*
X105030905Y-122844855D01*
X104940485Y-123022315D01*
X104892510Y-123073111D01*
X104824689Y-123089906D01*
X104758554Y-123067369D01*
X104719515Y-123022315D01*
X104629095Y-122844856D01*
X104573922Y-122768919D01*
X104573922Y-122768918D01*
X104028018Y-123314821D01*
X104025925Y-123307007D01*
X103960099Y-123192993D01*
X103867007Y-123099901D01*
X103752993Y-123034075D01*
X103745177Y-123031980D01*
X104291080Y-122486077D01*
X104291079Y-122486076D01*
X104215143Y-122430904D01*
X104039835Y-122341581D01*
X103852705Y-122280778D01*
X103658382Y-122250000D01*
X103461618Y-122250000D01*
X103267294Y-122280778D01*
X103080164Y-122341581D01*
X102904855Y-122430905D01*
X102904846Y-122430911D01*
X102828919Y-122486075D01*
X102828918Y-122486076D01*
X103374823Y-123031980D01*
X103367007Y-123034075D01*
X103252993Y-123099901D01*
X103159901Y-123192993D01*
X103094075Y-123307007D01*
X103091980Y-123314822D01*
X102546076Y-122768918D01*
X102546075Y-122768919D01*
X102490911Y-122844846D01*
X102490905Y-122844855D01*
X102401581Y-123020162D01*
X102355621Y-123161613D01*
X102316183Y-123219288D01*
X102251824Y-123246486D01*
X102182978Y-123234571D01*
X102131502Y-123187327D01*
X102119759Y-123161611D01*
X102086213Y-123058366D01*
X102086211Y-123058360D01*
X102050055Y-122987401D01*
X102003996Y-122897006D01*
X101938368Y-122806676D01*
X101897558Y-122750505D01*
X101897554Y-122750500D01*
X101769499Y-122622445D01*
X101769494Y-122622441D01*
X101622997Y-122516006D01*
X101622996Y-122516005D01*
X101622994Y-122516004D01*
X101564257Y-122486076D01*
X101461639Y-122433788D01*
X101461636Y-122433787D01*
X101289410Y-122377829D01*
X101110551Y-122349500D01*
X101110546Y-122349500D01*
X100929454Y-122349500D01*
X100929449Y-122349500D01*
X100750589Y-122377829D01*
X100578363Y-122433787D01*
X100578360Y-122433788D01*
X100417002Y-122516006D01*
X100270505Y-122622441D01*
X100270500Y-122622445D01*
X100142445Y-122750500D01*
X100142441Y-122750505D01*
X100036006Y-122897002D01*
X99953788Y-123058360D01*
X99953787Y-123058363D01*
X99920240Y-123161612D01*
X99880802Y-123219288D01*
X99816444Y-123246486D01*
X99747597Y-123234571D01*
X99696122Y-123187327D01*
X99684378Y-123161612D01*
X99638418Y-123020164D01*
X99549095Y-122844856D01*
X99493922Y-122768919D01*
X99493922Y-122768918D01*
X98948018Y-123314821D01*
X98945925Y-123307007D01*
X98880099Y-123192993D01*
X98787007Y-123099901D01*
X98672993Y-123034075D01*
X98665177Y-123031980D01*
X99211080Y-122486077D01*
X99211079Y-122486076D01*
X99135143Y-122430904D01*
X98959835Y-122341581D01*
X98772705Y-122280778D01*
X98578382Y-122250000D01*
X98381618Y-122250000D01*
X98187294Y-122280778D01*
X98000164Y-122341581D01*
X97824855Y-122430905D01*
X97824846Y-122430911D01*
X97748919Y-122486075D01*
X97748918Y-122486076D01*
X98294823Y-123031980D01*
X98287007Y-123034075D01*
X98172993Y-123099901D01*
X98079901Y-123192993D01*
X98014075Y-123307007D01*
X98011980Y-123314822D01*
X97466076Y-122768918D01*
X97466075Y-122768919D01*
X97410911Y-122844846D01*
X97410905Y-122844855D01*
X97320485Y-123022315D01*
X97272510Y-123073111D01*
X97204689Y-123089906D01*
X97138554Y-123067369D01*
X97099515Y-123022315D01*
X97009095Y-122844856D01*
X96953922Y-122768919D01*
X96953922Y-122768918D01*
X96408018Y-123314821D01*
X96405925Y-123307007D01*
X96340099Y-123192993D01*
X96247007Y-123099901D01*
X96132993Y-123034075D01*
X96125177Y-123031980D01*
X96671080Y-122486077D01*
X96671079Y-122486076D01*
X96595143Y-122430904D01*
X96419835Y-122341581D01*
X96232705Y-122280778D01*
X96038382Y-122250000D01*
X95841618Y-122250000D01*
X95647294Y-122280778D01*
X95460164Y-122341581D01*
X95284855Y-122430905D01*
X95284846Y-122430911D01*
X95208919Y-122486075D01*
X95208918Y-122486076D01*
X95754823Y-123031980D01*
X95747007Y-123034075D01*
X95632993Y-123099901D01*
X95539901Y-123192993D01*
X95474075Y-123307007D01*
X95471980Y-123314822D01*
X94926076Y-122768918D01*
X94926075Y-122768919D01*
X94870911Y-122844846D01*
X94870905Y-122844855D01*
X94780485Y-123022315D01*
X94732510Y-123073111D01*
X94664689Y-123089906D01*
X94598554Y-123067369D01*
X94559515Y-123022315D01*
X94469095Y-122844856D01*
X94413922Y-122768919D01*
X94413922Y-122768918D01*
X93868018Y-123314821D01*
X93865925Y-123307007D01*
X93800099Y-123192993D01*
X93707007Y-123099901D01*
X93592993Y-123034075D01*
X93585176Y-123031980D01*
X94131080Y-122486077D01*
X94131079Y-122486076D01*
X94055143Y-122430904D01*
X93879835Y-122341581D01*
X93692705Y-122280778D01*
X93498382Y-122250000D01*
X93301618Y-122250000D01*
X93107294Y-122280778D01*
X93107293Y-122280778D01*
X92966992Y-122326365D01*
X92897151Y-122328360D01*
X92837318Y-122292280D01*
X92806490Y-122229579D01*
X92814455Y-122160164D01*
X92840990Y-122120756D01*
X103888929Y-111072819D01*
X103950252Y-111039334D01*
X103976610Y-111036500D01*
X117785016Y-111036500D01*
X117785018Y-111036500D01*
X117893237Y-111007503D01*
X117990263Y-110951485D01*
X119787404Y-109154342D01*
X119848725Y-109120859D01*
X119913399Y-109124093D01*
X119924665Y-109127754D01*
X120030590Y-109162171D01*
X120209449Y-109190500D01*
X120209454Y-109190500D01*
X120390551Y-109190500D01*
X120486976Y-109175227D01*
X120569409Y-109162171D01*
X120741639Y-109106211D01*
X120902994Y-109023996D01*
X121049501Y-108917553D01*
X121177553Y-108789501D01*
X121283996Y-108642994D01*
X121366211Y-108481639D01*
X121422171Y-108309409D01*
X121436422Y-108219425D01*
X121447527Y-108149321D01*
X121477456Y-108086186D01*
X121536768Y-108049255D01*
X121606630Y-108050253D01*
G37*
%TD.AperFunction*%
%TA.AperFunction,Conductor*%
G36*
X106073921Y-108771080D02*
G01*
X106073922Y-108771079D01*
X106129095Y-108695143D01*
X106218418Y-108519835D01*
X106264378Y-108378387D01*
X106303815Y-108320712D01*
X106368174Y-108293513D01*
X106437020Y-108305428D01*
X106488496Y-108352672D01*
X106500240Y-108378387D01*
X106533787Y-108481636D01*
X106533788Y-108481639D01*
X106569943Y-108552595D01*
X106616003Y-108642993D01*
X106616006Y-108642997D01*
X106722441Y-108789494D01*
X106722445Y-108789499D01*
X106850500Y-108917554D01*
X106850505Y-108917558D01*
X106954831Y-108993354D01*
X106997006Y-109023996D01*
X107078199Y-109065366D01*
X107158360Y-109106211D01*
X107158363Y-109106212D01*
X107224671Y-109127756D01*
X107330591Y-109162171D01*
X107381449Y-109170226D01*
X107413021Y-109175227D01*
X107476156Y-109205156D01*
X107513087Y-109264468D01*
X107512089Y-109334331D01*
X107473479Y-109392563D01*
X107409515Y-109420677D01*
X107393623Y-109421700D01*
X105618120Y-109421700D01*
X105551081Y-109402015D01*
X105505326Y-109349211D01*
X105495382Y-109280053D01*
X105524407Y-109216497D01*
X105561825Y-109187215D01*
X105715143Y-109109095D01*
X105791079Y-109053922D01*
X105791080Y-109053921D01*
X105245178Y-108508019D01*
X105252993Y-108505925D01*
X105367007Y-108440099D01*
X105460099Y-108347007D01*
X105525925Y-108232993D01*
X105528019Y-108225177D01*
X106073921Y-108771080D01*
G37*
%TD.AperFunction*%
%TA.AperFunction,Conductor*%
G36*
X109674075Y-108232993D02*
G01*
X109739901Y-108347007D01*
X109832993Y-108440099D01*
X109947007Y-108505925D01*
X109954822Y-108508019D01*
X109408918Y-109053922D01*
X109484856Y-109109095D01*
X109638175Y-109187215D01*
X109688971Y-109235189D01*
X109705766Y-109303010D01*
X109683229Y-109369145D01*
X109628514Y-109412597D01*
X109581880Y-109421700D01*
X107806377Y-109421700D01*
X107739338Y-109402015D01*
X107693583Y-109349211D01*
X107683639Y-109280053D01*
X107712664Y-109216497D01*
X107771442Y-109178723D01*
X107786979Y-109175227D01*
X107814599Y-109170851D01*
X107869409Y-109162171D01*
X108041639Y-109106211D01*
X108202994Y-109023996D01*
X108349501Y-108917553D01*
X108477553Y-108789501D01*
X108583996Y-108642994D01*
X108666211Y-108481639D01*
X108699759Y-108378388D01*
X108739196Y-108320712D01*
X108803554Y-108293513D01*
X108872401Y-108305427D01*
X108923877Y-108352671D01*
X108935621Y-108378386D01*
X108981582Y-108519837D01*
X109070904Y-108695143D01*
X109126076Y-108771079D01*
X109126077Y-108771080D01*
X109671980Y-108225176D01*
X109674075Y-108232993D01*
G37*
%TD.AperFunction*%
%TA.AperFunction,Conductor*%
G36*
X111153921Y-108771080D02*
G01*
X111153922Y-108771079D01*
X111209095Y-108695143D01*
X111298418Y-108519835D01*
X111344378Y-108378387D01*
X111383815Y-108320712D01*
X111448174Y-108293513D01*
X111517020Y-108305428D01*
X111568496Y-108352672D01*
X111580240Y-108378387D01*
X111613787Y-108481636D01*
X111613788Y-108481639D01*
X111649943Y-108552595D01*
X111696003Y-108642993D01*
X111696006Y-108642997D01*
X111802441Y-108789494D01*
X111802445Y-108789499D01*
X111930500Y-108917554D01*
X111930505Y-108917558D01*
X112034831Y-108993354D01*
X112077006Y-109023996D01*
X112158199Y-109065366D01*
X112238360Y-109106211D01*
X112238363Y-109106212D01*
X112304671Y-109127756D01*
X112410591Y-109162171D01*
X112461449Y-109170226D01*
X112493021Y-109175227D01*
X112556156Y-109205156D01*
X112593087Y-109264468D01*
X112592089Y-109334331D01*
X112553479Y-109392563D01*
X112489515Y-109420677D01*
X112473623Y-109421700D01*
X110698120Y-109421700D01*
X110631081Y-109402015D01*
X110585326Y-109349211D01*
X110575382Y-109280053D01*
X110604407Y-109216497D01*
X110641825Y-109187215D01*
X110795143Y-109109095D01*
X110871079Y-109053922D01*
X110871080Y-109053921D01*
X110325178Y-108508019D01*
X110332993Y-108505925D01*
X110447007Y-108440099D01*
X110540099Y-108347007D01*
X110605925Y-108232993D01*
X110608019Y-108225177D01*
X111153921Y-108771080D01*
G37*
%TD.AperFunction*%
%TA.AperFunction,Conductor*%
G36*
X114754075Y-105692993D02*
G01*
X114819901Y-105807007D01*
X114912993Y-105900099D01*
X115027007Y-105965925D01*
X115034822Y-105968019D01*
X114488918Y-106513922D01*
X114564856Y-106569095D01*
X114740164Y-106658418D01*
X114881612Y-106704378D01*
X114939288Y-106743815D01*
X114966486Y-106808174D01*
X114954571Y-106877020D01*
X114907327Y-106928496D01*
X114881612Y-106940240D01*
X114778363Y-106973787D01*
X114778360Y-106973788D01*
X114617002Y-107056006D01*
X114470505Y-107162441D01*
X114470500Y-107162445D01*
X114342445Y-107290500D01*
X114342441Y-107290505D01*
X114236006Y-107437002D01*
X114153788Y-107598360D01*
X114153787Y-107598363D01*
X114097829Y-107770589D01*
X114072473Y-107930678D01*
X114042544Y-107993813D01*
X113983232Y-108030744D01*
X113913369Y-108029746D01*
X113855137Y-107991136D01*
X113827527Y-107930678D01*
X113806449Y-107797602D01*
X113802171Y-107770591D01*
X113746211Y-107598361D01*
X113746211Y-107598360D01*
X113716474Y-107540000D01*
X113663996Y-107437006D01*
X113570936Y-107308919D01*
X113557558Y-107290505D01*
X113557554Y-107290500D01*
X113429499Y-107162445D01*
X113429494Y-107162441D01*
X113282997Y-107056006D01*
X113282996Y-107056005D01*
X113282994Y-107056004D01*
X113224257Y-107026076D01*
X113121639Y-106973788D01*
X113121636Y-106973787D01*
X112949410Y-106917829D01*
X112789321Y-106892473D01*
X112726186Y-106862544D01*
X112689255Y-106803232D01*
X112690253Y-106733370D01*
X112728863Y-106675137D01*
X112789321Y-106647527D01*
X112859425Y-106636422D01*
X112949409Y-106622171D01*
X113121639Y-106566211D01*
X113282994Y-106483996D01*
X113429501Y-106377553D01*
X113557553Y-106249501D01*
X113663996Y-106102994D01*
X113746211Y-105941639D01*
X113779759Y-105838388D01*
X113819196Y-105780712D01*
X113883554Y-105753513D01*
X113952401Y-105765427D01*
X114003877Y-105812671D01*
X114015621Y-105838386D01*
X114061582Y-105979837D01*
X114150904Y-106155143D01*
X114206076Y-106231079D01*
X114206077Y-106231080D01*
X114751980Y-105685176D01*
X114754075Y-105692993D01*
G37*
%TD.AperFunction*%
%TA.AperFunction,Conductor*%
G36*
X116233921Y-106231080D02*
G01*
X116233922Y-106231079D01*
X116289095Y-106155143D01*
X116378418Y-105979835D01*
X116424378Y-105838387D01*
X116463815Y-105780712D01*
X116528174Y-105753513D01*
X116597020Y-105765428D01*
X116648496Y-105812672D01*
X116660240Y-105838387D01*
X116693787Y-105941636D01*
X116693788Y-105941639D01*
X116776006Y-106102997D01*
X116882441Y-106249494D01*
X116882445Y-106249499D01*
X117010500Y-106377554D01*
X117010505Y-106377558D01*
X117074564Y-106424099D01*
X117157006Y-106483996D01*
X117233094Y-106522765D01*
X117318360Y-106566211D01*
X117318363Y-106566212D01*
X117373400Y-106584094D01*
X117490591Y-106622171D01*
X117563639Y-106633740D01*
X117650678Y-106647527D01*
X117713813Y-106677456D01*
X117750744Y-106736768D01*
X117749746Y-106806631D01*
X117711136Y-106864863D01*
X117650678Y-106892473D01*
X117490589Y-106917829D01*
X117318363Y-106973787D01*
X117318360Y-106973788D01*
X117157002Y-107056006D01*
X117010505Y-107162441D01*
X117010500Y-107162445D01*
X116882445Y-107290500D01*
X116882441Y-107290505D01*
X116776006Y-107437002D01*
X116693788Y-107598360D01*
X116693787Y-107598363D01*
X116637829Y-107770589D01*
X116612473Y-107930678D01*
X116582544Y-107993813D01*
X116523232Y-108030744D01*
X116453369Y-108029746D01*
X116395137Y-107991136D01*
X116367527Y-107930678D01*
X116346449Y-107797602D01*
X116342171Y-107770591D01*
X116286211Y-107598361D01*
X116286211Y-107598360D01*
X116256474Y-107540000D01*
X116203996Y-107437006D01*
X116110936Y-107308919D01*
X116097558Y-107290505D01*
X116097554Y-107290500D01*
X115969499Y-107162445D01*
X115969494Y-107162441D01*
X115822997Y-107056006D01*
X115822996Y-107056005D01*
X115822994Y-107056004D01*
X115764257Y-107026076D01*
X115661639Y-106973788D01*
X115661636Y-106973787D01*
X115558387Y-106940240D01*
X115500711Y-106900803D01*
X115473513Y-106836444D01*
X115485428Y-106767598D01*
X115532672Y-106716122D01*
X115558387Y-106704378D01*
X115699835Y-106658418D01*
X115875143Y-106569095D01*
X115951079Y-106513922D01*
X115951080Y-106513921D01*
X115405178Y-105968019D01*
X115412993Y-105965925D01*
X115527007Y-105900099D01*
X115620099Y-105807007D01*
X115685925Y-105692993D01*
X115688019Y-105685177D01*
X116233921Y-106231080D01*
G37*
%TD.AperFunction*%
%TA.AperFunction,Conductor*%
G36*
X119834075Y-105692993D02*
G01*
X119899901Y-105807007D01*
X119992993Y-105900099D01*
X120107007Y-105965925D01*
X120114822Y-105968019D01*
X119568918Y-106513922D01*
X119644856Y-106569095D01*
X119820164Y-106658418D01*
X119961612Y-106704378D01*
X120019288Y-106743815D01*
X120046486Y-106808174D01*
X120034571Y-106877020D01*
X119987327Y-106928496D01*
X119961612Y-106940240D01*
X119858363Y-106973787D01*
X119858360Y-106973788D01*
X119697002Y-107056006D01*
X119550505Y-107162441D01*
X119550500Y-107162445D01*
X119422445Y-107290500D01*
X119422441Y-107290505D01*
X119316006Y-107437002D01*
X119233788Y-107598360D01*
X119233787Y-107598363D01*
X119177829Y-107770589D01*
X119152473Y-107930678D01*
X119122544Y-107993813D01*
X119063232Y-108030744D01*
X118993369Y-108029746D01*
X118935137Y-107991136D01*
X118907527Y-107930678D01*
X118886449Y-107797602D01*
X118882171Y-107770591D01*
X118826211Y-107598361D01*
X118826211Y-107598360D01*
X118796474Y-107540000D01*
X118743996Y-107437006D01*
X118650936Y-107308919D01*
X118637558Y-107290505D01*
X118637554Y-107290500D01*
X118509499Y-107162445D01*
X118509494Y-107162441D01*
X118362997Y-107056006D01*
X118362996Y-107056005D01*
X118362994Y-107056004D01*
X118304257Y-107026076D01*
X118201639Y-106973788D01*
X118201636Y-106973787D01*
X118029410Y-106917829D01*
X117869321Y-106892473D01*
X117806186Y-106862544D01*
X117769255Y-106803232D01*
X117770253Y-106733370D01*
X117808863Y-106675137D01*
X117869321Y-106647527D01*
X117939425Y-106636422D01*
X118029409Y-106622171D01*
X118201639Y-106566211D01*
X118362994Y-106483996D01*
X118509501Y-106377553D01*
X118637553Y-106249501D01*
X118743996Y-106102994D01*
X118826211Y-105941639D01*
X118859759Y-105838388D01*
X118899196Y-105780712D01*
X118963554Y-105753513D01*
X119032401Y-105765427D01*
X119083877Y-105812671D01*
X119095621Y-105838386D01*
X119141582Y-105979837D01*
X119230904Y-106155143D01*
X119286076Y-106231079D01*
X119286077Y-106231080D01*
X119831980Y-105685176D01*
X119834075Y-105692993D01*
G37*
%TD.AperFunction*%
%TA.AperFunction,Conductor*%
G36*
X121313921Y-106231080D02*
G01*
X121313922Y-106231079D01*
X121369095Y-106155143D01*
X121458418Y-105979835D01*
X121504378Y-105838387D01*
X121543815Y-105780712D01*
X121608174Y-105753513D01*
X121677020Y-105765428D01*
X121728496Y-105812672D01*
X121740240Y-105838387D01*
X121773787Y-105941636D01*
X121773788Y-105941639D01*
X121856006Y-106102997D01*
X121962441Y-106249494D01*
X121962445Y-106249499D01*
X122090500Y-106377554D01*
X122090505Y-106377558D01*
X122154564Y-106424099D01*
X122237006Y-106483996D01*
X122313094Y-106522765D01*
X122398360Y-106566211D01*
X122398363Y-106566212D01*
X122453400Y-106584094D01*
X122570591Y-106622171D01*
X122643639Y-106633740D01*
X122730678Y-106647527D01*
X122793813Y-106677456D01*
X122830744Y-106736768D01*
X122829746Y-106806631D01*
X122791136Y-106864863D01*
X122730678Y-106892473D01*
X122570589Y-106917829D01*
X122398363Y-106973787D01*
X122398360Y-106973788D01*
X122237002Y-107056006D01*
X122090505Y-107162441D01*
X122090500Y-107162445D01*
X121962445Y-107290500D01*
X121962441Y-107290505D01*
X121856006Y-107437002D01*
X121773788Y-107598360D01*
X121773787Y-107598363D01*
X121717829Y-107770589D01*
X121692473Y-107930678D01*
X121662544Y-107993813D01*
X121603232Y-108030744D01*
X121533369Y-108029746D01*
X121475137Y-107991136D01*
X121447527Y-107930678D01*
X121426449Y-107797602D01*
X121422171Y-107770591D01*
X121366211Y-107598361D01*
X121366211Y-107598360D01*
X121336474Y-107540000D01*
X121283996Y-107437006D01*
X121190936Y-107308919D01*
X121177558Y-107290505D01*
X121177554Y-107290500D01*
X121049499Y-107162445D01*
X121049494Y-107162441D01*
X120902997Y-107056006D01*
X120902996Y-107056005D01*
X120902994Y-107056004D01*
X120844257Y-107026076D01*
X120741639Y-106973788D01*
X120741636Y-106973787D01*
X120638387Y-106940240D01*
X120580711Y-106900803D01*
X120553513Y-106836444D01*
X120565428Y-106767598D01*
X120612672Y-106716122D01*
X120638387Y-106704378D01*
X120779835Y-106658418D01*
X120955143Y-106569095D01*
X121031079Y-106513922D01*
X121031080Y-106513921D01*
X120485178Y-105968019D01*
X120492993Y-105965925D01*
X120607007Y-105900099D01*
X120700099Y-105807007D01*
X120765925Y-105692993D01*
X120768019Y-105685177D01*
X121313921Y-106231080D01*
G37*
%TD.AperFunction*%
%TA.AperFunction,Conductor*%
G36*
X108906630Y-105510253D02*
G01*
X108964863Y-105548863D01*
X108992473Y-105609321D01*
X109017829Y-105769410D01*
X109073787Y-105941636D01*
X109073788Y-105941639D01*
X109156006Y-106102997D01*
X109262441Y-106249494D01*
X109262445Y-106249499D01*
X109390500Y-106377554D01*
X109390505Y-106377558D01*
X109454564Y-106424099D01*
X109537006Y-106483996D01*
X109613094Y-106522765D01*
X109698360Y-106566211D01*
X109698366Y-106566213D01*
X109801611Y-106599759D01*
X109859287Y-106639196D01*
X109886486Y-106703554D01*
X109874572Y-106772401D01*
X109827328Y-106823877D01*
X109801613Y-106835621D01*
X109660162Y-106881581D01*
X109484855Y-106970905D01*
X109484846Y-106970911D01*
X109408919Y-107026075D01*
X109408918Y-107026076D01*
X109954823Y-107571980D01*
X109947007Y-107574075D01*
X109832993Y-107639901D01*
X109739901Y-107732993D01*
X109674075Y-107847007D01*
X109671980Y-107854822D01*
X109126076Y-107308918D01*
X109126075Y-107308919D01*
X109070911Y-107384846D01*
X109070905Y-107384855D01*
X108981581Y-107560162D01*
X108935621Y-107701613D01*
X108896183Y-107759288D01*
X108831824Y-107786486D01*
X108762978Y-107774571D01*
X108711502Y-107727327D01*
X108699759Y-107701611D01*
X108666213Y-107598366D01*
X108666211Y-107598360D01*
X108636474Y-107540000D01*
X108583996Y-107437006D01*
X108490936Y-107308919D01*
X108477558Y-107290505D01*
X108477554Y-107290500D01*
X108349499Y-107162445D01*
X108349494Y-107162441D01*
X108202997Y-107056006D01*
X108202996Y-107056005D01*
X108202994Y-107056004D01*
X108144257Y-107026076D01*
X108041639Y-106973788D01*
X108041636Y-106973787D01*
X107869410Y-106917829D01*
X107709321Y-106892473D01*
X107646186Y-106862544D01*
X107609255Y-106803232D01*
X107610253Y-106733370D01*
X107648863Y-106675137D01*
X107709321Y-106647527D01*
X107779425Y-106636422D01*
X107869409Y-106622171D01*
X108041639Y-106566211D01*
X108202994Y-106483996D01*
X108349501Y-106377553D01*
X108477553Y-106249501D01*
X108583996Y-106102994D01*
X108666211Y-105941639D01*
X108722171Y-105769409D01*
X108743027Y-105637729D01*
X108747527Y-105609321D01*
X108777456Y-105546186D01*
X108836768Y-105509255D01*
X108906630Y-105510253D01*
G37*
%TD.AperFunction*%
%TA.AperFunction,Conductor*%
G36*
X124146630Y-105510253D02*
G01*
X124204863Y-105548863D01*
X124232473Y-105609321D01*
X124257829Y-105769410D01*
X124313787Y-105941636D01*
X124313788Y-105941639D01*
X124396006Y-106102997D01*
X124502441Y-106249494D01*
X124502445Y-106249499D01*
X124630500Y-106377554D01*
X124630505Y-106377558D01*
X124694564Y-106424099D01*
X124777006Y-106483996D01*
X124853094Y-106522765D01*
X124938360Y-106566211D01*
X124938366Y-106566213D01*
X125041611Y-106599759D01*
X125099287Y-106639196D01*
X125126486Y-106703554D01*
X125114572Y-106772401D01*
X125067328Y-106823877D01*
X125041613Y-106835621D01*
X124900162Y-106881581D01*
X124724855Y-106970905D01*
X124724846Y-106970911D01*
X124648919Y-107026075D01*
X124648918Y-107026076D01*
X125194823Y-107571980D01*
X125187007Y-107574075D01*
X125072993Y-107639901D01*
X124979901Y-107732993D01*
X124914075Y-107847007D01*
X124911980Y-107854822D01*
X124366076Y-107308918D01*
X124366075Y-107308919D01*
X124310911Y-107384846D01*
X124310905Y-107384855D01*
X124221581Y-107560162D01*
X124175621Y-107701613D01*
X124136183Y-107759288D01*
X124071824Y-107786486D01*
X124002978Y-107774571D01*
X123951502Y-107727327D01*
X123939759Y-107701611D01*
X123906213Y-107598366D01*
X123906211Y-107598360D01*
X123876474Y-107540000D01*
X123823996Y-107437006D01*
X123730936Y-107308919D01*
X123717558Y-107290505D01*
X123717554Y-107290500D01*
X123589499Y-107162445D01*
X123589494Y-107162441D01*
X123442997Y-107056006D01*
X123442996Y-107056005D01*
X123442994Y-107056004D01*
X123384257Y-107026076D01*
X123281639Y-106973788D01*
X123281636Y-106973787D01*
X123109410Y-106917829D01*
X122949321Y-106892473D01*
X122886186Y-106862544D01*
X122849255Y-106803232D01*
X122850253Y-106733370D01*
X122888863Y-106675137D01*
X122949321Y-106647527D01*
X123019425Y-106636422D01*
X123109409Y-106622171D01*
X123281639Y-106566211D01*
X123442994Y-106483996D01*
X123589501Y-106377553D01*
X123717553Y-106249501D01*
X123823996Y-106102994D01*
X123906211Y-105941639D01*
X123962171Y-105769409D01*
X123983027Y-105637729D01*
X123987527Y-105609321D01*
X124017456Y-105546186D01*
X124076768Y-105509255D01*
X124146630Y-105510253D01*
G37*
%TD.AperFunction*%
%TA.AperFunction,Conductor*%
G36*
X129226630Y-105510253D02*
G01*
X129284863Y-105548863D01*
X129312473Y-105609321D01*
X129337829Y-105769410D01*
X129393787Y-105941636D01*
X129393788Y-105941639D01*
X129476006Y-106102997D01*
X129582441Y-106249494D01*
X129582445Y-106249499D01*
X129710500Y-106377554D01*
X129710505Y-106377558D01*
X129774564Y-106424099D01*
X129857006Y-106483996D01*
X129933094Y-106522765D01*
X130018360Y-106566211D01*
X130018366Y-106566213D01*
X130121611Y-106599759D01*
X130179287Y-106639196D01*
X130206486Y-106703554D01*
X130194572Y-106772401D01*
X130147328Y-106823877D01*
X130121613Y-106835621D01*
X129980162Y-106881581D01*
X129804855Y-106970905D01*
X129804846Y-106970911D01*
X129728919Y-107026075D01*
X129728918Y-107026076D01*
X130274822Y-107571980D01*
X130267007Y-107574075D01*
X130152993Y-107639901D01*
X130059901Y-107732993D01*
X129994075Y-107847007D01*
X129991980Y-107854822D01*
X129446076Y-107308918D01*
X129446075Y-107308919D01*
X129390911Y-107384846D01*
X129390905Y-107384855D01*
X129301581Y-107560162D01*
X129255621Y-107701613D01*
X129216183Y-107759288D01*
X129151824Y-107786486D01*
X129082978Y-107774571D01*
X129031502Y-107727327D01*
X129019759Y-107701611D01*
X128986213Y-107598366D01*
X128986211Y-107598360D01*
X128956474Y-107540000D01*
X128903996Y-107437006D01*
X128810936Y-107308919D01*
X128797558Y-107290505D01*
X128797554Y-107290500D01*
X128669499Y-107162445D01*
X128669494Y-107162441D01*
X128522997Y-107056006D01*
X128522996Y-107056005D01*
X128522994Y-107056004D01*
X128464257Y-107026076D01*
X128361639Y-106973788D01*
X128361636Y-106973787D01*
X128189410Y-106917829D01*
X128029321Y-106892473D01*
X127966186Y-106862544D01*
X127929255Y-106803232D01*
X127930253Y-106733370D01*
X127968863Y-106675137D01*
X128029321Y-106647527D01*
X128099425Y-106636422D01*
X128189409Y-106622171D01*
X128361639Y-106566211D01*
X128522994Y-106483996D01*
X128669501Y-106377553D01*
X128797553Y-106249501D01*
X128903996Y-106102994D01*
X128986211Y-105941639D01*
X129042171Y-105769409D01*
X129063027Y-105637729D01*
X129067527Y-105609321D01*
X129097456Y-105546186D01*
X129156768Y-105509255D01*
X129226630Y-105510253D01*
G37*
%TD.AperFunction*%
%TA.AperFunction,Conductor*%
G36*
X134302130Y-105538661D02*
G01*
X134360363Y-105577271D01*
X134388477Y-105641234D01*
X134389500Y-105657127D01*
X134389500Y-106394856D01*
X134389502Y-106394882D01*
X134392413Y-106419987D01*
X134392415Y-106419991D01*
X134437793Y-106522764D01*
X134437794Y-106522765D01*
X134517235Y-106602206D01*
X134620009Y-106647585D01*
X134645135Y-106650500D01*
X134997191Y-106650499D01*
X135064228Y-106670183D01*
X135109983Y-106722987D01*
X135119927Y-106792146D01*
X135090902Y-106855701D01*
X135053484Y-106884984D01*
X134884855Y-106970905D01*
X134884846Y-106970911D01*
X134808919Y-107026075D01*
X134808918Y-107026076D01*
X135354823Y-107571980D01*
X135347007Y-107574075D01*
X135232993Y-107639901D01*
X135139901Y-107732993D01*
X135074075Y-107847007D01*
X135071980Y-107854822D01*
X134526076Y-107308918D01*
X134526075Y-107308919D01*
X134470911Y-107384846D01*
X134470905Y-107384855D01*
X134381581Y-107560162D01*
X134335621Y-107701613D01*
X134296183Y-107759288D01*
X134231824Y-107786486D01*
X134162978Y-107774571D01*
X134111502Y-107727327D01*
X134099759Y-107701611D01*
X134066213Y-107598366D01*
X134066211Y-107598360D01*
X134036474Y-107540000D01*
X133983996Y-107437006D01*
X133890936Y-107308919D01*
X133877558Y-107290505D01*
X133877554Y-107290500D01*
X133749499Y-107162445D01*
X133749494Y-107162441D01*
X133602997Y-107056006D01*
X133602996Y-107056005D01*
X133602994Y-107056004D01*
X133544257Y-107026076D01*
X133441639Y-106973788D01*
X133441636Y-106973787D01*
X133269410Y-106917829D01*
X133109321Y-106892473D01*
X133046186Y-106862544D01*
X133009255Y-106803232D01*
X133010253Y-106733370D01*
X133048863Y-106675137D01*
X133109321Y-106647527D01*
X133179425Y-106636422D01*
X133269409Y-106622171D01*
X133441639Y-106566211D01*
X133602994Y-106483996D01*
X133749501Y-106377553D01*
X133877553Y-106249501D01*
X133983996Y-106102994D01*
X134066211Y-105941639D01*
X134122171Y-105769409D01*
X134143027Y-105637729D01*
X134172956Y-105574595D01*
X134232267Y-105537663D01*
X134302130Y-105538661D01*
G37*
%TD.AperFunction*%
%TA.AperFunction,Conductor*%
G36*
X106366630Y-105510253D02*
G01*
X106424863Y-105548863D01*
X106452473Y-105609321D01*
X106477829Y-105769410D01*
X106533787Y-105941636D01*
X106533788Y-105941639D01*
X106616006Y-106102997D01*
X106722441Y-106249494D01*
X106722445Y-106249499D01*
X106850500Y-106377554D01*
X106850505Y-106377558D01*
X106914564Y-106424099D01*
X106997006Y-106483996D01*
X107073094Y-106522765D01*
X107158360Y-106566211D01*
X107158363Y-106566212D01*
X107213400Y-106584094D01*
X107330591Y-106622171D01*
X107403639Y-106633740D01*
X107490678Y-106647527D01*
X107553813Y-106677456D01*
X107590744Y-106736768D01*
X107589746Y-106806631D01*
X107551136Y-106864863D01*
X107490678Y-106892473D01*
X107330589Y-106917829D01*
X107158363Y-106973787D01*
X107158360Y-106973788D01*
X106997002Y-107056006D01*
X106850505Y-107162441D01*
X106850500Y-107162445D01*
X106722445Y-107290500D01*
X106722441Y-107290505D01*
X106616006Y-107437002D01*
X106533788Y-107598360D01*
X106533787Y-107598363D01*
X106500240Y-107701612D01*
X106460802Y-107759288D01*
X106396444Y-107786486D01*
X106327597Y-107774571D01*
X106276122Y-107727327D01*
X106264378Y-107701612D01*
X106218418Y-107560164D01*
X106129095Y-107384856D01*
X106073922Y-107308919D01*
X106073922Y-107308918D01*
X105528018Y-107854821D01*
X105525925Y-107847007D01*
X105460099Y-107732993D01*
X105367007Y-107639901D01*
X105252993Y-107574075D01*
X105245177Y-107571980D01*
X105791080Y-107026077D01*
X105791079Y-107026076D01*
X105715143Y-106970904D01*
X105539837Y-106881582D01*
X105398386Y-106835621D01*
X105340711Y-106796183D01*
X105313513Y-106731824D01*
X105325428Y-106662978D01*
X105372672Y-106611502D01*
X105398388Y-106599759D01*
X105501633Y-106566213D01*
X105501639Y-106566211D01*
X105516761Y-106558506D01*
X105662994Y-106483996D01*
X105809501Y-106377553D01*
X105937553Y-106249501D01*
X106043996Y-106102994D01*
X106126211Y-105941639D01*
X106182171Y-105769409D01*
X106203027Y-105637729D01*
X106207527Y-105609321D01*
X106237456Y-105546186D01*
X106296768Y-105509255D01*
X106366630Y-105510253D01*
G37*
%TD.AperFunction*%
%TA.AperFunction,Conductor*%
G36*
X111446630Y-105510253D02*
G01*
X111504863Y-105548863D01*
X111532473Y-105609321D01*
X111557829Y-105769410D01*
X111613787Y-105941636D01*
X111613788Y-105941639D01*
X111696006Y-106102997D01*
X111802441Y-106249494D01*
X111802445Y-106249499D01*
X111930500Y-106377554D01*
X111930505Y-106377558D01*
X111994564Y-106424099D01*
X112077006Y-106483996D01*
X112153094Y-106522765D01*
X112238360Y-106566211D01*
X112238363Y-106566212D01*
X112293400Y-106584094D01*
X112410591Y-106622171D01*
X112483639Y-106633740D01*
X112570678Y-106647527D01*
X112633813Y-106677456D01*
X112670744Y-106736768D01*
X112669746Y-106806631D01*
X112631136Y-106864863D01*
X112570678Y-106892473D01*
X112410589Y-106917829D01*
X112238363Y-106973787D01*
X112238360Y-106973788D01*
X112077002Y-107056006D01*
X111930505Y-107162441D01*
X111930500Y-107162445D01*
X111802445Y-107290500D01*
X111802441Y-107290505D01*
X111696006Y-107437002D01*
X111613788Y-107598360D01*
X111613787Y-107598363D01*
X111580240Y-107701612D01*
X111540802Y-107759288D01*
X111476444Y-107786486D01*
X111407597Y-107774571D01*
X111356122Y-107727327D01*
X111344378Y-107701612D01*
X111298418Y-107560164D01*
X111209095Y-107384856D01*
X111153922Y-107308919D01*
X111153922Y-107308918D01*
X110608018Y-107854821D01*
X110605925Y-107847007D01*
X110540099Y-107732993D01*
X110447007Y-107639901D01*
X110332993Y-107574075D01*
X110325177Y-107571980D01*
X110871080Y-107026077D01*
X110871079Y-107026076D01*
X110795143Y-106970904D01*
X110619837Y-106881582D01*
X110478386Y-106835621D01*
X110420711Y-106796183D01*
X110393513Y-106731824D01*
X110405428Y-106662978D01*
X110452672Y-106611502D01*
X110478388Y-106599759D01*
X110581633Y-106566213D01*
X110581639Y-106566211D01*
X110596761Y-106558506D01*
X110742994Y-106483996D01*
X110889501Y-106377553D01*
X111017553Y-106249501D01*
X111123996Y-106102994D01*
X111206211Y-105941639D01*
X111262171Y-105769409D01*
X111283027Y-105637729D01*
X111287527Y-105609321D01*
X111317456Y-105546186D01*
X111376768Y-105509255D01*
X111446630Y-105510253D01*
G37*
%TD.AperFunction*%
%TA.AperFunction,Conductor*%
G36*
X126686630Y-105510253D02*
G01*
X126744863Y-105548863D01*
X126772473Y-105609321D01*
X126797829Y-105769410D01*
X126853787Y-105941636D01*
X126853788Y-105941639D01*
X126936006Y-106102997D01*
X127042441Y-106249494D01*
X127042445Y-106249499D01*
X127170500Y-106377554D01*
X127170505Y-106377558D01*
X127234564Y-106424099D01*
X127317006Y-106483996D01*
X127393094Y-106522765D01*
X127478360Y-106566211D01*
X127478363Y-106566212D01*
X127533400Y-106584094D01*
X127650591Y-106622171D01*
X127723639Y-106633740D01*
X127810678Y-106647527D01*
X127873813Y-106677456D01*
X127910744Y-106736768D01*
X127909746Y-106806631D01*
X127871136Y-106864863D01*
X127810678Y-106892473D01*
X127650589Y-106917829D01*
X127478363Y-106973787D01*
X127478360Y-106973788D01*
X127317002Y-107056006D01*
X127170505Y-107162441D01*
X127170500Y-107162445D01*
X127042445Y-107290500D01*
X127042441Y-107290505D01*
X126936006Y-107437002D01*
X126853788Y-107598360D01*
X126853787Y-107598363D01*
X126820240Y-107701612D01*
X126780802Y-107759288D01*
X126716444Y-107786486D01*
X126647597Y-107774571D01*
X126596122Y-107727327D01*
X126584378Y-107701612D01*
X126538418Y-107560164D01*
X126449095Y-107384856D01*
X126393922Y-107308919D01*
X126393922Y-107308918D01*
X125848018Y-107854821D01*
X125845925Y-107847007D01*
X125780099Y-107732993D01*
X125687007Y-107639901D01*
X125572993Y-107574075D01*
X125565177Y-107571980D01*
X126111080Y-107026077D01*
X126111079Y-107026076D01*
X126035143Y-106970904D01*
X125859837Y-106881582D01*
X125718386Y-106835621D01*
X125660711Y-106796183D01*
X125633513Y-106731824D01*
X125645428Y-106662978D01*
X125692672Y-106611502D01*
X125718388Y-106599759D01*
X125821633Y-106566213D01*
X125821639Y-106566211D01*
X125836761Y-106558506D01*
X125982994Y-106483996D01*
X126129501Y-106377553D01*
X126257553Y-106249501D01*
X126363996Y-106102994D01*
X126446211Y-105941639D01*
X126502171Y-105769409D01*
X126523027Y-105637729D01*
X126527527Y-105609321D01*
X126557456Y-105546186D01*
X126616768Y-105509255D01*
X126686630Y-105510253D01*
G37*
%TD.AperFunction*%
%TD*%
M02*
