%TF.GenerationSoftware,KiCad,Pcbnew,10.0.3*%
%TF.CreationDate,2026-06-11T18:02:48+02:00*%
%TF.ProjectId,dataflyer-2650,64617461-666c-4796-9572-2d323635302e,1.4*%
%TF.SameCoordinates,Original*%
%TF.FileFunction,Legend,Bot*%
%TF.FilePolarity,Positive*%
%FSLAX46Y46*%
G04 Gerber Fmt 4.6, Leading zero omitted, Abs format (unit mm)*
G04 Created by KiCad (PCBNEW 10.0.3) date 2026-06-11 18:02:48*
%MOMM*%
%LPD*%
G01*
G04 APERTURE LIST*
%ADD10C,0.150000*%
%ADD11C,0.100000*%
%ADD12C,0.120000*%
G04 APERTURE END LIST*
D10*
X131516765Y-110146898D02*
X131516765Y-110861183D01*
X131516765Y-110861183D02*
X131564384Y-111004040D01*
X131564384Y-111004040D02*
X131659622Y-111099279D01*
X131659622Y-111099279D02*
X131802479Y-111146898D01*
X131802479Y-111146898D02*
X131897717Y-111146898D01*
X130516765Y-111146898D02*
X131088193Y-111146898D01*
X130802479Y-111146898D02*
X130802479Y-110146898D01*
X130802479Y-110146898D02*
X130897717Y-110289755D01*
X130897717Y-110289755D02*
X130992955Y-110384993D01*
X130992955Y-110384993D02*
X131088193Y-110432612D01*
D11*
X130152917Y-116587242D02*
X129391012Y-116158670D01*
X129391012Y-116158670D02*
X129391012Y-117015813D01*
X129391012Y-117015813D02*
X130152917Y-116587242D01*
%TO.C,J1*%
D12*
X130433432Y-111902079D02*
X130433432Y-114502079D01*
X130433432Y-111902079D02*
X163573432Y-111902079D01*
X130433432Y-114502079D02*
X133033432Y-114502079D01*
X130433432Y-115772079D02*
X130433432Y-117102079D01*
X130433432Y-117102079D02*
X131763432Y-117102079D01*
X133033432Y-114502079D02*
X133033432Y-117102079D01*
X133033432Y-117102079D02*
X163573432Y-117102079D01*
X163573432Y-111902079D02*
X163573432Y-117102079D01*
%TD*%
M02*
