%TF.GenerationSoftware,KiCad,Pcbnew,10.0.3*%
%TF.CreationDate,2026-06-11T09:05:24+02:00*%
%TF.ProjectId,dataflyer-2650,64617461-666c-4796-9572-2d323635302e,1.1*%
%TF.SameCoordinates,Original*%
%TF.FileFunction,Soldermask,Bot*%
%TF.FilePolarity,Negative*%
%FSLAX46Y46*%
G04 Gerber Fmt 4.6, Leading zero omitted, Abs format (unit mm)*
G04 Created by KiCad (PCBNEW 10.0.3) date 2026-06-11 09:05:24*
%MOMM*%
%LPD*%
G01*
G04 APERTURE LIST*
G04 Aperture macros list*
%AMRoundRect*
0 Rectangle with rounded corners*
0 $1 Rounding radius*
0 $2 $3 $4 $5 $6 $7 $8 $9 X,Y pos of 4 corners*
0 Add a 4 corners polygon primitive as box body*
4,1,4,$2,$3,$4,$5,$6,$7,$8,$9,$2,$3,0*
0 Add four circle primitives for the rounded corners*
1,1,$1+$1,$2,$3*
1,1,$1+$1,$4,$5*
1,1,$1+$1,$6,$7*
1,1,$1+$1,$8,$9*
0 Add four rect primitives between the rounded corners*
20,1,$1+$1,$2,$3,$4,$5,0*
20,1,$1+$1,$4,$5,$6,$7,0*
20,1,$1+$1,$6,$7,$8,$9,0*
20,1,$1+$1,$8,$9,$2,$3,0*%
G04 Aperture macros list end*
%ADD10R,1.700000X1.700000*%
%ADD11C,1.700000*%
%ADD12RoundRect,0.250000X-0.600000X0.600000X-0.600000X-0.600000X0.600000X-0.600000X0.600000X0.600000X0*%
G04 APERTURE END LIST*
D10*
%TO.C,J1*%
X132080000Y-116080000D03*
D11*
X132080000Y-113540000D03*
X134620000Y-116080000D03*
X134620000Y-113540000D03*
X137160000Y-116080000D03*
X137160000Y-113540000D03*
X139700000Y-116080000D03*
X139700000Y-113540000D03*
X142240000Y-116080000D03*
X142240000Y-113540000D03*
X144780000Y-116080000D03*
X144780000Y-113540000D03*
X147320000Y-116080000D03*
X147320000Y-113540000D03*
X149860000Y-116080000D03*
X149860000Y-113540000D03*
X152400000Y-116080000D03*
X152400000Y-113540000D03*
X154940000Y-116080000D03*
X154940000Y-113540000D03*
X157480000Y-116080000D03*
X157480000Y-113540000D03*
X160020000Y-116080000D03*
X160020000Y-113540000D03*
X162560000Y-116080000D03*
X162560000Y-113540000D03*
%TD*%
D12*
%TO.C,J2*%
X163100000Y-100000000D03*
D11*
X163100000Y-102540000D03*
X160560000Y-100000000D03*
X160560000Y-102540000D03*
X158020000Y-100000000D03*
X158020000Y-102540000D03*
X155480000Y-100000000D03*
X155480000Y-102540000D03*
X152940000Y-100000000D03*
X152940000Y-102540000D03*
X150400000Y-100000000D03*
X150400000Y-102540000D03*
X147860000Y-100000000D03*
X147860000Y-102540000D03*
X145320000Y-100000000D03*
X145320000Y-102540000D03*
X142780000Y-100000000D03*
X142780000Y-102540000D03*
X140240000Y-100000000D03*
X140240000Y-102540000D03*
X137700000Y-100000000D03*
X137700000Y-102540000D03*
X135160000Y-100000000D03*
X135160000Y-102540000D03*
X132620000Y-100000000D03*
X132620000Y-102540000D03*
X130080000Y-100000000D03*
X130080000Y-102540000D03*
X127540000Y-100000000D03*
X127540000Y-102540000D03*
X125000000Y-100000000D03*
X125000000Y-102540000D03*
X122460000Y-100000000D03*
X122460000Y-102540000D03*
X119920000Y-100000000D03*
X119920000Y-102540000D03*
X117380000Y-100000000D03*
X117380000Y-102540000D03*
X114840000Y-100000000D03*
X114840000Y-102540000D03*
X112300000Y-100000000D03*
X112300000Y-102540000D03*
X109760000Y-100000000D03*
X109760000Y-102540000D03*
X107220000Y-100000000D03*
X107220000Y-102540000D03*
X104680000Y-100000000D03*
X104680000Y-102540000D03*
X102140000Y-100000000D03*
X102140000Y-102540000D03*
%TD*%
M02*
