%TF.GenerationSoftware,KiCad,Pcbnew,10.0.3*%
%TF.CreationDate,2026-06-03T00:01:13+02:00*%
%TF.ProjectId,dataflyer-2650,64617461-666c-4796-9572-2d323635302e,1.1*%
%TF.SameCoordinates,Original*%
%TF.FileFunction,Legend,Top*%
%TF.FilePolarity,Positive*%
%FSLAX46Y46*%
G04 Gerber Fmt 4.6, Leading zero omitted, Abs format (unit mm)*
G04 Created by KiCad (PCBNEW 10.0.3) date 2026-06-03 00:01:13*
%MOMM*%
%LPD*%
G01*
G04 APERTURE LIST*
%ADD10C,0.100000*%
%ADD11C,0.150000*%
%ADD12C,0.120000*%
G04 APERTURE END LIST*
D10*
X65903884Y-103287371D02*
X65827693Y-103249276D01*
X65827693Y-103249276D02*
X65675312Y-103249276D01*
X65675312Y-103249276D02*
X65599122Y-103287371D01*
X65599122Y-103287371D02*
X65522931Y-103363561D01*
X65522931Y-103363561D02*
X65484836Y-103439752D01*
X65484836Y-103439752D02*
X65484836Y-103592133D01*
X65484836Y-103592133D02*
X65522931Y-103668323D01*
X65522931Y-103668323D02*
X65599122Y-103744514D01*
X65599122Y-103744514D02*
X65675312Y-103782609D01*
X65675312Y-103782609D02*
X65827693Y-103782609D01*
X65827693Y-103782609D02*
X65903884Y-103744514D01*
X65751503Y-102982609D02*
X65561027Y-103020704D01*
X65561027Y-103020704D02*
X65370550Y-103134990D01*
X65370550Y-103134990D02*
X65256265Y-103325466D01*
X65256265Y-103325466D02*
X65218169Y-103515942D01*
X65218169Y-103515942D02*
X65256265Y-103706419D01*
X65256265Y-103706419D02*
X65370550Y-103896895D01*
X65370550Y-103896895D02*
X65561027Y-104011180D01*
X65561027Y-104011180D02*
X65751503Y-104049276D01*
X65751503Y-104049276D02*
X65941979Y-104011180D01*
X65941979Y-104011180D02*
X66132455Y-103896895D01*
X66132455Y-103896895D02*
X66246741Y-103706419D01*
X66246741Y-103706419D02*
X66284836Y-103515942D01*
X66284836Y-103515942D02*
X66246741Y-103325466D01*
X66246741Y-103325466D02*
X66132455Y-103134990D01*
X66132455Y-103134990D02*
X65941979Y-103020704D01*
X65941979Y-103020704D02*
X65751503Y-102982609D01*
X66589598Y-103173085D02*
X66627694Y-103134990D01*
X66627694Y-103134990D02*
X66703884Y-103096895D01*
X66703884Y-103096895D02*
X66894360Y-103096895D01*
X66894360Y-103096895D02*
X66970551Y-103134990D01*
X66970551Y-103134990D02*
X67008646Y-103173085D01*
X67008646Y-103173085D02*
X67046741Y-103249276D01*
X67046741Y-103249276D02*
X67046741Y-103325466D01*
X67046741Y-103325466D02*
X67008646Y-103439752D01*
X67008646Y-103439752D02*
X66551503Y-103896895D01*
X66551503Y-103896895D02*
X67046741Y-103896895D01*
X67541980Y-103096895D02*
X67618170Y-103096895D01*
X67618170Y-103096895D02*
X67694361Y-103134990D01*
X67694361Y-103134990D02*
X67732456Y-103173085D01*
X67732456Y-103173085D02*
X67770551Y-103249276D01*
X67770551Y-103249276D02*
X67808646Y-103401657D01*
X67808646Y-103401657D02*
X67808646Y-103592133D01*
X67808646Y-103592133D02*
X67770551Y-103744514D01*
X67770551Y-103744514D02*
X67732456Y-103820704D01*
X67732456Y-103820704D02*
X67694361Y-103858800D01*
X67694361Y-103858800D02*
X67618170Y-103896895D01*
X67618170Y-103896895D02*
X67541980Y-103896895D01*
X67541980Y-103896895D02*
X67465789Y-103858800D01*
X67465789Y-103858800D02*
X67427694Y-103820704D01*
X67427694Y-103820704D02*
X67389599Y-103744514D01*
X67389599Y-103744514D02*
X67351503Y-103592133D01*
X67351503Y-103592133D02*
X67351503Y-103401657D01*
X67351503Y-103401657D02*
X67389599Y-103249276D01*
X67389599Y-103249276D02*
X67427694Y-103173085D01*
X67427694Y-103173085D02*
X67465789Y-103134990D01*
X67465789Y-103134990D02*
X67541980Y-103096895D01*
X68113408Y-103173085D02*
X68151504Y-103134990D01*
X68151504Y-103134990D02*
X68227694Y-103096895D01*
X68227694Y-103096895D02*
X68418170Y-103096895D01*
X68418170Y-103096895D02*
X68494361Y-103134990D01*
X68494361Y-103134990D02*
X68532456Y-103173085D01*
X68532456Y-103173085D02*
X68570551Y-103249276D01*
X68570551Y-103249276D02*
X68570551Y-103325466D01*
X68570551Y-103325466D02*
X68532456Y-103439752D01*
X68532456Y-103439752D02*
X68075313Y-103896895D01*
X68075313Y-103896895D02*
X68570551Y-103896895D01*
X69256266Y-103096895D02*
X69103885Y-103096895D01*
X69103885Y-103096895D02*
X69027694Y-103134990D01*
X69027694Y-103134990D02*
X68989599Y-103173085D01*
X68989599Y-103173085D02*
X68913409Y-103287371D01*
X68913409Y-103287371D02*
X68875313Y-103439752D01*
X68875313Y-103439752D02*
X68875313Y-103744514D01*
X68875313Y-103744514D02*
X68913409Y-103820704D01*
X68913409Y-103820704D02*
X68951504Y-103858800D01*
X68951504Y-103858800D02*
X69027694Y-103896895D01*
X69027694Y-103896895D02*
X69180075Y-103896895D01*
X69180075Y-103896895D02*
X69256266Y-103858800D01*
X69256266Y-103858800D02*
X69294361Y-103820704D01*
X69294361Y-103820704D02*
X69332456Y-103744514D01*
X69332456Y-103744514D02*
X69332456Y-103554038D01*
X69332456Y-103554038D02*
X69294361Y-103477847D01*
X69294361Y-103477847D02*
X69256266Y-103439752D01*
X69256266Y-103439752D02*
X69180075Y-103401657D01*
X69180075Y-103401657D02*
X69027694Y-103401657D01*
X69027694Y-103401657D02*
X68951504Y-103439752D01*
X68951504Y-103439752D02*
X68913409Y-103477847D01*
X68913409Y-103477847D02*
X68875313Y-103554038D01*
X70246742Y-103668323D02*
X70627695Y-103668323D01*
X70170552Y-103896895D02*
X70437219Y-103096895D01*
X70437219Y-103096895D02*
X70703885Y-103896895D01*
X70970552Y-103896895D02*
X70970552Y-103363561D01*
X70970552Y-103515942D02*
X71008647Y-103439752D01*
X71008647Y-103439752D02*
X71046742Y-103401657D01*
X71046742Y-103401657D02*
X71122933Y-103363561D01*
X71122933Y-103363561D02*
X71199123Y-103363561D01*
X71465790Y-103363561D02*
X71465790Y-103896895D01*
X71465790Y-103439752D02*
X71503885Y-103401657D01*
X71503885Y-103401657D02*
X71580075Y-103363561D01*
X71580075Y-103363561D02*
X71694361Y-103363561D01*
X71694361Y-103363561D02*
X71770552Y-103401657D01*
X71770552Y-103401657D02*
X71808647Y-103477847D01*
X71808647Y-103477847D02*
X71808647Y-103896895D01*
X72303885Y-103896895D02*
X72227695Y-103858800D01*
X72227695Y-103858800D02*
X72189600Y-103782609D01*
X72189600Y-103782609D02*
X72189600Y-103096895D01*
X72608648Y-103363561D02*
X72608648Y-104049276D01*
X72608648Y-104049276D02*
X72570552Y-104125466D01*
X72570552Y-104125466D02*
X72494362Y-104163561D01*
X72494362Y-104163561D02*
X72456267Y-104163561D01*
X72608648Y-103096895D02*
X72570552Y-103134990D01*
X72570552Y-103134990D02*
X72608648Y-103173085D01*
X72608648Y-103173085D02*
X72646743Y-103134990D01*
X72646743Y-103134990D02*
X72608648Y-103096895D01*
X72608648Y-103096895D02*
X72608648Y-103173085D01*
X73103885Y-103896895D02*
X73027695Y-103858800D01*
X73027695Y-103858800D02*
X72989600Y-103820704D01*
X72989600Y-103820704D02*
X72951504Y-103744514D01*
X72951504Y-103744514D02*
X72951504Y-103515942D01*
X72951504Y-103515942D02*
X72989600Y-103439752D01*
X72989600Y-103439752D02*
X73027695Y-103401657D01*
X73027695Y-103401657D02*
X73103885Y-103363561D01*
X73103885Y-103363561D02*
X73218171Y-103363561D01*
X73218171Y-103363561D02*
X73294362Y-103401657D01*
X73294362Y-103401657D02*
X73332457Y-103439752D01*
X73332457Y-103439752D02*
X73370552Y-103515942D01*
X73370552Y-103515942D02*
X73370552Y-103744514D01*
X73370552Y-103744514D02*
X73332457Y-103820704D01*
X73332457Y-103820704D02*
X73294362Y-103858800D01*
X73294362Y-103858800D02*
X73218171Y-103896895D01*
X73218171Y-103896895D02*
X73103885Y-103896895D01*
X73599124Y-103363561D02*
X73903886Y-103363561D01*
X73713410Y-103096895D02*
X73713410Y-103782609D01*
X73713410Y-103782609D02*
X73751505Y-103858800D01*
X73751505Y-103858800D02*
X73827695Y-103896895D01*
X73827695Y-103896895D02*
X73903886Y-103896895D01*
X74741981Y-103668323D02*
X75122934Y-103668323D01*
X74665791Y-103896895D02*
X74932458Y-103096895D01*
X74932458Y-103096895D02*
X75199124Y-103896895D01*
X75465791Y-103896895D02*
X75465791Y-103363561D01*
X75465791Y-103515942D02*
X75503886Y-103439752D01*
X75503886Y-103439752D02*
X75541981Y-103401657D01*
X75541981Y-103401657D02*
X75618172Y-103363561D01*
X75618172Y-103363561D02*
X75694362Y-103363561D01*
X75961029Y-103363561D02*
X75961029Y-103896895D01*
X75961029Y-103439752D02*
X75999124Y-103401657D01*
X75999124Y-103401657D02*
X76075314Y-103363561D01*
X76075314Y-103363561D02*
X76189600Y-103363561D01*
X76189600Y-103363561D02*
X76265791Y-103401657D01*
X76265791Y-103401657D02*
X76303886Y-103477847D01*
X76303886Y-103477847D02*
X76303886Y-103896895D01*
X76570553Y-103363561D02*
X76875315Y-103363561D01*
X76684839Y-103096895D02*
X76684839Y-103782609D01*
X76684839Y-103782609D02*
X76722934Y-103858800D01*
X76722934Y-103858800D02*
X76799124Y-103896895D01*
X76799124Y-103896895D02*
X76875315Y-103896895D01*
X77103886Y-103858800D02*
X77180077Y-103896895D01*
X77180077Y-103896895D02*
X77332458Y-103896895D01*
X77332458Y-103896895D02*
X77408648Y-103858800D01*
X77408648Y-103858800D02*
X77446744Y-103782609D01*
X77446744Y-103782609D02*
X77446744Y-103744514D01*
X77446744Y-103744514D02*
X77408648Y-103668323D01*
X77408648Y-103668323D02*
X77332458Y-103630228D01*
X77332458Y-103630228D02*
X77218172Y-103630228D01*
X77218172Y-103630228D02*
X77141982Y-103592133D01*
X77141982Y-103592133D02*
X77103886Y-103515942D01*
X77103886Y-103515942D02*
X77103886Y-103477847D01*
X77103886Y-103477847D02*
X77141982Y-103401657D01*
X77141982Y-103401657D02*
X77218172Y-103363561D01*
X77218172Y-103363561D02*
X77332458Y-103363561D01*
X77332458Y-103363561D02*
X77408648Y-103401657D01*
X78094363Y-103858800D02*
X78018172Y-103896895D01*
X78018172Y-103896895D02*
X77865791Y-103896895D01*
X77865791Y-103896895D02*
X77789601Y-103858800D01*
X77789601Y-103858800D02*
X77751505Y-103782609D01*
X77751505Y-103782609D02*
X77751505Y-103477847D01*
X77751505Y-103477847D02*
X77789601Y-103401657D01*
X77789601Y-103401657D02*
X77865791Y-103363561D01*
X77865791Y-103363561D02*
X78018172Y-103363561D01*
X78018172Y-103363561D02*
X78094363Y-103401657D01*
X78094363Y-103401657D02*
X78132458Y-103477847D01*
X78132458Y-103477847D02*
X78132458Y-103554038D01*
X78132458Y-103554038D02*
X77751505Y-103630228D01*
X78475315Y-103363561D02*
X78475315Y-103896895D01*
X78475315Y-103439752D02*
X78513410Y-103401657D01*
X78513410Y-103401657D02*
X78589600Y-103363561D01*
X78589600Y-103363561D02*
X78703886Y-103363561D01*
X78703886Y-103363561D02*
X78780077Y-103401657D01*
X78780077Y-103401657D02*
X78818172Y-103477847D01*
X78818172Y-103477847D02*
X78818172Y-103896895D01*
X80418173Y-103363561D02*
X79808649Y-103592133D01*
X79808649Y-103592133D02*
X80418173Y-103820704D01*
X81141982Y-103896895D02*
X81141982Y-103477847D01*
X81141982Y-103477847D02*
X81103887Y-103401657D01*
X81103887Y-103401657D02*
X81027696Y-103363561D01*
X81027696Y-103363561D02*
X80875315Y-103363561D01*
X80875315Y-103363561D02*
X80799125Y-103401657D01*
X81141982Y-103858800D02*
X81065791Y-103896895D01*
X81065791Y-103896895D02*
X80875315Y-103896895D01*
X80875315Y-103896895D02*
X80799125Y-103858800D01*
X80799125Y-103858800D02*
X80761029Y-103782609D01*
X80761029Y-103782609D02*
X80761029Y-103706419D01*
X80761029Y-103706419D02*
X80799125Y-103630228D01*
X80799125Y-103630228D02*
X80875315Y-103592133D01*
X80875315Y-103592133D02*
X81065791Y-103592133D01*
X81065791Y-103592133D02*
X81141982Y-103554038D01*
X81522935Y-103896895D02*
X81522935Y-103363561D01*
X81522935Y-103515942D02*
X81561030Y-103439752D01*
X81561030Y-103439752D02*
X81599125Y-103401657D01*
X81599125Y-103401657D02*
X81675316Y-103363561D01*
X81675316Y-103363561D02*
X81751506Y-103363561D01*
X82018173Y-103363561D02*
X82018173Y-103896895D01*
X82018173Y-103439752D02*
X82056268Y-103401657D01*
X82056268Y-103401657D02*
X82132458Y-103363561D01*
X82132458Y-103363561D02*
X82246744Y-103363561D01*
X82246744Y-103363561D02*
X82322935Y-103401657D01*
X82322935Y-103401657D02*
X82361030Y-103477847D01*
X82361030Y-103477847D02*
X82361030Y-103896895D01*
X82856268Y-103896895D02*
X82780078Y-103858800D01*
X82780078Y-103858800D02*
X82741983Y-103782609D01*
X82741983Y-103782609D02*
X82741983Y-103096895D01*
X83161031Y-103363561D02*
X83161031Y-104049276D01*
X83161031Y-104049276D02*
X83122935Y-104125466D01*
X83122935Y-104125466D02*
X83046745Y-104163561D01*
X83046745Y-104163561D02*
X83008650Y-104163561D01*
X83161031Y-103096895D02*
X83122935Y-103134990D01*
X83122935Y-103134990D02*
X83161031Y-103173085D01*
X83161031Y-103173085D02*
X83199126Y-103134990D01*
X83199126Y-103134990D02*
X83161031Y-103096895D01*
X83161031Y-103096895D02*
X83161031Y-103173085D01*
X83656268Y-103896895D02*
X83580078Y-103858800D01*
X83580078Y-103858800D02*
X83541983Y-103820704D01*
X83541983Y-103820704D02*
X83503887Y-103744514D01*
X83503887Y-103744514D02*
X83503887Y-103515942D01*
X83503887Y-103515942D02*
X83541983Y-103439752D01*
X83541983Y-103439752D02*
X83580078Y-103401657D01*
X83580078Y-103401657D02*
X83656268Y-103363561D01*
X83656268Y-103363561D02*
X83770554Y-103363561D01*
X83770554Y-103363561D02*
X83846745Y-103401657D01*
X83846745Y-103401657D02*
X83884840Y-103439752D01*
X83884840Y-103439752D02*
X83922935Y-103515942D01*
X83922935Y-103515942D02*
X83922935Y-103744514D01*
X83922935Y-103744514D02*
X83884840Y-103820704D01*
X83884840Y-103820704D02*
X83846745Y-103858800D01*
X83846745Y-103858800D02*
X83770554Y-103896895D01*
X83770554Y-103896895D02*
X83656268Y-103896895D01*
X84151507Y-103363561D02*
X84456269Y-103363561D01*
X84265793Y-103096895D02*
X84265793Y-103782609D01*
X84265793Y-103782609D02*
X84303888Y-103858800D01*
X84303888Y-103858800D02*
X84380078Y-103896895D01*
X84380078Y-103896895D02*
X84456269Y-103896895D01*
X84532460Y-103973085D02*
X85141983Y-103973085D01*
X85675317Y-103896895D02*
X85675317Y-103477847D01*
X85675317Y-103477847D02*
X85637222Y-103401657D01*
X85637222Y-103401657D02*
X85561031Y-103363561D01*
X85561031Y-103363561D02*
X85408650Y-103363561D01*
X85408650Y-103363561D02*
X85332460Y-103401657D01*
X85675317Y-103858800D02*
X85599126Y-103896895D01*
X85599126Y-103896895D02*
X85408650Y-103896895D01*
X85408650Y-103896895D02*
X85332460Y-103858800D01*
X85332460Y-103858800D02*
X85294364Y-103782609D01*
X85294364Y-103782609D02*
X85294364Y-103706419D01*
X85294364Y-103706419D02*
X85332460Y-103630228D01*
X85332460Y-103630228D02*
X85408650Y-103592133D01*
X85408650Y-103592133D02*
X85599126Y-103592133D01*
X85599126Y-103592133D02*
X85675317Y-103554038D01*
X86056270Y-103896895D02*
X86056270Y-103363561D01*
X86056270Y-103515942D02*
X86094365Y-103439752D01*
X86094365Y-103439752D02*
X86132460Y-103401657D01*
X86132460Y-103401657D02*
X86208651Y-103363561D01*
X86208651Y-103363561D02*
X86284841Y-103363561D01*
X86551508Y-103363561D02*
X86551508Y-103896895D01*
X86551508Y-103439752D02*
X86589603Y-103401657D01*
X86589603Y-103401657D02*
X86665793Y-103363561D01*
X86665793Y-103363561D02*
X86780079Y-103363561D01*
X86780079Y-103363561D02*
X86856270Y-103401657D01*
X86856270Y-103401657D02*
X86894365Y-103477847D01*
X86894365Y-103477847D02*
X86894365Y-103896895D01*
X87161032Y-103363561D02*
X87465794Y-103363561D01*
X87275318Y-103096895D02*
X87275318Y-103782609D01*
X87275318Y-103782609D02*
X87313413Y-103858800D01*
X87313413Y-103858800D02*
X87389603Y-103896895D01*
X87389603Y-103896895D02*
X87465794Y-103896895D01*
X87694365Y-103858800D02*
X87770556Y-103896895D01*
X87770556Y-103896895D02*
X87922937Y-103896895D01*
X87922937Y-103896895D02*
X87999127Y-103858800D01*
X87999127Y-103858800D02*
X88037223Y-103782609D01*
X88037223Y-103782609D02*
X88037223Y-103744514D01*
X88037223Y-103744514D02*
X87999127Y-103668323D01*
X87999127Y-103668323D02*
X87922937Y-103630228D01*
X87922937Y-103630228D02*
X87808651Y-103630228D01*
X87808651Y-103630228D02*
X87732461Y-103592133D01*
X87732461Y-103592133D02*
X87694365Y-103515942D01*
X87694365Y-103515942D02*
X87694365Y-103477847D01*
X87694365Y-103477847D02*
X87732461Y-103401657D01*
X87732461Y-103401657D02*
X87808651Y-103363561D01*
X87808651Y-103363561D02*
X87922937Y-103363561D01*
X87922937Y-103363561D02*
X87999127Y-103401657D01*
X88684842Y-103858800D02*
X88608651Y-103896895D01*
X88608651Y-103896895D02*
X88456270Y-103896895D01*
X88456270Y-103896895D02*
X88380080Y-103858800D01*
X88380080Y-103858800D02*
X88341984Y-103782609D01*
X88341984Y-103782609D02*
X88341984Y-103477847D01*
X88341984Y-103477847D02*
X88380080Y-103401657D01*
X88380080Y-103401657D02*
X88456270Y-103363561D01*
X88456270Y-103363561D02*
X88608651Y-103363561D01*
X88608651Y-103363561D02*
X88684842Y-103401657D01*
X88684842Y-103401657D02*
X88722937Y-103477847D01*
X88722937Y-103477847D02*
X88722937Y-103554038D01*
X88722937Y-103554038D02*
X88341984Y-103630228D01*
X89065794Y-103363561D02*
X89065794Y-103896895D01*
X89065794Y-103439752D02*
X89103889Y-103401657D01*
X89103889Y-103401657D02*
X89180079Y-103363561D01*
X89180079Y-103363561D02*
X89294365Y-103363561D01*
X89294365Y-103363561D02*
X89370556Y-103401657D01*
X89370556Y-103401657D02*
X89408651Y-103477847D01*
X89408651Y-103477847D02*
X89408651Y-103896895D01*
X90284842Y-103515942D02*
X90246747Y-103477847D01*
X90246747Y-103477847D02*
X90170556Y-103439752D01*
X90170556Y-103439752D02*
X90094366Y-103439752D01*
X90094366Y-103439752D02*
X90018175Y-103477847D01*
X90018175Y-103477847D02*
X89980080Y-103515942D01*
X89980080Y-103515942D02*
X89941985Y-103592133D01*
X89941985Y-103592133D02*
X89941985Y-103668323D01*
X89941985Y-103668323D02*
X89980080Y-103744514D01*
X89980080Y-103744514D02*
X90018175Y-103782609D01*
X90018175Y-103782609D02*
X90094366Y-103820704D01*
X90094366Y-103820704D02*
X90170556Y-103820704D01*
X90170556Y-103820704D02*
X90246747Y-103782609D01*
X90246747Y-103782609D02*
X90284842Y-103744514D01*
X90284842Y-103439752D02*
X90284842Y-103744514D01*
X90284842Y-103744514D02*
X90322937Y-103782609D01*
X90322937Y-103782609D02*
X90361032Y-103782609D01*
X90361032Y-103782609D02*
X90437223Y-103744514D01*
X90437223Y-103744514D02*
X90475318Y-103668323D01*
X90475318Y-103668323D02*
X90475318Y-103477847D01*
X90475318Y-103477847D02*
X90399128Y-103363561D01*
X90399128Y-103363561D02*
X90284842Y-103287371D01*
X90284842Y-103287371D02*
X90132461Y-103249276D01*
X90132461Y-103249276D02*
X89980080Y-103287371D01*
X89980080Y-103287371D02*
X89865794Y-103363561D01*
X89865794Y-103363561D02*
X89789604Y-103477847D01*
X89789604Y-103477847D02*
X89751508Y-103630228D01*
X89751508Y-103630228D02*
X89789604Y-103782609D01*
X89789604Y-103782609D02*
X89865794Y-103896895D01*
X89865794Y-103896895D02*
X89980080Y-103973085D01*
X89980080Y-103973085D02*
X90132461Y-104011180D01*
X90132461Y-104011180D02*
X90284842Y-103973085D01*
X90284842Y-103973085D02*
X90399128Y-103896895D01*
X90818175Y-103896895D02*
X90818175Y-103096895D01*
X91161032Y-103896895D02*
X91161032Y-103477847D01*
X91161032Y-103477847D02*
X91122937Y-103401657D01*
X91122937Y-103401657D02*
X91046746Y-103363561D01*
X91046746Y-103363561D02*
X90932460Y-103363561D01*
X90932460Y-103363561D02*
X90856270Y-103401657D01*
X90856270Y-103401657D02*
X90818175Y-103439752D01*
X91656270Y-103896895D02*
X91580080Y-103858800D01*
X91580080Y-103858800D02*
X91541985Y-103820704D01*
X91541985Y-103820704D02*
X91503889Y-103744514D01*
X91503889Y-103744514D02*
X91503889Y-103515942D01*
X91503889Y-103515942D02*
X91541985Y-103439752D01*
X91541985Y-103439752D02*
X91580080Y-103401657D01*
X91580080Y-103401657D02*
X91656270Y-103363561D01*
X91656270Y-103363561D02*
X91770556Y-103363561D01*
X91770556Y-103363561D02*
X91846747Y-103401657D01*
X91846747Y-103401657D02*
X91884842Y-103439752D01*
X91884842Y-103439752D02*
X91922937Y-103515942D01*
X91922937Y-103515942D02*
X91922937Y-103744514D01*
X91922937Y-103744514D02*
X91884842Y-103820704D01*
X91884842Y-103820704D02*
X91846747Y-103858800D01*
X91846747Y-103858800D02*
X91770556Y-103896895D01*
X91770556Y-103896895D02*
X91656270Y-103896895D01*
X92151509Y-103363561D02*
X92456271Y-103363561D01*
X92265795Y-103096895D02*
X92265795Y-103782609D01*
X92265795Y-103782609D02*
X92303890Y-103858800D01*
X92303890Y-103858800D02*
X92380080Y-103896895D01*
X92380080Y-103896895D02*
X92456271Y-103896895D01*
X92722938Y-103896895D02*
X92722938Y-103363561D01*
X92722938Y-103439752D02*
X92761033Y-103401657D01*
X92761033Y-103401657D02*
X92837223Y-103363561D01*
X92837223Y-103363561D02*
X92951509Y-103363561D01*
X92951509Y-103363561D02*
X93027700Y-103401657D01*
X93027700Y-103401657D02*
X93065795Y-103477847D01*
X93065795Y-103477847D02*
X93065795Y-103896895D01*
X93065795Y-103477847D02*
X93103890Y-103401657D01*
X93103890Y-103401657D02*
X93180081Y-103363561D01*
X93180081Y-103363561D02*
X93294366Y-103363561D01*
X93294366Y-103363561D02*
X93370557Y-103401657D01*
X93370557Y-103401657D02*
X93408652Y-103477847D01*
X93408652Y-103477847D02*
X93408652Y-103896895D01*
X94132462Y-103896895D02*
X94132462Y-103477847D01*
X94132462Y-103477847D02*
X94094367Y-103401657D01*
X94094367Y-103401657D02*
X94018176Y-103363561D01*
X94018176Y-103363561D02*
X93865795Y-103363561D01*
X93865795Y-103363561D02*
X93789605Y-103401657D01*
X94132462Y-103858800D02*
X94056271Y-103896895D01*
X94056271Y-103896895D02*
X93865795Y-103896895D01*
X93865795Y-103896895D02*
X93789605Y-103858800D01*
X93789605Y-103858800D02*
X93751509Y-103782609D01*
X93751509Y-103782609D02*
X93751509Y-103706419D01*
X93751509Y-103706419D02*
X93789605Y-103630228D01*
X93789605Y-103630228D02*
X93865795Y-103592133D01*
X93865795Y-103592133D02*
X94056271Y-103592133D01*
X94056271Y-103592133D02*
X94132462Y-103554038D01*
X94513415Y-103896895D02*
X94513415Y-103363561D01*
X94513415Y-103096895D02*
X94475319Y-103134990D01*
X94475319Y-103134990D02*
X94513415Y-103173085D01*
X94513415Y-103173085D02*
X94551510Y-103134990D01*
X94551510Y-103134990D02*
X94513415Y-103096895D01*
X94513415Y-103096895D02*
X94513415Y-103173085D01*
X95008652Y-103896895D02*
X94932462Y-103858800D01*
X94932462Y-103858800D02*
X94894367Y-103782609D01*
X94894367Y-103782609D02*
X94894367Y-103096895D01*
X95313415Y-103820704D02*
X95351510Y-103858800D01*
X95351510Y-103858800D02*
X95313415Y-103896895D01*
X95313415Y-103896895D02*
X95275319Y-103858800D01*
X95275319Y-103858800D02*
X95313415Y-103820704D01*
X95313415Y-103820704D02*
X95313415Y-103896895D01*
X96037224Y-103858800D02*
X95961033Y-103896895D01*
X95961033Y-103896895D02*
X95808652Y-103896895D01*
X95808652Y-103896895D02*
X95732462Y-103858800D01*
X95732462Y-103858800D02*
X95694367Y-103820704D01*
X95694367Y-103820704D02*
X95656271Y-103744514D01*
X95656271Y-103744514D02*
X95656271Y-103515942D01*
X95656271Y-103515942D02*
X95694367Y-103439752D01*
X95694367Y-103439752D02*
X95732462Y-103401657D01*
X95732462Y-103401657D02*
X95808652Y-103363561D01*
X95808652Y-103363561D02*
X95961033Y-103363561D01*
X95961033Y-103363561D02*
X96037224Y-103401657D01*
X96494366Y-103896895D02*
X96418176Y-103858800D01*
X96418176Y-103858800D02*
X96380081Y-103820704D01*
X96380081Y-103820704D02*
X96341985Y-103744514D01*
X96341985Y-103744514D02*
X96341985Y-103515942D01*
X96341985Y-103515942D02*
X96380081Y-103439752D01*
X96380081Y-103439752D02*
X96418176Y-103401657D01*
X96418176Y-103401657D02*
X96494366Y-103363561D01*
X96494366Y-103363561D02*
X96608652Y-103363561D01*
X96608652Y-103363561D02*
X96684843Y-103401657D01*
X96684843Y-103401657D02*
X96722938Y-103439752D01*
X96722938Y-103439752D02*
X96761033Y-103515942D01*
X96761033Y-103515942D02*
X96761033Y-103744514D01*
X96761033Y-103744514D02*
X96722938Y-103820704D01*
X96722938Y-103820704D02*
X96684843Y-103858800D01*
X96684843Y-103858800D02*
X96608652Y-103896895D01*
X96608652Y-103896895D02*
X96494366Y-103896895D01*
X97103891Y-103896895D02*
X97103891Y-103363561D01*
X97103891Y-103439752D02*
X97141986Y-103401657D01*
X97141986Y-103401657D02*
X97218176Y-103363561D01*
X97218176Y-103363561D02*
X97332462Y-103363561D01*
X97332462Y-103363561D02*
X97408653Y-103401657D01*
X97408653Y-103401657D02*
X97446748Y-103477847D01*
X97446748Y-103477847D02*
X97446748Y-103896895D01*
X97446748Y-103477847D02*
X97484843Y-103401657D01*
X97484843Y-103401657D02*
X97561034Y-103363561D01*
X97561034Y-103363561D02*
X97675319Y-103363561D01*
X97675319Y-103363561D02*
X97751510Y-103401657D01*
X97751510Y-103401657D02*
X97789605Y-103477847D01*
X97789605Y-103477847D02*
X97789605Y-103896895D01*
X98170558Y-103363561D02*
X98780082Y-103592133D01*
X98780082Y-103592133D02*
X98170558Y-103820704D01*
D11*
X65336779Y-102369819D02*
X65336779Y-101369819D01*
X65336779Y-101369819D02*
X65574874Y-101369819D01*
X65574874Y-101369819D02*
X65717731Y-101417438D01*
X65717731Y-101417438D02*
X65812969Y-101512676D01*
X65812969Y-101512676D02*
X65860588Y-101607914D01*
X65860588Y-101607914D02*
X65908207Y-101798390D01*
X65908207Y-101798390D02*
X65908207Y-101941247D01*
X65908207Y-101941247D02*
X65860588Y-102131723D01*
X65860588Y-102131723D02*
X65812969Y-102226961D01*
X65812969Y-102226961D02*
X65717731Y-102322200D01*
X65717731Y-102322200D02*
X65574874Y-102369819D01*
X65574874Y-102369819D02*
X65336779Y-102369819D01*
X66765350Y-102369819D02*
X66765350Y-101846009D01*
X66765350Y-101846009D02*
X66717731Y-101750771D01*
X66717731Y-101750771D02*
X66622493Y-101703152D01*
X66622493Y-101703152D02*
X66432017Y-101703152D01*
X66432017Y-101703152D02*
X66336779Y-101750771D01*
X66765350Y-102322200D02*
X66670112Y-102369819D01*
X66670112Y-102369819D02*
X66432017Y-102369819D01*
X66432017Y-102369819D02*
X66336779Y-102322200D01*
X66336779Y-102322200D02*
X66289160Y-102226961D01*
X66289160Y-102226961D02*
X66289160Y-102131723D01*
X66289160Y-102131723D02*
X66336779Y-102036485D01*
X66336779Y-102036485D02*
X66432017Y-101988866D01*
X66432017Y-101988866D02*
X66670112Y-101988866D01*
X66670112Y-101988866D02*
X66765350Y-101941247D01*
X67098684Y-101703152D02*
X67479636Y-101703152D01*
X67241541Y-101369819D02*
X67241541Y-102226961D01*
X67241541Y-102226961D02*
X67289160Y-102322200D01*
X67289160Y-102322200D02*
X67384398Y-102369819D01*
X67384398Y-102369819D02*
X67479636Y-102369819D01*
X68241541Y-102369819D02*
X68241541Y-101846009D01*
X68241541Y-101846009D02*
X68193922Y-101750771D01*
X68193922Y-101750771D02*
X68098684Y-101703152D01*
X68098684Y-101703152D02*
X67908208Y-101703152D01*
X67908208Y-101703152D02*
X67812970Y-101750771D01*
X68241541Y-102322200D02*
X68146303Y-102369819D01*
X68146303Y-102369819D02*
X67908208Y-102369819D01*
X67908208Y-102369819D02*
X67812970Y-102322200D01*
X67812970Y-102322200D02*
X67765351Y-102226961D01*
X67765351Y-102226961D02*
X67765351Y-102131723D01*
X67765351Y-102131723D02*
X67812970Y-102036485D01*
X67812970Y-102036485D02*
X67908208Y-101988866D01*
X67908208Y-101988866D02*
X68146303Y-101988866D01*
X68146303Y-101988866D02*
X68241541Y-101941247D01*
X68574875Y-101703152D02*
X68955827Y-101703152D01*
X68717732Y-102369819D02*
X68717732Y-101512676D01*
X68717732Y-101512676D02*
X68765351Y-101417438D01*
X68765351Y-101417438D02*
X68860589Y-101369819D01*
X68860589Y-101369819D02*
X68955827Y-101369819D01*
X69432018Y-102369819D02*
X69336780Y-102322200D01*
X69336780Y-102322200D02*
X69289161Y-102226961D01*
X69289161Y-102226961D02*
X69289161Y-101369819D01*
X69717733Y-101703152D02*
X69955828Y-102369819D01*
X70193923Y-101703152D02*
X69955828Y-102369819D01*
X69955828Y-102369819D02*
X69860590Y-102607914D01*
X69860590Y-102607914D02*
X69812971Y-102655533D01*
X69812971Y-102655533D02*
X69717733Y-102703152D01*
X70955828Y-102322200D02*
X70860590Y-102369819D01*
X70860590Y-102369819D02*
X70670114Y-102369819D01*
X70670114Y-102369819D02*
X70574876Y-102322200D01*
X70574876Y-102322200D02*
X70527257Y-102226961D01*
X70527257Y-102226961D02*
X70527257Y-101846009D01*
X70527257Y-101846009D02*
X70574876Y-101750771D01*
X70574876Y-101750771D02*
X70670114Y-101703152D01*
X70670114Y-101703152D02*
X70860590Y-101703152D01*
X70860590Y-101703152D02*
X70955828Y-101750771D01*
X70955828Y-101750771D02*
X71003447Y-101846009D01*
X71003447Y-101846009D02*
X71003447Y-101941247D01*
X71003447Y-101941247D02*
X70527257Y-102036485D01*
X71432019Y-102369819D02*
X71432019Y-101703152D01*
X71432019Y-101893628D02*
X71479638Y-101798390D01*
X71479638Y-101798390D02*
X71527257Y-101750771D01*
X71527257Y-101750771D02*
X71622495Y-101703152D01*
X71622495Y-101703152D02*
X71717733Y-101703152D01*
X72765353Y-101465057D02*
X72812972Y-101417438D01*
X72812972Y-101417438D02*
X72908210Y-101369819D01*
X72908210Y-101369819D02*
X73146305Y-101369819D01*
X73146305Y-101369819D02*
X73241543Y-101417438D01*
X73241543Y-101417438D02*
X73289162Y-101465057D01*
X73289162Y-101465057D02*
X73336781Y-101560295D01*
X73336781Y-101560295D02*
X73336781Y-101655533D01*
X73336781Y-101655533D02*
X73289162Y-101798390D01*
X73289162Y-101798390D02*
X72717734Y-102369819D01*
X72717734Y-102369819D02*
X73336781Y-102369819D01*
X74193924Y-101369819D02*
X74003448Y-101369819D01*
X74003448Y-101369819D02*
X73908210Y-101417438D01*
X73908210Y-101417438D02*
X73860591Y-101465057D01*
X73860591Y-101465057D02*
X73765353Y-101607914D01*
X73765353Y-101607914D02*
X73717734Y-101798390D01*
X73717734Y-101798390D02*
X73717734Y-102179342D01*
X73717734Y-102179342D02*
X73765353Y-102274580D01*
X73765353Y-102274580D02*
X73812972Y-102322200D01*
X73812972Y-102322200D02*
X73908210Y-102369819D01*
X73908210Y-102369819D02*
X74098686Y-102369819D01*
X74098686Y-102369819D02*
X74193924Y-102322200D01*
X74193924Y-102322200D02*
X74241543Y-102274580D01*
X74241543Y-102274580D02*
X74289162Y-102179342D01*
X74289162Y-102179342D02*
X74289162Y-101941247D01*
X74289162Y-101941247D02*
X74241543Y-101846009D01*
X74241543Y-101846009D02*
X74193924Y-101798390D01*
X74193924Y-101798390D02*
X74098686Y-101750771D01*
X74098686Y-101750771D02*
X73908210Y-101750771D01*
X73908210Y-101750771D02*
X73812972Y-101798390D01*
X73812972Y-101798390D02*
X73765353Y-101846009D01*
X73765353Y-101846009D02*
X73717734Y-101941247D01*
X75193924Y-101369819D02*
X74717734Y-101369819D01*
X74717734Y-101369819D02*
X74670115Y-101846009D01*
X74670115Y-101846009D02*
X74717734Y-101798390D01*
X74717734Y-101798390D02*
X74812972Y-101750771D01*
X74812972Y-101750771D02*
X75051067Y-101750771D01*
X75051067Y-101750771D02*
X75146305Y-101798390D01*
X75146305Y-101798390D02*
X75193924Y-101846009D01*
X75193924Y-101846009D02*
X75241543Y-101941247D01*
X75241543Y-101941247D02*
X75241543Y-102179342D01*
X75241543Y-102179342D02*
X75193924Y-102274580D01*
X75193924Y-102274580D02*
X75146305Y-102322200D01*
X75146305Y-102322200D02*
X75051067Y-102369819D01*
X75051067Y-102369819D02*
X74812972Y-102369819D01*
X74812972Y-102369819D02*
X74717734Y-102322200D01*
X74717734Y-102322200D02*
X74670115Y-102274580D01*
X75860591Y-101369819D02*
X75955829Y-101369819D01*
X75955829Y-101369819D02*
X76051067Y-101417438D01*
X76051067Y-101417438D02*
X76098686Y-101465057D01*
X76098686Y-101465057D02*
X76146305Y-101560295D01*
X76146305Y-101560295D02*
X76193924Y-101750771D01*
X76193924Y-101750771D02*
X76193924Y-101988866D01*
X76193924Y-101988866D02*
X76146305Y-102179342D01*
X76146305Y-102179342D02*
X76098686Y-102274580D01*
X76098686Y-102274580D02*
X76051067Y-102322200D01*
X76051067Y-102322200D02*
X75955829Y-102369819D01*
X75955829Y-102369819D02*
X75860591Y-102369819D01*
X75860591Y-102369819D02*
X75765353Y-102322200D01*
X75765353Y-102322200D02*
X75717734Y-102274580D01*
X75717734Y-102274580D02*
X75670115Y-102179342D01*
X75670115Y-102179342D02*
X75622496Y-101988866D01*
X75622496Y-101988866D02*
X75622496Y-101750771D01*
X75622496Y-101750771D02*
X75670115Y-101560295D01*
X75670115Y-101560295D02*
X75717734Y-101465057D01*
X75717734Y-101465057D02*
X75765353Y-101417438D01*
X75765353Y-101417438D02*
X75860591Y-101369819D01*
X77336782Y-102322200D02*
X77479639Y-102369819D01*
X77479639Y-102369819D02*
X77717734Y-102369819D01*
X77717734Y-102369819D02*
X77812972Y-102322200D01*
X77812972Y-102322200D02*
X77860591Y-102274580D01*
X77860591Y-102274580D02*
X77908210Y-102179342D01*
X77908210Y-102179342D02*
X77908210Y-102084104D01*
X77908210Y-102084104D02*
X77860591Y-101988866D01*
X77860591Y-101988866D02*
X77812972Y-101941247D01*
X77812972Y-101941247D02*
X77717734Y-101893628D01*
X77717734Y-101893628D02*
X77527258Y-101846009D01*
X77527258Y-101846009D02*
X77432020Y-101798390D01*
X77432020Y-101798390D02*
X77384401Y-101750771D01*
X77384401Y-101750771D02*
X77336782Y-101655533D01*
X77336782Y-101655533D02*
X77336782Y-101560295D01*
X77336782Y-101560295D02*
X77384401Y-101465057D01*
X77384401Y-101465057D02*
X77432020Y-101417438D01*
X77432020Y-101417438D02*
X77527258Y-101369819D01*
X77527258Y-101369819D02*
X77765353Y-101369819D01*
X77765353Y-101369819D02*
X77908210Y-101417438D01*
X78908210Y-102274580D02*
X78860591Y-102322200D01*
X78860591Y-102322200D02*
X78717734Y-102369819D01*
X78717734Y-102369819D02*
X78622496Y-102369819D01*
X78622496Y-102369819D02*
X78479639Y-102322200D01*
X78479639Y-102322200D02*
X78384401Y-102226961D01*
X78384401Y-102226961D02*
X78336782Y-102131723D01*
X78336782Y-102131723D02*
X78289163Y-101941247D01*
X78289163Y-101941247D02*
X78289163Y-101798390D01*
X78289163Y-101798390D02*
X78336782Y-101607914D01*
X78336782Y-101607914D02*
X78384401Y-101512676D01*
X78384401Y-101512676D02*
X78479639Y-101417438D01*
X78479639Y-101417438D02*
X78622496Y-101369819D01*
X78622496Y-101369819D02*
X78717734Y-101369819D01*
X78717734Y-101369819D02*
X78860591Y-101417438D01*
X78860591Y-101417438D02*
X78908210Y-101465057D01*
X79289163Y-102322200D02*
X79432020Y-102369819D01*
X79432020Y-102369819D02*
X79670115Y-102369819D01*
X79670115Y-102369819D02*
X79765353Y-102322200D01*
X79765353Y-102322200D02*
X79812972Y-102274580D01*
X79812972Y-102274580D02*
X79860591Y-102179342D01*
X79860591Y-102179342D02*
X79860591Y-102084104D01*
X79860591Y-102084104D02*
X79812972Y-101988866D01*
X79812972Y-101988866D02*
X79765353Y-101941247D01*
X79765353Y-101941247D02*
X79670115Y-101893628D01*
X79670115Y-101893628D02*
X79479639Y-101846009D01*
X79479639Y-101846009D02*
X79384401Y-101798390D01*
X79384401Y-101798390D02*
X79336782Y-101750771D01*
X79336782Y-101750771D02*
X79289163Y-101655533D01*
X79289163Y-101655533D02*
X79289163Y-101560295D01*
X79289163Y-101560295D02*
X79336782Y-101465057D01*
X79336782Y-101465057D02*
X79384401Y-101417438D01*
X79384401Y-101417438D02*
X79479639Y-101369819D01*
X79479639Y-101369819D02*
X79717734Y-101369819D01*
X79717734Y-101369819D02*
X79860591Y-101417438D01*
X80289163Y-102369819D02*
X80289163Y-101369819D01*
X81479639Y-102084104D02*
X81955829Y-102084104D01*
X81384401Y-102369819D02*
X81717734Y-101369819D01*
X81717734Y-101369819D02*
X82051067Y-102369819D01*
X82812972Y-102369819D02*
X82812972Y-101369819D01*
X82812972Y-102322200D02*
X82717734Y-102369819D01*
X82717734Y-102369819D02*
X82527258Y-102369819D01*
X82527258Y-102369819D02*
X82432020Y-102322200D01*
X82432020Y-102322200D02*
X82384401Y-102274580D01*
X82384401Y-102274580D02*
X82336782Y-102179342D01*
X82336782Y-102179342D02*
X82336782Y-101893628D01*
X82336782Y-101893628D02*
X82384401Y-101798390D01*
X82384401Y-101798390D02*
X82432020Y-101750771D01*
X82432020Y-101750771D02*
X82527258Y-101703152D01*
X82527258Y-101703152D02*
X82717734Y-101703152D01*
X82717734Y-101703152D02*
X82812972Y-101750771D01*
X83717734Y-102369819D02*
X83717734Y-101846009D01*
X83717734Y-101846009D02*
X83670115Y-101750771D01*
X83670115Y-101750771D02*
X83574877Y-101703152D01*
X83574877Y-101703152D02*
X83384401Y-101703152D01*
X83384401Y-101703152D02*
X83289163Y-101750771D01*
X83717734Y-102322200D02*
X83622496Y-102369819D01*
X83622496Y-102369819D02*
X83384401Y-102369819D01*
X83384401Y-102369819D02*
X83289163Y-102322200D01*
X83289163Y-102322200D02*
X83241544Y-102226961D01*
X83241544Y-102226961D02*
X83241544Y-102131723D01*
X83241544Y-102131723D02*
X83289163Y-102036485D01*
X83289163Y-102036485D02*
X83384401Y-101988866D01*
X83384401Y-101988866D02*
X83622496Y-101988866D01*
X83622496Y-101988866D02*
X83717734Y-101941247D01*
X84193925Y-101703152D02*
X84193925Y-102703152D01*
X84193925Y-101750771D02*
X84289163Y-101703152D01*
X84289163Y-101703152D02*
X84479639Y-101703152D01*
X84479639Y-101703152D02*
X84574877Y-101750771D01*
X84574877Y-101750771D02*
X84622496Y-101798390D01*
X84622496Y-101798390D02*
X84670115Y-101893628D01*
X84670115Y-101893628D02*
X84670115Y-102179342D01*
X84670115Y-102179342D02*
X84622496Y-102274580D01*
X84622496Y-102274580D02*
X84574877Y-102322200D01*
X84574877Y-102322200D02*
X84479639Y-102369819D01*
X84479639Y-102369819D02*
X84289163Y-102369819D01*
X84289163Y-102369819D02*
X84193925Y-102322200D01*
X84955830Y-101703152D02*
X85336782Y-101703152D01*
X85098687Y-101369819D02*
X85098687Y-102226961D01*
X85098687Y-102226961D02*
X85146306Y-102322200D01*
X85146306Y-102322200D02*
X85241544Y-102369819D01*
X85241544Y-102369819D02*
X85336782Y-102369819D01*
X86051068Y-102322200D02*
X85955830Y-102369819D01*
X85955830Y-102369819D02*
X85765354Y-102369819D01*
X85765354Y-102369819D02*
X85670116Y-102322200D01*
X85670116Y-102322200D02*
X85622497Y-102226961D01*
X85622497Y-102226961D02*
X85622497Y-101846009D01*
X85622497Y-101846009D02*
X85670116Y-101750771D01*
X85670116Y-101750771D02*
X85765354Y-101703152D01*
X85765354Y-101703152D02*
X85955830Y-101703152D01*
X85955830Y-101703152D02*
X86051068Y-101750771D01*
X86051068Y-101750771D02*
X86098687Y-101846009D01*
X86098687Y-101846009D02*
X86098687Y-101941247D01*
X86098687Y-101941247D02*
X85622497Y-102036485D01*
X86527259Y-102369819D02*
X86527259Y-101703152D01*
X86527259Y-101893628D02*
X86574878Y-101798390D01*
X86574878Y-101798390D02*
X86622497Y-101750771D01*
X86622497Y-101750771D02*
X86717735Y-101703152D01*
X86717735Y-101703152D02*
X86812973Y-101703152D01*
X65336779Y-105759875D02*
X65336779Y-104759875D01*
X65336779Y-105140827D02*
X65432017Y-105093208D01*
X65432017Y-105093208D02*
X65622493Y-105093208D01*
X65622493Y-105093208D02*
X65717731Y-105140827D01*
X65717731Y-105140827D02*
X65765350Y-105188446D01*
X65765350Y-105188446D02*
X65812969Y-105283684D01*
X65812969Y-105283684D02*
X65812969Y-105569398D01*
X65812969Y-105569398D02*
X65765350Y-105664636D01*
X65765350Y-105664636D02*
X65717731Y-105712256D01*
X65717731Y-105712256D02*
X65622493Y-105759875D01*
X65622493Y-105759875D02*
X65432017Y-105759875D01*
X65432017Y-105759875D02*
X65336779Y-105712256D01*
X66670112Y-105759875D02*
X66670112Y-105236065D01*
X66670112Y-105236065D02*
X66622493Y-105140827D01*
X66622493Y-105140827D02*
X66527255Y-105093208D01*
X66527255Y-105093208D02*
X66336779Y-105093208D01*
X66336779Y-105093208D02*
X66241541Y-105140827D01*
X66670112Y-105712256D02*
X66574874Y-105759875D01*
X66574874Y-105759875D02*
X66336779Y-105759875D01*
X66336779Y-105759875D02*
X66241541Y-105712256D01*
X66241541Y-105712256D02*
X66193922Y-105617017D01*
X66193922Y-105617017D02*
X66193922Y-105521779D01*
X66193922Y-105521779D02*
X66241541Y-105426541D01*
X66241541Y-105426541D02*
X66336779Y-105378922D01*
X66336779Y-105378922D02*
X66574874Y-105378922D01*
X66574874Y-105378922D02*
X66670112Y-105331303D01*
X67098684Y-105712256D02*
X67193922Y-105759875D01*
X67193922Y-105759875D02*
X67384398Y-105759875D01*
X67384398Y-105759875D02*
X67479636Y-105712256D01*
X67479636Y-105712256D02*
X67527255Y-105617017D01*
X67527255Y-105617017D02*
X67527255Y-105569398D01*
X67527255Y-105569398D02*
X67479636Y-105474160D01*
X67479636Y-105474160D02*
X67384398Y-105426541D01*
X67384398Y-105426541D02*
X67241541Y-105426541D01*
X67241541Y-105426541D02*
X67146303Y-105378922D01*
X67146303Y-105378922D02*
X67098684Y-105283684D01*
X67098684Y-105283684D02*
X67098684Y-105236065D01*
X67098684Y-105236065D02*
X67146303Y-105140827D01*
X67146303Y-105140827D02*
X67241541Y-105093208D01*
X67241541Y-105093208D02*
X67384398Y-105093208D01*
X67384398Y-105093208D02*
X67479636Y-105140827D01*
X68336779Y-105712256D02*
X68241541Y-105759875D01*
X68241541Y-105759875D02*
X68051065Y-105759875D01*
X68051065Y-105759875D02*
X67955827Y-105712256D01*
X67955827Y-105712256D02*
X67908208Y-105617017D01*
X67908208Y-105617017D02*
X67908208Y-105236065D01*
X67908208Y-105236065D02*
X67955827Y-105140827D01*
X67955827Y-105140827D02*
X68051065Y-105093208D01*
X68051065Y-105093208D02*
X68241541Y-105093208D01*
X68241541Y-105093208D02*
X68336779Y-105140827D01*
X68336779Y-105140827D02*
X68384398Y-105236065D01*
X68384398Y-105236065D02*
X68384398Y-105331303D01*
X68384398Y-105331303D02*
X67908208Y-105426541D01*
X69241541Y-105759875D02*
X69241541Y-104759875D01*
X69241541Y-105712256D02*
X69146303Y-105759875D01*
X69146303Y-105759875D02*
X68955827Y-105759875D01*
X68955827Y-105759875D02*
X68860589Y-105712256D01*
X68860589Y-105712256D02*
X68812970Y-105664636D01*
X68812970Y-105664636D02*
X68765351Y-105569398D01*
X68765351Y-105569398D02*
X68765351Y-105283684D01*
X68765351Y-105283684D02*
X68812970Y-105188446D01*
X68812970Y-105188446D02*
X68860589Y-105140827D01*
X68860589Y-105140827D02*
X68955827Y-105093208D01*
X68955827Y-105093208D02*
X69146303Y-105093208D01*
X69146303Y-105093208D02*
X69241541Y-105140827D01*
X70622494Y-105759875D02*
X70527256Y-105712256D01*
X70527256Y-105712256D02*
X70479637Y-105664636D01*
X70479637Y-105664636D02*
X70432018Y-105569398D01*
X70432018Y-105569398D02*
X70432018Y-105283684D01*
X70432018Y-105283684D02*
X70479637Y-105188446D01*
X70479637Y-105188446D02*
X70527256Y-105140827D01*
X70527256Y-105140827D02*
X70622494Y-105093208D01*
X70622494Y-105093208D02*
X70765351Y-105093208D01*
X70765351Y-105093208D02*
X70860589Y-105140827D01*
X70860589Y-105140827D02*
X70908208Y-105188446D01*
X70908208Y-105188446D02*
X70955827Y-105283684D01*
X70955827Y-105283684D02*
X70955827Y-105569398D01*
X70955827Y-105569398D02*
X70908208Y-105664636D01*
X70908208Y-105664636D02*
X70860589Y-105712256D01*
X70860589Y-105712256D02*
X70765351Y-105759875D01*
X70765351Y-105759875D02*
X70622494Y-105759875D01*
X71384399Y-105093208D02*
X71384399Y-105759875D01*
X71384399Y-105188446D02*
X71432018Y-105140827D01*
X71432018Y-105140827D02*
X71527256Y-105093208D01*
X71527256Y-105093208D02*
X71670113Y-105093208D01*
X71670113Y-105093208D02*
X71765351Y-105140827D01*
X71765351Y-105140827D02*
X71812970Y-105236065D01*
X71812970Y-105236065D02*
X71812970Y-105759875D01*
X72955828Y-105093208D02*
X73146304Y-105759875D01*
X73146304Y-105759875D02*
X73336780Y-105283684D01*
X73336780Y-105283684D02*
X73527256Y-105759875D01*
X73527256Y-105759875D02*
X73717732Y-105093208D01*
X74241542Y-105759875D02*
X74146304Y-105712256D01*
X74146304Y-105712256D02*
X74098685Y-105664636D01*
X74098685Y-105664636D02*
X74051066Y-105569398D01*
X74051066Y-105569398D02*
X74051066Y-105283684D01*
X74051066Y-105283684D02*
X74098685Y-105188446D01*
X74098685Y-105188446D02*
X74146304Y-105140827D01*
X74146304Y-105140827D02*
X74241542Y-105093208D01*
X74241542Y-105093208D02*
X74384399Y-105093208D01*
X74384399Y-105093208D02*
X74479637Y-105140827D01*
X74479637Y-105140827D02*
X74527256Y-105188446D01*
X74527256Y-105188446D02*
X74574875Y-105283684D01*
X74574875Y-105283684D02*
X74574875Y-105569398D01*
X74574875Y-105569398D02*
X74527256Y-105664636D01*
X74527256Y-105664636D02*
X74479637Y-105712256D01*
X74479637Y-105712256D02*
X74384399Y-105759875D01*
X74384399Y-105759875D02*
X74241542Y-105759875D01*
X75003447Y-105759875D02*
X75003447Y-105093208D01*
X75003447Y-105283684D02*
X75051066Y-105188446D01*
X75051066Y-105188446D02*
X75098685Y-105140827D01*
X75098685Y-105140827D02*
X75193923Y-105093208D01*
X75193923Y-105093208D02*
X75289161Y-105093208D01*
X75622495Y-105759875D02*
X75622495Y-104759875D01*
X75717733Y-105378922D02*
X76003447Y-105759875D01*
X76003447Y-105093208D02*
X75622495Y-105474160D01*
X77193924Y-105759875D02*
X77193924Y-104759875D01*
X77193924Y-105140827D02*
X77289162Y-105093208D01*
X77289162Y-105093208D02*
X77479638Y-105093208D01*
X77479638Y-105093208D02*
X77574876Y-105140827D01*
X77574876Y-105140827D02*
X77622495Y-105188446D01*
X77622495Y-105188446D02*
X77670114Y-105283684D01*
X77670114Y-105283684D02*
X77670114Y-105569398D01*
X77670114Y-105569398D02*
X77622495Y-105664636D01*
X77622495Y-105664636D02*
X77574876Y-105712256D01*
X77574876Y-105712256D02*
X77479638Y-105759875D01*
X77479638Y-105759875D02*
X77289162Y-105759875D01*
X77289162Y-105759875D02*
X77193924Y-105712256D01*
X78003448Y-105093208D02*
X78241543Y-105759875D01*
X78479638Y-105093208D02*
X78241543Y-105759875D01*
X78241543Y-105759875D02*
X78146305Y-105997970D01*
X78146305Y-105997970D02*
X78098686Y-106045589D01*
X78098686Y-106045589D02*
X78003448Y-106093208D01*
X79622496Y-105759875D02*
X79622496Y-104759875D01*
X80051067Y-105759875D02*
X80051067Y-105236065D01*
X80051067Y-105236065D02*
X80003448Y-105140827D01*
X80003448Y-105140827D02*
X79908210Y-105093208D01*
X79908210Y-105093208D02*
X79765353Y-105093208D01*
X79765353Y-105093208D02*
X79670115Y-105140827D01*
X79670115Y-105140827D02*
X79622496Y-105188446D01*
X80527258Y-105759875D02*
X80527258Y-105093208D01*
X80527258Y-104759875D02*
X80479639Y-104807494D01*
X80479639Y-104807494D02*
X80527258Y-104855113D01*
X80527258Y-104855113D02*
X80574877Y-104807494D01*
X80574877Y-104807494D02*
X80527258Y-104759875D01*
X80527258Y-104759875D02*
X80527258Y-104855113D01*
X81432019Y-105093208D02*
X81432019Y-105902732D01*
X81432019Y-105902732D02*
X81384400Y-105997970D01*
X81384400Y-105997970D02*
X81336781Y-106045589D01*
X81336781Y-106045589D02*
X81241543Y-106093208D01*
X81241543Y-106093208D02*
X81098686Y-106093208D01*
X81098686Y-106093208D02*
X81003448Y-106045589D01*
X81432019Y-105712256D02*
X81336781Y-105759875D01*
X81336781Y-105759875D02*
X81146305Y-105759875D01*
X81146305Y-105759875D02*
X81051067Y-105712256D01*
X81051067Y-105712256D02*
X81003448Y-105664636D01*
X81003448Y-105664636D02*
X80955829Y-105569398D01*
X80955829Y-105569398D02*
X80955829Y-105283684D01*
X80955829Y-105283684D02*
X81003448Y-105188446D01*
X81003448Y-105188446D02*
X81051067Y-105140827D01*
X81051067Y-105140827D02*
X81146305Y-105093208D01*
X81146305Y-105093208D02*
X81336781Y-105093208D01*
X81336781Y-105093208D02*
X81432019Y-105140827D01*
X81908210Y-105759875D02*
X81908210Y-104759875D01*
X82336781Y-105759875D02*
X82336781Y-105236065D01*
X82336781Y-105236065D02*
X82289162Y-105140827D01*
X82289162Y-105140827D02*
X82193924Y-105093208D01*
X82193924Y-105093208D02*
X82051067Y-105093208D01*
X82051067Y-105093208D02*
X81955829Y-105140827D01*
X81955829Y-105140827D02*
X81908210Y-105188446D01*
X82812972Y-105093208D02*
X82812972Y-106093208D01*
X82812972Y-105140827D02*
X82908210Y-105093208D01*
X82908210Y-105093208D02*
X83098686Y-105093208D01*
X83098686Y-105093208D02*
X83193924Y-105140827D01*
X83193924Y-105140827D02*
X83241543Y-105188446D01*
X83241543Y-105188446D02*
X83289162Y-105283684D01*
X83289162Y-105283684D02*
X83289162Y-105569398D01*
X83289162Y-105569398D02*
X83241543Y-105664636D01*
X83241543Y-105664636D02*
X83193924Y-105712256D01*
X83193924Y-105712256D02*
X83098686Y-105759875D01*
X83098686Y-105759875D02*
X82908210Y-105759875D01*
X82908210Y-105759875D02*
X82812972Y-105712256D01*
X84146305Y-105093208D02*
X84146305Y-105759875D01*
X83717734Y-105093208D02*
X83717734Y-105617017D01*
X83717734Y-105617017D02*
X83765353Y-105712256D01*
X83765353Y-105712256D02*
X83860591Y-105759875D01*
X83860591Y-105759875D02*
X84003448Y-105759875D01*
X84003448Y-105759875D02*
X84098686Y-105712256D01*
X84098686Y-105712256D02*
X84146305Y-105664636D01*
X84479639Y-105093208D02*
X84860591Y-105093208D01*
X84622496Y-105759875D02*
X84622496Y-104902732D01*
X84622496Y-104902732D02*
X84670115Y-104807494D01*
X84670115Y-104807494D02*
X84765353Y-104759875D01*
X84765353Y-104759875D02*
X84860591Y-104759875D01*
X85051068Y-105093208D02*
X85432020Y-105093208D01*
X85193925Y-105759875D02*
X85193925Y-104902732D01*
X85193925Y-104902732D02*
X85241544Y-104807494D01*
X85241544Y-104807494D02*
X85336782Y-104759875D01*
X85336782Y-104759875D02*
X85432020Y-104759875D01*
X87146306Y-105283684D02*
X87098687Y-105236065D01*
X87098687Y-105236065D02*
X87003449Y-105188446D01*
X87003449Y-105188446D02*
X86908211Y-105188446D01*
X86908211Y-105188446D02*
X86812973Y-105236065D01*
X86812973Y-105236065D02*
X86765354Y-105283684D01*
X86765354Y-105283684D02*
X86717735Y-105378922D01*
X86717735Y-105378922D02*
X86717735Y-105474160D01*
X86717735Y-105474160D02*
X86765354Y-105569398D01*
X86765354Y-105569398D02*
X86812973Y-105617017D01*
X86812973Y-105617017D02*
X86908211Y-105664636D01*
X86908211Y-105664636D02*
X87003449Y-105664636D01*
X87003449Y-105664636D02*
X87098687Y-105617017D01*
X87098687Y-105617017D02*
X87146306Y-105569398D01*
X87146306Y-105188446D02*
X87146306Y-105569398D01*
X87146306Y-105569398D02*
X87193925Y-105617017D01*
X87193925Y-105617017D02*
X87241544Y-105617017D01*
X87241544Y-105617017D02*
X87336783Y-105569398D01*
X87336783Y-105569398D02*
X87384402Y-105474160D01*
X87384402Y-105474160D02*
X87384402Y-105236065D01*
X87384402Y-105236065D02*
X87289164Y-105093208D01*
X87289164Y-105093208D02*
X87146306Y-104997970D01*
X87146306Y-104997970D02*
X86955830Y-104950351D01*
X86955830Y-104950351D02*
X86765354Y-104997970D01*
X86765354Y-104997970D02*
X86622497Y-105093208D01*
X86622497Y-105093208D02*
X86527259Y-105236065D01*
X86527259Y-105236065D02*
X86479640Y-105426541D01*
X86479640Y-105426541D02*
X86527259Y-105617017D01*
X86527259Y-105617017D02*
X86622497Y-105759875D01*
X86622497Y-105759875D02*
X86765354Y-105855113D01*
X86765354Y-105855113D02*
X86955830Y-105902732D01*
X86955830Y-105902732D02*
X87146306Y-105855113D01*
X87146306Y-105855113D02*
X87289164Y-105759875D01*
X88574878Y-105759875D02*
X88574878Y-105093208D01*
X88574878Y-104759875D02*
X88527259Y-104807494D01*
X88527259Y-104807494D02*
X88574878Y-104855113D01*
X88574878Y-104855113D02*
X88622497Y-104807494D01*
X88622497Y-104807494D02*
X88574878Y-104759875D01*
X88574878Y-104759875D02*
X88574878Y-104855113D01*
X89051068Y-105759875D02*
X89051068Y-104759875D01*
X89146306Y-105378922D02*
X89432020Y-105759875D01*
X89432020Y-105093208D02*
X89051068Y-105474160D01*
X90003449Y-105759875D02*
X89908211Y-105712256D01*
X89908211Y-105712256D02*
X89860592Y-105664636D01*
X89860592Y-105664636D02*
X89812973Y-105569398D01*
X89812973Y-105569398D02*
X89812973Y-105283684D01*
X89812973Y-105283684D02*
X89860592Y-105188446D01*
X89860592Y-105188446D02*
X89908211Y-105140827D01*
X89908211Y-105140827D02*
X90003449Y-105093208D01*
X90003449Y-105093208D02*
X90146306Y-105093208D01*
X90146306Y-105093208D02*
X90241544Y-105140827D01*
X90241544Y-105140827D02*
X90289163Y-105188446D01*
X90289163Y-105188446D02*
X90336782Y-105283684D01*
X90336782Y-105283684D02*
X90336782Y-105569398D01*
X90336782Y-105569398D02*
X90289163Y-105664636D01*
X90289163Y-105664636D02*
X90241544Y-105712256D01*
X90241544Y-105712256D02*
X90146306Y-105759875D01*
X90146306Y-105759875D02*
X90003449Y-105759875D01*
X91193925Y-105759875D02*
X91193925Y-104759875D01*
X91193925Y-105712256D02*
X91098687Y-105759875D01*
X91098687Y-105759875D02*
X90908211Y-105759875D01*
X90908211Y-105759875D02*
X90812973Y-105712256D01*
X90812973Y-105712256D02*
X90765354Y-105664636D01*
X90765354Y-105664636D02*
X90717735Y-105569398D01*
X90717735Y-105569398D02*
X90717735Y-105283684D01*
X90717735Y-105283684D02*
X90765354Y-105188446D01*
X90765354Y-105188446D02*
X90812973Y-105140827D01*
X90812973Y-105140827D02*
X90908211Y-105093208D01*
X90908211Y-105093208D02*
X91098687Y-105093208D01*
X91098687Y-105093208D02*
X91193925Y-105140827D01*
X91670116Y-105664636D02*
X91717735Y-105712256D01*
X91717735Y-105712256D02*
X91670116Y-105759875D01*
X91670116Y-105759875D02*
X91622497Y-105712256D01*
X91622497Y-105712256D02*
X91670116Y-105664636D01*
X91670116Y-105664636D02*
X91670116Y-105759875D01*
X92098687Y-105712256D02*
X92193925Y-105759875D01*
X92193925Y-105759875D02*
X92384401Y-105759875D01*
X92384401Y-105759875D02*
X92479639Y-105712256D01*
X92479639Y-105712256D02*
X92527258Y-105617017D01*
X92527258Y-105617017D02*
X92527258Y-105569398D01*
X92527258Y-105569398D02*
X92479639Y-105474160D01*
X92479639Y-105474160D02*
X92384401Y-105426541D01*
X92384401Y-105426541D02*
X92241544Y-105426541D01*
X92241544Y-105426541D02*
X92146306Y-105378922D01*
X92146306Y-105378922D02*
X92098687Y-105283684D01*
X92098687Y-105283684D02*
X92098687Y-105236065D01*
X92098687Y-105236065D02*
X92146306Y-105140827D01*
X92146306Y-105140827D02*
X92241544Y-105093208D01*
X92241544Y-105093208D02*
X92384401Y-105093208D01*
X92384401Y-105093208D02*
X92479639Y-105140827D01*
X93336782Y-105712256D02*
X93241544Y-105759875D01*
X93241544Y-105759875D02*
X93051068Y-105759875D01*
X93051068Y-105759875D02*
X92955830Y-105712256D01*
X92955830Y-105712256D02*
X92908211Y-105617017D01*
X92908211Y-105617017D02*
X92908211Y-105236065D01*
X92908211Y-105236065D02*
X92955830Y-105140827D01*
X92955830Y-105140827D02*
X93051068Y-105093208D01*
X93051068Y-105093208D02*
X93241544Y-105093208D01*
X93241544Y-105093208D02*
X93336782Y-105140827D01*
X93336782Y-105140827D02*
X93384401Y-105236065D01*
X93384401Y-105236065D02*
X93384401Y-105331303D01*
X93384401Y-105331303D02*
X92908211Y-105426541D01*
X65336779Y-107369819D02*
X65336779Y-106703152D01*
X65336779Y-106369819D02*
X65289160Y-106417438D01*
X65289160Y-106417438D02*
X65336779Y-106465057D01*
X65336779Y-106465057D02*
X65384398Y-106417438D01*
X65384398Y-106417438D02*
X65336779Y-106369819D01*
X65336779Y-106369819D02*
X65336779Y-106465057D01*
X65812969Y-107369819D02*
X65812969Y-106369819D01*
X65908207Y-106988866D02*
X66193921Y-107369819D01*
X66193921Y-106703152D02*
X65812969Y-107084104D01*
X66765350Y-107369819D02*
X66670112Y-107322200D01*
X66670112Y-107322200D02*
X66622493Y-107274580D01*
X66622493Y-107274580D02*
X66574874Y-107179342D01*
X66574874Y-107179342D02*
X66574874Y-106893628D01*
X66574874Y-106893628D02*
X66622493Y-106798390D01*
X66622493Y-106798390D02*
X66670112Y-106750771D01*
X66670112Y-106750771D02*
X66765350Y-106703152D01*
X66765350Y-106703152D02*
X66908207Y-106703152D01*
X66908207Y-106703152D02*
X67003445Y-106750771D01*
X67003445Y-106750771D02*
X67051064Y-106798390D01*
X67051064Y-106798390D02*
X67098683Y-106893628D01*
X67098683Y-106893628D02*
X67098683Y-107179342D01*
X67098683Y-107179342D02*
X67051064Y-107274580D01*
X67051064Y-107274580D02*
X67003445Y-107322200D01*
X67003445Y-107322200D02*
X66908207Y-107369819D01*
X66908207Y-107369819D02*
X66765350Y-107369819D01*
X67955826Y-107369819D02*
X67955826Y-106369819D01*
X67955826Y-107322200D02*
X67860588Y-107369819D01*
X67860588Y-107369819D02*
X67670112Y-107369819D01*
X67670112Y-107369819D02*
X67574874Y-107322200D01*
X67574874Y-107322200D02*
X67527255Y-107274580D01*
X67527255Y-107274580D02*
X67479636Y-107179342D01*
X67479636Y-107179342D02*
X67479636Y-106893628D01*
X67479636Y-106893628D02*
X67527255Y-106798390D01*
X67527255Y-106798390D02*
X67574874Y-106750771D01*
X67574874Y-106750771D02*
X67670112Y-106703152D01*
X67670112Y-106703152D02*
X67860588Y-106703152D01*
X67860588Y-106703152D02*
X67955826Y-106750771D01*
X68432017Y-107274580D02*
X68479636Y-107322200D01*
X68479636Y-107322200D02*
X68432017Y-107369819D01*
X68432017Y-107369819D02*
X68384398Y-107322200D01*
X68384398Y-107322200D02*
X68432017Y-107274580D01*
X68432017Y-107274580D02*
X68432017Y-107369819D01*
X68860588Y-107322200D02*
X68955826Y-107369819D01*
X68955826Y-107369819D02*
X69146302Y-107369819D01*
X69146302Y-107369819D02*
X69241540Y-107322200D01*
X69241540Y-107322200D02*
X69289159Y-107226961D01*
X69289159Y-107226961D02*
X69289159Y-107179342D01*
X69289159Y-107179342D02*
X69241540Y-107084104D01*
X69241540Y-107084104D02*
X69146302Y-107036485D01*
X69146302Y-107036485D02*
X69003445Y-107036485D01*
X69003445Y-107036485D02*
X68908207Y-106988866D01*
X68908207Y-106988866D02*
X68860588Y-106893628D01*
X68860588Y-106893628D02*
X68860588Y-106846009D01*
X68860588Y-106846009D02*
X68908207Y-106750771D01*
X68908207Y-106750771D02*
X69003445Y-106703152D01*
X69003445Y-106703152D02*
X69146302Y-106703152D01*
X69146302Y-106703152D02*
X69241540Y-106750771D01*
X70098683Y-107322200D02*
X70003445Y-107369819D01*
X70003445Y-107369819D02*
X69812969Y-107369819D01*
X69812969Y-107369819D02*
X69717731Y-107322200D01*
X69717731Y-107322200D02*
X69670112Y-107226961D01*
X69670112Y-107226961D02*
X69670112Y-106846009D01*
X69670112Y-106846009D02*
X69717731Y-106750771D01*
X69717731Y-106750771D02*
X69812969Y-106703152D01*
X69812969Y-106703152D02*
X70003445Y-106703152D01*
X70003445Y-106703152D02*
X70098683Y-106750771D01*
X70098683Y-106750771D02*
X70146302Y-106846009D01*
X70146302Y-106846009D02*
X70146302Y-106941247D01*
X70146302Y-106941247D02*
X69670112Y-107036485D01*
X71289159Y-106322200D02*
X70432017Y-107607914D01*
X71574874Y-107322200D02*
X71670112Y-107369819D01*
X71670112Y-107369819D02*
X71860588Y-107369819D01*
X71860588Y-107369819D02*
X71955826Y-107322200D01*
X71955826Y-107322200D02*
X72003445Y-107226961D01*
X72003445Y-107226961D02*
X72003445Y-107179342D01*
X72003445Y-107179342D02*
X71955826Y-107084104D01*
X71955826Y-107084104D02*
X71860588Y-107036485D01*
X71860588Y-107036485D02*
X71717731Y-107036485D01*
X71717731Y-107036485D02*
X71622493Y-106988866D01*
X71622493Y-106988866D02*
X71574874Y-106893628D01*
X71574874Y-106893628D02*
X71574874Y-106846009D01*
X71574874Y-106846009D02*
X71622493Y-106750771D01*
X71622493Y-106750771D02*
X71717731Y-106703152D01*
X71717731Y-106703152D02*
X71860588Y-106703152D01*
X71860588Y-106703152D02*
X71955826Y-106750771D01*
X72860588Y-107322200D02*
X72765350Y-107369819D01*
X72765350Y-107369819D02*
X72574874Y-107369819D01*
X72574874Y-107369819D02*
X72479636Y-107322200D01*
X72479636Y-107322200D02*
X72432017Y-107274580D01*
X72432017Y-107274580D02*
X72384398Y-107179342D01*
X72384398Y-107179342D02*
X72384398Y-106893628D01*
X72384398Y-106893628D02*
X72432017Y-106798390D01*
X72432017Y-106798390D02*
X72479636Y-106750771D01*
X72479636Y-106750771D02*
X72574874Y-106703152D01*
X72574874Y-106703152D02*
X72765350Y-106703152D01*
X72765350Y-106703152D02*
X72860588Y-106750771D01*
X73241541Y-107322200D02*
X73336779Y-107369819D01*
X73336779Y-107369819D02*
X73527255Y-107369819D01*
X73527255Y-107369819D02*
X73622493Y-107322200D01*
X73622493Y-107322200D02*
X73670112Y-107226961D01*
X73670112Y-107226961D02*
X73670112Y-107179342D01*
X73670112Y-107179342D02*
X73622493Y-107084104D01*
X73622493Y-107084104D02*
X73527255Y-107036485D01*
X73527255Y-107036485D02*
X73384398Y-107036485D01*
X73384398Y-107036485D02*
X73289160Y-106988866D01*
X73289160Y-106988866D02*
X73241541Y-106893628D01*
X73241541Y-106893628D02*
X73241541Y-106846009D01*
X73241541Y-106846009D02*
X73289160Y-106750771D01*
X73289160Y-106750771D02*
X73384398Y-106703152D01*
X73384398Y-106703152D02*
X73527255Y-106703152D01*
X73527255Y-106703152D02*
X73622493Y-106750771D01*
X74098684Y-107369819D02*
X74098684Y-106703152D01*
X74098684Y-106369819D02*
X74051065Y-106417438D01*
X74051065Y-106417438D02*
X74098684Y-106465057D01*
X74098684Y-106465057D02*
X74146303Y-106417438D01*
X74146303Y-106417438D02*
X74098684Y-106369819D01*
X74098684Y-106369819D02*
X74098684Y-106465057D01*
X74574874Y-106988866D02*
X75336779Y-106988866D01*
X76241540Y-107322200D02*
X76146302Y-107369819D01*
X76146302Y-107369819D02*
X75955826Y-107369819D01*
X75955826Y-107369819D02*
X75860588Y-107322200D01*
X75860588Y-107322200D02*
X75812969Y-107274580D01*
X75812969Y-107274580D02*
X75765350Y-107179342D01*
X75765350Y-107179342D02*
X75765350Y-106893628D01*
X75765350Y-106893628D02*
X75812969Y-106798390D01*
X75812969Y-106798390D02*
X75860588Y-106750771D01*
X75860588Y-106750771D02*
X75955826Y-106703152D01*
X75955826Y-106703152D02*
X76146302Y-106703152D01*
X76146302Y-106703152D02*
X76241540Y-106750771D01*
X77098683Y-107369819D02*
X77098683Y-106846009D01*
X77098683Y-106846009D02*
X77051064Y-106750771D01*
X77051064Y-106750771D02*
X76955826Y-106703152D01*
X76955826Y-106703152D02*
X76765350Y-106703152D01*
X76765350Y-106703152D02*
X76670112Y-106750771D01*
X77098683Y-107322200D02*
X77003445Y-107369819D01*
X77003445Y-107369819D02*
X76765350Y-107369819D01*
X76765350Y-107369819D02*
X76670112Y-107322200D01*
X76670112Y-107322200D02*
X76622493Y-107226961D01*
X76622493Y-107226961D02*
X76622493Y-107131723D01*
X76622493Y-107131723D02*
X76670112Y-107036485D01*
X76670112Y-107036485D02*
X76765350Y-106988866D01*
X76765350Y-106988866D02*
X77003445Y-106988866D01*
X77003445Y-106988866D02*
X77098683Y-106941247D01*
X77574874Y-107369819D02*
X77574874Y-106369819D01*
X77574874Y-106750771D02*
X77670112Y-106703152D01*
X77670112Y-106703152D02*
X77860588Y-106703152D01*
X77860588Y-106703152D02*
X77955826Y-106750771D01*
X77955826Y-106750771D02*
X78003445Y-106798390D01*
X78003445Y-106798390D02*
X78051064Y-106893628D01*
X78051064Y-106893628D02*
X78051064Y-107179342D01*
X78051064Y-107179342D02*
X78003445Y-107274580D01*
X78003445Y-107274580D02*
X77955826Y-107322200D01*
X77955826Y-107322200D02*
X77860588Y-107369819D01*
X77860588Y-107369819D02*
X77670112Y-107369819D01*
X77670112Y-107369819D02*
X77574874Y-107322200D01*
X78622493Y-107369819D02*
X78527255Y-107322200D01*
X78527255Y-107322200D02*
X78479636Y-107226961D01*
X78479636Y-107226961D02*
X78479636Y-106369819D01*
X79384398Y-107322200D02*
X79289160Y-107369819D01*
X79289160Y-107369819D02*
X79098684Y-107369819D01*
X79098684Y-107369819D02*
X79003446Y-107322200D01*
X79003446Y-107322200D02*
X78955827Y-107226961D01*
X78955827Y-107226961D02*
X78955827Y-106846009D01*
X78955827Y-106846009D02*
X79003446Y-106750771D01*
X79003446Y-106750771D02*
X79098684Y-106703152D01*
X79098684Y-106703152D02*
X79289160Y-106703152D01*
X79289160Y-106703152D02*
X79384398Y-106750771D01*
X79384398Y-106750771D02*
X79432017Y-106846009D01*
X79432017Y-106846009D02*
X79432017Y-106941247D01*
X79432017Y-106941247D02*
X78955827Y-107036485D01*
X89979636Y-132369819D02*
X89884398Y-132322200D01*
X89884398Y-132322200D02*
X89836779Y-132226961D01*
X89836779Y-132226961D02*
X89836779Y-131369819D01*
X90360589Y-132369819D02*
X90360589Y-131703152D01*
X90360589Y-131369819D02*
X90312970Y-131417438D01*
X90312970Y-131417438D02*
X90360589Y-131465057D01*
X90360589Y-131465057D02*
X90408208Y-131417438D01*
X90408208Y-131417438D02*
X90360589Y-131369819D01*
X90360589Y-131369819D02*
X90360589Y-131465057D01*
X91265350Y-132322200D02*
X91170112Y-132369819D01*
X91170112Y-132369819D02*
X90979636Y-132369819D01*
X90979636Y-132369819D02*
X90884398Y-132322200D01*
X90884398Y-132322200D02*
X90836779Y-132274580D01*
X90836779Y-132274580D02*
X90789160Y-132179342D01*
X90789160Y-132179342D02*
X90789160Y-131893628D01*
X90789160Y-131893628D02*
X90836779Y-131798390D01*
X90836779Y-131798390D02*
X90884398Y-131750771D01*
X90884398Y-131750771D02*
X90979636Y-131703152D01*
X90979636Y-131703152D02*
X91170112Y-131703152D01*
X91170112Y-131703152D02*
X91265350Y-131750771D01*
X92074874Y-132322200D02*
X91979636Y-132369819D01*
X91979636Y-132369819D02*
X91789160Y-132369819D01*
X91789160Y-132369819D02*
X91693922Y-132322200D01*
X91693922Y-132322200D02*
X91646303Y-132226961D01*
X91646303Y-132226961D02*
X91646303Y-131846009D01*
X91646303Y-131846009D02*
X91693922Y-131750771D01*
X91693922Y-131750771D02*
X91789160Y-131703152D01*
X91789160Y-131703152D02*
X91979636Y-131703152D01*
X91979636Y-131703152D02*
X92074874Y-131750771D01*
X92074874Y-131750771D02*
X92122493Y-131846009D01*
X92122493Y-131846009D02*
X92122493Y-131941247D01*
X92122493Y-131941247D02*
X91646303Y-132036485D01*
X92551065Y-131703152D02*
X92551065Y-132369819D01*
X92551065Y-131798390D02*
X92598684Y-131750771D01*
X92598684Y-131750771D02*
X92693922Y-131703152D01*
X92693922Y-131703152D02*
X92836779Y-131703152D01*
X92836779Y-131703152D02*
X92932017Y-131750771D01*
X92932017Y-131750771D02*
X92979636Y-131846009D01*
X92979636Y-131846009D02*
X92979636Y-132369819D01*
X93408208Y-132322200D02*
X93503446Y-132369819D01*
X93503446Y-132369819D02*
X93693922Y-132369819D01*
X93693922Y-132369819D02*
X93789160Y-132322200D01*
X93789160Y-132322200D02*
X93836779Y-132226961D01*
X93836779Y-132226961D02*
X93836779Y-132179342D01*
X93836779Y-132179342D02*
X93789160Y-132084104D01*
X93789160Y-132084104D02*
X93693922Y-132036485D01*
X93693922Y-132036485D02*
X93551065Y-132036485D01*
X93551065Y-132036485D02*
X93455827Y-131988866D01*
X93455827Y-131988866D02*
X93408208Y-131893628D01*
X93408208Y-131893628D02*
X93408208Y-131846009D01*
X93408208Y-131846009D02*
X93455827Y-131750771D01*
X93455827Y-131750771D02*
X93551065Y-131703152D01*
X93551065Y-131703152D02*
X93693922Y-131703152D01*
X93693922Y-131703152D02*
X93789160Y-131750771D01*
X94646303Y-132322200D02*
X94551065Y-132369819D01*
X94551065Y-132369819D02*
X94360589Y-132369819D01*
X94360589Y-132369819D02*
X94265351Y-132322200D01*
X94265351Y-132322200D02*
X94217732Y-132226961D01*
X94217732Y-132226961D02*
X94217732Y-131846009D01*
X94217732Y-131846009D02*
X94265351Y-131750771D01*
X94265351Y-131750771D02*
X94360589Y-131703152D01*
X94360589Y-131703152D02*
X94551065Y-131703152D01*
X94551065Y-131703152D02*
X94646303Y-131750771D01*
X94646303Y-131750771D02*
X94693922Y-131846009D01*
X94693922Y-131846009D02*
X94693922Y-131941247D01*
X94693922Y-131941247D02*
X94217732Y-132036485D01*
X95122494Y-132274580D02*
X95170113Y-132322200D01*
X95170113Y-132322200D02*
X95122494Y-132369819D01*
X95122494Y-132369819D02*
X95074875Y-132322200D01*
X95074875Y-132322200D02*
X95122494Y-132274580D01*
X95122494Y-132274580D02*
X95122494Y-132369819D01*
X95122494Y-131750771D02*
X95170113Y-131798390D01*
X95170113Y-131798390D02*
X95122494Y-131846009D01*
X95122494Y-131846009D02*
X95074875Y-131798390D01*
X95074875Y-131798390D02*
X95122494Y-131750771D01*
X95122494Y-131750771D02*
X95122494Y-131846009D01*
X96932017Y-132274580D02*
X96884398Y-132322200D01*
X96884398Y-132322200D02*
X96741541Y-132369819D01*
X96741541Y-132369819D02*
X96646303Y-132369819D01*
X96646303Y-132369819D02*
X96503446Y-132322200D01*
X96503446Y-132322200D02*
X96408208Y-132226961D01*
X96408208Y-132226961D02*
X96360589Y-132131723D01*
X96360589Y-132131723D02*
X96312970Y-131941247D01*
X96312970Y-131941247D02*
X96312970Y-131798390D01*
X96312970Y-131798390D02*
X96360589Y-131607914D01*
X96360589Y-131607914D02*
X96408208Y-131512676D01*
X96408208Y-131512676D02*
X96503446Y-131417438D01*
X96503446Y-131417438D02*
X96646303Y-131369819D01*
X96646303Y-131369819D02*
X96741541Y-131369819D01*
X96741541Y-131369819D02*
X96884398Y-131417438D01*
X96884398Y-131417438D02*
X96932017Y-131465057D01*
X97360589Y-131846009D02*
X97693922Y-131846009D01*
X97836779Y-132369819D02*
X97360589Y-132369819D01*
X97360589Y-132369819D02*
X97360589Y-131369819D01*
X97360589Y-131369819D02*
X97836779Y-131369819D01*
X98836779Y-132369819D02*
X98503446Y-131893628D01*
X98265351Y-132369819D02*
X98265351Y-131369819D01*
X98265351Y-131369819D02*
X98646303Y-131369819D01*
X98646303Y-131369819D02*
X98741541Y-131417438D01*
X98741541Y-131417438D02*
X98789160Y-131465057D01*
X98789160Y-131465057D02*
X98836779Y-131560295D01*
X98836779Y-131560295D02*
X98836779Y-131703152D01*
X98836779Y-131703152D02*
X98789160Y-131798390D01*
X98789160Y-131798390D02*
X98741541Y-131846009D01*
X98741541Y-131846009D02*
X98646303Y-131893628D01*
X98646303Y-131893628D02*
X98265351Y-131893628D01*
X99265351Y-132369819D02*
X99265351Y-131369819D01*
X99265351Y-131369819D02*
X99836779Y-132369819D01*
X99836779Y-132369819D02*
X99836779Y-131369819D01*
X100312970Y-131988866D02*
X101074875Y-131988866D01*
X101741541Y-131369819D02*
X101932017Y-131369819D01*
X101932017Y-131369819D02*
X102027255Y-131417438D01*
X102027255Y-131417438D02*
X102122493Y-131512676D01*
X102122493Y-131512676D02*
X102170112Y-131703152D01*
X102170112Y-131703152D02*
X102170112Y-132036485D01*
X102170112Y-132036485D02*
X102122493Y-132226961D01*
X102122493Y-132226961D02*
X102027255Y-132322200D01*
X102027255Y-132322200D02*
X101932017Y-132369819D01*
X101932017Y-132369819D02*
X101741541Y-132369819D01*
X101741541Y-132369819D02*
X101646303Y-132322200D01*
X101646303Y-132322200D02*
X101551065Y-132226961D01*
X101551065Y-132226961D02*
X101503446Y-132036485D01*
X101503446Y-132036485D02*
X101503446Y-131703152D01*
X101503446Y-131703152D02*
X101551065Y-131512676D01*
X101551065Y-131512676D02*
X101646303Y-131417438D01*
X101646303Y-131417438D02*
X101741541Y-131369819D01*
X102598684Y-132369819D02*
X102598684Y-131369819D01*
X102598684Y-131846009D02*
X103170112Y-131846009D01*
X103170112Y-132369819D02*
X103170112Y-131369819D01*
X104122493Y-132369819D02*
X103646303Y-132369819D01*
X103646303Y-132369819D02*
X103646303Y-131369819D01*
X104455827Y-131988866D02*
X105217732Y-131988866D01*
X105646303Y-132322200D02*
X105789160Y-132369819D01*
X105789160Y-132369819D02*
X106027255Y-132369819D01*
X106027255Y-132369819D02*
X106122493Y-132322200D01*
X106122493Y-132322200D02*
X106170112Y-132274580D01*
X106170112Y-132274580D02*
X106217731Y-132179342D01*
X106217731Y-132179342D02*
X106217731Y-132084104D01*
X106217731Y-132084104D02*
X106170112Y-131988866D01*
X106170112Y-131988866D02*
X106122493Y-131941247D01*
X106122493Y-131941247D02*
X106027255Y-131893628D01*
X106027255Y-131893628D02*
X105836779Y-131846009D01*
X105836779Y-131846009D02*
X105741541Y-131798390D01*
X105741541Y-131798390D02*
X105693922Y-131750771D01*
X105693922Y-131750771D02*
X105646303Y-131655533D01*
X105646303Y-131655533D02*
X105646303Y-131560295D01*
X105646303Y-131560295D02*
X105693922Y-131465057D01*
X105693922Y-131465057D02*
X105741541Y-131417438D01*
X105741541Y-131417438D02*
X105836779Y-131369819D01*
X105836779Y-131369819D02*
X106074874Y-131369819D01*
X106074874Y-131369819D02*
X106217731Y-131417438D01*
X106646303Y-131988866D02*
X107408208Y-131988866D01*
X107836779Y-131465057D02*
X107884398Y-131417438D01*
X107884398Y-131417438D02*
X107979636Y-131369819D01*
X107979636Y-131369819D02*
X108217731Y-131369819D01*
X108217731Y-131369819D02*
X108312969Y-131417438D01*
X108312969Y-131417438D02*
X108360588Y-131465057D01*
X108360588Y-131465057D02*
X108408207Y-131560295D01*
X108408207Y-131560295D02*
X108408207Y-131655533D01*
X108408207Y-131655533D02*
X108360588Y-131798390D01*
X108360588Y-131798390D02*
X107789160Y-132369819D01*
X107789160Y-132369819D02*
X108408207Y-132369819D01*
X108836779Y-132274580D02*
X108884398Y-132322200D01*
X108884398Y-132322200D02*
X108836779Y-132369819D01*
X108836779Y-132369819D02*
X108789160Y-132322200D01*
X108789160Y-132322200D02*
X108836779Y-132274580D01*
X108836779Y-132274580D02*
X108836779Y-132369819D01*
X109503445Y-131369819D02*
X109598683Y-131369819D01*
X109598683Y-131369819D02*
X109693921Y-131417438D01*
X109693921Y-131417438D02*
X109741540Y-131465057D01*
X109741540Y-131465057D02*
X109789159Y-131560295D01*
X109789159Y-131560295D02*
X109836778Y-131750771D01*
X109836778Y-131750771D02*
X109836778Y-131988866D01*
X109836778Y-131988866D02*
X109789159Y-132179342D01*
X109789159Y-132179342D02*
X109741540Y-132274580D01*
X109741540Y-132274580D02*
X109693921Y-132322200D01*
X109693921Y-132322200D02*
X109598683Y-132369819D01*
X109598683Y-132369819D02*
X109503445Y-132369819D01*
X109503445Y-132369819D02*
X109408207Y-132322200D01*
X109408207Y-132322200D02*
X109360588Y-132274580D01*
X109360588Y-132274580D02*
X109312969Y-132179342D01*
X109312969Y-132179342D02*
X109265350Y-131988866D01*
X109265350Y-131988866D02*
X109265350Y-131750771D01*
X109265350Y-131750771D02*
X109312969Y-131560295D01*
X109312969Y-131560295D02*
X109360588Y-131465057D01*
X109360588Y-131465057D02*
X109408207Y-131417438D01*
X109408207Y-131417438D02*
X109503445Y-131369819D01*
X70246666Y-131954819D02*
X70246666Y-132669104D01*
X70246666Y-132669104D02*
X70199047Y-132811961D01*
X70199047Y-132811961D02*
X70103809Y-132907200D01*
X70103809Y-132907200D02*
X69960952Y-132954819D01*
X69960952Y-132954819D02*
X69865714Y-132954819D01*
X70675238Y-132050057D02*
X70722857Y-132002438D01*
X70722857Y-132002438D02*
X70818095Y-131954819D01*
X70818095Y-131954819D02*
X71056190Y-131954819D01*
X71056190Y-131954819D02*
X71151428Y-132002438D01*
X71151428Y-132002438D02*
X71199047Y-132050057D01*
X71199047Y-132050057D02*
X71246666Y-132145295D01*
X71246666Y-132145295D02*
X71246666Y-132240533D01*
X71246666Y-132240533D02*
X71199047Y-132383390D01*
X71199047Y-132383390D02*
X70627619Y-132954819D01*
X70627619Y-132954819D02*
X71246666Y-132954819D01*
%TO.C,J2*%
D12*
X65330000Y-120210000D02*
X136710000Y-120210000D01*
X65330000Y-129330000D02*
X65330000Y-120210000D01*
X66630000Y-121520000D02*
X135410000Y-121520000D01*
X66630000Y-128020000D02*
X66630000Y-121520000D01*
X70040000Y-130720000D02*
X71040000Y-130720000D01*
X70540000Y-129720000D02*
X70040000Y-130720000D01*
X71040000Y-130720000D02*
X70540000Y-129720000D01*
X98970000Y-128020000D02*
X66630000Y-128020000D01*
X98970000Y-129330000D02*
X98970000Y-128020000D01*
X103070000Y-128020000D02*
X103070000Y-129330000D01*
X135410000Y-121520000D02*
X135410000Y-128020000D01*
X135410000Y-128020000D02*
X103070000Y-128020000D01*
X136710000Y-120210000D02*
X136710000Y-129330000D01*
X136710000Y-129330000D02*
X65330000Y-129330000D01*
%TD*%
M02*
