%TF.GenerationSoftware,KiCad,Pcbnew,10.0.3*%
%TF.CreationDate,2026-06-03T00:01:13+02:00*%
%TF.ProjectId,dataflyer-2650,64617461-666c-4796-9572-2d323635302e,1.1*%
%TF.SameCoordinates,Original*%
%TF.FileFunction,Soldermask,Bot*%
%TF.FilePolarity,Negative*%
%FSLAX46Y46*%
G04 Gerber Fmt 4.6, Leading zero omitted, Abs format (unit mm)*
G04 Created by KiCad (PCBNEW 10.0.3) date 2026-06-03 00:01:13*
%MOMM*%
%LPD*%
G01*
G04 APERTURE LIST*
G04 Aperture macros list*
%AMRoundRect*
0 Rectangle with rounded corners*
0 $1 Rounding radius*
0 $2 $3 $4 $5 $6 $7 $8 $9 X,Y pos of 4 corners*
0 Add a 4 corners polygon primitive as box body*
4,1,4,$2,$3,$4,$5,$6,$7,$8,$9,$2,$3,0*
0 Add four circle primitives for the rounded corners*
1,1,$1+$1,$2,$3*
1,1,$1+$1,$4,$5*
1,1,$1+$1,$6,$7*
1,1,$1+$1,$8,$9*
0 Add four rect primitives between the rounded corners*
20,1,$1+$1,$2,$3,$4,$5,0*
20,1,$1+$1,$4,$5,$6,$7,0*
20,1,$1+$1,$6,$7,$8,$9,0*
20,1,$1+$1,$8,$9,$2,$3,0*%
G04 Aperture macros list end*
%ADD10RoundRect,0.250000X0.600000X-0.600000X0.600000X0.600000X-0.600000X0.600000X-0.600000X-0.600000X0*%
%ADD11C,1.700000*%
%ADD12R,1.700000X1.700000*%
G04 APERTURE END LIST*
D10*
%TO.C,J2*%
X70540000Y-126040000D03*
D11*
X70540000Y-123500000D03*
X73080000Y-126040000D03*
X73080000Y-123500000D03*
X75620000Y-126040000D03*
X75620000Y-123500000D03*
X78160000Y-126040000D03*
X78160000Y-123500000D03*
X80700000Y-126040000D03*
X80700000Y-123500000D03*
X83240000Y-126040000D03*
X83240000Y-123500000D03*
X85780000Y-126040000D03*
X85780000Y-123500000D03*
X88320000Y-126040000D03*
X88320000Y-123500000D03*
X90860000Y-126040000D03*
X90860000Y-123500000D03*
X93400000Y-126040000D03*
X93400000Y-123500000D03*
X95940000Y-126040000D03*
X95940000Y-123500000D03*
X98480000Y-126040000D03*
X98480000Y-123500000D03*
X101020000Y-126040000D03*
X101020000Y-123500000D03*
X103560000Y-126040000D03*
X103560000Y-123500000D03*
X106100000Y-126040000D03*
X106100000Y-123500000D03*
X108640000Y-126040000D03*
X108640000Y-123500000D03*
X111180000Y-126040000D03*
X111180000Y-123500000D03*
X113720000Y-126040000D03*
X113720000Y-123500000D03*
X116260000Y-126040000D03*
X116260000Y-123500000D03*
X118800000Y-126040000D03*
X118800000Y-123500000D03*
X121340000Y-126040000D03*
X121340000Y-123500000D03*
X123880000Y-126040000D03*
X123880000Y-123500000D03*
X126420000Y-126040000D03*
X126420000Y-123500000D03*
X128960000Y-126040000D03*
X128960000Y-123500000D03*
X131500000Y-126040000D03*
X131500000Y-123500000D03*
%TD*%
D12*
%TO.C,J1*%
X135540000Y-105500000D03*
D11*
X135540000Y-108040000D03*
X133000000Y-105500000D03*
X133000000Y-108040000D03*
X130460000Y-105500000D03*
X130460000Y-108040000D03*
X127920000Y-105500000D03*
X127920000Y-108040000D03*
X125380000Y-105500000D03*
X125380000Y-108040000D03*
X122840000Y-105500000D03*
X122840000Y-108040000D03*
X120300000Y-105500000D03*
X120300000Y-108040000D03*
X117760000Y-105500000D03*
X117760000Y-108040000D03*
X115220000Y-105500000D03*
X115220000Y-108040000D03*
X112680000Y-105500000D03*
X112680000Y-108040000D03*
X110140000Y-105500000D03*
X110140000Y-108040000D03*
X107600000Y-105500000D03*
X107600000Y-108040000D03*
X105060000Y-105500000D03*
X105060000Y-108040000D03*
%TD*%
M02*
