M48
; DRILL file KiCad 10.0.3 date 2026-06-03T00:01:52
; FORMAT={-:-/ absolute / metric / decimal}
; #@! TF.CreationDate,2026-06-03T00:01:52+02:00
; #@! TF.GenerationSoftware,Kicad,Pcbnew,10.0.3
; #@! TF.FileFunction,MixedPlating,1,2
FMAT,2
METRIC
; #@! TA.AperFunction,Plated,PTH,ViaDrill
T1C0.400
; #@! TA.AperFunction,Plated,PTH,ComponentDrill
T2C1.000
%
G90
G05
T1
X124.691Y-121.239
T2
X70.54Y-123.5
X70.54Y-126.04
X73.08Y-123.5
X73.08Y-126.04
X75.62Y-123.5
X75.62Y-126.04
X78.16Y-123.5
X78.16Y-126.04
X80.7Y-123.5
X80.7Y-126.04
X83.24Y-123.5
X83.24Y-126.04
X85.78Y-123.5
X85.78Y-126.04
X88.32Y-123.5
X88.32Y-126.04
X90.86Y-123.5
X90.86Y-126.04
X93.4Y-123.5
X93.4Y-126.04
X95.94Y-123.5
X95.94Y-126.04
X98.48Y-123.5
X98.48Y-126.04
X101.02Y-123.5
X101.02Y-126.04
X103.56Y-123.5
X103.56Y-126.04
X105.06Y-105.5
X105.06Y-108.04
X106.1Y-123.5
X106.1Y-126.04
X107.6Y-105.5
X107.6Y-108.04
X108.64Y-123.5
X108.64Y-126.04
X110.14Y-105.5
X110.14Y-108.04
X111.18Y-123.5
X111.18Y-126.04
X112.68Y-105.5
X112.68Y-108.04
X113.72Y-123.5
X113.72Y-126.04
X115.22Y-105.5
X115.22Y-108.04
X116.26Y-123.5
X116.26Y-126.04
X117.76Y-105.5
X117.76Y-108.04
X118.8Y-123.5
X118.8Y-126.04
X120.3Y-105.5
X120.3Y-108.04
X121.34Y-123.5
X121.34Y-126.04
X122.84Y-105.5
X122.84Y-108.04
X123.88Y-123.5
X123.88Y-126.04
X125.38Y-105.5
X125.38Y-108.04
X126.42Y-123.5
X126.42Y-126.04
X127.92Y-105.5
X127.92Y-108.04
X128.96Y-123.5
X128.96Y-126.04
X130.46Y-105.5
X130.46Y-108.04
X131.5Y-123.5
X131.5Y-126.04
X133.0Y-105.5
X133.0Y-108.04
X135.54Y-105.5
X135.54Y-108.04
M30
