%TF.GenerationSoftware,KiCad,Pcbnew,10.0.3*%
%TF.CreationDate,2026-06-11T18:02:48+02:00*%
%TF.ProjectId,dataflyer-2650,64617461-666c-4796-9572-2d323635302e,1.4*%
%TF.SameCoordinates,Original*%
%TF.FileFunction,Soldermask,Bot*%
%TF.FilePolarity,Negative*%
%FSLAX46Y46*%
G04 Gerber Fmt 4.6, Leading zero omitted, Abs format (unit mm)*
G04 Created by KiCad (PCBNEW 10.0.3) date 2026-06-11 18:02:48*
%MOMM*%
%LPD*%
G01*
G04 APERTURE LIST*
G04 Aperture macros list*
%AMRoundRect*
0 Rectangle with rounded corners*
0 $1 Rounding radius*
0 $2 $3 $4 $5 $6 $7 $8 $9 X,Y pos of 4 corners*
0 Add a 4 corners polygon primitive as box body*
4,1,4,$2,$3,$4,$5,$6,$7,$8,$9,$2,$3,0*
0 Add four circle primitives for the rounded corners*
1,1,$1+$1,$2,$3*
1,1,$1+$1,$4,$5*
1,1,$1+$1,$6,$7*
1,1,$1+$1,$8,$9*
0 Add four rect primitives between the rounded corners*
20,1,$1+$1,$2,$3,$4,$5,0*
20,1,$1+$1,$4,$5,$6,$7,0*
20,1,$1+$1,$6,$7,$8,$9,0*
20,1,$1+$1,$8,$9,$2,$3,0*%
G04 Aperture macros list end*
%ADD10RoundRect,0.250000X0.600000X-0.600000X0.600000X0.600000X-0.600000X0.600000X-0.600000X-0.600000X0*%
%ADD11C,1.700000*%
%ADD12R,1.700000X1.700000*%
G04 APERTURE END LIST*
D10*
%TO.C,J2*%
X102362000Y-100634800D03*
D11*
X102362000Y-98094800D03*
X104902000Y-100634800D03*
X104902000Y-98094800D03*
X107442000Y-100634800D03*
X107442000Y-98094800D03*
X109982000Y-100634800D03*
X109982000Y-98094800D03*
X112522000Y-100634800D03*
X112522000Y-98094800D03*
X115062000Y-100634800D03*
X115062000Y-98094800D03*
X117602000Y-100634800D03*
X117602000Y-98094800D03*
X120142000Y-100634800D03*
X120142000Y-98094800D03*
X122682000Y-100634800D03*
X122682000Y-98094800D03*
X125222000Y-100634800D03*
X125222000Y-98094800D03*
X127762000Y-100634800D03*
X127762000Y-98094800D03*
X130302000Y-100634800D03*
X130302000Y-98094800D03*
X132842000Y-100634800D03*
X132842000Y-98094800D03*
X135382000Y-100634800D03*
X135382000Y-98094800D03*
X137922000Y-100634800D03*
X137922000Y-98094800D03*
X140462000Y-100634800D03*
X140462000Y-98094800D03*
X143002000Y-100634800D03*
X143002000Y-98094800D03*
X145542000Y-100634800D03*
X145542000Y-98094800D03*
X148082000Y-100634800D03*
X148082000Y-98094800D03*
X150622000Y-100634800D03*
X150622000Y-98094800D03*
X153162000Y-100634800D03*
X153162000Y-98094800D03*
X155702000Y-100634800D03*
X155702000Y-98094800D03*
X158242000Y-100634800D03*
X158242000Y-98094800D03*
X160782000Y-100634800D03*
X160782000Y-98094800D03*
X163322000Y-100634800D03*
X163322000Y-98094800D03*
%TD*%
D12*
%TO.C,J1*%
X131763432Y-115772079D03*
D11*
X131763432Y-113232079D03*
X134303432Y-115772079D03*
X134303432Y-113232079D03*
X136843432Y-115772079D03*
X136843432Y-113232079D03*
X139383432Y-115772079D03*
X139383432Y-113232079D03*
X141923432Y-115772079D03*
X141923432Y-113232079D03*
X144463432Y-115772079D03*
X144463432Y-113232079D03*
X147003432Y-115772079D03*
X147003432Y-113232079D03*
X149543432Y-115772079D03*
X149543432Y-113232079D03*
X152083432Y-115772079D03*
X152083432Y-113232079D03*
X154623432Y-115772079D03*
X154623432Y-113232079D03*
X157163432Y-115772079D03*
X157163432Y-113232079D03*
X159703432Y-115772079D03*
X159703432Y-113232079D03*
X162243432Y-115772079D03*
X162243432Y-113232079D03*
%TD*%
M02*
