M48
; DRILL file KiCad 10.0.3 date 2026-06-11T18:02:51
; FORMAT={-:-/ absolute / metric / decimal}
; #@! TF.CreationDate,2026-06-11T18:02:51+02:00
; #@! TF.GenerationSoftware,Kicad,Pcbnew,10.0.3
; #@! TF.FileFunction,MixedPlating,1,2
FMAT,2
METRIC
; #@! TA.AperFunction,Plated,PTH,ViaDrill
T1C0.400
; #@! TA.AperFunction,Plated,PTH,ComponentDrill
T2C1.000
%
G90
G05
T1
X100.0Y-97.0
X100.0Y-99.5
X106.0Y-95.5
X109.0Y-95.5
X113.0Y-95.0
X115.5Y-95.5
X118.5Y-96.0
X119.5Y-109.5
X121.5Y-96.5
X130.5Y-102.5
X133.0Y-102.5
X133.0Y-106.0
X133.0Y-108.0
X133.0Y-109.5
X133.0Y-111.5
X134.5Y-108.0
X135.5Y-111.5
X137.0Y-109.0
X138.208Y-111.792
X138.5Y-109.5
X138.5Y-117.5
X139.5Y-111.5
X140.0Y-104.5
X140.0Y-106.0
X140.5Y-117.5
X141.0Y-109.5
X141.0Y-110.5
X143.0Y-104.5
X143.0Y-111.5
X144.227Y-102.773
X144.5Y-117.5
X146.0Y-103.0
X147.0Y-117.5
X147.225Y-105.994
X147.492Y-106.957
X147.492Y-107.983
X147.5Y-103.0
X147.5Y-109.5
X147.5Y-110.5
X149.475Y-106.0
X150.0Y-118.0
X151.0Y-108.5
X151.0Y-110.5
X151.5Y-106.0
X153.5Y-110.5
X153.5Y-118.0
X155.5Y-106.0
X156.0Y-104.0
X156.0Y-118.0
X157.0Y-106.0
X157.0Y-110.5
X158.0Y-102.5
X158.0Y-117.5
X159.703Y-106.725
X159.703Y-109.275
X160.5Y-102.5
X161.0Y-109.225
X161.5Y-106.5
X162.5Y-110.5
X163.5Y-102.5
X166.0Y-109.5
X166.5Y-97.5
X166.5Y-102.5
X166.5Y-105.5
X166.5Y-116.5
X167.987Y-106.775
X167.987Y-94.013
X168.0Y-109.225
X168.5Y-95.0
X168.987Y-106.775
X169.0Y-109.0
X169.5Y-116.5
X169.724Y-93.965
X171.0Y-97.5
X171.175Y-95.0
X172.0Y-116.5
X173.0Y-97.5
T2
X102.362Y-98.095
X102.362Y-100.635
X104.902Y-98.095
X104.902Y-100.635
X107.442Y-98.095
X107.442Y-100.635
X109.982Y-98.095
X109.982Y-100.635
X112.522Y-98.095
X112.522Y-100.635
X115.062Y-98.095
X115.062Y-100.635
X117.602Y-98.095
X117.602Y-100.635
X120.142Y-98.095
X120.142Y-100.635
X122.682Y-98.095
X122.682Y-100.635
X125.222Y-98.095
X125.222Y-100.635
X127.762Y-98.095
X127.762Y-100.635
X130.302Y-98.095
X130.302Y-100.635
X131.763Y-113.232
X131.763Y-115.772
X132.842Y-98.095
X132.842Y-100.635
X134.303Y-113.232
X134.303Y-115.772
X135.382Y-98.095
X135.382Y-100.635
X136.843Y-113.232
X136.843Y-115.772
X137.922Y-98.095
X137.922Y-100.635
X139.383Y-113.232
X139.383Y-115.772
X140.462Y-98.095
X140.462Y-100.635
X141.923Y-113.232
X141.923Y-115.772
X143.002Y-98.095
X143.002Y-100.635
X144.463Y-113.232
X144.463Y-115.772
X145.542Y-98.095
X145.542Y-100.635
X147.003Y-113.232
X147.003Y-115.772
X148.082Y-98.095
X148.082Y-100.635
X149.543Y-113.232
X149.543Y-115.772
X150.622Y-98.095
X150.622Y-100.635
X152.083Y-113.232
X152.083Y-115.772
X153.162Y-98.095
X153.162Y-100.635
X154.623Y-113.232
X154.623Y-115.772
X155.702Y-98.095
X155.702Y-100.635
X157.163Y-113.232
X157.163Y-115.772
X158.242Y-98.095
X158.242Y-100.635
X159.703Y-113.232
X159.703Y-115.772
X160.782Y-98.095
X160.782Y-100.635
X162.243Y-113.232
X162.243Y-115.772
X163.322Y-98.095
X163.322Y-100.635
M30
